<?xml version="1.0" encoding="UTF-8"?><svg id="Capa_1" xmlns="http://www.w3.org/2000/svg" viewBox="0 0 1080 1080"><defs><style>.cls-1{fill:#f24e29;}.cls-1,.cls-2,.cls-3{stroke-width:0px;}.cls-2{fill:#1ed9d9;}.cls-3{fill:#f2f2f2;}</style></defs><polygon class="cls-2" points="1080 417.66 0 417.66 109.46 540 0 662.34 1080 662.34 970.54 540 1080 417.66"/><path class="cls-1" d="m867.91,560.38c17.98-4.71,31.27-21.03,31.27-40.49,0-20.51-14.74-37.55-34.2-41.17,11.88-7.4,19.81-20.54,19.81-35.56,0-23.05-18.61-41.74-41.63-41.89,6.23-7.31,10.01-16.78,10.01-27.14,0-23.14-18.76-41.9-41.9-41.9-2.97,0-5.86.32-8.65.91,2.59-5.45,4.08-11.51,4.08-17.94,0-23.14-18.76-41.9-41.9-41.9-6.43,0-12.5,1.49-17.94,4.08.58-2.79.9-5.68.9-8.65,0-23.14-18.76-41.9-41.9-41.9-10.36,0-19.82,3.78-27.14,10.01-.15-23.01-18.84-41.63-41.89-41.63-15.02,0-28.16,7.93-35.56,19.81-3.62-19.46-20.66-34.2-41.16-34.2s-35.78,13.29-40.49,31.27c-6.17-15.45-21.24-26.38-38.9-26.38-21.7,0-39.54,16.49-41.69,37.62-7.68-8.76-18.92-14.32-31.49-14.32-23.14,0-41.9,18.76-41.9,41.9,0,1.38.07,2.74.2,4.09-6.52-4.19-14.26-6.64-22.58-6.64-23.14,0-41.9,18.76-41.9,41.9,0,4.65.79,9.11,2.19,13.29-4.18-1.4-8.64-2.19-13.29-2.19-23.14,0-41.9,18.76-41.9,41.9,0,8.32,2.46,16.06,6.65,22.59-1.35-.13-2.71-.21-4.09-.21-23.14,0-41.9,18.76-41.9,41.9,0,12.56,5.56,23.81,14.32,31.49-21.13,2.14-37.62,19.99-37.62,41.69,0,17.65,10.93,32.73,26.38,38.9-17.98,4.71-31.27,21.03-31.27,40.49,0,20.51,14.74,37.55,34.2,41.16-11.88,7.4-19.81,20.54-19.81,35.56,0,23.05,18.61,41.74,41.63,41.89-6.23,7.31-10.01,16.78-10.01,27.14,0,23.14,18.76,41.9,41.9,41.9,2.97,0,5.86-.32,8.65-.91-2.59,5.45-4.08,11.51-4.08,17.94,0,23.14,18.76,41.9,41.9,41.9,6.43,0,12.5-1.49,17.94-4.08-.59,2.79-.9,5.68-.9,8.65,0,23.14,18.76,41.9,41.9,41.9,10.36,0,19.82-3.78,27.14-10.01.15,23.02,18.84,41.63,41.89,41.63,15.02,0,28.16-7.93,35.56-19.82,3.62,19.46,20.66,34.21,41.16,34.21s35.78-13.29,40.49-31.27c6.17,15.45,21.25,26.38,38.9,26.38,21.7,0,39.54-16.49,41.69-37.62,7.68,8.76,18.92,14.32,31.49,14.32,23.14,0,41.9-18.76,41.9-41.9,0-1.38-.08-2.74-.21-4.09,6.52,4.19,14.26,6.64,22.59,6.64,23.14,0,41.9-18.76,41.9-41.9,0-4.65-.79-9.11-2.19-13.29,4.18,1.4,8.64,2.19,13.29,2.19,23.14,0,41.9-18.76,41.9-41.9,0-8.32-2.46-16.06-6.64-22.59,1.34.13,2.71.21,4.09.21,23.14,0,41.91-18.76,41.91-41.9,0-12.56-5.56-23.81-14.32-31.49,21.13-2.14,37.62-19.99,37.62-41.69,0-17.65-10.93-32.73-26.38-38.9Z"/><path class="cls-3" d="m540,281.95c142.29,0,258.05,115.76,258.05,258.05s-115.76,258.05-258.05,258.05-258.05-115.76-258.05-258.05,115.76-258.05,258.05-258.05h0Zm0-15.68c-151.17,0-273.73,122.55-273.73,273.73s122.55,273.73,273.73,273.73,273.73-122.55,273.73-273.73-122.55-273.73-273.73-273.73h0Z"/></svg>