<?xml version="1.0" encoding="UTF-8"?><svg id="Capa_2" xmlns="http://www.w3.org/2000/svg" viewBox="0 0 1080 1080"><defs><style>.cls-1{fill:#f24e29;}.cls-1,.cls-2,.cls-3,.cls-4,.cls-5{stroke-width:0px;}.cls-2{fill:#1ed9d9;}.cls-3{fill:#0f3240;}.cls-4{fill:#0597f2;}.cls-5{fill:#34d6d2;}</style></defs><path class="cls-4" d="m325.15,567.66v78.29c-.18,0-.37.02-.55.02-17.35-.45-34.77-.24-51.96-2.77-38.17-5.97-75.05-19.81-113.41-25.21-5.8-.87-11.7-1.75-17.22-3.76-16.89-6.01-28.62-22.08-28.26-40.66-.03-23.47,20.64-43.56,44.04-41.77,21.48,2.34,40.8,13.09,61.38,19.17,26.41,8.5,53.4,13.56,80.92,15.79,8.31.65,16.71,1.27,25.06.92Z"/><path class="cls-3" d="m764.9,348.53l-.17.23c-3.67,5.4-10.27,7.06-16.45,7.92-20.02,2.97-38.4,10.42-55.11,21.43-78.47,56.22-140.19,131.38-208.63,198.71-43.71,41.73-98.93,67.08-159.39,69.14v-78.29c3.24-.14,6.48-.42,9.69-.9,61.98-8.29,95.24-46.68,136.53-88.78,49.56-48.61,94.64-102.77,151.31-143.39,37.87-27.16,77.62-52.29,110.44-85.7,8.64-8.65,16.57-17.58,23.89-27.1,5.05-5.35,12.69-21.06,19.71-18.12,3.3,1.81,4.78,7.36,5.52,11.29.91,4.51,1.69,9.06,2.29,13.68,4.77,40.98-.51,83.2-19.63,119.89Z"/><path class="cls-3" d="m761.2,692.7c3.49.53,5.24,4.52,3.26,7.45-55.06,81.45-128.93,128.8-228.87,128.73-99.57-.07-171.46-45.76-225.83-127.59-1.88-2.83-.3-6.68,3.03-7.35,8.36-1.67,15.51-3.16,23.32-4.65,17.97-3.42,35.9-7.17,53.64-11.6,6.01-1.5,9.62-1.16,14.12,3.64,19.51,20.82,41.04,39.48,67.81,50.22,66.22,26.58,126.11,14.54,179.7-31.61,7.97-6.86,14.29-11.62,21.8-17.65,1.01-.81,2.29-1.18,3.58-1.03,9.2,1.14,20.13,2.59,30.92,3.89,17.47,2.1,34.66,4.72,53.52,7.55Z"/><path class="cls-2" d="m423.24,33.94c55.86.09,100.46,44.4,100.44,99.8-.02,57.78-44.97,102.38-103.44,102.64-54.67.24-98.98-46.08-100.12-102.11-1.1-54.31,45.75-100.96,103.12-100.32Z"/><path class="cls-1" d="m553.11,133.08c.77-57.05,45.62-100.58,102.55-99.51,55.14,1.03,100.4,46.85,99.23,100.45-1.26,57.89-46.49,103.05-102.11,101.95-56.75-1.12-100.44-46.21-99.68-102.88Z"/><path class="cls-5" d="m588.79,577.19c.46,1.18.99,2.35,1.56,3.48-.58-1.12-1.09-2.29-1.56-3.48Z"/><path class="cls-5" d="m604.03,596.18c-.58-.39-1.15-.79-1.69-1.21-2.47-1.86-4.75-4-6.75-6.37,2.01,2.35,4.27,4.5,6.75,6.36.54.42,1.11.82,1.69,1.23Z"/><path class="cls-4" d="m1022.7,424.64c-46.81,7.19-91.16,23.95-137.04,40.2-40,14.17-82.11,27.82-122.72,40.05-13.24,2.5-28.16,3.2-42.09,1.97-18.4-1.63-33.72-18.78-34.98-36-1.68-22.82,7.93-36.33,28.42-42.21,11.27-3.24,22.69-4.89,34.93-7.39,31.78-5.72,63.14-11.49,93.43-22.21,30.94-10.95,61.08-24.47,92.49-33.73,27.92-8.22,56.91-13.55,85.79-17.57,29.02-4.04,51.63,15.21,52.21,41.22.01,16.44-15.22,32.14-29.31,33.02-2.89.18-18.23,2.63-21.13,2.64Z"/><path class="cls-4" d="m338.33,508.02c-31.76-.7-59.41-11.81-87.18-21.88-41.74-15.14-83.01-31.56-124.73-46.71-21.66-7.87-44.05-11.01-67.41-8.03-24.83,3.17-41.05-5.93-49.02-25.17-8.5-20.52.88-45.59,21.71-53.11,10.49-3.79,22.59-5.29,33.76-4.62,55.93,3.37,106.33,26.36,157.9,45.45,26.48,9.8,53.74,17.8,81.11,24.8,13.19,3.37,27.28,6.86,41.22,9.44,21.35,2.85,31.84,1.89,40.43,16.58,15.43,26.39-.92,57.66-31.95,62.29-5.7.85-11.55.73-15.84.97Z"/><path class="cls-3" d="m451.72,423.66c-1.68,1.67-4.31,1.85-6.22.45-22.21-16.35-43.48-32.92-65.88-47.79-18.13-12.04-38.73-18.77-60.89-19.77-2.68-.12-6.65-1.88-7.66-4-20.72-43.35-26.76-87.91-17.75-135.13,1.59-8.31,12.41-10.48,17.26-3.55,20.01,28.62,45.69,50.41,72.45,70.93,23.99,18.4,49.48,34.84,74.03,52.53,14.15,10.2,27.9,20.97,41.93,31.68,2.31,1.76,2.53,5.17.47,7.22-16.64,16.53-32.57,32.37-47.73,47.44Z"/><path class="cls-3" d="m967.31,481.74c5.95-6.18,11.65-12.09,16.68-17.3,1.81-1.88,4.79-1.96,6.69-.18,5.66,5.29,11.5,10.74,17.26,16.13,2.01,1.88,2.03,5.06.03,6.95-5.51,5.21-11.4,10.78-17.58,16.63-1.84,1.74-4.72,1.75-6.56,0-5.16-4.87-10.87-10.26-16.37-15.45-1.93-1.82-2-4.87-.15-6.79Z"/><path class="cls-2" d="m100.86,464.59c5.2,5.23,10.58,10.64,16.1,16.21,1.91,1.92,1.85,5.04-.13,6.88-5.42,5.04-11.04,10.27-16.76,15.59-1.99,1.85-5.13,1.67-6.9-.39-4.98-5.82-9.89-11.55-14.66-17.12-1.65-1.93-1.51-4.8.32-6.55,4.49-4.3,9.91-9.51,15.31-14.69,1.88-1.81,4.87-1.77,6.71.08Z"/><path class="cls-3" d="m39.03,1041.71c-9.17-2.66-16.83-6-22.96-10.01-1.95-1.27-2.64-3.81-1.68-5.93l7.66-16.99c1.17-2.6,4.36-3.64,6.79-2.15,5.32,3.27,11.35,6,18.1,8.18,8.72,2.82,17.44,4.22,26.16,4.22,9.7,0,16.88-1.44,21.52-4.33,4.64-2.88,6.96-6.71,6.96-11.5,0-3.51-1.37-6.43-4.11-8.75-2.74-2.32-6.26-4.18-10.55-5.59-4.29-1.4-10.09-2.95-17.4-4.64-11.25-2.67-20.46-5.34-27.63-8.02-7.17-2.67-13.33-6.96-18.46-12.87-5.14-5.91-7.7-13.78-7.7-23.62,0-8.58,2.32-16.35,6.96-23.31,4.64-6.96,11.63-12.48,20.99-16.56,9.35-4.08,20.78-6.12,34.28-6.12,9.42,0,18.63,1.13,27.63,3.38,7.4,1.85,14.05,4.37,19.93,7.55,2.14,1.16,3.04,3.75,2.13,6.01l-6.98,17.18c-1.05,2.59-4.09,3.71-6.59,2.45-12.11-6.09-24.22-9.14-36.33-9.14-9.56,0-16.63,1.55-21.2,4.64-4.57,3.09-6.86,7.17-6.86,12.23s2.64,8.83,7.91,11.29c5.27,2.46,13.32,4.89,24.15,7.28,11.25,2.67,20.46,5.35,27.63,8.02,7.17,2.67,13.32,6.89,18.46,12.66,5.13,5.77,7.7,13.57,7.7,23.42,0,8.44-2.36,16.14-7.07,23.1-4.71,6.96-11.78,12.48-21.2,16.56-9.42,4.08-20.88,6.12-34.38,6.12-11.67,0-22.96-1.58-33.86-4.75Z"/><path class="cls-3" d="m163.7,896.27h24.66c2.63,0,4.76,2.13,4.76,4.76v138.15c0,2.63-2.13,4.76-4.76,4.76h-24.66c-2.63,0-4.76-2.13-4.76-4.76v-138.15c0-2.63,2.13-4.76,4.76-4.76Z"/><path class="cls-3" d="m363.56,901.03v138.14c0,2.63-2.13,4.76-4.76,4.76h-21.04c-1.42,0-2.77-.64-3.68-1.74l-63.75-77.63c-2.84-3.45-8.44-1.45-8.44,3.02v71.59c0,2.63-2.13,4.76-4.76,4.76h-24.23c-2.63,0-4.76-2.13-4.76-4.76v-138.14c0-2.63,2.13-4.76,4.76-4.76h21.25c1.43,0,2.78.64,3.68,1.74l63.53,77.59c2.83,3.46,8.44,1.46,8.44-3.02v-71.56c0-2.63,2.13-4.76,4.76-4.76h24.23c2.63,0,4.76,2.13,4.76,4.76Z"/><path class="cls-3" d="m512.9,1021.29v17.84c0,2.65-2.14,4.79-4.79,4.79h-104.75c-2.65,0-4.79-2.14-4.79-4.79v-138.08c0-2.65,2.14-4.79,4.79-4.79h102.01c2.65,0,4.79,2.14,4.79,4.79v17.84c0,2.65-2.14,4.79-4.79,4.79h-68.05c-2.65,0-4.79,2.14-4.79,4.79v22.48c0,2.65,2.14,4.79,4.79,4.79h58.97c2.65,0,4.79,2.14,4.79,4.79v17c0,2.65-2.14,4.79-4.79,4.79h-58.97c-2.65,0-4.79,2.14-4.79,4.79v24.59c0,2.65,2.14,4.79,4.79,4.79h70.79c2.65,0,4.79,2.14,4.79,4.79Z"/><path class="cls-3" d="m636.69,1043.93c-1.57,0-3.04-.77-3.93-2.06l-27.05-39.07h-26.65c-2.64,0-4.78,2.14-4.78,4.78v31.57c0,2.64-2.14,4.78-4.78,4.78h-24.61c-2.64,0-4.78-2.14-4.78-4.78v-138.09c0-2.64,2.14-4.78,4.78-4.78h59.13c13.08,0,24.43,2.18,34.07,6.54,9.63,4.36,17.05,10.55,22.25,18.56,5.2,8.02,7.8,17.51,7.8,28.48s-2.64,20.43-7.91,28.37c-4.36,6.58-10.25,11.87-17.64,15.9-2.5,1.36-3.26,4.59-1.63,6.92l24.68,35.37c2.21,3.17-.06,7.52-3.92,7.52h-25.03Zm-11.15-113.17c-5.35-4.43-13.15-6.65-23.41-6.65h-23.06c-2.64,0-4.78,2.14-4.78,4.78v41.91c0,2.64,2.14,4.78,4.78,4.78h23.06c10.26,0,18.07-2.25,23.41-6.75,5.34-4.5,8.02-10.83,8.02-18.98s-2.67-14.66-8.02-19.09Z"/><path class="cls-3" d="m799.68,967.78h21.7c2.63,0,4.76,2.13,4.76,4.76v52.72c0,1.52-.71,2.98-1.96,3.86-7.56,5.35-16.19,9.52-25.89,12.49-10.55,3.23-21.17,4.85-31.85,4.85-15.33,0-29.11-3.27-41.34-9.81-12.23-6.54-21.83-15.61-28.79-27.21-6.96-11.6-10.44-24.71-10.44-39.34s3.48-27.74,10.44-39.34c6.96-11.6,16.63-20.67,29-27.21,12.37-6.54,26.29-9.81,41.77-9.81,12.94,0,24.68,2.18,35.23,6.54,8.97,3.71,16.73,8.84,23.26,15.4,1.89,1.9,1.78,5.01-.19,6.82l-15.11,13.94c-1.83,1.69-4.63,1.65-6.47-.03-9.9-9.05-21.58-13.57-35.03-13.57-9.42,0-17.79,1.97-25.1,5.91-7.31,3.94-13.01,9.49-17.09,16.66-4.08,7.17-6.12,15.4-6.12,24.68s2.04,17.3,6.12,24.47c4.08,7.17,9.74,12.76,16.98,16.77,7.24,4.01,15.5,6.01,24.78,6.01,8.7,0,16.63-1.65,23.79-4.94,1.7-.78,2.79-2.48,2.79-4.34v-35.52c0-2.63,2.13-4.76,4.76-4.76Z"/><path class="cls-3" d="m862.56,896.27h24.62c2.64,0,4.78,2.14,4.78,4.78v138.1c0,2.64-2.14,4.78-4.78,4.78h-24.62c-2.64,0-4.78-2.14-4.78-4.78v-138.1c0-2.64,2.14-4.78,4.78-4.78Z"/><path class="cls-3" d="m1021.02,1012.28h-62.17c-1.93,0-3.68,1.17-4.41,2.95l-10.64,25.74c-.74,1.79-2.48,2.95-4.41,2.95h-24.46c-3.46,0-5.77-3.56-4.36-6.72l61.56-138.1c.77-1.72,2.48-2.83,4.36-2.83h27.55c1.88,0,3.59,1.11,4.36,2.83l61.75,138.1c1.41,3.16-.9,6.73-4.36,6.73h-25.3c-1.93,0-3.68-1.17-4.41-2.95l-10.64-25.74c-.74-1.79-2.48-2.95-4.41-2.95Zm-10.3-32.55l-16.27-39.27c-1.63-3.93-7.2-3.93-8.83,0l-16.27,39.27c-1.3,3.15,1.01,6.6,4.41,6.6h32.53c3.4,0,5.72-3.46,4.41-6.6Z"/><path class="cls-3" d="m39.03,1041.71c-9.17-2.66-16.83-6-22.96-10.01-1.95-1.27-2.64-3.81-1.68-5.93l7.66-16.99c1.17-2.6,4.36-3.64,6.79-2.15,5.32,3.27,11.35,6,18.1,8.18,8.72,2.82,17.44,4.22,26.16,4.22,9.7,0,16.88-1.44,21.52-4.33,4.64-2.88,6.96-6.71,6.96-11.5,0-3.51-1.37-6.43-4.11-8.75-2.74-2.32-6.26-4.18-10.55-5.59-4.29-1.4-10.09-2.95-17.4-4.64-11.25-2.67-20.46-5.34-27.63-8.02-7.17-2.67-13.33-6.96-18.46-12.87-5.14-5.91-7.7-13.78-7.7-23.62,0-8.58,2.32-16.35,6.96-23.31,4.64-6.96,11.63-12.48,20.99-16.56,9.35-4.08,20.78-6.12,34.28-6.12,9.42,0,18.63,1.13,27.63,3.38,7.4,1.85,14.05,4.37,19.93,7.55,2.14,1.16,3.04,3.75,2.13,6.01l-6.98,17.18c-1.05,2.59-4.09,3.71-6.59,2.45-12.11-6.09-24.22-9.14-36.33-9.14-9.56,0-16.63,1.55-21.2,4.64-4.57,3.09-6.86,7.17-6.86,12.23s2.64,8.83,7.91,11.29c5.27,2.46,13.32,4.89,24.15,7.28,11.25,2.67,20.46,5.35,27.63,8.02,7.17,2.67,13.32,6.89,18.46,12.66,5.13,5.77,7.7,13.57,7.7,23.42,0,8.44-2.36,16.14-7.07,23.1-4.71,6.96-11.78,12.48-21.2,16.56-9.42,4.08-20.88,6.12-34.38,6.12-11.67,0-22.96-1.58-33.86-4.75Z"/><path class="cls-3" d="m163.7,896.27h24.66c2.63,0,4.76,2.13,4.76,4.76v138.15c0,2.63-2.13,4.76-4.76,4.76h-24.66c-2.63,0-4.76-2.13-4.76-4.76v-138.15c0-2.63,2.13-4.76,4.76-4.76Z"/><path class="cls-3" d="m363.56,901.03v138.14c0,2.63-2.13,4.76-4.76,4.76h-21.04c-1.42,0-2.77-.64-3.68-1.74l-63.75-77.63c-2.84-3.45-8.44-1.45-8.44,3.02v71.59c0,2.63-2.13,4.76-4.76,4.76h-24.23c-2.63,0-4.76-2.13-4.76-4.76v-138.14c0-2.63,2.13-4.76,4.76-4.76h21.25c1.43,0,2.78.64,3.68,1.74l63.53,77.59c2.83,3.46,8.44,1.46,8.44-3.02v-71.56c0-2.63,2.13-4.76,4.76-4.76h24.23c2.63,0,4.76,2.13,4.76,4.76Z"/><path class="cls-3" d="m512.9,1021.29v17.84c0,2.65-2.14,4.79-4.79,4.79h-104.75c-2.65,0-4.79-2.14-4.79-4.79v-138.08c0-2.65,2.14-4.79,4.79-4.79h102.01c2.65,0,4.79,2.14,4.79,4.79v17.84c0,2.65-2.14,4.79-4.79,4.79h-68.05c-2.65,0-4.79,2.14-4.79,4.79v22.48c0,2.65,2.14,4.79,4.79,4.79h58.97c2.65,0,4.79,2.14,4.79,4.79v17c0,2.65-2.14,4.79-4.79,4.79h-58.97c-2.65,0-4.79,2.14-4.79,4.79v24.59c0,2.65,2.14,4.79,4.79,4.79h70.79c2.65,0,4.79,2.14,4.79,4.79Z"/><path class="cls-3" d="m636.69,1043.93c-1.57,0-3.04-.77-3.93-2.06l-27.05-39.07h-26.65c-2.64,0-4.78,2.14-4.78,4.78v31.57c0,2.64-2.14,4.78-4.78,4.78h-24.61c-2.64,0-4.78-2.14-4.78-4.78v-138.09c0-2.64,2.14-4.78,4.78-4.78h59.13c13.08,0,24.43,2.18,34.07,6.54,9.63,4.36,17.05,10.55,22.25,18.56,5.2,8.02,7.8,17.51,7.8,28.48s-2.64,20.43-7.91,28.37c-4.36,6.58-10.25,11.87-17.64,15.9-2.5,1.36-3.26,4.59-1.63,6.92l24.68,35.37c2.21,3.17-.06,7.52-3.92,7.52h-25.03Zm-11.15-113.17c-5.35-4.43-13.15-6.65-23.41-6.65h-23.06c-2.64,0-4.78,2.14-4.78,4.78v41.91c0,2.64,2.14,4.78,4.78,4.78h23.06c10.26,0,18.07-2.25,23.41-6.75,5.34-4.5,8.02-10.83,8.02-18.98s-2.67-14.66-8.02-19.09Z"/><path class="cls-3" d="m799.68,967.78h21.7c2.63,0,4.76,2.13,4.76,4.76v52.72c0,1.52-.71,2.98-1.96,3.86-7.56,5.35-16.19,9.52-25.89,12.49-10.55,3.23-21.17,4.85-31.85,4.85-15.33,0-29.11-3.27-41.34-9.81-12.23-6.54-21.83-15.61-28.79-27.21-6.96-11.6-10.44-24.71-10.44-39.34s3.48-27.74,10.44-39.34c6.96-11.6,16.63-20.67,29-27.21,12.37-6.54,26.29-9.81,41.77-9.81,12.94,0,24.68,2.18,35.23,6.54,8.97,3.71,16.73,8.84,23.26,15.4,1.89,1.9,1.78,5.01-.19,6.82l-15.11,13.94c-1.83,1.69-4.63,1.65-6.47-.03-9.9-9.05-21.58-13.57-35.03-13.57-9.42,0-17.79,1.97-25.1,5.91-7.31,3.94-13.01,9.49-17.09,16.66-4.08,7.17-6.12,15.4-6.12,24.68s2.04,17.3,6.12,24.47c4.08,7.17,9.74,12.76,16.98,16.77,7.24,4.01,15.5,6.01,24.78,6.01,8.7,0,16.63-1.65,23.79-4.94,1.7-.78,2.79-2.48,2.79-4.34v-35.52c0-2.63,2.13-4.76,4.76-4.76Z"/><path class="cls-3" d="m862.56,896.27h24.62c2.64,0,4.78,2.14,4.78,4.78v138.1c0,2.64-2.14,4.78-4.78,4.78h-24.62c-2.64,0-4.78-2.14-4.78-4.78v-138.1c0-2.64,2.14-4.78,4.78-4.78Z"/><path class="cls-3" d="m1021.02,1012.28h-62.17c-1.93,0-3.68,1.17-4.41,2.95l-10.64,25.74c-.74,1.79-2.48,2.95-4.41,2.95h-24.46c-3.46,0-5.77-3.56-4.36-6.72l61.56-138.1c.77-1.72,2.48-2.83,4.36-2.83h27.55c1.88,0,3.59,1.11,4.36,2.83l61.75,138.1c1.41,3.16-.9,6.73-4.36,6.73h-25.3c-1.93,0-3.68-1.17-4.41-2.95l-10.64-25.74c-.74-1.79-2.48-2.95-4.41-2.95Zm-10.3-32.55l-16.27-39.27c-1.63-3.93-7.2-3.93-8.83,0l-16.27,39.27c-1.3,3.15,1.01,6.6,4.41,6.6h32.53c3.4,0,5.72-3.46,4.41-6.6Z"/><path class="cls-2" d="m939.85,612.45c-4.54,1.56-9.45,2.86-13.99,3.96-25.38,5.43-46.92,9.67-70.1,15.97-46.77,12.67-94.01,18.94-142.28,10.47-40.8-7.15-76.97-23.34-109.45-46.68-.58-.4-1.15-.81-1.69-1.23-2.47-1.86-4.74-4-6.75-6.36h0c-2.04-2.43-3.79-5.07-5.23-7.92-.57-1.12-1.09-2.29-1.56-3.48-.24-.6-.45-1.2-.66-1.81-.25-.75-.49-1.51-.7-2.28-.21-.78-.39-1.56-.57-2.34-.58-2.74-.88-5.61-.88-8.53s.28-5.61.84-8.28c.91-4.5,2.58-8.71,4.86-12.54,3.01-5.13,7.11-9.51,12-12.87.06-.04.12-.07.18-.12,6.57-4.51,14.5-7.14,23.07-7.14s16.24,2.55,22.75,6.9c.05.03.11.06.15.11.66.49,1.32.97,1.98,1.44,10.14,7.32,20.41,14.41,31.26,20.5,30.18,16.98,63.52,19.29,97.49,16.33,41.44-3.61,80.66-15.46,119.47-29.85,10.71-3.96,23.37-5.55,34.69-4.27,19.45,2.2,32.74,18.21,33.88,36.55,1.3,20.85-9.82,36.99-28.74,43.47Z"/></svg>