<?xml version="1.0" encoding="UTF-8"?><svg id="Capa_2" xmlns="http://www.w3.org/2000/svg" viewBox="0 0 4068.83 1080"><defs><style>.cls-1{fill:#f24e29;}.cls-1,.cls-2,.cls-3,.cls-4,.cls-5{stroke-width:0px;}.cls-2{fill:#1ed9d9;}.cls-3{fill:#0f3240;}.cls-4{fill:#0597f2;}.cls-5{fill:#34d6d2;}</style></defs><path class="cls-3" d="m1269.69,734.33c-24.9-7.23-45.67-16.28-62.31-27.16-5.29-3.45-7.15-10.33-4.56-16.09l20.78-46.09c3.18-7.05,11.84-9.89,18.42-5.83,14.43,8.88,30.8,16.28,49.13,22.19,23.66,7.64,47.31,11.45,70.98,11.45,26.33,0,45.79-3.91,58.38-11.74,12.59-7.81,18.89-18.22,18.89-31.19,0-9.54-3.72-17.46-11.16-23.76-7.44-6.3-16.98-11.35-28.62-15.17-11.64-3.81-27.39-8.01-47.22-12.59-30.53-7.25-55.52-14.5-74.98-21.75-19.46-7.25-36.16-18.89-50.08-34.92-13.94-16.03-20.89-37.39-20.89-64.11,0-23.27,6.3-44.36,18.89-63.25,12.59-18.89,31.57-33.86,56.95-44.93,25.37-11.07,56.38-16.6,93.02-16.6,25.56,0,50.56,3.06,74.98,9.16,20.09,5.02,38.12,11.85,54.08,20.49,5.8,3.14,8.26,10.19,5.77,16.3l-18.95,46.63c-2.86,7.03-11.1,10.06-17.88,6.65-32.86-16.54-65.73-24.82-98.58-24.82-25.95,0-45.13,4.21-57.53,12.59-12.4,8.4-18.6,19.46-18.6,33.2s7.15,23.95,21.47,30.62c14.31,6.68,36.15,13.26,65.54,19.75,30.52,7.25,55.52,14.51,74.98,21.75,19.46,7.25,36.15,18.7,50.08,34.35,13.93,15.65,20.89,36.83,20.89,63.54,0,22.89-6.4,43.79-19.18,62.68-12.79,18.89-31.96,33.87-57.53,44.93-25.57,11.06-56.67,16.6-93.3,16.6-31.68,0-62.3-4.29-91.87-12.88Z"/><path class="cls-3" d="m1607.99,339.66h66.92c7.13,0,12.91,5.78,12.91,12.91v374.87c0,7.13-5.78,12.91-12.91,12.91h-66.92c-7.13,0-12.91-5.78-12.91-12.91v-374.87c0-7.13,5.78-12.91,12.91-12.91Z"/><path class="cls-3" d="m2150.31,352.58v374.84c0,7.13-5.78,12.92-12.92,12.92h-57.11c-3.87,0-7.53-1.73-9.98-4.72l-172.99-210.66c-7.7-9.37-22.9-3.93-22.9,8.2v194.26c0,7.13-5.78,12.92-12.92,12.92h-65.75c-7.13,0-12.92-5.78-12.92-12.92v-374.84c0-7.13,5.78-12.92,12.92-12.92h57.66c3.87,0,7.54,1.74,9.99,4.73l172.41,210.55c7.69,9.39,22.91,3.95,22.91-8.18v-194.18c0-7.13,5.78-12.92,12.92-12.92h65.75c7.13,0,12.92,5.78,12.92,12.92Z"/><path class="cls-3" d="m2555.57,678.93v48.42c0,7.18-5.82,13-13,13h-284.24c-7.18,0-13-5.82-13-13v-374.68c0-7.18,5.82-13,13-13h276.8c7.18,0,13,5.82,13,13v48.41c0,7.18-5.82,13-13,13h-184.65c-7.18,0-13,5.82-13,13v61.01c0,7.18,5.82,13,13,13h160.03c7.18,0,13,5.82,13,13v46.12c0,7.18-5.82,13-13,13h-160.03c-7.18,0-13,5.82-13,13v66.73c0,7.18,5.82,13,13,13h192.09c7.18,0,13,5.82,13,13Z"/><path class="cls-3" d="m2891.49,740.34c-4.26,0-8.24-2.09-10.67-5.59l-73.4-106.03h-72.32c-7.17,0-12.97,5.81-12.97,12.97v85.67c0,7.17-5.81,12.97-12.97,12.97h-66.78c-7.17,0-12.97-5.81-12.97-12.97v-374.73c0-7.17,5.81-12.97,12.97-12.97h160.47c35.49,0,66.3,5.92,92.44,17.74,26.13,11.83,46.27,28.62,60.39,50.37,14.11,21.75,21.18,47.51,21.18,77.28s-7.15,55.43-21.46,76.99c-11.84,17.84-27.8,32.22-47.87,43.14-6.78,3.69-8.84,12.45-4.43,18.78l66.98,95.99c6,8.6-.15,20.4-10.64,20.4h-67.93Zm-30.26-307.09c-14.51-12.02-35.68-18.03-63.54-18.03h-62.59c-7.17,0-12.97,5.81-12.97,12.97v113.72c0,7.17,5.81,12.97,12.97,12.97h62.59c27.85,0,49.03-6.1,63.54-18.32,14.5-12.21,21.75-29.38,21.75-51.52s-7.25-39.78-21.75-51.8Z"/><path class="cls-3" d="m3333.77,533.71h58.89c7.13,0,12.91,5.78,12.91,12.91v143.06c0,4.14-1.94,8.08-5.31,10.47-20.51,14.53-43.92,25.82-70.24,33.89-28.62,8.77-57.44,13.16-86.43,13.16-41.6,0-78.99-8.87-112.19-26.61-33.2-17.75-59.25-42.36-78.13-73.84-18.89-31.48-28.34-67.06-28.34-106.75s9.45-75.27,28.34-106.75c18.89-31.48,45.12-56.1,78.71-73.84,33.57-17.74,71.35-26.62,113.33-26.62,35.1,0,66.97,5.92,95.59,17.75,24.35,10.07,45.39,24,63.11,41.8,5.13,5.15,4.83,13.59-.51,18.51l-40.99,37.83c-4.97,4.58-12.57,4.49-17.56-.07-26.87-24.55-58.56-36.83-95.06-36.83-25.57,0-48.28,5.35-68.11,16.03-19.85,10.69-35.3,25.76-46.36,45.22-11.07,19.46-16.6,41.79-16.6,66.97s5.53,46.94,16.6,66.4c11.06,19.46,26.42,34.63,46.08,45.51,19.65,10.87,42.07,16.31,67.26,16.31,23.6,0,45.13-4.47,64.57-13.41,4.6-2.12,7.56-6.72,7.56-11.79v-96.4c0-7.13,5.78-12.91,12.91-12.91Z"/><path class="cls-3" d="m3504.4,339.66h66.8c7.16,0,12.97,5.81,12.97,12.97v374.75c0,7.16-5.81,12.97-12.97,12.97h-66.8c-7.16,0-12.97-5.81-12.97-12.97v-374.75c0-7.16,5.81-12.97,12.97-12.97Z"/><path class="cls-3" d="m3934.38,654.48h-168.69c-5.25,0-9.98,3.16-11.98,8.01l-28.87,69.84c-2,4.85-6.73,8.01-11.98,8.01h-66.38c-9.39,0-15.66-9.67-11.84-18.24l167.03-374.75c2.08-4.67,6.72-7.69,11.84-7.69h74.77c5.11,0,9.75,3,11.83,7.67l167.57,374.75c3.83,8.57-2.44,18.25-11.83,18.25h-68.64c-5.25,0-9.98-3.16-11.98-8.01l-28.86-69.84c-2-4.85-6.73-8.01-11.98-8.01Zm-27.95-88.33l-44.14-106.57c-4.42-10.67-19.53-10.67-23.95,0l-44.14,106.57c-3.54,8.54,2.74,17.92,11.98,17.92h88.28c9.24,0,15.51-9.39,11.98-17.92Z"/><path class="cls-3" d="m1269.69,734.33c-24.9-7.23-45.67-16.28-62.31-27.16-5.29-3.45-7.15-10.33-4.56-16.09l20.78-46.09c3.18-7.05,11.84-9.89,18.42-5.83,14.43,8.88,30.8,16.28,49.13,22.19,23.66,7.64,47.31,11.45,70.98,11.45,26.33,0,45.79-3.91,58.38-11.74,12.59-7.81,18.89-18.22,18.89-31.19,0-9.54-3.72-17.46-11.16-23.76-7.44-6.3-16.98-11.35-28.62-15.17-11.64-3.81-27.39-8.01-47.22-12.59-30.53-7.25-55.52-14.5-74.98-21.75-19.46-7.25-36.16-18.89-50.08-34.92-13.94-16.03-20.89-37.39-20.89-64.11,0-23.27,6.3-44.36,18.89-63.25,12.59-18.89,31.57-33.86,56.95-44.93,25.37-11.07,56.38-16.6,93.02-16.6,25.56,0,50.56,3.06,74.98,9.16,20.09,5.02,38.12,11.85,54.08,20.49,5.8,3.14,8.26,10.19,5.77,16.3l-18.95,46.63c-2.86,7.03-11.1,10.06-17.88,6.65-32.86-16.54-65.73-24.82-98.58-24.82-25.95,0-45.13,4.21-57.53,12.59-12.4,8.4-18.6,19.46-18.6,33.2s7.15,23.95,21.47,30.62c14.31,6.68,36.15,13.26,65.54,19.75,30.52,7.25,55.52,14.51,74.98,21.75,19.46,7.25,36.15,18.7,50.08,34.35,13.93,15.65,20.89,36.83,20.89,63.54,0,22.89-6.4,43.79-19.18,62.68-12.79,18.89-31.96,33.87-57.53,44.93-25.57,11.06-56.67,16.6-93.3,16.6-31.68,0-62.3-4.29-91.87-12.88Z"/><path class="cls-3" d="m1607.99,339.66h66.92c7.13,0,12.91,5.78,12.91,12.91v374.87c0,7.13-5.78,12.91-12.91,12.91h-66.92c-7.13,0-12.91-5.78-12.91-12.91v-374.87c0-7.13,5.78-12.91,12.91-12.91Z"/><path class="cls-3" d="m2150.31,352.58v374.84c0,7.13-5.78,12.92-12.92,12.92h-57.11c-3.87,0-7.53-1.73-9.98-4.72l-172.99-210.66c-7.7-9.37-22.9-3.93-22.9,8.2v194.26c0,7.13-5.78,12.92-12.92,12.92h-65.75c-7.13,0-12.92-5.78-12.92-12.92v-374.84c0-7.13,5.78-12.92,12.92-12.92h57.66c3.87,0,7.54,1.74,9.99,4.73l172.41,210.55c7.69,9.39,22.91,3.95,22.91-8.18v-194.18c0-7.13,5.78-12.92,12.92-12.92h65.75c7.13,0,12.92,5.78,12.92,12.92Z"/><path class="cls-3" d="m2555.57,678.93v48.42c0,7.18-5.82,13-13,13h-284.24c-7.18,0-13-5.82-13-13v-374.68c0-7.18,5.82-13,13-13h276.8c7.18,0,13,5.82,13,13v48.41c0,7.18-5.82,13-13,13h-184.65c-7.18,0-13,5.82-13,13v61.01c0,7.18,5.82,13,13,13h160.03c7.18,0,13,5.82,13,13v46.12c0,7.18-5.82,13-13,13h-160.03c-7.18,0-13,5.82-13,13v66.73c0,7.18,5.82,13,13,13h192.09c7.18,0,13,5.82,13,13Z"/><path class="cls-3" d="m2891.49,740.34c-4.26,0-8.24-2.09-10.67-5.59l-73.4-106.03h-72.32c-7.17,0-12.97,5.81-12.97,12.97v85.67c0,7.17-5.81,12.97-12.97,12.97h-66.78c-7.17,0-12.97-5.81-12.97-12.97v-374.73c0-7.17,5.81-12.97,12.97-12.97h160.47c35.49,0,66.3,5.92,92.44,17.74,26.13,11.83,46.27,28.62,60.39,50.37,14.11,21.75,21.18,47.51,21.18,77.28s-7.15,55.43-21.46,76.99c-11.84,17.84-27.8,32.22-47.87,43.14-6.78,3.69-8.84,12.45-4.43,18.78l66.98,95.99c6,8.6-.15,20.4-10.64,20.4h-67.93Zm-30.26-307.09c-14.51-12.02-35.68-18.03-63.54-18.03h-62.59c-7.17,0-12.97,5.81-12.97,12.97v113.72c0,7.17,5.81,12.97,12.97,12.97h62.59c27.85,0,49.03-6.1,63.54-18.32,14.5-12.21,21.75-29.38,21.75-51.52s-7.25-39.78-21.75-51.8Z"/><path class="cls-3" d="m3333.77,533.71h58.89c7.13,0,12.91,5.78,12.91,12.91v143.06c0,4.14-1.94,8.08-5.31,10.47-20.51,14.53-43.92,25.82-70.24,33.89-28.62,8.77-57.44,13.16-86.43,13.16-41.6,0-78.99-8.87-112.19-26.61-33.2-17.75-59.25-42.36-78.13-73.84-18.89-31.48-28.34-67.06-28.34-106.75s9.45-75.27,28.34-106.75c18.89-31.48,45.12-56.1,78.71-73.84,33.57-17.74,71.35-26.62,113.33-26.62,35.1,0,66.97,5.92,95.59,17.75,24.35,10.07,45.39,24,63.11,41.8,5.13,5.15,4.83,13.59-.51,18.51l-40.99,37.83c-4.97,4.58-12.57,4.49-17.56-.07-26.87-24.55-58.56-36.83-95.06-36.83-25.57,0-48.28,5.35-68.11,16.03-19.85,10.69-35.3,25.76-46.36,45.22-11.07,19.46-16.6,41.79-16.6,66.97s5.53,46.94,16.6,66.4c11.06,19.46,26.42,34.63,46.08,45.51,19.65,10.87,42.07,16.31,67.26,16.31,23.6,0,45.13-4.47,64.57-13.41,4.6-2.12,7.56-6.72,7.56-11.79v-96.4c0-7.13,5.78-12.91,12.91-12.91Z"/><path class="cls-3" d="m3504.4,339.66h66.8c7.16,0,12.97,5.81,12.97,12.97v374.75c0,7.16-5.81,12.97-12.97,12.97h-66.8c-7.16,0-12.97-5.81-12.97-12.97v-374.75c0-7.16,5.81-12.97,12.97-12.97Z"/><path class="cls-3" d="m3934.38,654.48h-168.69c-5.25,0-9.98,3.16-11.98,8.01l-28.87,69.84c-2,4.85-6.73,8.01-11.98,8.01h-66.38c-9.39,0-15.66-9.67-11.84-18.24l167.03-374.75c2.08-4.67,6.72-7.69,11.84-7.69h74.77c5.11,0,9.75,3,11.83,7.67l167.57,374.75c3.83,8.57-2.44,18.25-11.83,18.25h-68.64c-5.25,0-9.98-3.16-11.98-8.01l-28.86-69.84c-2-4.85-6.73-8.01-11.98-8.01Zm-27.95-88.33l-44.14-106.57c-4.42-10.67-19.53-10.67-23.95,0l-44.14,106.57c-3.54,8.54,2.74,17.92,11.98,17.92h88.28c9.24,0,15.51-9.39,11.98-17.92Z"/><path class="cls-4" d="m324.5,676.45v78.29c-.18,0-.37.02-.55.02-17.35-.45-34.77-.24-51.96-2.77-38.17-5.97-75.05-19.81-113.41-25.21-5.8-.87-11.7-1.75-17.22-3.76-16.89-6.01-28.62-22.08-28.26-40.66-.03-23.47,20.64-43.56,44.04-41.77,21.48,2.34,40.8,13.09,61.38,19.17,26.41,8.5,53.4,13.56,80.92,15.79,8.31.65,16.71,1.27,25.06.92Z"/><path class="cls-3" d="m764.25,457.32l-.17.23c-3.67,5.4-10.27,7.06-16.45,7.92-20.02,2.97-38.4,10.42-55.11,21.43-78.47,56.22-140.19,131.38-208.63,198.71-43.71,41.73-98.93,67.08-159.39,69.14v-78.29c3.24-.14,6.48-.42,9.69-.9,61.98-8.29,95.24-46.68,136.53-88.78,49.56-48.61,94.64-102.77,151.31-143.39,37.87-27.16,77.62-52.29,110.44-85.7,8.64-8.65,16.57-17.58,23.89-27.1,5.05-5.35,12.69-21.06,19.71-18.12,3.3,1.81,4.78,7.36,5.52,11.29.91,4.51,1.69,9.06,2.29,13.68,4.77,40.98-.51,83.2-19.63,119.89Z"/><path class="cls-3" d="m760.54,801.49c3.49.53,5.24,4.52,3.26,7.45-55.06,81.45-128.93,128.8-228.87,128.73-99.57-.07-171.46-45.76-225.83-127.59-1.88-2.83-.3-6.68,3.03-7.35,8.36-1.67,15.51-3.16,23.32-4.65,17.97-3.42,35.9-7.17,53.64-11.6,6.01-1.5,9.62-1.16,14.12,3.64,19.51,20.82,41.04,39.48,67.81,50.22,66.22,26.58,126.11,14.54,179.7-31.61,7.97-6.86,14.29-11.62,21.8-17.65,1.01-.81,2.29-1.18,3.58-1.03,9.2,1.14,20.13,2.59,30.92,3.89,17.47,2.1,34.66,4.72,53.52,7.55Z"/><path class="cls-2" d="m422.58,142.73c55.86.09,100.46,44.4,100.44,99.8-.02,57.78-44.97,102.38-103.44,102.64-54.67.24-98.98-46.08-100.12-102.11-1.1-54.31,45.75-100.96,103.12-100.32Z"/><path class="cls-1" d="m552.46,241.86c.77-57.05,45.62-100.58,102.55-99.51,55.14,1.03,100.4,46.85,99.23,100.45-1.26,57.89-46.49,103.05-102.11,101.95-56.75-1.12-100.44-46.21-99.68-102.88Z"/><path class="cls-5" d="m588.13,685.98c.46,1.18.99,2.35,1.56,3.48-.58-1.12-1.09-2.29-1.56-3.48Z"/><path class="cls-5" d="m603.37,704.97c-.58-.39-1.15-.79-1.69-1.21-2.47-1.86-4.75-4-6.75-6.37,2.01,2.35,4.27,4.5,6.75,6.36.54.42,1.11.82,1.69,1.23Z"/><path class="cls-4" d="m1022.04,533.43c-46.81,7.19-91.16,23.95-137.04,40.2-40,14.17-82.11,27.82-122.72,40.05-13.24,2.5-28.16,3.2-42.09,1.97-18.4-1.63-33.72-18.78-34.98-36-1.68-22.82,7.93-36.33,28.42-42.21,11.27-3.24,22.69-4.89,34.93-7.39,31.78-5.72,63.14-11.49,93.43-22.21,30.94-10.95,61.08-24.47,92.49-33.73,27.92-8.22,56.91-13.55,85.79-17.57,29.02-4.04,51.63,15.21,52.21,41.22.01,16.44-15.22,32.14-29.31,33.02-2.89.18-18.23,2.63-21.13,2.64Z"/><path class="cls-4" d="m337.68,616.81c-31.76-.7-59.41-11.81-87.18-21.88-41.74-15.14-83.01-31.56-124.73-46.71-21.66-7.87-44.05-11.01-67.41-8.03-24.83,3.17-41.05-5.93-49.02-25.17-8.5-20.52.88-45.59,21.71-53.11,10.49-3.79,22.59-5.29,33.76-4.62,55.93,3.37,106.33,26.36,157.9,45.45,26.48,9.8,53.74,17.8,81.11,24.8,13.19,3.37,27.28,6.86,41.22,9.44,21.35,2.85,31.84,1.89,40.43,16.58,15.43,26.39-.92,57.66-31.95,62.29-5.7.85-11.55.73-15.84.97Z"/><path class="cls-3" d="m451.07,532.45c-1.68,1.67-4.31,1.85-6.22.45-22.21-16.35-43.48-32.92-65.88-47.79-18.13-12.04-38.73-18.77-60.89-19.77-2.68-.12-6.65-1.88-7.66-4-20.72-43.35-26.76-87.91-17.75-135.13,1.59-8.31,12.41-10.48,17.26-3.55,20.01,28.62,45.69,50.41,72.45,70.93,23.99,18.4,49.48,34.84,74.03,52.53,14.15,10.2,27.9,20.97,41.93,31.68,2.31,1.76,2.53,5.17.47,7.22-16.64,16.53-32.57,32.37-47.73,47.44Z"/><path class="cls-3" d="m966.65,590.53c5.95-6.18,11.65-12.09,16.68-17.3,1.81-1.88,4.79-1.96,6.69-.18,5.66,5.29,11.5,10.74,17.26,16.13,2.01,1.88,2.03,5.06.03,6.95-5.51,5.21-11.4,10.78-17.58,16.63-1.84,1.74-4.72,1.75-6.56,0-5.16-4.87-10.87-10.26-16.37-15.45-1.93-1.82-2-4.87-.15-6.79Z"/><path class="cls-2" d="m100.2,573.38c5.2,5.23,10.58,10.64,16.1,16.21,1.91,1.92,1.85,5.04-.13,6.88-5.42,5.04-11.04,10.27-16.76,15.59-1.99,1.85-5.13,1.67-6.9-.39-4.98-5.82-9.89-11.55-14.66-17.12-1.65-1.93-1.51-4.8.32-6.55,4.49-4.3,9.91-9.51,15.31-14.69,1.88-1.81,4.87-1.77,6.71.08Z"/><path class="cls-2" d="m939.2,721.24c-4.54,1.56-9.45,2.86-13.99,3.96-25.38,5.43-46.92,9.67-70.1,15.97-46.77,12.67-94.01,18.94-142.28,10.47-40.8-7.15-76.97-23.34-109.45-46.68-.58-.4-1.15-.81-1.69-1.23-2.47-1.86-4.74-4-6.75-6.36h0c-2.04-2.43-3.79-5.07-5.23-7.92-.57-1.12-1.09-2.29-1.56-3.48-.24-.6-.45-1.2-.66-1.81-.25-.75-.49-1.51-.7-2.28-.21-.78-.39-1.56-.57-2.34-.58-2.74-.88-5.61-.88-8.53s.28-5.61.84-8.28c.91-4.5,2.58-8.71,4.86-12.54,3.01-5.13,7.11-9.51,12-12.87.06-.04.12-.07.18-.12,6.57-4.51,14.5-7.14,23.07-7.14s16.24,2.55,22.75,6.9c.05.03.11.06.15.11.66.49,1.32.97,1.98,1.44,10.14,7.32,20.41,14.41,31.26,20.5,30.18,16.98,63.52,19.29,97.49,16.33,41.44-3.61,80.66-15.46,119.47-29.85,10.71-3.96,23.37-5.55,34.69-4.27,19.45,2.2,32.74,18.21,33.88,36.55,1.3,20.85-9.82,36.99-28.74,43.47Z"/></svg>