<?xml version="1.0" encoding="UTF-8"?><svg xmlns="http://www.w3.org/2000/svg" viewBox="0 0 500 500"><defs><style>.cls-1,.cls-2,.cls-3,.cls-4,.cls-5,.cls-6,.cls-7,.cls-8{stroke-width:0px;}.cls-2{fill:#e0e0e0;}.cls-3{fill:#1ed9d9;}.cls-9{opacity:.3;}.cls-4{fill:#263238;}.cls-5{fill:#ebebeb;}.cls-6{fill:#ff9a6c;}.cls-7{fill:#455a64;}.cls-8{fill:#ffbf9d;}</style></defs><g id="Background_Complete"><path class="cls-5" d="m310.86,250.21c-46.12-.44-87.86-.85-118.12-1.14-15.09-.07-27.31-.13-35.8-.17-4.2,0-7.47.02-9.73.02-1.09.01-1.93.03-2.53.03-.57.01-.86.03-.86.05s.29.04.86.06c.6.01,1.44.03,2.53.06,2.26.03,5.53.07,9.73.12,8.48.05,20.7.11,35.8.19,30.26.02,72,.05,118.12.08,46.1,0,87.85.06,118.07.28,15.11.11,27.34.25,35.79.42,4.23.08,7.51.17,9.73.25,2.22.09,3.39.17,3.39.26,0,.08-1.17.16-3.4.22-2.23.06-5.51.12-9.73.15-8.45.08-20.68.09-35.8.05-30.22-.09-71.97-.45-118.07-.93Z"/><path class="cls-5" d="m309.94,260.62c-45.49-7.61-86.66-14.5-116.51-19.49-14.9-2.42-26.96-4.37-35.34-5.73-4.15-.64-7.39-1.14-9.62-1.49-1.08-.15-1.91-.27-2.51-.36-.57-.07-.86-.1-.86-.09,0,.02.28.08.84.19.59.11,1.42.26,2.49.45,2.23.38,5.45.93,9.59,1.64,8.37,1.36,20.43,3.33,35.33,5.76,29.89,4.72,71.12,11.23,116.68,18.42,45.54,7.15,86.78,13.7,116.6,18.61,14.91,2.46,26.97,4.5,35.29,5.98,4.16.74,7.39,1.33,9.57,1.77,2.18.43,3.32.7,3.31.78-.01.08-1.18-.02-3.39-.3-2.21-.28-5.46-.74-9.64-1.36-8.36-1.24-20.45-3.12-35.37-5.51-29.84-4.78-71.03-11.64-116.49-19.28Z"/><path class="cls-5" d="m307.4,270.75c-43.73-14.68-83.3-27.97-111.98-37.6-14.33-4.73-25.93-8.56-33.99-11.22-4-1.29-7.11-2.29-9.26-2.98-1.04-.32-1.84-.57-2.42-.75-.55-.16-.83-.24-.84-.22,0,.02.27.13.8.32.57.2,1.36.48,2.39.84,2.14.73,5.24,1.78,9.22,3.13,8.05,2.67,19.65,6.51,33.98,11.25,28.77,9.36,68.46,22.28,112.32,36.56,43.85,14.23,83.54,27.19,112.21,36.74,14.34,4.77,25.92,8.69,33.91,11.46,3.99,1.38,7.09,2.48,9.18,3.25s3.17,1.22,3.15,1.3c-.03.08-1.16-.21-3.3-.83-2.14-.63-5.27-1.59-9.31-2.86-8.06-2.54-19.7-6.3-34.06-11.01-28.72-9.42-68.31-22.68-112-37.39Z"/><path class="cls-5" d="m303.3,280.35c-40.87-21.38-77.86-40.72-104.67-54.74-13.41-6.93-24.26-12.54-31.8-16.43-3.75-1.9-6.67-3.38-8.68-4.4-.98-.48-1.73-.85-2.27-1.12-.51-.25-.78-.37-.79-.35,0,.02.24.17.74.44.53.29,1.27.69,2.23,1.21,2,1.05,4.89,2.58,8.61,4.54,7.53,3.9,18.39,9.52,31.79,16.46,26.94,13.78,64.1,32.78,105.17,53.79,41.06,20.96,78.22,40,105.03,53.95,13.41,6.97,24.23,12.66,31.69,16.65,3.73,1.99,6.61,3.56,8.55,4.65,1.94,1.09,2.94,1.7,2.9,1.77-.04.07-1.11-.39-3.13-1.34-2.01-.96-4.96-2.4-8.74-4.29-7.56-3.78-18.46-9.32-31.9-16.24-26.88-13.82-63.89-33.14-104.72-54.54Z"/><path class="cls-5" d="m297.75,289.19c-37.03-27.5-70.54-52.39-94.83-70.43-12.16-8.94-22.01-16.18-28.84-21.2-3.4-2.46-6.05-4.38-7.88-5.71-.89-.63-1.58-1.11-2.07-1.46-.47-.32-.72-.48-.73-.47-.01.01.21.2.66.55.48.37,1.14.88,2.01,1.54,1.81,1.35,4.43,3.31,7.79,5.83,6.83,5.03,16.67,12.27,28.83,21.22,24.45,17.82,58.19,42.4,95.47,69.56,37.28,27.12,71,51.74,95.31,69.7,12.15,8.98,21.96,16.29,28.69,21.4,3.37,2.55,5.97,4.55,7.72,5.93,1.75,1.38,2.64,2.14,2.59,2.21-.05.07-1.04-.56-2.88-1.82-1.84-1.26-4.52-3.15-7.96-5.6-6.88-4.91-16.78-12.09-28.97-21.02-24.39-17.85-57.92-42.72-94.91-70.24Z"/><path class="cls-5" d="m290.88,297.06c-32.3-32.93-61.53-62.72-82.72-84.32-10.62-10.72-19.22-19.4-25.19-25.43-2.98-2.96-5.3-5.27-6.9-6.86-.78-.76-1.38-1.35-1.82-1.76-.41-.39-.63-.59-.64-.58-.01.01.18.23.57.65.42.44.99,1.04,1.75,1.83,1.58,1.62,3.86,3.96,6.79,6.97,5.97,6.03,14.56,14.72,25.18,25.45,21.38,21.4,50.89,50.94,83.49,83.57,32.61,32.59,62.09,62.15,83.31,83.68,10.61,10.76,19.16,19.51,25.02,25.6,2.93,3.05,5.19,5.43,6.7,7.06,1.51,1.63,2.28,2.52,2.22,2.58-.06.06-.94-.71-2.56-2.24-1.62-1.53-3.98-3.81-6.99-6.77-6.03-5.92-14.7-14.56-25.35-25.27-21.31-21.43-50.57-51.21-82.83-84.14Z"/><path class="cls-5" d="m282.88,303.76c-26.79-37.55-51.03-71.53-68.6-96.16-8.83-12.24-15.97-22.16-20.93-29.04-2.48-3.39-4.42-6.03-5.75-7.85-.65-.87-1.16-1.54-1.52-2.03-.35-.45-.53-.68-.55-.67s.14.26.46.73c.34.49.82,1.19,1.44,2.08,1.31,1.84,3.2,4.51,5.63,7.94,4.96,6.89,12.09,16.8,20.91,29.05,17.79,24.47,42.34,58.23,69.47,95.53,27.14,37.27,51.67,71.05,69.28,95.61,8.81,12.28,15.89,22.25,20.73,29.18,2.42,3.46,4.28,6.17,5.52,8.02,1.24,1.85,1.86,2.85,1.79,2.9-.07.05-.82-.85-2.18-2.61-1.36-1.76-3.34-4.38-5.86-7.78-5.04-6.79-12.25-16.66-21.11-28.91-17.72-24.48-41.99-58.45-68.74-96Z"/><path class="cls-5" d="m273.93,309.13c-20.59-41.28-39.21-78.63-52.72-105.71-6.8-13.47-12.31-24.38-16.13-31.95-1.92-3.74-3.42-6.65-4.45-8.66-.51-.96-.9-1.71-1.18-2.24-.27-.5-.42-.75-.44-.75-.02,0,.1.28.34.79.26.54.62,1.3,1.1,2.28,1,2.02,2.45,4.96,4.32,8.72,3.82,7.58,9.32,18.49,16.11,31.97,13.75,26.95,32.72,64.13,53.68,105.22,20.98,41.05,39.93,78.25,53.48,105.27,6.78,13.51,12.21,24.46,15.91,32.06,1.85,3.8,3.27,6.76,4.2,8.78.93,2.02,1.39,3.1,1.31,3.14-.08.04-.68-.97-1.75-2.92-1.07-1.95-2.61-4.85-4.57-8.6-3.92-7.49-9.5-18.37-16.33-31.85-13.67-26.95-32.34-64.3-52.88-105.57Z"/><path class="cls-5" d="m264.25,313.03c-13.83-44-26.35-83.82-35.43-112.69-4.6-14.38-8.32-26.01-10.91-34.09-1.31-3.99-2.33-7.1-3.03-9.25-.35-1.03-.62-1.83-.82-2.4-.19-.54-.3-.81-.31-.81-.02,0,.05.29.21.84.17.58.41,1.38.72,2.43.67,2.16,1.64,5.28,2.89,9.29,2.58,8.08,6.29,19.72,10.88,34.1,9.34,28.78,22.22,68.48,36.46,112.36,14.27,43.84,27.12,83.56,36.25,112.37,4.57,14.4,8.21,26.08,10.67,34.17,1.23,4.04,2.16,7.19,2.76,9.33.6,2.14.88,3.28.8,3.31-.08.03-.52-1.06-1.26-3.16-.75-2.1-1.82-5.2-3.16-9.21-2.69-8.01-6.49-19.64-11.12-34.03-9.26-28.77-21.82-68.59-35.61-112.58Z"/><path class="cls-5" d="m254.07,315.36c-6.74-45.63-12.84-86.92-17.26-116.86-2.28-14.92-4.12-27-5.4-35.39-.67-4.15-1.18-7.38-1.54-9.61-.19-1.07-.33-1.9-.43-2.49-.1-.56-.16-.85-.18-.84-.02,0,0,.29.08.86.08.6.19,1.43.33,2.51.32,2.24.79,5.47,1.39,9.63,1.27,8.39,3.11,20.47,5.38,35.39,4.69,29.89,11.17,71.13,18.33,116.69,7.19,45.54,13.63,86.79,18.12,116.68,2.25,14.94,4.01,27.05,5.16,35.42.58,4.19,1,7.44,1.26,9.65.26,2.21.35,3.38.27,3.39-.08.01-.34-1.13-.75-3.32-.41-2.19-.97-5.42-1.67-9.59-1.39-8.34-3.32-20.42-5.62-35.35-4.62-29.87-10.75-71.16-17.45-116.78Z"/><path class="cls-5" d="m243.65,316.07c.42-46.12.79-87.86,1.06-118.12.06-15.09.12-27.31.15-35.8-.01-4.2-.02-7.47-.03-9.73-.02-1.09-.03-1.93-.04-2.53-.01-.57-.03-.86-.05-.86-.02,0-.04.29-.06.86-.01.6-.03,1.44-.06,2.53-.03,2.26-.07,5.53-.12,9.73-.04,8.48-.1,20.7-.17,35.8,0,30.26,0,72,0,118.12.03,46.1,0,87.85-.21,118.08-.1,15.11-.24,27.34-.39,35.79-.08,4.23-.16,7.51-.25,9.73-.09,2.22-.17,3.39-.25,3.39-.08,0-.16-1.17-.22-3.39-.06-2.23-.12-5.51-.16-9.73-.08-8.45-.11-20.68-.07-35.8.07-30.22.41-71.97.86-118.07Z"/><path class="cls-5" d="m233.24,315.15c7.58-45.5,14.44-86.67,19.41-116.52,2.41-14.9,4.36-26.96,5.71-35.34.64-4.15,1.14-7.39,1.48-9.62.15-1.08.27-1.91.36-2.51.07-.57.1-.86.09-.86-.02,0-.08.28-.19.84-.11.59-.26,1.42-.45,2.49-.38,2.23-.93,5.45-1.63,9.6-1.36,8.38-3.32,20.44-5.73,35.33-4.7,29.89-11.18,71.12-18.35,116.69-7.12,45.55-13.64,86.79-18.54,116.61-2.45,14.91-4.48,26.97-5.95,35.3-.74,4.16-1.33,7.39-1.76,9.58-.43,2.18-.7,3.32-.78,3.31-.08-.01.02-1.18.3-3.39.28-2.21.74-5.46,1.35-9.64,1.23-8.36,3.11-20.45,5.49-35.37,4.76-29.85,11.59-71.03,19.2-116.5Z"/><path class="cls-5" d="m223.11,312.62c14.65-43.74,27.91-83.32,37.53-112,4.72-14.33,8.55-25.94,11.2-34,1.29-4,2.28-7.12,2.98-9.27.32-1.04.57-1.84.75-2.42.16-.55.24-.83.22-.84-.02,0-.13.27-.32.8-.2.57-.48,1.36-.84,2.39-.72,2.14-1.77,5.24-3.12,9.22-2.66,8.06-6.49,19.66-11.23,33.99-9.35,28.78-22.24,68.48-36.49,112.35-14.21,43.86-27.13,83.56-36.67,112.24-4.76,14.34-8.67,25.93-11.44,33.92-1.38,3.99-2.48,7.09-3.25,9.18-.77,2.09-1.22,3.17-1.3,3.15-.08-.03.21-1.16.83-3.3.62-2.14,1.59-5.28,2.85-9.31,2.53-8.07,6.28-19.71,10.99-34.07,9.4-28.72,22.63-68.32,37.32-112.02Z"/><path class="cls-5" d="m213.5,308.53c21.35-40.89,40.67-77.89,54.67-104.71,6.92-13.41,12.52-24.27,16.41-31.81,1.9-3.75,3.38-6.67,4.4-8.68.48-.98.85-1.73,1.12-2.27.25-.51.36-.78.35-.79-.02,0-.17.24-.44.74-.29.53-.69,1.27-1.2,2.23-1.05,2-2.58,4.89-4.53,8.61-3.9,7.54-9.51,18.39-16.44,31.8-13.76,26.95-32.74,64.12-53.72,105.2-20.94,41.08-39.95,78.24-53.88,105.07-6.96,13.41-12.65,24.24-16.63,31.7-1.99,3.73-3.56,6.61-4.65,8.55-1.09,1.94-1.7,2.94-1.77,2.9-.07-.04.39-1.11,1.34-3.13.95-2.01,2.4-4.96,4.28-8.74,3.77-7.57,9.31-18.47,16.22-31.91,13.81-26.89,33.1-63.91,54.47-104.76Z"/><path class="cls-5" d="m204.66,302.98c27.48-37.05,52.35-70.57,70.37-94.87,8.93-12.17,16.16-22.02,21.18-28.85,2.46-3.41,4.38-6.06,5.7-7.89.63-.89,1.11-1.58,1.46-2.07.32-.47.48-.72.47-.73-.01-.01-.2.21-.55.66-.37.48-.88,1.14-1.54,2.01-1.35,1.81-3.31,4.43-5.82,7.8-5.03,6.84-12.26,16.68-21.2,28.84-17.8,24.46-42.36,58.22-69.5,95.51-27.1,37.3-51.69,71.04-69.64,95.35-8.97,12.16-16.28,21.97-21.38,28.71-2.55,3.37-4.55,5.97-5.93,7.72-1.38,1.75-2.14,2.64-2.2,2.59-.07-.05.56-1.04,1.81-2.88,1.26-1.84,3.14-4.52,5.6-7.97,4.91-6.88,12.08-16.79,21.01-28.98,17.84-24.4,42.68-57.95,70.18-94.96Z"/><path class="cls-5" d="m196.79,296.12c32.91-32.32,62.69-61.57,84.27-82.78,10.72-10.63,19.39-19.23,25.41-25.21,2.96-2.98,5.27-5.3,6.86-6.9.76-.78,1.34-1.38,1.76-1.82.39-.41.59-.63.58-.64-.01-.01-.23.18-.65.57-.44.42-1.04.99-1.83,1.75-1.62,1.58-3.96,3.86-6.96,6.8-6.03,5.97-14.71,14.57-25.43,25.19-21.39,21.4-50.9,50.92-83.52,83.54-32.57,32.63-62.11,62.13-83.62,83.36-10.75,10.62-19.5,19.17-25.59,25.03-3.04,2.93-5.42,5.19-7.06,6.71-1.63,1.51-2.52,2.28-2.58,2.22-.06-.06.71-.94,2.24-2.56,1.53-1.62,3.81-3.98,6.77-7,5.92-6.04,14.55-14.7,25.26-25.36,21.42-21.33,51.18-50.61,84.09-82.89Z"/><path class="cls-5" d="m190.09,288.12c37.53-26.81,71.5-51.07,96.12-68.66,12.24-8.83,22.15-15.98,29.03-20.95,3.39-2.49,6.03-4.42,7.85-5.75.87-.65,1.54-1.16,2.02-1.52.45-.35.68-.53.67-.55-.01-.01-.26.14-.73.46-.49.34-1.18.82-2.08,1.44-1.84,1.31-4.51,3.2-7.94,5.63-6.88,4.96-16.8,12.1-29.04,20.93-24.46,17.81-58.2,42.38-95.49,69.53-37.25,27.17-71.02,51.71-95.57,69.34-12.28,8.81-22.24,15.9-29.17,20.75-3.46,2.42-6.17,4.29-8.01,5.53-1.85,1.24-2.84,1.86-2.89,1.79-.05-.07.85-.82,2.61-2.18,1.76-1.36,4.38-3.34,7.77-5.86,6.78-5.04,16.66-12.26,28.9-21.13,24.47-17.73,58.43-42.03,95.96-68.8Z"/><path class="cls-5" d="m184.71,279.17c41.26-20.61,78.61-39.26,105.67-52.78,13.47-6.81,24.37-12.33,31.94-16.15,3.74-1.92,6.64-3.42,8.65-4.46.96-.51,1.71-.9,2.24-1.19.5-.27.75-.42.75-.44s-.28.1-.79.34c-.54.26-1.3.62-2.28,1.1-2.02,1-4.95,2.45-8.72,4.32-7.57,3.82-18.48,9.33-31.96,16.13-26.94,13.77-64.11,32.76-105.19,53.75-41.04,21.01-78.23,39.98-105.24,53.55-13.5,6.79-24.46,12.23-32.05,15.93-3.8,1.85-6.76,3.27-8.78,4.2-2.02.94-3.1,1.39-3.14,1.31s.97-.68,2.92-1.75c1.95-1.07,4.85-2.61,8.59-4.57,7.49-3.92,18.37-9.51,31.84-16.35,26.95-13.69,64.28-32.38,105.54-52.94Z"/><path class="cls-5" d="m180.8,269.49c43.99-13.86,83.81-26.41,112.66-35.5,14.37-4.61,26.01-8.34,34.09-10.93,3.99-1.31,7.1-2.34,9.25-3.04,1.03-.35,1.83-.62,2.4-.82.54-.19.81-.3.8-.31,0-.02-.29.05-.84.21-.58.17-1.38.41-2.43.72-2.16.67-5.28,1.64-9.29,2.89-8.08,2.58-19.72,6.3-34.1,10.9-28.77,9.36-68.47,22.27-112.33,36.53-43.83,14.29-83.54,27.17-112.35,36.32-14.4,4.58-26.07,8.23-34.16,10.69-4.04,1.23-7.19,2.16-9.33,2.77-2.14.61-3.28.88-3.31.8-.03-.08,1.06-.52,3.16-1.27,2.1-.75,5.2-1.82,9.21-3.17,8.01-2.69,19.64-6.5,34.02-11.14,28.76-9.28,68.57-21.86,112.56-35.68Z"/><path class="cls-5" d="m178.47,259.32c45.63-6.77,86.92-12.89,116.85-17.33,14.92-2.29,27-4.14,35.38-5.43,4.15-.67,7.38-1.19,9.61-1.55,1.07-.19,1.9-.33,2.49-.43.56-.1.85-.17.84-.18,0-.02-.29,0-.86.08-.6.08-1.43.19-2.51.33-2.23.32-5.47.79-9.63,1.4-8.39,1.28-20.47,3.12-35.39,5.4-29.89,4.71-71.12,11.22-116.68,18.4-45.53,7.22-86.78,13.69-116.67,18.19-14.94,2.25-27.04,4.02-35.42,5.18-4.19.58-7.44,1.01-9.65,1.27-2.21.26-3.38.36-3.39.27-.01-.08,1.13-.34,3.32-.75,2.19-.41,5.42-.98,9.59-1.68,8.34-1.4,20.41-3.33,35.35-5.65,29.87-4.64,71.16-10.8,116.77-17.53Z"/><path class="cls-5" d="m177.75,248.9c46.12.39,87.86.74,118.12.99,15.09.05,27.31.1,35.8.13,4.2-.02,7.47-.03,9.73-.03,1.09-.02,1.93-.03,2.53-.04.57-.01.86-.03.86-.05,0-.02-.29-.04-.86-.05-.6-.01-1.44-.03-2.53-.06-2.26-.03-5.53-.06-9.73-.11-8.48-.04-20.7-.09-35.8-.15-30.26.02-72,.04-118.12.07-46.1.06-87.85.05-118.08-.13-15.11-.09-27.34-.22-35.79-.37-4.23-.08-7.51-.16-9.73-.24-2.23-.08-3.39-.17-3.39-.25,0-.08,1.17-.16,3.39-.23,2.23-.07,5.51-.12,9.73-.17,8.45-.09,20.68-.12,35.8-.09,30.22.05,71.97.36,118.07.79Z"/><path class="cls-5" d="m178.66,238.49c45.5,7.55,86.68,14.39,116.53,19.34,14.9,2.4,26.96,4.34,35.34,5.69,4.16.64,7.39,1.13,9.62,1.47,1.08.15,1.91.27,2.51.35.57.07.86.1.86.08,0-.02-.28-.08-.84-.19-.59-.11-1.42-.26-2.49-.45-2.23-.38-5.45-.92-9.6-1.62-8.38-1.35-20.44-3.3-35.34-5.71-29.89-4.68-71.13-11.14-116.7-18.27-45.55-7.1-86.79-13.59-116.62-18.47-14.91-2.44-26.98-4.46-35.3-5.93-4.16-.73-7.39-1.32-9.58-1.75-2.18-.43-3.33-.7-3.31-.78.01-.08,1.18.02,3.39.3,2.21.28,5.46.73,9.64,1.35,8.36,1.23,20.45,3.09,35.38,5.47,29.85,4.74,71.04,11.55,116.52,19.13Z"/><path class="cls-5" d="m181.19,228.35c43.75,14.63,83.33,27.86,112.03,37.45,14.34,4.71,25.95,8.53,34.01,11.18,4,1.28,7.12,2.28,9.27,2.97,1.04.32,1.84.57,2.42.74.55.16.83.24.84.22,0-.02-.27-.13-.8-.32-.57-.2-1.36-.48-2.39-.84-2.14-.72-5.24-1.77-9.22-3.12-8.06-2.66-19.66-6.48-34-11.21-28.78-9.33-68.49-22.2-112.37-36.42-43.87-14.18-83.57-27.08-112.26-36.6-14.34-4.76-25.94-8.66-33.93-11.42-4-1.38-7.09-2.47-9.18-3.24-2.09-.77-3.17-1.21-3.15-1.29.03-.08,1.16.21,3.3.83,2.14.62,5.28,1.58,9.31,2.85,8.07,2.53,19.71,6.27,34.07,10.97,28.73,9.39,68.33,22.59,112.05,37.24Z"/><path class="cls-5" d="m185.27,218.75c40.9,21.32,77.91,40.62,104.74,54.61,13.42,6.91,24.28,12.51,31.82,16.39,3.75,1.9,6.67,3.37,8.68,4.39.98.48,1.73.85,2.27,1.12.51.25.78.36.79.35,0-.02-.24-.17-.74-.44-.53-.29-1.27-.68-2.23-1.2-2-1.05-4.89-2.57-8.62-4.53-7.54-3.89-18.4-9.49-31.81-16.42-26.95-13.74-64.14-32.7-105.24-53.65-41.09-20.91-78.27-39.9-105.1-53.81-13.42-6.95-24.25-12.63-31.71-16.61-3.73-1.99-6.61-3.56-8.56-4.64-1.94-1.09-2.94-1.7-2.91-1.77.04-.07,1.11.39,3.13,1.34,2.01.95,4.96,2.39,8.75,4.28,7.57,3.77,18.48,9.3,31.92,16.2,26.89,13.79,63.93,33.06,104.79,54.41Z"/><path class="cls-5" d="m190.82,209.9c37.06,27.46,70.61,52.3,94.92,70.31,12.17,8.92,22.03,16.15,28.87,21.17,3.41,2.46,6.06,4.37,7.89,5.7.89.63,1.58,1.11,2.07,1.46.47.32.72.48.73.47.01-.01-.21-.2-.66-.55-.48-.37-1.15-.87-2.01-1.54-1.81-1.35-4.43-3.31-7.8-5.82-6.84-5.02-16.69-12.25-28.85-21.19-24.48-17.79-58.24-42.33-95.55-69.44-37.32-27.07-71.07-51.65-95.4-69.58-12.17-8.96-21.98-16.27-28.72-21.36-3.37-2.55-5.98-4.55-7.73-5.92-1.75-1.38-2.64-2.14-2.59-2.2.05-.07,1.04.56,2.88,1.81,1.84,1.26,4.53,3.14,7.97,5.59,6.89,4.9,16.8,12.07,29,20.99,24.41,17.82,57.98,42.65,95,70.12Z"/><path class="cls-5" d="m197.67,202.03c32.34,32.89,61.61,62.65,82.83,84.22,10.64,10.71,19.25,19.38,25.22,25.4,2.98,2.96,5.31,5.26,6.91,6.86.78.76,1.39,1.34,1.82,1.76.41.39.63.59.65.57.01-.01-.18-.23-.57-.65-.42-.44-1-1.04-1.75-1.83-1.58-1.62-3.86-3.95-6.8-6.96-5.97-6.02-14.58-14.7-25.21-25.42-21.41-21.38-50.95-50.87-83.59-83.46-32.65-32.55-62.17-62.07-83.41-83.57-10.62-10.75-19.18-19.49-25.05-25.57-2.93-3.04-5.2-5.42-6.71-7.05-1.51-1.63-2.28-2.52-2.22-2.58.06-.06.94.71,2.56,2.24,1.62,1.53,3.98,3.81,7,6.76,6.04,5.91,14.71,14.54,25.38,25.24,21.34,21.4,50.64,51.15,82.94,84.04Z"/><path class="cls-5" d="m205.67,195.32c26.83,37.52,51.12,71.47,68.72,96.08,8.84,12.23,16,22.14,20.97,29.01,2.49,3.39,4.42,6.03,5.76,7.85.66.87,1.16,1.54,1.52,2.02.35.45.53.68.55.67.01-.01-.14-.26-.46-.73-.34-.49-.82-1.18-1.44-2.08-1.31-1.84-3.2-4.51-5.64-7.93-4.97-6.88-12.11-16.79-20.95-29.03-17.83-24.45-42.42-58.18-69.59-95.45-27.19-37.23-51.76-70.99-69.4-95.53-8.82-12.27-15.92-22.23-20.77-29.16-2.43-3.46-4.29-6.16-5.53-8.01-1.24-1.85-1.86-2.84-1.79-2.89.07-.05.82.85,2.18,2.61,1.36,1.76,3.34,4.38,5.87,7.77,5.05,6.78,12.27,16.65,21.15,28.88,17.75,24.46,42.07,58.4,68.86,95.92Z"/><path class="cls-5" d="m214.61,189.93c20.64,41.25,39.31,78.58,52.85,105.64,6.82,13.46,12.34,24.36,16.17,31.93,1.93,3.74,3.43,6.64,4.46,8.65.51.96.9,1.7,1.19,2.24.27.5.42.75.44.75.02,0-.1-.28-.34-.79-.26-.54-.63-1.3-1.1-2.28-1-2.02-2.46-4.95-4.33-8.72-3.83-7.57-9.34-18.48-16.15-31.95-13.78-26.93-32.8-64.09-53.82-105.15-21.04-41.02-40.03-78.2-53.61-105.2-6.8-13.5-12.24-24.45-15.95-32.04-1.85-3.8-3.27-6.76-4.21-8.78-.94-2.02-1.39-3.1-1.32-3.14.08-.04.68.97,1.75,2.92,1.07,1.95,2.62,4.85,4.58,8.59,3.92,7.49,9.52,18.36,16.37,31.83,13.71,26.94,32.42,64.26,53.01,105.51Z"/><path class="cls-5" d="m224.28,186.02c13.89,43.98,26.46,83.79,35.57,112.64,4.62,14.37,8.35,26,10.95,34.08,1.32,3.99,2.34,7.1,3.05,9.24.35,1.03.63,1.83.82,2.39.19.54.3.81.31.8.02,0-.05-.29-.21-.84-.17-.58-.41-1.38-.73-2.43-.67-2.16-1.65-5.28-2.9-9.29-2.59-8.08-6.32-19.72-10.92-34.09-9.38-28.77-22.31-68.45-36.6-112.31-14.32-43.82-27.23-83.53-36.4-112.33-4.59-14.4-8.25-26.07-10.71-34.16-1.23-4.04-2.17-7.19-2.78-9.33-.61-2.14-.89-3.28-.8-3.31.08-.03.52,1.06,1.27,3.16.75,2.1,1.82,5.2,3.17,9.2,2.7,8.01,6.51,19.63,11.16,34.01,9.3,28.76,21.9,68.56,35.75,112.53Z"/><path class="cls-5" d="m234.46,183.68c6.8,45.62,12.95,86.91,17.41,116.83,2.3,14.92,4.16,26.99,5.45,35.38.67,4.15,1.19,7.38,1.55,9.61.19,1.07.33,1.9.43,2.49.1.56.17.85.18.84.02,0,0-.29-.08-.86-.08-.6-.19-1.43-.34-2.51-.33-2.23-.8-5.47-1.4-9.63-1.29-8.39-3.14-20.46-5.42-35.38-4.73-29.88-11.26-71.11-18.47-116.67-7.25-45.53-13.74-86.77-18.27-116.65-2.26-14.94-4.04-27.04-5.2-35.42-.58-4.19-1.01-7.44-1.27-9.65-.26-2.21-.36-3.38-.28-3.39.08-.01.34,1.13.76,3.32s.98,5.42,1.68,9.59c1.4,8.34,3.34,20.41,5.67,35.34,4.66,29.86,10.84,71.15,17.6,116.76Z"/><path class="cls-5" d="m244.88,182.96c-.36,46.12-.68,87.86-.92,118.12-.04,15.09-.08,27.31-.11,35.8.02,4.2.03,7.47.04,9.73.02,1.09.03,1.93.04,2.53.01.57.03.86.05.86.02,0,.04-.29.05-.86.01-.6.03-1.44.06-2.53.02-2.26.06-5.53.1-9.73.03-8.48.07-20.7.13-35.8-.04-30.26-.09-72-.15-118.12-.09-46.1-.11-87.85.06-118.08.08-15.11.2-27.34.35-35.79.07-4.23.15-7.51.24-9.73.08-2.22.17-3.39.25-3.39.08,0,.16,1.17.23,3.39.07,2.23.13,5.51.17,9.73.09,8.45.13,20.68.12,35.8-.03,30.22-.32,71.97-.71,118.07Z"/><path class="cls-5" d="m255.29,183.86c-7.52,45.51-14.33,86.69-19.26,116.54-2.39,14.9-4.32,26.97-5.66,35.35-.63,4.16-1.13,7.39-1.47,9.62-.15,1.08-.27,1.91-.35,2.51-.07.57-.1.86-.08.86.02,0,.08-.28.19-.84.11-.59.26-1.42.45-2.49.38-2.23.92-5.45,1.62-9.6,1.35-8.38,3.29-20.44,5.69-35.34,4.66-29.9,11.09-71.14,18.2-116.71,7.07-45.56,13.53-86.8,18.39-116.63,2.43-14.92,4.45-26.98,5.91-35.3.73-4.16,1.32-7.39,1.75-9.58.43-2.19.69-3.33.78-3.31.08.01-.02,1.18-.3,3.39-.28,2.21-.73,5.46-1.34,9.64-1.22,8.36-3.08,20.45-5.44,35.38-4.72,29.85-11.5,71.05-19.05,116.53Z"/><path class="cls-5" d="m265.43,186.38c-14.6,43.76-27.81,83.35-37.38,112.05-4.7,14.34-8.51,25.95-11.16,34.01-1.28,4-2.28,7.12-2.96,9.27-.32,1.04-.57,1.84-.74,2.42-.16.55-.23.83-.22.84.02,0,.13-.27.32-.8.2-.57.48-1.36.84-2.39.72-2.14,1.77-5.24,3.11-9.22,2.65-8.06,6.47-19.67,11.18-34,9.31-28.79,22.15-68.51,36.34-112.39,14.15-43.88,27.03-83.59,36.52-112.28,4.75-14.35,8.64-25.94,11.4-33.93,1.38-4,2.47-7.09,3.24-9.18.77-2.09,1.21-3.17,1.29-3.15.08.03-.2,1.16-.83,3.3-.62,2.14-1.58,5.28-2.84,9.31-2.52,8.07-6.26,19.71-10.95,34.08-9.37,28.74-22.55,68.35-37.17,112.07Z"/><path class="cls-5" d="m275.03,190.46c-21.3,40.91-40.57,77.94-54.54,104.78-6.9,13.42-12.49,24.29-16.37,31.83-1.89,3.75-3.37,6.67-4.39,8.69-.48.98-.85,1.73-1.11,2.27-.25.51-.36.78-.35.79.02,0,.17-.24.44-.74.29-.53.68-1.27,1.2-2.23,1.05-2,2.57-4.9,4.52-8.62,3.89-7.54,9.48-18.4,16.4-31.82,13.73-26.96,32.66-64.16,53.59-105.27,20.88-41.1,39.85-78.29,53.74-105.13,6.94-13.42,12.61-24.26,16.59-31.72,1.99-3.73,3.55-6.62,4.64-8.56,1.09-1.94,1.69-2.95,1.77-2.91.07.04-.39,1.11-1.34,3.13-.95,2.01-2.39,4.96-4.27,8.75-3.76,7.57-9.29,18.48-16.18,31.93-13.77,26.9-33.02,63.95-54.34,104.83Z"/><path class="cls-5" d="m283.89,196c-27.43,37.08-52.26,70.64-70.25,94.96-8.92,12.18-16.13,22.04-21.15,28.88-2.46,3.41-4.37,6.06-5.69,7.89-.63.89-1.11,1.58-1.46,2.07-.32.47-.48.72-.47.73.01.01.2-.21.55-.66.36-.48.87-1.15,1.54-2.01,1.35-1.81,3.3-4.43,5.81-7.81,5.02-6.84,12.24-16.7,21.17-28.87,17.77-24.49,42.29-58.27,69.38-95.6,27.05-37.33,51.6-71.1,69.52-95.44,8.96-12.17,16.25-21.99,21.35-28.74,2.55-3.37,4.54-5.98,5.92-7.73,1.38-1.75,2.13-2.64,2.2-2.59.07.05-.56,1.04-1.81,2.88-1.25,1.84-3.14,4.53-5.59,7.97-4.9,6.89-12.06,16.8-20.97,29.01-17.81,24.42-42.61,58-70.06,95.05Z"/><path class="cls-5" d="m291.76,202.85c-32.87,32.36-62.61,61.65-84.16,82.88-10.7,10.64-19.37,19.26-25.38,25.24-2.96,2.99-5.26,5.31-6.85,6.91-.76.78-1.34,1.39-1.76,1.82-.39.41-.59.63-.57.65.01.01.23-.18.65-.57.43-.42,1.04-1,1.83-1.75,1.61-1.58,3.95-3.87,6.96-6.81,6.02-5.98,14.69-14.59,25.4-25.22,21.36-21.42,50.84-50.98,83.41-83.64,32.53-32.67,62.03-62.21,83.52-83.46,10.74-10.63,19.47-19.19,25.55-25.07,3.04-2.94,5.42-5.2,7.05-6.72,1.63-1.51,2.52-2.28,2.58-2.22.06.06-.71.94-2.24,2.56-1.52,1.62-3.8,3.98-6.76,7.01-5.91,6.04-14.53,14.72-25.23,25.4-21.39,21.35-51.11,50.67-83.99,82.99Z"/><path class="cls-5" d="m298.48,210.84c-37.5,26.86-71.43,51.16-96.03,68.78-12.23,8.85-22.13,16.01-29,20.99-3.39,2.49-6.02,4.43-7.84,5.76-.87.66-1.54,1.16-2.02,1.52-.45.35-.68.53-.67.55.01.01.26-.14.73-.46.49-.34,1.18-.82,2.08-1.44,1.84-1.31,4.51-3.21,7.93-5.64,6.88-4.97,16.78-12.13,29.01-20.97,24.44-17.84,58.15-42.45,95.4-69.65,37.21-27.21,70.95-51.8,95.48-69.46,12.26-8.83,22.22-15.93,29.14-20.79,3.46-2.43,6.16-4.29,8.01-5.54,1.85-1.24,2.84-1.86,2.89-1.79.05.07-.85.82-2.61,2.18s-4.38,3.35-7.77,5.87c-6.78,5.05-16.64,12.28-28.87,21.16-24.45,17.77-58.37,42.1-95.87,68.92Z"/><path class="cls-5" d="m303.87,219.78c-41.24,20.66-78.56,39.36-105.61,52.92-13.46,6.83-24.36,12.36-31.92,16.19-3.73,1.93-6.64,3.43-8.65,4.47-.96.51-1.7.91-2.24,1.19-.5.27-.75.42-.74.44,0,.02.28-.1.79-.34.54-.26,1.3-.63,2.28-1.1,2.02-1.01,4.95-2.46,8.72-4.33,7.57-3.83,18.47-9.35,31.94-16.17,26.92-13.8,64.07-32.84,105.12-53.88,41.01-21.06,78.18-40.08,105.17-53.68,13.49-6.8,24.44-12.26,32.03-15.97,3.8-1.86,6.76-3.28,8.78-4.22,2.02-.94,3.1-1.39,3.14-1.32.04.08-.97.68-2.92,1.75-1.95,1.07-4.85,2.62-8.59,4.58-7.48,3.93-18.36,9.53-31.82,16.39-26.93,13.72-64.24,32.46-105.47,53.08Z"/><path class="cls-5" d="m307.79,229.45c-43.98,13.92-83.77,26.51-112.62,35.64-14.37,4.63-26,8.37-34.07,10.97-3.99,1.32-7.1,2.34-9.24,3.05-1.03.35-1.82.63-2.39.82-.54.19-.81.3-.8.32,0,.02.29-.05.84-.21.58-.17,1.38-.41,2.42-.73,2.16-.67,5.28-1.65,9.29-2.91,8.08-2.59,19.71-6.33,34.08-10.95,28.76-9.39,68.44-22.36,112.29-36.68,43.81-14.35,83.51-27.28,112.3-36.47,14.4-4.6,26.06-8.26,34.15-10.73,4.04-1.24,7.19-2.17,9.33-2.78,2.14-.61,3.28-.89,3.31-.81.03.08-1.06.52-3.16,1.27-2.1.75-5.2,1.83-9.2,3.18-8.01,2.7-19.63,6.53-34,11.18-28.75,9.32-68.54,21.95-112.51,35.82Z"/><path class="cls-5" d="m310.13,239.62c-45.62,6.83-86.9,13-116.82,17.48-14.92,2.31-26.99,4.18-35.38,5.47-4.15.67-7.38,1.2-9.61,1.56-1.07.19-1.9.33-2.49.43-.56.1-.85.17-.84.18,0,.02.29,0,.86-.08.6-.08,1.43-.19,2.51-.34,2.23-.33,5.47-.8,9.63-1.41,8.39-1.29,20.46-3.15,35.38-5.45,29.88-4.75,71.1-11.31,116.66-18.55,45.53-7.28,86.76-13.8,116.64-18.34,14.94-2.27,27.04-4.06,35.41-5.23,4.19-.58,7.44-1.02,9.65-1.28,2.21-.26,3.38-.36,3.39-.28.01.08-1.13.34-3.32.76-2.19.41-5.42.98-9.59,1.69-8.34,1.41-20.41,3.36-35.34,5.69-29.86,4.68-71.14,10.89-116.74,17.68Z"/><path class="cls-2" d="m357.45,72.36l1.05,1.74c1.18,1.96,2.89,3.54,4.94,4.55l1.82.9-1.74,1.05c-1.96,1.18-3.54,2.89-4.55,4.94l-.9,1.82-1.05-1.74c-1.18-1.96-2.89-3.54-4.94-4.55l-1.82-.9,1.74-1.05c1.96-1.18,3.54-2.89,4.55-4.94l.9-1.82Z"/><path class="cls-2" d="m355.28,276.89l.64,1.07c.72,1.2,1.77,2.16,3.02,2.78l1.12.55-1.07.64c-1.2.72-2.16,1.77-2.78,3.02l-.55,1.12-.64-1.07c-.72-1.2-1.77-2.16-3.02-2.78l-1.12-.55,1.07-.64c1.2-.72,2.16-1.77,2.78-3.02l.55-1.12Z"/><path class="cls-2" d="m459.42,389.62l.64,1.07c.72,1.2,1.77,2.16,3.02,2.78l1.12.55-1.07.64c-1.2.72-2.16,1.77-2.78,3.02l-.55,1.12-.64-1.07c-.72-1.2-1.77-2.16-3.02-2.78l-1.12-.55,1.07-.64c1.2-.72,2.16-1.77,2.78-3.02l.55-1.12Z"/><path class="cls-2" d="m56.05,335.04l.64,1.07c.72,1.2,1.77,2.16,3.02,2.78l1.12.55-1.07.64c-1.2.72-2.16,1.77-2.78,3.02l-.55,1.12-.64-1.07c-.72-1.2-1.77-2.16-3.02-2.78l-1.12-.55,1.07-.64c1.2-.72,2.16-1.77,2.78-3.02l.55-1.12Z"/><path class="cls-2" d="m181.64,36.91l.64,1.07c.72,1.2,1.77,2.16,3.02,2.78l1.12.55-1.07.64c-1.2.72-2.16,1.77-2.78,3.02l-.55,1.12-.64-1.07c-.72-1.2-1.77-2.16-3.02-2.78l-1.12-.55,1.07-.64c1.2-.72,2.16-1.77,2.78-3.02l.55-1.12Z"/><path class="cls-2" d="m78.98,47.39l.64,1.07c.72,1.2,1.77,2.16,3.02,2.78l1.12.55-1.07.64c-1.2.72-2.16,1.77-2.78,3.02l-.55,1.12-.64-1.07c-.72-1.2-1.77-2.16-3.02-2.78l-1.12-.55,1.07-.64c1.2-.72,2.16-1.77,2.78-3.02l.55-1.12Z"/><path class="cls-2" d="m126.88,151.56l.64,1.07c.72,1.2,1.77,2.16,3.02,2.78l1.12.55-1.07.64c-1.2.72-2.16,1.77-2.78,3.02l-.55,1.12-.64-1.07c-.72-1.2-1.77-2.16-3.02-2.78l-1.12-.55,1.07-.64c1.2-.72,2.16-1.77,2.78-3.02l.55-1.12Z"/><path class="cls-2" d="m364.58,180.68l.64,1.07c.72,1.2,1.77,2.16,3.02,2.78l1.12.55-1.07.64c-1.2.72-2.16,1.77-2.78,3.02l-.55,1.12-.64-1.07c-.72-1.2-1.77-2.16-3.02-2.78l-1.12-.55,1.07-.64c1.2-.72,2.16-1.77,2.78-3.02l.55-1.12Z"/><path class="cls-2" d="m355.28,392.19l.64,1.07c.72,1.2,1.77,2.16,3.02,2.78l1.12.55-1.07.64c-1.2.72-2.16,1.77-2.78,3.02l-.55,1.12-.64-1.07c-.72-1.2-1.77-2.16-3.02-2.78l-1.12-.55,1.07-.64c1.2-.72,2.16-1.77,2.78-3.02l.55-1.12Z"/><path class="cls-2" d="m170.39,80.4l1.29,2.15c1.45,2.41,3.57,4.36,6.09,5.61l2.25,1.11-2.15,1.29c-2.42,1.45-4.36,3.57-5.61,6.09l-1.11,2.25-1.29-2.15c-1.45-2.41-3.57-4.36-6.09-5.61l-2.25-1.11,2.15-1.29c2.41-1.45,4.36-3.57,5.61-6.09l1.11-2.25Z"/><path class="cls-2" d="m449.97,69.69l1.29,2.15c1.45,2.41,3.57,4.36,6.09,5.61l2.25,1.11-2.15,1.29c-2.42,1.45-4.36,3.57-5.61,6.09l-1.11,2.25-1.29-2.15c-1.45-2.41-3.57-4.36-6.09-5.61l-2.25-1.11,2.15-1.29c2.41-1.45,4.36-3.57,5.61-6.09l1.11-2.25Z"/><path class="cls-2" d="m331.28,36.13l.75,1.25c.84,1.4,2.07,2.53,3.54,3.26l1.31.65-1.25.75c-1.4.84-2.53,2.07-3.26,3.54l-.65,1.31-.75-1.25c-.84-1.4-2.07-2.53-3.54-3.26l-1.31-.65,1.25-.75c1.4-.84,2.53-2.07,3.26-3.54l.65-1.31Z"/><path class="cls-2" d="m75,290.28l1.13,1.88c1.27,2.11,3.12,3.82,5.34,4.91l1.97.97-1.88,1.13c-2.11,1.27-3.82,3.12-4.91,5.34l-.97,1.97-1.13-1.88c-1.27-2.11-3.12-3.82-5.34-4.91l-1.97-.97,1.88-1.13c2.11-1.27,3.82-3.12,4.91-5.34l.97-1.97Z"/><path class="cls-2" d="m404.17,399.54l1.13,1.88c1.27,2.11,3.12,3.82,5.34,4.91l1.97.97-1.88,1.13c-2.11,1.27-3.82,3.12-4.91,5.34l-.97,1.97-1.13-1.88c-1.27-2.11-3.12-3.82-5.34-4.91l-1.97-.97,1.88-1.13c2.11-1.27,3.82-3.12,4.91-5.34l.97-1.97Z"/></g><g id="Desk"><path class="cls-4" d="m477.56,478.22c0,.14-101.89.26-227.54.26s-227.57-.12-227.57-.26,101.87-.26,227.57-.26,227.54.12,227.54.26Z"/></g><g id="Character_1"><path class="cls-4" d="m141.18,356.65c.07-2.32,1.47-4.36,3.4-5.64,30.19-19.98,52.94-64.26,55.23-101.75.06-2.14.13-4.3.2-6.48,0,0,0-.02,0-.03h0c1.75-53.6,9.64-118.61,16.73-135.94,13.09-32.01,57.42-35.01,57.42-35.01,58.85-4.21,69.36,41.01,75.3,82.19,3.69,25.61,17.93,117.11,17.93,117.11l-10.82,4.18c-12.74,37.76-41.44,68.3-78.73,82.34-10.85,4.09-20.03,5.72-24.34,2.21-17.13,17.37-38.58,30.49-61.93,37.59-9.5,2.89-19.47,4.82-29.36,3.9-6.42-.6-13.2-2.72-17.03-7.91-3.3-4.47-3.75-10.87-1.12-15.76,2.64-4.89,8.22-8.03,13.77-7.74-2.23-7.23-16.91-5.11-16.65-13.25Z"/><path class="cls-8" d="m266.33,88.43l3.68-3.51,39.79,16.03c5.76.32,10.31,4.99,10.49,10.75l-.35,129.63c.05,8.79-1.71,16.4-7.02,23.41l-5.59,7.38c-12.74,16.82-38.95,15.44-49.04-3.1-.71-1.29-1.19-2.43-1.41-3.35-.21-1.16-.53-1.92-.59-2.9-1.18-10.43-1.25-19.47-1.25-19.47-.71-11.45-.94-16.15-.94-16.04,0,0-24.37-2.8-30.96-34.08-3.28-15.56-2.66-36.96-1.74-58.02,1.27-29.15,21.49-46.76,44.92-46.73Z"/><path class="cls-4" d="m274.48,152.63c.03,2.14,1.87,3.88,4.1,3.88,2.23,0,4.02-1.71,3.99-3.85-.03-2.14-1.87-3.88-4.1-3.89-2.24,0-4.02,1.72-3.99,3.86Z"/><path class="cls-4" d="m233.35,153.73c.03,2.14,1.87,3.88,4.1,3.88,2.23,0,4.02-1.71,3.99-3.85-.03-2.14-1.87-3.88-4.1-3.89-2.24,0-4.02,1.72-3.99,3.86Z"/><path class="cls-4" d="m225.56,143.49c.53.5,3.48-1.92,7.83-2.13,4.34-.27,7.65,1.81,8.1,1.25.22-.25-.34-1.17-1.78-2.12-1.42-.94-3.8-1.8-6.51-1.66-2.71.15-4.94,1.26-6.2,2.35-1.29,1.09-1.69,2.07-1.43,2.29Z"/><path class="cls-4" d="m269.72,143.95c.58.44,3.27-2.27,7.57-2.92,4.29-.71,7.8,1.01,8.18.41.19-.27-.45-1.13-1.99-1.92-1.51-.79-3.97-1.4-6.65-.98-2.68.43-4.78,1.76-5.93,2.98-1.16,1.22-1.47,2.23-1.19,2.43Z"/><path class="cls-4" d="m254.52,175.62c0-.25-2.72-.58-7.13-.92-1.12-.06-2.18-.23-2.4-.98-.3-.79.1-2.01.58-3.33.91-2.74,1.86-5.61,2.86-8.63,3.96-12.27,6.77-22.35,6.27-22.5-.5-.16-4.11,9.67-8.07,21.94-.95,3.03-1.86,5.91-2.72,8.67-.36,1.28-1.01,2.75-.36,4.39.34.82,1.19,1.38,1.91,1.53.72.18,1.35.16,1.9.17,4.42.02,7.16-.1,7.16-.35Z"/><path class="cls-6" d="m254.09,227.27s21.28.3,41.66-13.38c0,0-9.52,22.36-41.23,20.99l-.43-7.61Z"/><path class="cls-6" d="m256.88,186.02c1.46-2.15,4.15-3.42,6.88-3.26,1.9.11,3.85.92,5.08,2.4,1.22,1.48,1.57,3.65.6,5.17-1.09,1.71-3.53,2.21-5.63,1.73-2.11-.49-3.96-1.76-5.73-3.04-.49-.35-.99-.72-1.31-1.22-.32-.5-.42-1.17-.08-1.62"/><path class="cls-4" d="m267.48,177.99c-.71,0-.48,4.72-4.36,8.27-3.87,3.57-8.93,3.29-8.93,3.95-.05.3,1.17.86,3.29.81,2.09-.03,5.1-.86,7.47-3.03,2.36-2.18,3.29-4.98,3.35-6.92.08-1.98-.5-3.13-.83-3.08Z"/><path class="cls-4" d="m265.55,126.98c.6,1.11,4.82-.11,9.96-.27,5.14-.27,9.44.59,9.95-.57.22-.55-.66-1.54-2.48-2.42-1.81-.88-4.58-1.56-7.66-1.43-3.08.13-5.79,1.04-7.51,2.07-1.74,1.03-2.53,2.1-2.26,2.62Z"/><path class="cls-4" d="m226.19,124.8c.81.95,3.76-.23,7.36-.46,3.59-.36,6.69.33,7.34-.74.28-.52-.25-1.48-1.63-2.35-1.36-.87-3.6-1.52-6.07-1.32-2.47.2-4.57,1.21-5.78,2.28-1.22,1.08-1.59,2.12-1.23,2.58Z"/><path class="cls-4" d="m319.49,167.03s-22.29,6.94-34.9-48.07c-4.31-18.81-21.75-34.04-21.75-34.04l7.07-2.13s43.95,12.38,44.69,12.94c.74.55,11.09,22.73,11.09,22.73l-6.2,48.57Z"/><path class="cls-8" d="m313.99,164.98c-.11-2.35,2.32-8.02,4.63-8.5,6.14-1.28,17.33-1.34,18.22,14.38,1.22,21.49-20.61,18.28-20.68,17.67-.06-.48-1.78-15.44-2.17-23.55Z"/><path class="cls-6" d="m322.26,180.02c.09-.07.39.24,1.04.49.63.25,1.71.38,2.8-.1,2.22-.96,3.93-4.67,3.81-8.55-.06-1.96-.57-3.8-1.35-5.3-.75-1.53-1.82-2.58-2.98-2.71-1.15-.2-1.92.53-2.15,1.15-.25.62-.09,1.04-.21,1.08-.06.06-.48-.33-.36-1.23.07-.43.29-.95.77-1.4.49-.45,1.24-.7,2.04-.66,1.66.02,3.24,1.46,4.1,3.11.95,1.65,1.58,3.72,1.64,5.92.11,4.34-1.88,8.52-4.93,9.59-1.49.48-2.78.1-3.46-.37-.7-.49-.84-.97-.76-1.01Z"/><path class="cls-4" d="m304.37,156.51c0-.07-1.19-.08-3.22-.65-2.02-.57-4.87-1.89-7.65-4.44-1.39-1.28-2.75-2.84-3.99-4.68-1.22-1.85-2.31-3.97-3.25-6.28-1.9-4.63-3.12-10.03-4.63-15.63-1.51-5.61-3.15-10.9-4.94-15.61-1.77-4.71-3.74-8.82-5.6-12.14-1.87-3.32-3.63-5.86-4.92-7.55-.63-.85-1.19-1.47-1.54-1.91-.36-.43-.56-.65-.57-.63-.02.01.15.26.48.71.32.46.85,1.09,1.45,1.97,1.24,1.72,2.93,4.29,4.75,7.61,1.81,3.33,3.72,7.43,5.46,12.13,1.76,4.7,3.38,9.97,4.88,15.57,1.5,5.59,2.74,11.01,4.69,15.68.96,2.34,2.08,4.47,3.34,6.35,1.28,1.86,2.69,3.43,4.11,4.71,2.87,2.56,5.8,3.85,7.86,4.36,2.08.52,3.28.44,3.28.44Z"/><path class="cls-7" d="m333.74,248.21s.1-.35.23-1.04c.13-.76.31-1.77.54-3.05.46-2.76,1.11-6.69,1.93-11.67l-.52-.07c-.11.78-.23,1.65-.35,2.54l.02-.08c-.14.29-.29.63-.45.96l.54.2c2.55-8.79,5.34-20.62,6.89-34.6.8-6.98,1.26-14.5,1.31-22.38-.08-7.86-.02-16.2-2.12-24.53-.87-3.44-2.19-6.75-3.91-9.76-1.72-3.01-3.77-5.75-5.94-8.28-4.37-5.05-9.08-9.39-13.38-13.7-8.67-8.53-16.49-16.22-23.07-22.7-6.55-6.4-11.87-11.59-15.62-15.24-1.82-1.74-3.25-3.12-4.28-4.11-.46-.43-.83-.78-1.13-1.05-.26-.23-.4-.35-.41-.33-.01.01.1.15.34.41.28.29.63.66,1.06,1.12,1,1.02,2.39,2.44,4.15,4.24,3.69,3.71,8.93,8.98,15.4,15.47,6.54,6.52,14.31,14.26,22.93,22.85,4.28,4.33,8.98,8.69,13.28,13.68,4.3,4.97,8,10.85,9.63,17.65,2.06,8.15,2.03,16.46,2.12,24.29-.04,7.85-.46,15.33-1.23,22.29-1.48,13.93-4.16,25.73-6.58,34.53l.54.2c.15-.34.31-.68.44-.97l.02-.04v-.04c.12-.89.22-1.76.32-2.54l-.52-.07c-.72,5-1.29,8.94-1.69,11.71-.17,1.3-.31,2.31-.41,3.08-.08.7-.12,1.06-.09,1.06Z"/><path class="cls-7" d="m350.66,148.86s-.1-.33-.38-.91c-.34-.68-.75-1.51-1.25-2.52-1.09-2.19-2.81-5.29-5.06-9.04-2.24-3.76-5.12-8.11-8.5-12.81-3.43-4.66-7.39-9.65-11.85-14.63-4.48-4.96-9.02-9.43-13.3-13.34-4.31-3.87-8.33-7.19-11.83-9.82-3.49-2.64-6.39-4.68-8.45-5.99-.95-.61-1.74-1.11-2.37-1.51-.55-.34-.85-.5-.86-.47-.02.03.24.25.75.64.61.45,1.36,1,2.27,1.66,1.99,1.41,4.82,3.53,8.24,6.23,3.43,2.69,7.39,6.05,11.65,9.93,4.22,3.92,8.72,8.39,13.18,13.33,4.43,4.96,8.4,9.9,11.85,14.51,3.41,4.64,6.33,8.94,8.64,12.64,2.32,3.69,4.13,6.73,5.32,8.86.57.98,1.03,1.78,1.41,2.43.33.55.52.83.55.82Z"/><path class="cls-4" d="m322.02,322.08c.06.03.58-.73,1.48-2.14.9-1.41,2.19-3.45,3.85-5.93,3.29-4.98,8.04-11.73,13.85-18.73,5.84-6.97,11.72-12.79,16.49-16.34,4.72-3.63,8.17-5.04,8.08-5.23-.03-.06-.88.29-2.42.98-.79.31-1.65.87-2.69,1.46-1.05.57-2.17,1.35-3.39,2.23-4.94,3.45-10.96,9.25-16.83,16.27-5.85,7.04-10.53,13.89-13.68,18.98-1.59,2.54-2.79,4.64-3.6,6.11-.8,1.47-1.21,2.3-1.15,2.34Z"/><path class="cls-3" d="m339.82,428.79l35.62-158.62-36.35-19.44c-.75-1.08-19.16-9.39-19.16-9.39-4.5,7.39-10.71,14.06-18.86,19.92-22.04,13.31-44.15,2.44-46.03-17.95h0s-20.17,5.67-20.17,5.67l-38.96,6.72s-31.73,82.68-27.53,115.03c4.2,32.35-1.66,88.31-1.66,88.31l-3.27,18.5,33.11.68h5.44l73.85-.41,64.45-.27c-7.56-21.85-.49-48.75-.49-48.75Z"/><path class="cls-8" d="m141.62,442.2c-12.76.47-25.05-5.92-31.25-17.09-1.98-3.57-3.3-7.56-3.3-11.87,0-17.23,10.72-41.94,14.28-50.84,5.13-12.82,54.06-101.61,59.94-100.35,5.88,1.26,9.08,1.72,9.08,1.72l-27.85,126.36,88.59,14.53-9.72,33.85-99.78,3.68Z"/><path class="cls-3" d="m139.32,308.5l45.03,23.89,14.88-76.69s-19.08,1.71-25.37,9.72c-6.29,8.01-34.54,43.09-34.54,43.09Z"/><path class="cls-8" d="m193.91,395.29l-12.12-26.34-5.3-19.48-16.11-12.5s-5.35.62-3.69,4.77c1.66,4.15,9.75,11.62,9.75,11.62l4.77,13.32-7.76-13.52-11.33-5.6-11.2.83s-2.07,4.98,3.11,5.19h5.6l8.51,6.85,5.31,12.86-8.01-12.45-11.83-4.2-7.47,1.92s-2.07,3.32,1.66,3.73c3.73.41,6.22.41,6.22.41l6.85,3.98,6.02,12.62-10.58-8.71-13.69-1.64s-2.28,3.3,1.24,4.54c3.53,1.24,10.58,4.98,10.58,4.98l7.62,10.53,41.85,6.29Z"/><path class="cls-6" d="m193.91,395.29c-1.58-.23-15.82-2.3-41.88-6.08h-.09s-.05-.09-.05-.09c-2.38-3.28-4.94-6.8-7.64-10.51l.08.07c-2.39-1.24-4.89-2.5-7.52-3.7-.66-.29-1.32-.59-2-.86-.65-.29-1.4-.45-2.08-.92-.69-.43-1.13-1.29-1.1-2.12.03-.83.33-1.59.77-2.28l.08-.13.16.02c4.29.51,8.92,1.05,13.7,1.62h.08s.06.06.06.06c3.31,2.72,6.9,5.67,10.59,8.7l-.45.35c-1.89-3.95-3.94-8.24-6.03-12.61l.12.13c-2.13-1.24-4.48-2.6-6.85-3.97l.16.04c-1.81-.02-3.68-.15-5.6-.34-.89-.11-2.13-.14-2.85-1.15-.34-.5-.37-1.12-.27-1.65.11-.53.3-1.01.57-1.49l.06-.11.13-.03c2.33-.6,4.89-1.26,7.47-1.92l.09-.02.09.03c3.73,1.32,7.76,2.75,11.83,4.2l.1.04.06.09c2.54,3.95,5.26,8.18,8.01,12.45l-.58.3c-.9-2.18-1.87-4.53-2.85-6.9-.83-2-1.65-3.99-2.46-5.97l.1.13c-2.86-2.3-5.7-4.59-8.51-6.85l.2.07c-1.1,0-2.2,0-3.3,0-1.11-.03-2.16.08-3.32-.12-1.1-.18-2.35-.92-2.66-2.14-.34-1.16-.13-2.32.26-3.38l.07-.18.21-.02c3.78-.28,7.52-.55,11.2-.83h.09s.08.03.08.03c3.84,1.9,7.61,3.77,11.33,5.61l.09.04.05.08c2.65,4.62,5.23,9.13,7.75,13.53l-.54.25c-1.64-4.58-3.22-9.01-4.76-13.32l.08.11c-2.87-2.73-5.57-5.49-7.85-8.5-.58-.75-1.08-1.54-1.55-2.36-.42-.83-.81-1.77-.71-2.77.07-1.03.81-1.86,1.6-2.34.82-.48,1.7-.75,2.61-.89l.1-.02.09.07c5.81,4.52,11.16,8.69,16.09,12.53l.06.05.02.07c1.98,7.36,3.73,13.81,5.26,19.49v-.03c7.48,16.54,11.41,25.22,11.95,26.41-.55-1.18-4.59-9.82-12.29-26.26h0s0-.03,0-.03c-1.56-5.67-3.33-12.12-5.35-19.46l.08.12c-4.95-3.83-10.31-7.97-16.13-12.47l.19.05c-.82.12-1.67.39-2.4.82-.71.44-1.3,1.11-1.35,1.94-.1,1.68,1.12,3.28,2.17,4.75,2.25,2.95,4.95,5.71,7.8,8.41l.05.05.02.06c1.55,4.31,3.14,8.74,4.78,13.31l-.54.25c-2.52-4.39-5.11-8.9-7.77-13.52l.13.12c-3.72-1.83-7.49-3.7-11.33-5.6l.16.03c-3.69.27-7.42.55-11.2.83l.27-.2c-.35.93-.52,2.02-.24,2.94.25.96,1.17,1.51,2.16,1.69.98.17,2.13.08,3.21.1,1.09,0,2.19,0,3.29,0h.11l.09.07c2.81,2.26,5.65,4.54,8.51,6.85l.07.05.03.08c.82,1.98,1.64,3.97,2.47,5.97.98,2.36,1.95,4.71,2.85,6.9l-.58.3c-2.75-4.27-5.47-8.5-8.01-12.45l.16.13c-4.07-1.45-8.09-2.88-11.83-4.21h.19c-2.58.67-5.13,1.33-7.47,1.92l.19-.14c-.44.76-.75,1.8-.31,2.45.22.32.58.55,1.02.66.42.12.89.17,1.37.22,1.9.19,3.77.32,5.54.35h.09s.07.04.07.04c2.37,1.38,4.72,2.75,6.84,3.98l.08.05.04.09c2.08,4.38,4.12,8.67,6.01,12.62l.57,1.2-1.02-.84c-3.68-3.04-7.26-5.99-10.57-8.72l.14.06c-4.78-.58-9.4-1.13-13.69-1.65l.25-.11c-.38.59-.66,1.31-.68,1.99-.01.68.3,1.32.88,1.7.55.39,1.28.57,1.97.87.69.27,1.35.57,2.02.87,2.64,1.21,5.14,2.48,7.53,3.73l.05.03.03.04c2.69,3.73,5.23,7.26,7.6,10.54l-.14-.09c26.02,4.04,40.24,6.25,41.82,6.5Z"/><g class="cls-9"><path class="cls-1" d="m340.54,438.79s-10.28,21.56-23.65,27.87c-12.41,5.86-20.28,7.12-35.05,6.05-7.21-.52-30.72-5.09-39.23-7.53l-57.3-24.59,120.48,18.98,34.76-20.78Z"/></g><path class="cls-8" d="m369.94,278.04s21.55-7.63,21.97,40.68c.42,48.31-56.3,129.4-65.96,137.38-9.66,7.98-20.7,13.35-49.82,9.04-36.52-5.41-88.96-24.54-88.96-24.54l32.07-29.87,65.12-2.94,52.94-108.81s14.58-23.03,32.64-20.93Z"/><path class="cls-8" d="m241.4,438.52s16.14,10.16,34.37,9.63c18.23-.52,34.37,5.37,36.72,3.73,2.34-1.64,2.6-4.51,0-5.81-2.6-1.3-13.64-2.86-13.64-2.86l-9.53-3.91s32.55,2.86,35.15,1.56c2.6-1.3,5.21-3.12,4.17-5.99s-3.65-2.86-3.65-2.86c0,0,7.03.26,6.77-2.6-.26-2.86-2.86-5.47-3.91-5.99-1.04-.52-14.7-6.07-14.7-6.07l-17.56-3.49,16.87-.67,14.73,4.1s5.88.67,4.57-4.28c-1.31-4.95-19.28-10.42-19.28-10.42l-22.91-1.58s17.71-2.59,19.53-8.06c1.82-5.47-1.3-8.59-1.3-8.59,0,0-12.5,4.95-18.49,5.99-5.99,1.04-13.28,3.39-22.92,7.29-9.63,3.91-15.27,7.03-15.27,7.03"/><path class="cls-6" d="m251.12,404.67s.3-.2.92-.53,1.55-.82,2.77-1.44c2.46-1.22,6.12-2.95,10.94-4.95,4.83-1.96,10.76-4.37,17.92-6.34,1.79-.48,3.67-.92,5.62-1.27,1.93-.36,3.89-.92,5.89-1.54,4-1.25,8.18-2.77,12.52-4.46l.16-.06.1.11c1.61,1.83,2.22,4.42,1.84,6.91l-.18.93-.26.91c-.2.63-.58,1.2-1.02,1.69-.91.95-2.02,1.65-3.18,2.24-2.33,1.18-4.87,2-7.48,2.71-2.61.7-5.31,1.27-8.08,1.71l-.02-.55c7.29.49,14.96,1.02,22.92,1.56h.04s.03.01.03.01c4.6,1.47,9.26,3.16,13.74,5.52,1.11.6,2.21,1.26,3.24,2.03.51.39,1.02.81,1.46,1.31.44.49.86,1.05,1.05,1.75.14.65.28,1.33.14,2.04-.1.69-.49,1.4-1.09,1.81-1.2.82-2.6.93-3.95.84h-.02s-.03,0-.03,0c-4.65-1.29-9.66-2.69-14.73-4.1h.1c-5.35.23-11.07.46-16.86.69l.05-.65c3.99.79,8.25,1.64,12.55,2.49,1.68.33,3.35.67,5.01,1h.03s.03.02.03.02c4.94,2.04,9.82,4.06,14.64,6.05,1.26.69,2.09,1.74,2.85,2.84.71,1.13,1.31,2.35,1.29,3.81-.07.81-.72,1.38-1.32,1.68-.61.32-1.26.49-1.9.62-1.29.25-2.57.31-3.87.29v-.64c1.21.07,2.28.62,3.04,1.49.73.87,1.2,1.96,1.16,3.13-.06,1.18-.77,2.2-1.58,2.91-.81.73-1.74,1.27-2.67,1.76-.21.12-.5.25-.8.31-.27.05-.54.1-.81.11-.53.05-1.05.07-1.57.09-1.04.03-2.07.02-3.1,0-2.05-.04-4.08-.13-6.1-.23-8.05-.42-15.82-1.04-23.27-1.68l.14-.56c3.24,1.33,6.42,2.64,9.53,3.91l-.07-.02c3.51.52,6.93,1.09,10.25,1.84.83.2,1.65.4,2.46.67.81.26,1.64.65,2.24,1.32.6.67.88,1.63.73,2.51-.15.88-.62,1.66-1.23,2.24-.15.15-.31.29-.48.42-.15.13-.36.26-.59.35-.44.15-.86.14-1.27.16-.82,0-1.61-.11-2.4-.21-1.57-.22-3.09-.51-4.59-.79-3-.57-5.92-1.12-8.75-1.57-5.67-.91-11.03-1.44-16-1.52-1.24-.02-2.46,0-3.65.01-1.2-.02-2.37,0-3.51-.05-1.14-.09-2.26-.15-3.34-.27-1.08-.15-2.13-.3-3.16-.44-8.18-1.42-14.23-4-18.24-5.83-2-.95-3.49-1.76-4.49-2.32-.99-.57-1.48-.91-1.48-.91,0,0,.13.07.39.21.27.15.64.36,1.13.62,1.01.54,2.51,1.32,4.52,2.24,4.02,1.78,10.08,4.3,18.22,5.66,1.02.14,2.07.28,3.14.42,1.08.11,2.19.16,3.32.25,1.14.04,2.3.02,3.49.03,1.19-.02,2.42-.05,3.66-.03,4.99.06,10.37.56,16.06,1.46,2.85.44,5.77.99,8.77,1.54,1.5.27,3.02.56,4.57.78.77.1,1.55.2,2.33.2.38-.01.78-.02,1.1-.13.27-.09.61-.39.87-.64.55-.53.95-1.22,1.07-1.96.12-.74-.1-1.5-.61-2.07-.51-.57-1.23-.92-2.02-1.16-.78-.26-1.59-.46-2.41-.65-3.29-.74-6.71-1.3-10.21-1.81h-.04s-.03-.02-.03-.02c-3.11-1.27-6.29-2.57-9.54-3.9l-1.77-.72,1.9.16c7.44.63,15.21,1.23,23.25,1.64,2.01.1,4.04.18,6.08.22,1.02.02,2.05.03,3.07,0,.51-.01,1.02-.04,1.52-.09.25-.02.5-.06.73-.1.21-.04.4-.12.64-.26.91-.47,1.8-1,2.54-1.67.75-.66,1.32-1.52,1.37-2.47.04-.94-.38-1.94-1.01-2.68-.62-.74-1.6-1.22-2.54-1.27v-.64c1.24.02,2.51-.04,3.73-.28.61-.12,1.21-.28,1.73-.56.52-.27.94-.67.97-1.17.02-1.12-.52-2.37-1.19-3.39-.69-1.01-1.56-2.05-2.6-2.61-4.81-1.98-9.67-4-14.6-6.03l.06.02c-1.66-.33-3.33-.66-5.01-1-4.3-.85-8.56-1.7-12.55-2.5l-2.7-.54,2.75-.11c5.79-.23,11.51-.46,16.87-.67h.05s.05.01.05.01c5.08,1.42,10.08,2.81,14.73,4.11h-.05c1.21.08,2.56-.06,3.5-.73.97-.68,1.04-2.02.72-3.18-.34-1.09-1.32-1.98-2.28-2.72-.99-.75-2.07-1.39-3.16-1.99-4.41-2.33-9.05-4.03-13.62-5.49h.07c-7.96-.54-15.63-1.08-22.91-1.59l-2.47-.17,2.45-.38c2.74-.43,5.43-1,8.02-1.68,2.59-.69,5.1-1.51,7.38-2.65,1.13-.57,2.2-1.26,3.04-2.13.41-.45.73-.94.91-1.49l.25-.87.17-.88c.38-2.35-.23-4.83-1.68-6.49l.26.05c-4.36,1.69-8.54,3.19-12.56,4.43-2.01.61-3.98,1.17-5.95,1.53-1.94.34-3.81.77-5.59,1.24-7.14,1.93-13.08,4.3-17.92,6.22-4.83,1.95-8.51,3.64-10.98,4.83-1.22.6-2.15,1.06-2.8,1.37-.63.32-.95.47-.95.47Z"/><path class="cls-6" d="m290.15,426.88c0,.15,2.1.21,5.47.42,3.37.2,8.02.6,13.11,1.37,5.09.77,9.64,1.78,12.92,2.58,3.28.8,5.3,1.36,5.35,1.22.04-.12-1.91-.91-5.16-1.89-3.25-.98-7.83-2.1-12.96-2.88-5.13-.77-9.83-1.06-13.23-1.09-3.4-.03-5.49.15-5.49.27Z"/><path class="cls-4" d="m176,333.27c-.67,3.15-1.22,5.76-1.65,7.77-.37,1.84-.54,2.86-.47,2.88.07.02.36-.98.85-2.79.5-1.99,1.16-4.58,1.95-7.7,1.61-6.51,3.76-15.52,6.08-25.49,3.81-16.36,6.88-30.21,7.68-34.52l.06-.34-.27.19c-.95.66-1.37.99-1.35,1.03.03.04.5-.21,1.5-.79l-.21-.15c-1.19,4.22-4.55,18.01-8.36,34.36"/><path class="cls-3" d="m310.82,336.97l72.74,32.42s28.24-87.15-13.37-101.19l-20.86,4.88-38.51,63.9Z"/><line class="cls-7" x1="141.62" y1="442.2" x2="241.4" y2="438.52"/><path class="cls-6" d="m241.4,438.52c0,.18-22.33,1.15-49.87,2.17-27.56,1.02-49.9,1.7-49.9,1.51,0-.18,22.32-1.15,49.88-2.17,27.55-1.02,49.89-1.69,49.9-1.51Z"/><path class="cls-6" d="m152.06,389c.01.12-1.43.25-3.68.81-2.23.58-5.28,1.65-8.22,3.59-2.96,1.9-5.17,4.29-6.42,6.21-1.28,1.92-1.73,3.3-1.85,3.26-.04-.01.05-.36.25-.99.22-.62.59-1.51,1.21-2.52,1.19-2.04,3.41-4.55,6.46-6.51,3.02-1.99,6.18-3.02,8.48-3.49,1.16-.21,2.1-.35,2.76-.37.66-.04,1.02-.04,1.02,0Z"/><path class="cls-4" d="m323.38,326.62s-.05.24-.21.68c-.19.5-.43,1.13-.73,1.91-.64,1.65-1.62,4.03-2.86,6.94-2.49,5.83-6.12,13.81-10.41,22.48-4.29,8.67-8.39,16.42-11.41,21.99-1.51,2.79-2.75,5.03-3.63,6.57-.41.72-.75,1.3-1.02,1.77-.24.4-.38.61-.39.6-.02-.01.08-.24.28-.66.24-.48.54-1.09.91-1.83.85-1.66,2.02-3.91,3.44-6.67,2.92-5.63,6.94-13.4,11.23-22.06,4.28-8.66,7.98-16.59,10.58-22.37,1.26-2.83,2.3-5.15,3.05-6.85.34-.75.62-1.37.84-1.86.2-.42.31-.64.33-.63Z"/></g></svg>