<?xml version="1.0" encoding="UTF-8"?><svg id="Capa_2" xmlns="http://www.w3.org/2000/svg" viewBox="0 0 107.5 107.5"><defs><style>.cls-1{fill:#f24e29;stroke-width:0px;}</style></defs><g id="Capa_3"><path class="cls-1" d="m103.15,4.36c-5.81-5.81-15.23-5.81-21.04,0l-28.36,28.36L25.39,4.36C19.58-1.45,10.17-1.45,4.36,4.36c-5.81,5.81-5.81,15.23,0,21.04l28.36,28.36-28.36,28.36c-5.81,5.81-5.81,15.23,0,21.04,2.91,2.9,6.71,4.36,10.52,4.36s7.61-1.45,10.52-4.36l28.36-28.36,28.36,28.36c2.91,2.9,6.71,4.36,10.52,4.36s7.61-1.45,10.52-4.36c5.81-5.81,5.81-15.23,0-21.04l-28.36-28.36,28.36-28.36c5.81-5.81,5.81-15.23,0-21.04Z"/></g></svg>