<svg width="323" height="554" viewBox="0 0 323 554" fill="none" xmlns="http://www.w3.org/2000/svg">
<g filter="url(#filter0_d_7_5809)">
<rect x="4" width="315" height="546" rx="50" fill="#0597F2"/>
</g>
<path d="M64.2008 39.6V43.3H70.6808V45.9H64.2008V51H60.9608V37H71.5408V39.6H64.2008ZM73.3189 40.24H76.4389V51H73.3189V40.24ZM74.8789 38.74C74.3056 38.74 73.8389 38.5733 73.4789 38.24C73.1189 37.9067 72.9389 37.4933 72.9389 37C72.9389 36.5067 73.1189 36.0933 73.4789 35.76C73.8389 35.4267 74.3056 35.26 74.8789 35.26C75.4522 35.26 75.9189 35.42 76.2789 35.74C76.6389 36.06 76.8189 36.46 76.8189 36.94C76.8189 37.46 76.6389 37.8933 76.2789 38.24C75.9189 38.5733 75.4522 38.74 74.8789 38.74ZM79.3345 36.16H82.4545V51H79.3345V36.16ZM93.0714 50.48C92.7647 50.7067 92.3847 50.88 91.9314 51C91.4914 51.1067 91.0247 51.16 90.5314 51.16C89.2514 51.16 88.2581 50.8333 87.5514 50.18C86.8581 49.5267 86.5114 48.5667 86.5114 47.3V42.88H84.8514V40.48H86.5114V37.86H89.6314V40.48H92.3114V42.88H89.6314V47.26C89.6314 47.7133 89.7447 48.0667 89.9714 48.32C90.2114 48.56 90.5447 48.68 90.9714 48.68C91.4647 48.68 91.8847 48.5467 92.2314 48.28L93.0714 50.48ZM97.8028 41.66C98.1761 41.14 98.6761 40.7467 99.3028 40.48C99.9428 40.2133 100.676 40.08 101.503 40.08V42.96C101.156 42.9333 100.923 42.92 100.803 42.92C99.9095 42.92 99.2095 43.1733 98.7028 43.68C98.1961 44.1733 97.9428 44.92 97.9428 45.92V51H94.8228V40.24H97.8028V41.66ZM107.639 40.08C109.306 40.08 110.586 40.48 111.479 41.28C112.373 42.0667 112.819 43.26 112.819 44.86V51H109.899V49.66C109.313 50.66 108.219 51.16 106.619 51.16C105.793 51.16 105.073 51.02 104.459 50.74C103.859 50.46 103.399 50.0733 103.079 49.58C102.759 49.0867 102.599 48.5267 102.599 47.9C102.599 46.9 102.973 46.1133 103.719 45.54C104.479 44.9667 105.646 44.68 107.219 44.68H109.699C109.699 44 109.493 43.48 109.079 43.12C108.666 42.7467 108.046 42.56 107.219 42.56C106.646 42.56 106.079 42.6533 105.519 42.84C104.973 43.0133 104.506 43.2533 104.119 43.56L102.999 41.38C103.586 40.9667 104.286 40.6467 105.099 40.42C105.926 40.1933 106.773 40.08 107.639 40.08ZM107.399 49.06C107.933 49.06 108.406 48.94 108.819 48.7C109.233 48.4467 109.526 48.08 109.699 47.6V46.5H107.559C106.279 46.5 105.639 46.92 105.639 47.76C105.639 48.16 105.793 48.48 106.099 48.72C106.419 48.9467 106.853 49.06 107.399 49.06ZM128.247 50.48C127.941 50.7067 127.561 50.88 127.107 51C126.667 51.1067 126.201 51.16 125.707 51.16C124.427 51.16 123.434 50.8333 122.727 50.18C122.034 49.5267 121.687 48.5667 121.687 47.3V42.88H120.027V40.48H121.687V37.86H124.807V40.48H127.487V42.88H124.807V47.26C124.807 47.7133 124.921 48.0667 125.147 48.32C125.387 48.56 125.721 48.68 126.147 48.68C126.641 48.68 127.061 48.5467 127.407 48.28L128.247 50.48ZM140.839 40.24V51H137.879V49.72C137.465 50.1867 136.972 50.5467 136.399 50.8C135.825 51.04 135.205 51.16 134.539 51.16C133.125 51.16 132.005 50.7533 131.179 49.94C130.352 49.1267 129.939 47.92 129.939 46.32V40.24H133.059V45.86C133.059 47.5933 133.785 48.46 135.239 48.46C135.985 48.46 136.585 48.22 137.039 47.74C137.492 47.2467 137.719 46.52 137.719 45.56V40.24H140.839ZM155.753 40.08C156.753 40.08 157.66 40.3133 158.473 40.78C159.3 41.2333 159.946 41.88 160.413 42.72C160.88 43.5467 161.113 44.5133 161.113 45.62C161.113 46.7267 160.88 47.7 160.413 48.54C159.946 49.3667 159.3 50.0133 158.473 50.48C157.66 50.9333 156.753 51.16 155.753 51.16C154.273 51.16 153.146 50.6933 152.373 49.76V51H149.393V36.16H152.513V41.38C153.3 40.5133 154.38 40.08 155.753 40.08ZM155.213 48.6C156.013 48.6 156.666 48.3333 157.173 47.8C157.693 47.2533 157.953 46.5267 157.953 45.62C157.953 44.7133 157.693 43.9933 157.173 43.46C156.666 42.9133 156.013 42.64 155.213 42.64C154.413 42.64 153.753 42.9133 153.233 43.46C152.726 43.9933 152.473 44.7133 152.473 45.62C152.473 46.5267 152.726 47.2533 153.233 47.8C153.753 48.3333 154.413 48.6 155.213 48.6ZM174.042 40.24V51H171.082V49.72C170.668 50.1867 170.175 50.5467 169.602 50.8C169.028 51.04 168.408 51.16 167.742 51.16C166.328 51.16 165.208 50.7533 164.382 49.94C163.555 49.1267 163.142 47.92 163.142 46.32V40.24H166.262V45.86C166.262 47.5933 166.988 48.46 168.442 48.46C169.188 48.46 169.788 48.22 170.242 47.74C170.695 47.2467 170.922 46.52 170.922 45.56V40.24H174.042ZM169.462 35.98H172.822L169.202 38.86H166.762L169.462 35.98ZM180.552 51.16C179.659 51.16 178.786 51.0533 177.932 50.84C177.079 50.6133 176.399 50.3333 175.892 50L176.932 47.76C177.412 48.0667 177.992 48.32 178.672 48.52C179.352 48.7067 180.019 48.8 180.672 48.8C181.992 48.8 182.652 48.4733 182.652 47.82C182.652 47.5133 182.472 47.2933 182.112 47.16C181.752 47.0267 181.199 46.9133 180.452 46.82C179.572 46.6867 178.846 46.5333 178.272 46.36C177.699 46.1867 177.199 45.88 176.772 45.44C176.359 45 176.152 44.3733 176.152 43.56C176.152 42.88 176.346 42.28 176.732 41.76C177.132 41.2267 177.706 40.8133 178.452 40.52C179.212 40.2267 180.106 40.08 181.132 40.08C181.892 40.08 182.646 40.1667 183.392 40.34C184.152 40.5 184.779 40.7267 185.272 41.02L184.232 43.24C183.286 42.7067 182.252 42.44 181.132 42.44C180.466 42.44 179.966 42.5333 179.632 42.72C179.299 42.9067 179.132 43.1467 179.132 43.44C179.132 43.7733 179.312 44.0067 179.672 44.14C180.032 44.2733 180.606 44.4 181.392 44.52C182.272 44.6667 182.992 44.8267 183.552 45C184.112 45.16 184.599 45.46 185.012 45.9C185.426 46.34 185.632 46.9533 185.632 47.74C185.632 48.4067 185.432 49 185.032 49.52C184.632 50.04 184.046 50.4467 183.272 50.74C182.512 51.02 181.606 51.16 180.552 51.16ZM198.477 40.24V54.88H195.357V49.86C194.584 50.7267 193.511 51.16 192.137 51.16C191.124 51.16 190.204 50.9333 189.377 50.48C188.564 50.0267 187.924 49.38 187.457 48.54C186.991 47.7 186.757 46.7267 186.757 45.62C186.757 44.5133 186.991 43.54 187.457 42.7C187.924 41.86 188.564 41.2133 189.377 40.76C190.204 40.3067 191.124 40.08 192.137 40.08C193.604 40.08 194.724 40.5467 195.497 41.48V40.24H198.477ZM192.677 48.6C193.464 48.6 194.117 48.3333 194.637 47.8C195.157 47.2533 195.417 46.5267 195.417 45.62C195.417 44.7133 195.157 43.9933 194.637 43.46C194.117 42.9133 193.464 42.64 192.677 42.64C191.877 42.64 191.217 42.9133 190.697 43.46C190.177 43.9933 189.917 44.7133 189.917 45.62C189.917 46.5267 190.177 47.2533 190.697 47.8C191.217 48.3333 191.877 48.6 192.677 48.6ZM212.206 40.24V51H209.246V49.72C208.832 50.1867 208.339 50.5467 207.766 50.8C207.192 51.04 206.572 51.16 205.906 51.16C204.492 51.16 203.372 50.7533 202.546 49.94C201.719 49.1267 201.306 47.92 201.306 46.32V40.24H204.426V45.86C204.426 47.5933 205.152 48.46 206.606 48.46C207.352 48.46 207.952 48.22 208.406 47.74C208.859 47.2467 209.086 46.52 209.086 45.56V40.24H212.206ZM225.636 45.66C225.636 45.7 225.616 45.98 225.576 46.5H217.436C217.583 47.1667 217.93 47.6933 218.476 48.08C219.023 48.4667 219.703 48.66 220.516 48.66C221.076 48.66 221.57 48.58 221.996 48.42C222.436 48.2467 222.843 47.98 223.216 47.62L224.876 49.42C223.863 50.58 222.383 51.16 220.436 51.16C219.223 51.16 218.15 50.9267 217.216 50.46C216.283 49.98 215.563 49.32 215.056 48.48C214.55 47.64 214.296 46.6867 214.296 45.62C214.296 44.5667 214.543 43.62 215.036 42.78C215.543 41.9267 216.23 41.2667 217.096 40.8C217.976 40.32 218.956 40.08 220.036 40.08C221.09 40.08 222.043 40.3067 222.896 40.76C223.75 41.2133 224.416 41.8667 224.896 42.72C225.39 43.56 225.636 44.54 225.636 45.66ZM220.056 42.44C219.35 42.44 218.756 42.64 218.276 43.04C217.796 43.44 217.503 43.9867 217.396 44.68H222.696C222.59 44 222.296 43.46 221.816 43.06C221.336 42.6467 220.75 42.44 220.056 42.44ZM238.673 36.16V51H235.693V49.76C234.92 50.6933 233.8 51.16 232.333 51.16C231.32 51.16 230.4 50.9333 229.573 50.48C228.76 50.0267 228.12 49.38 227.653 48.54C227.187 47.7 226.953 46.7267 226.953 45.62C226.953 44.5133 227.187 43.54 227.653 42.7C228.12 41.86 228.76 41.2133 229.573 40.76C230.4 40.3067 231.32 40.08 232.333 40.08C233.707 40.08 234.78 40.5133 235.553 41.38V36.16H238.673ZM232.873 48.6C233.66 48.6 234.313 48.3333 234.833 47.8C235.353 47.2533 235.613 46.5267 235.613 45.62C235.613 44.7133 235.353 43.9933 234.833 43.46C234.313 42.9133 233.66 42.64 232.873 42.64C232.073 42.64 231.413 42.9133 230.893 43.46C230.373 43.9933 230.113 44.7133 230.113 45.62C230.113 46.5267 230.373 47.2533 230.893 47.8C231.413 48.3333 232.073 48.6 232.873 48.6ZM245.901 40.08C247.568 40.08 248.848 40.48 249.741 41.28C250.634 42.0667 251.081 43.26 251.081 44.86V51H248.161V49.66C247.574 50.66 246.481 51.16 244.881 51.16C244.054 51.16 243.334 51.02 242.721 50.74C242.121 50.46 241.661 50.0733 241.341 49.58C241.021 49.0867 240.861 48.5267 240.861 47.9C240.861 46.9 241.234 46.1133 241.981 45.54C242.741 44.9667 243.908 44.68 245.481 44.68H247.961C247.961 44 247.754 43.48 247.341 43.12C246.928 42.7467 246.308 42.56 245.481 42.56C244.908 42.56 244.341 42.6533 243.781 42.84C243.234 43.0133 242.768 43.2533 242.381 43.56L241.261 41.38C241.848 40.9667 242.548 40.6467 243.361 40.42C244.188 40.1933 245.034 40.08 245.901 40.08ZM245.661 49.06C246.194 49.06 246.668 48.94 247.081 48.7C247.494 48.4467 247.788 48.08 247.961 47.6V46.5H245.821C244.541 46.5 243.901 46.92 243.901 47.76C243.901 48.16 244.054 48.48 244.361 48.72C244.681 48.9467 245.114 49.06 245.661 49.06ZM255.085 43.98C254.538 43.98 254.078 43.7933 253.705 43.42C253.332 43.0467 253.145 42.58 253.145 42.02C253.145 41.4467 253.332 40.9867 253.705 40.64C254.078 40.28 254.538 40.1 255.085 40.1C255.632 40.1 256.092 40.28 256.465 40.64C256.838 40.9867 257.025 41.4467 257.025 42.02C257.025 42.58 256.838 43.0467 256.465 43.42C256.092 43.7933 255.632 43.98 255.085 43.98ZM255.085 51.16C254.538 51.16 254.078 50.9733 253.705 50.6C253.332 50.2267 253.145 49.76 253.145 49.2C253.145 48.6267 253.332 48.1667 253.705 47.82C254.078 47.46 254.538 47.28 255.085 47.28C255.632 47.28 256.092 47.46 256.465 47.82C256.838 48.1667 257.025 48.6267 257.025 49.2C257.025 49.76 256.838 50.2267 256.465 50.6C256.092 50.9733 255.632 51.16 255.085 51.16Z" fill="#F2F2F2"/>
<path d="M67.36 121.12C65.9733 121.12 64.72 120.813 63.6 120.2C62.4933 119.587 61.62 118.74 60.98 117.66C60.3533 116.567 60.04 115.347 60.04 114C60.04 112.653 60.3533 111.44 60.98 110.36C61.62 109.267 62.5 108.413 63.62 107.8C64.74 107.187 65.9933 106.88 67.38 106.88C68.42 106.88 69.38 107.053 70.26 107.4C71.14 107.747 71.8867 108.253 72.5 108.92L71.56 109.86C70.4667 108.753 69.0867 108.2 67.42 108.2C66.3133 108.2 65.3067 108.453 64.4 108.96C63.4933 109.467 62.78 110.16 62.26 111.04C61.7533 111.92 61.5 112.907 61.5 114C61.5 115.093 61.7533 116.08 62.26 116.96C62.78 117.84 63.4933 118.533 64.4 119.04C65.3067 119.547 66.3133 119.8 67.42 119.8C69.1 119.8 70.48 119.24 71.56 118.12L72.5 119.06C71.8867 119.727 71.1333 120.24 70.24 120.6C69.36 120.947 68.4 121.12 67.36 121.12ZM78.8788 110.4C80.2521 110.4 81.3054 110.747 82.0388 111.44C82.7721 112.12 83.1388 113.133 83.1388 114.48V121H81.7788V119.36C81.4588 119.907 80.9854 120.333 80.3588 120.64C79.7454 120.947 79.0121 121.1 78.1588 121.1C76.9854 121.1 76.0521 120.82 75.3588 120.26C74.6654 119.7 74.3188 118.96 74.3188 118.04C74.3188 117.147 74.6388 116.427 75.2788 115.88C75.9321 115.333 76.9654 115.06 78.3788 115.06H81.7188V114.42C81.7188 113.513 81.4654 112.827 80.9588 112.36C80.4521 111.88 79.7121 111.64 78.7388 111.64C78.0721 111.64 77.4321 111.753 76.8188 111.98C76.2054 112.193 75.6788 112.493 75.2388 112.88L74.5988 111.82C75.1321 111.367 75.7721 111.02 76.5188 110.78C77.2654 110.527 78.0521 110.4 78.8788 110.4ZM78.3788 119.98C79.1788 119.98 79.8654 119.8 80.4388 119.44C81.0121 119.067 81.4388 118.533 81.7188 117.84V116.12H78.4188C76.6188 116.12 75.7188 116.747 75.7188 118C75.7188 118.613 75.9521 119.1 76.4188 119.46C76.8854 119.807 77.5388 119.98 78.3788 119.98ZM92.5356 120.36C92.269 120.6 91.9356 120.787 91.5356 120.92C91.149 121.04 90.7423 121.1 90.3156 121.1C89.329 121.1 88.569 120.833 88.0356 120.3C87.5023 119.767 87.2356 119.013 87.2356 118.04V111.68H85.3556V110.48H87.2356V108.18H88.6556V110.48H91.8556V111.68H88.6556V117.96C88.6556 118.587 88.809 119.067 89.1156 119.4C89.4356 119.72 89.889 119.88 90.4756 119.88C90.769 119.88 91.049 119.833 91.3156 119.74C91.5956 119.647 91.8356 119.513 92.0356 119.34L92.5356 120.36ZM103.91 116.18H95.1095C95.1895 117.273 95.6095 118.16 96.3695 118.84C97.1295 119.507 98.0895 119.84 99.2495 119.84C99.9029 119.84 100.503 119.727 101.05 119.5C101.596 119.26 102.07 118.913 102.47 118.46L103.27 119.38C102.803 119.94 102.216 120.367 101.51 120.66C100.816 120.953 100.05 121.1 99.2095 121.1C98.1295 121.1 97.1695 120.873 96.3295 120.42C95.5029 119.953 94.8562 119.313 94.3895 118.5C93.9229 117.687 93.6895 116.767 93.6895 115.74C93.6895 114.713 93.9095 113.793 94.3495 112.98C94.8029 112.167 95.4162 111.533 96.1895 111.08C96.9762 110.627 97.8562 110.4 98.8295 110.4C99.8029 110.4 100.676 110.627 101.45 111.08C102.223 111.533 102.83 112.167 103.27 112.98C103.71 113.78 103.93 114.7 103.93 115.74L103.91 116.18ZM98.8295 111.62C97.8162 111.62 96.9629 111.947 96.2695 112.6C95.5895 113.24 95.2029 114.08 95.1095 115.12H102.57C102.476 114.08 102.083 113.24 101.39 112.6C100.71 111.947 99.8562 111.62 98.8295 111.62ZM116.56 110.48V119.72C116.56 121.507 116.12 122.827 115.24 123.68C114.373 124.547 113.06 124.98 111.3 124.98C110.327 124.98 109.4 124.833 108.52 124.54C107.653 124.26 106.947 123.867 106.4 123.36L107.12 122.28C107.627 122.733 108.24 123.087 108.96 123.34C109.693 123.593 110.46 123.72 111.26 123.72C112.593 123.72 113.573 123.407 114.2 122.78C114.827 122.167 115.14 121.207 115.14 119.9V118.56C114.7 119.227 114.12 119.733 113.4 120.08C112.693 120.427 111.907 120.6 111.04 120.6C110.053 120.6 109.153 120.387 108.34 119.96C107.54 119.52 106.907 118.913 106.44 118.14C105.987 117.353 105.76 116.467 105.76 115.48C105.76 114.493 105.987 113.613 106.44 112.84C106.907 112.067 107.54 111.467 108.34 111.04C109.14 110.613 110.04 110.4 111.04 110.4C111.933 110.4 112.74 110.58 113.46 110.94C114.18 111.3 114.76 111.82 115.2 112.5V110.48H116.56ZM111.18 119.34C111.94 119.34 112.627 119.18 113.24 118.86C113.853 118.527 114.327 118.067 114.66 117.48C115.007 116.893 115.18 116.227 115.18 115.48C115.18 114.733 115.007 114.073 114.66 113.5C114.327 112.913 113.853 112.46 113.24 112.14C112.64 111.807 111.953 111.64 111.18 111.64C110.42 111.64 109.733 111.8 109.12 112.12C108.52 112.44 108.047 112.893 107.7 113.48C107.367 114.067 107.2 114.733 107.2 115.48C107.2 116.227 107.367 116.893 107.7 117.48C108.047 118.067 108.52 118.527 109.12 118.86C109.733 119.18 110.42 119.34 111.18 119.34ZM124.831 121.1C123.817 121.1 122.904 120.873 122.091 120.42C121.277 119.953 120.637 119.313 120.171 118.5C119.704 117.687 119.471 116.767 119.471 115.74C119.471 114.713 119.704 113.793 120.171 112.98C120.637 112.167 121.277 111.533 122.091 111.08C122.904 110.627 123.817 110.4 124.831 110.4C125.844 110.4 126.757 110.627 127.571 111.08C128.384 111.533 129.017 112.167 129.471 112.98C129.937 113.793 130.171 114.713 130.171 115.74C130.171 116.767 129.937 117.687 129.471 118.5C129.017 119.313 128.384 119.953 127.571 120.42C126.757 120.873 125.844 121.1 124.831 121.1ZM124.831 119.84C125.577 119.84 126.244 119.673 126.831 119.34C127.431 118.993 127.897 118.507 128.231 117.88C128.564 117.253 128.731 116.54 128.731 115.74C128.731 114.94 128.564 114.227 128.231 113.6C127.897 112.973 127.431 112.493 126.831 112.16C126.244 111.813 125.577 111.64 124.831 111.64C124.084 111.64 123.411 111.813 122.811 112.16C122.224 112.493 121.757 112.973 121.411 113.6C121.077 114.227 120.911 114.94 120.911 115.74C120.911 116.54 121.077 117.253 121.411 117.88C121.757 118.507 122.224 118.993 122.811 119.34C123.411 119.673 124.084 119.84 124.831 119.84ZM134.43 112.54C134.763 111.833 135.257 111.3 135.91 110.94C136.577 110.58 137.397 110.4 138.37 110.4V111.78L138.03 111.76C136.923 111.76 136.057 112.1 135.43 112.78C134.803 113.46 134.49 114.413 134.49 115.64V121H133.07V110.48H134.43V112.54ZM140.941 110.48H142.361V121H140.941V110.48ZM143.101 106.36H145.001L141.761 108.84H140.361L143.101 106.36ZM149.992 110.4C151.365 110.4 152.419 110.747 153.152 111.44C153.885 112.12 154.252 113.133 154.252 114.48V121H152.892V119.36C152.572 119.907 152.099 120.333 151.472 120.64C150.859 120.947 150.125 121.1 149.272 121.1C148.099 121.1 147.165 120.82 146.472 120.26C145.779 119.7 145.432 118.96 145.432 118.04C145.432 117.147 145.752 116.427 146.392 115.88C147.045 115.333 148.079 115.06 149.492 115.06H152.832V114.42C152.832 113.513 152.579 112.827 152.072 112.36C151.565 111.88 150.825 111.64 149.852 111.64C149.185 111.64 148.545 111.753 147.932 111.98C147.319 112.193 146.792 112.493 146.352 112.88L145.712 111.82C146.245 111.367 146.885 111.02 147.632 110.78C148.379 110.527 149.165 110.4 149.992 110.4ZM149.492 119.98C150.292 119.98 150.979 119.8 151.552 119.44C152.125 119.067 152.552 118.533 152.832 117.84V116.12H149.532C147.732 116.12 146.832 116.747 146.832 118C146.832 118.613 147.065 119.1 147.532 119.46C147.999 119.807 148.652 119.98 149.492 119.98Z" fill="#F2F2F2"/>
<rect x="52" y="152" width="229" height="43" rx="21.5" fill="#F2F2F2"/>
<path d="M84.18 179.72V181H74.28V167H83.88V168.28H75.76V173.26H83V174.52H75.76V179.72H84.18ZM90.0227 181.1C89.1693 181.1 88.3493 180.98 87.5627 180.74C86.7893 180.487 86.1827 180.173 85.7427 179.8L86.3827 178.68C86.8227 179.027 87.376 179.313 88.0427 179.54C88.7093 179.753 89.4027 179.86 90.1227 179.86C91.0827 179.86 91.7893 179.713 92.2427 179.42C92.7093 179.113 92.9427 178.687 92.9427 178.14C92.9427 177.753 92.816 177.453 92.5627 177.24C92.3093 177.013 91.9893 176.847 91.6027 176.74C91.216 176.62 90.7027 176.507 90.0627 176.4C89.2093 176.24 88.5227 176.08 88.0027 175.92C87.4827 175.747 87.036 175.46 86.6627 175.06C86.3027 174.66 86.1227 174.107 86.1227 173.4C86.1227 172.52 86.4893 171.8 87.2227 171.24C87.956 170.68 88.976 170.4 90.2827 170.4C90.9627 170.4 91.6427 170.493 92.3227 170.68C93.0027 170.853 93.5627 171.087 94.0027 171.38L93.3827 172.52C92.516 171.92 91.4827 171.62 90.2827 171.62C89.376 171.62 88.6893 171.78 88.2227 172.1C87.7693 172.42 87.5427 172.84 87.5427 173.36C87.5427 173.76 87.6693 174.08 87.9227 174.32C88.1893 174.56 88.516 174.74 88.9027 174.86C89.2893 174.967 89.8227 175.08 90.5027 175.2C91.3427 175.36 92.016 175.52 92.5227 175.68C93.0293 175.84 93.4627 176.113 93.8227 176.5C94.1827 176.887 94.3627 177.42 94.3627 178.1C94.3627 179.02 93.976 179.753 93.2027 180.3C92.4427 180.833 91.3827 181.1 90.0227 181.1ZM101.348 181.1C100.308 181.1 99.3745 180.873 98.5478 180.42C97.7345 179.967 97.0945 179.333 96.6278 178.52C96.1611 177.693 95.9278 176.767 95.9278 175.74C95.9278 174.713 96.1611 173.793 96.6278 172.98C97.0945 172.167 97.7345 171.533 98.5478 171.08C99.3745 170.627 100.308 170.4 101.348 170.4C102.254 170.4 103.061 170.58 103.768 170.94C104.488 171.287 105.054 171.8 105.468 172.48L104.408 173.2C104.061 172.68 103.621 172.293 103.088 172.04C102.554 171.773 101.974 171.64 101.348 171.64C100.588 171.64 99.9011 171.813 99.2878 172.16C98.6878 172.493 98.2145 172.973 97.8678 173.6C97.5345 174.227 97.3678 174.94 97.3678 175.74C97.3678 176.553 97.5345 177.273 97.8678 177.9C98.2145 178.513 98.6878 178.993 99.2878 179.34C99.9011 179.673 100.588 179.84 101.348 179.84C101.974 179.84 102.554 179.713 103.088 179.46C103.621 179.207 104.061 178.82 104.408 178.3L105.468 179.02C105.054 179.7 104.488 180.22 103.768 180.58C103.048 180.927 102.241 181.1 101.348 181.1ZM112.382 181.1C111.368 181.1 110.455 180.873 109.642 180.42C108.828 179.953 108.188 179.313 107.722 178.5C107.255 177.687 107.022 176.767 107.022 175.74C107.022 174.713 107.255 173.793 107.722 172.98C108.188 172.167 108.828 171.533 109.642 171.08C110.455 170.627 111.368 170.4 112.382 170.4C113.395 170.4 114.308 170.627 115.122 171.08C115.935 171.533 116.568 172.167 117.022 172.98C117.488 173.793 117.722 174.713 117.722 175.74C117.722 176.767 117.488 177.687 117.022 178.5C116.568 179.313 115.935 179.953 115.122 180.42C114.308 180.873 113.395 181.1 112.382 181.1ZM112.382 179.84C113.128 179.84 113.795 179.673 114.382 179.34C114.982 178.993 115.448 178.507 115.782 177.88C116.115 177.253 116.282 176.54 116.282 175.74C116.282 174.94 116.115 174.227 115.782 173.6C115.448 172.973 114.982 172.493 114.382 172.16C113.795 171.813 113.128 171.64 112.382 171.64C111.635 171.64 110.962 171.813 110.362 172.16C109.775 172.493 109.308 172.973 108.962 173.6C108.628 174.227 108.462 174.94 108.462 175.74C108.462 176.54 108.628 177.253 108.962 177.88C109.308 178.507 109.775 178.993 110.362 179.34C110.962 179.673 111.635 179.84 112.382 179.84ZM130.361 170.48V179.72C130.361 181.507 129.921 182.827 129.041 183.68C128.174 184.547 126.861 184.98 125.101 184.98C124.127 184.98 123.201 184.833 122.321 184.54C121.454 184.26 120.747 183.867 120.201 183.36L120.921 182.28C121.427 182.733 122.041 183.087 122.761 183.34C123.494 183.593 124.261 183.72 125.061 183.72C126.394 183.72 127.374 183.407 128.001 182.78C128.627 182.167 128.941 181.207 128.941 179.9V178.56C128.501 179.227 127.921 179.733 127.201 180.08C126.494 180.427 125.707 180.6 124.841 180.6C123.854 180.6 122.954 180.387 122.141 179.96C121.341 179.52 120.707 178.913 120.241 178.14C119.787 177.353 119.561 176.467 119.561 175.48C119.561 174.493 119.787 173.613 120.241 172.84C120.707 172.067 121.341 171.467 122.141 171.04C122.941 170.613 123.841 170.4 124.841 170.4C125.734 170.4 126.541 170.58 127.261 170.94C127.981 171.3 128.561 171.82 129.001 172.5V170.48H130.361ZM124.981 179.34C125.741 179.34 126.427 179.18 127.041 178.86C127.654 178.527 128.127 178.067 128.461 177.48C128.807 176.893 128.981 176.227 128.981 175.48C128.981 174.733 128.807 174.073 128.461 173.5C128.127 172.913 127.654 172.46 127.041 172.14C126.441 171.807 125.754 171.64 124.981 171.64C124.221 171.64 123.534 171.8 122.921 172.12C122.321 172.44 121.847 172.893 121.501 173.48C121.167 174.067 121.001 174.733 121.001 175.48C121.001 176.227 121.167 176.893 121.501 177.48C121.847 178.067 122.321 178.527 122.921 178.86C123.534 179.18 124.221 179.34 124.981 179.34ZM143.492 176.18H134.692C134.772 177.273 135.192 178.16 135.952 178.84C136.712 179.507 137.672 179.84 138.832 179.84C139.485 179.84 140.085 179.727 140.632 179.5C141.178 179.26 141.652 178.913 142.052 178.46L142.852 179.38C142.385 179.94 141.798 180.367 141.092 180.66C140.398 180.953 139.632 181.1 138.792 181.1C137.712 181.1 136.752 180.873 135.912 180.42C135.085 179.953 134.438 179.313 133.972 178.5C133.505 177.687 133.272 176.767 133.272 175.74C133.272 174.713 133.492 173.793 133.932 172.98C134.385 172.167 134.998 171.533 135.772 171.08C136.558 170.627 137.438 170.4 138.412 170.4C139.385 170.4 140.258 170.627 141.032 171.08C141.805 171.533 142.412 172.167 142.852 172.98C143.292 173.78 143.512 174.7 143.512 175.74L143.492 176.18ZM138.412 171.62C137.398 171.62 136.545 171.947 135.852 172.6C135.172 173.24 134.785 174.08 134.692 175.12H142.152C142.058 174.08 141.665 173.24 140.972 172.6C140.292 171.947 139.438 171.62 138.412 171.62ZM147.762 172.54C148.095 171.833 148.589 171.3 149.242 170.94C149.909 170.58 150.729 170.4 151.702 170.4V171.78L151.362 171.76C150.255 171.76 149.389 172.1 148.762 172.78C148.135 173.46 147.822 174.413 147.822 175.64V181H146.402V170.48H147.762V172.54Z" fill="#0597F2"/>
<path d="M252.866 180.5C252.481 181.167 251.519 181.167 251.134 180.5L244.206 168.5C243.821 167.833 244.302 167 245.072 167L258.928 167C259.698 167 260.179 167.833 259.794 168.5L252.866 180.5Z" fill="#0597F2"/>
<path d="M72.92 243L66.72 257H65.26L59.06 243H60.66L66.02 255.16L71.42 243H72.92ZM77.5311 246.4C78.9044 246.4 79.9578 246.747 80.6911 247.44C81.4244 248.12 81.7911 249.133 81.7911 250.48V257H80.4311V255.36C80.1111 255.907 79.6378 256.333 79.0111 256.64C78.3978 256.947 77.6644 257.1 76.8111 257.1C75.6378 257.1 74.7044 256.82 74.0111 256.26C73.3178 255.7 72.9711 254.96 72.9711 254.04C72.9711 253.147 73.2911 252.427 73.9311 251.88C74.5844 251.333 75.6178 251.06 77.0311 251.06H80.3711V250.42C80.3711 249.513 80.1178 248.827 79.6111 248.36C79.1044 247.88 78.3644 247.64 77.3911 247.64C76.7244 247.64 76.0844 247.753 75.4711 247.98C74.8578 248.193 74.3311 248.493 73.8911 248.88L73.2511 247.82C73.7844 247.367 74.4244 247.02 75.1711 246.78C75.9178 246.527 76.7044 246.4 77.5311 246.4ZM77.0311 255.98C77.8311 255.98 78.5178 255.8 79.0911 255.44C79.6644 255.067 80.0911 254.533 80.3711 253.84V252.12H77.0711C75.2711 252.12 74.3711 252.747 74.3711 254C74.3711 254.613 74.6044 255.1 75.0711 255.46C75.5378 255.807 76.1911 255.98 77.0311 255.98ZM85.648 242.16H87.068V257H85.648V242.16ZM95.3191 257.1C94.3057 257.1 93.3924 256.873 92.5791 256.42C91.7657 255.953 91.1257 255.313 90.6591 254.5C90.1924 253.687 89.9591 252.767 89.9591 251.74C89.9591 250.713 90.1924 249.793 90.6591 248.98C91.1257 248.167 91.7657 247.533 92.5791 247.08C93.3924 246.627 94.3057 246.4 95.3191 246.4C96.3324 246.4 97.2457 246.627 98.0591 247.08C98.8724 247.533 99.5057 248.167 99.9591 248.98C100.426 249.793 100.659 250.713 100.659 251.74C100.659 252.767 100.426 253.687 99.9591 254.5C99.5057 255.313 98.8724 255.953 98.0591 256.42C97.2457 256.873 96.3324 257.1 95.3191 257.1ZM95.3191 255.84C96.0657 255.84 96.7324 255.673 97.3191 255.34C97.9191 254.993 98.3857 254.507 98.7191 253.88C99.0524 253.253 99.2191 252.54 99.2191 251.74C99.2191 250.94 99.0524 250.227 98.7191 249.6C98.3857 248.973 97.9191 248.493 97.3191 248.16C96.7324 247.813 96.0657 247.64 95.3191 247.64C94.5724 247.64 93.8991 247.813 93.2991 248.16C92.7124 248.493 92.2457 248.973 91.8991 249.6C91.5657 250.227 91.3991 250.94 91.3991 251.74C91.3991 252.54 91.5657 253.253 91.8991 253.88C92.2457 254.507 92.7124 254.993 93.2991 255.34C93.8991 255.673 94.5724 255.84 95.3191 255.84ZM104.918 248.54C105.251 247.833 105.745 247.3 106.398 246.94C107.065 246.58 107.885 246.4 108.858 246.4V247.78L108.518 247.76C107.411 247.76 106.545 248.1 105.918 248.78C105.291 249.46 104.978 250.413 104.978 251.64V257H103.558V246.48H104.918V248.54Z" fill="#F2F2F2"/>
<rect x="52" y="289" width="229" height="43" rx="21.5" fill="#F2F2F2"/>
<path d="M84.18 316.72V318H74.28V304H83.88V305.28H75.76V310.26H83V311.52H75.76V316.72H84.18ZM90.0227 318.1C89.1693 318.1 88.3493 317.98 87.5627 317.74C86.7893 317.487 86.1827 317.173 85.7427 316.8L86.3827 315.68C86.8227 316.027 87.376 316.313 88.0427 316.54C88.7093 316.753 89.4027 316.86 90.1227 316.86C91.0827 316.86 91.7893 316.713 92.2427 316.42C92.7093 316.113 92.9427 315.687 92.9427 315.14C92.9427 314.753 92.816 314.453 92.5627 314.24C92.3093 314.013 91.9893 313.847 91.6027 313.74C91.216 313.62 90.7027 313.507 90.0627 313.4C89.2093 313.24 88.5227 313.08 88.0027 312.92C87.4827 312.747 87.036 312.46 86.6627 312.06C86.3027 311.66 86.1227 311.107 86.1227 310.4C86.1227 309.52 86.4893 308.8 87.2227 308.24C87.956 307.68 88.976 307.4 90.2827 307.4C90.9627 307.4 91.6427 307.493 92.3227 307.68C93.0027 307.853 93.5627 308.087 94.0027 308.38L93.3827 309.52C92.516 308.92 91.4827 308.62 90.2827 308.62C89.376 308.62 88.6893 308.78 88.2227 309.1C87.7693 309.42 87.5427 309.84 87.5427 310.36C87.5427 310.76 87.6693 311.08 87.9227 311.32C88.1893 311.56 88.516 311.74 88.9027 311.86C89.2893 311.967 89.8227 312.08 90.5027 312.2C91.3427 312.36 92.016 312.52 92.5227 312.68C93.0293 312.84 93.4627 313.113 93.8227 313.5C94.1827 313.887 94.3627 314.42 94.3627 315.1C94.3627 316.02 93.976 316.753 93.2027 317.3C92.4427 317.833 91.3827 318.1 90.0227 318.1ZM101.348 318.1C100.308 318.1 99.3745 317.873 98.5478 317.42C97.7345 316.967 97.0945 316.333 96.6278 315.52C96.1611 314.693 95.9278 313.767 95.9278 312.74C95.9278 311.713 96.1611 310.793 96.6278 309.98C97.0945 309.167 97.7345 308.533 98.5478 308.08C99.3745 307.627 100.308 307.4 101.348 307.4C102.254 307.4 103.061 307.58 103.768 307.94C104.488 308.287 105.054 308.8 105.468 309.48L104.408 310.2C104.061 309.68 103.621 309.293 103.088 309.04C102.554 308.773 101.974 308.64 101.348 308.64C100.588 308.64 99.9011 308.813 99.2878 309.16C98.6878 309.493 98.2145 309.973 97.8678 310.6C97.5345 311.227 97.3678 311.94 97.3678 312.74C97.3678 313.553 97.5345 314.273 97.8678 314.9C98.2145 315.513 98.6878 315.993 99.2878 316.34C99.9011 316.673 100.588 316.84 101.348 316.84C101.974 316.84 102.554 316.713 103.088 316.46C103.621 316.207 104.061 315.82 104.408 315.3L105.468 316.02C105.054 316.7 104.488 317.22 103.768 317.58C103.048 317.927 102.241 318.1 101.348 318.1ZM112.382 318.1C111.368 318.1 110.455 317.873 109.642 317.42C108.828 316.953 108.188 316.313 107.722 315.5C107.255 314.687 107.022 313.767 107.022 312.74C107.022 311.713 107.255 310.793 107.722 309.98C108.188 309.167 108.828 308.533 109.642 308.08C110.455 307.627 111.368 307.4 112.382 307.4C113.395 307.4 114.308 307.627 115.122 308.08C115.935 308.533 116.568 309.167 117.022 309.98C117.488 310.793 117.722 311.713 117.722 312.74C117.722 313.767 117.488 314.687 117.022 315.5C116.568 316.313 115.935 316.953 115.122 317.42C114.308 317.873 113.395 318.1 112.382 318.1ZM112.382 316.84C113.128 316.84 113.795 316.673 114.382 316.34C114.982 315.993 115.448 315.507 115.782 314.88C116.115 314.253 116.282 313.54 116.282 312.74C116.282 311.94 116.115 311.227 115.782 310.6C115.448 309.973 114.982 309.493 114.382 309.16C113.795 308.813 113.128 308.64 112.382 308.64C111.635 308.64 110.962 308.813 110.362 309.16C109.775 309.493 109.308 309.973 108.962 310.6C108.628 311.227 108.462 311.94 108.462 312.74C108.462 313.54 108.628 314.253 108.962 314.88C109.308 315.507 109.775 315.993 110.362 316.34C110.962 316.673 111.635 316.84 112.382 316.84ZM130.361 307.48V316.72C130.361 318.507 129.921 319.827 129.041 320.68C128.174 321.547 126.861 321.98 125.101 321.98C124.127 321.98 123.201 321.833 122.321 321.54C121.454 321.26 120.747 320.867 120.201 320.36L120.921 319.28C121.427 319.733 122.041 320.087 122.761 320.34C123.494 320.593 124.261 320.72 125.061 320.72C126.394 320.72 127.374 320.407 128.001 319.78C128.627 319.167 128.941 318.207 128.941 316.9V315.56C128.501 316.227 127.921 316.733 127.201 317.08C126.494 317.427 125.707 317.6 124.841 317.6C123.854 317.6 122.954 317.387 122.141 316.96C121.341 316.52 120.707 315.913 120.241 315.14C119.787 314.353 119.561 313.467 119.561 312.48C119.561 311.493 119.787 310.613 120.241 309.84C120.707 309.067 121.341 308.467 122.141 308.04C122.941 307.613 123.841 307.4 124.841 307.4C125.734 307.4 126.541 307.58 127.261 307.94C127.981 308.3 128.561 308.82 129.001 309.5V307.48H130.361ZM124.981 316.34C125.741 316.34 126.427 316.18 127.041 315.86C127.654 315.527 128.127 315.067 128.461 314.48C128.807 313.893 128.981 313.227 128.981 312.48C128.981 311.733 128.807 311.073 128.461 310.5C128.127 309.913 127.654 309.46 127.041 309.14C126.441 308.807 125.754 308.64 124.981 308.64C124.221 308.64 123.534 308.8 122.921 309.12C122.321 309.44 121.847 309.893 121.501 310.48C121.167 311.067 121.001 311.733 121.001 312.48C121.001 313.227 121.167 313.893 121.501 314.48C121.847 315.067 122.321 315.527 122.921 315.86C123.534 316.18 124.221 316.34 124.981 316.34ZM143.492 313.18H134.692C134.772 314.273 135.192 315.16 135.952 315.84C136.712 316.507 137.672 316.84 138.832 316.84C139.485 316.84 140.085 316.727 140.632 316.5C141.178 316.26 141.652 315.913 142.052 315.46L142.852 316.38C142.385 316.94 141.798 317.367 141.092 317.66C140.398 317.953 139.632 318.1 138.792 318.1C137.712 318.1 136.752 317.873 135.912 317.42C135.085 316.953 134.438 316.313 133.972 315.5C133.505 314.687 133.272 313.767 133.272 312.74C133.272 311.713 133.492 310.793 133.932 309.98C134.385 309.167 134.998 308.533 135.772 308.08C136.558 307.627 137.438 307.4 138.412 307.4C139.385 307.4 140.258 307.627 141.032 308.08C141.805 308.533 142.412 309.167 142.852 309.98C143.292 310.78 143.512 311.7 143.512 312.74L143.492 313.18ZM138.412 308.62C137.398 308.62 136.545 308.947 135.852 309.6C135.172 310.24 134.785 311.08 134.692 312.12H142.152C142.058 311.08 141.665 310.24 140.972 309.6C140.292 308.947 139.438 308.62 138.412 308.62ZM147.762 309.54C148.095 308.833 148.589 308.3 149.242 307.94C149.909 307.58 150.729 307.4 151.702 307.4V308.78L151.362 308.76C150.255 308.76 149.389 309.1 148.762 309.78C148.135 310.46 147.822 311.413 147.822 312.64V318H146.402V307.48H147.762V309.54Z" fill="#0597F2"/>
<path d="M252.866 317.5C252.481 318.167 251.519 318.167 251.134 317.5L244.206 305.5C243.821 304.833 244.302 304 245.072 304L258.928 304C259.698 304 260.179 304.833 259.794 305.5L252.866 317.5Z" fill="#0597F2"/>
<path d="M61.28 380H62.76V394H61.28V380ZM72.3752 383.4C73.6952 383.4 74.7418 383.787 75.5152 384.56C76.3018 385.32 76.6952 386.433 76.6952 387.9V394H75.2752V388.04C75.2752 386.947 75.0018 386.113 74.4552 385.54C73.9085 384.967 73.1285 384.68 72.1152 384.68C70.9818 384.68 70.0818 385.02 69.4152 385.7C68.7618 386.367 68.4352 387.293 68.4352 388.48V394H67.0152V383.48H68.3752V385.42C68.7618 384.78 69.2952 384.287 69.9752 383.94C70.6685 383.58 71.4685 383.4 72.3752 383.4ZM83.3703 394.1C82.517 394.1 81.697 393.98 80.9103 393.74C80.137 393.487 79.5303 393.173 79.0903 392.8L79.7303 391.68C80.1703 392.027 80.7236 392.313 81.3903 392.54C82.057 392.753 82.7503 392.86 83.4703 392.86C84.4303 392.86 85.137 392.713 85.5903 392.42C86.057 392.113 86.2903 391.687 86.2903 391.14C86.2903 390.753 86.1636 390.453 85.9103 390.24C85.657 390.013 85.337 389.847 84.9503 389.74C84.5636 389.62 84.0503 389.507 83.4103 389.4C82.557 389.24 81.8703 389.08 81.3503 388.92C80.8303 388.747 80.3836 388.46 80.0103 388.06C79.6503 387.66 79.4703 387.107 79.4703 386.4C79.4703 385.52 79.837 384.8 80.5703 384.24C81.3036 383.68 82.3236 383.4 83.6303 383.4C84.3103 383.4 84.9903 383.493 85.6703 383.68C86.3503 383.853 86.9103 384.087 87.3503 384.38L86.7303 385.52C85.8636 384.92 84.8303 384.62 83.6303 384.62C82.7236 384.62 82.037 384.78 81.5703 385.1C81.117 385.42 80.8903 385.84 80.8903 386.36C80.8903 386.76 81.017 387.08 81.2703 387.32C81.537 387.56 81.8636 387.74 82.2503 387.86C82.637 387.967 83.1703 388.08 83.8503 388.2C84.6903 388.36 85.3636 388.52 85.8703 388.68C86.377 388.84 86.8103 389.113 87.1703 389.5C87.5303 389.887 87.7103 390.42 87.7103 391.1C87.7103 392.02 87.3236 392.753 86.5503 393.3C85.7903 393.833 84.7303 394.1 83.3703 394.1ZM95.8755 393.36C95.6088 393.6 95.2755 393.787 94.8755 393.92C94.4888 394.04 94.0821 394.1 93.6555 394.1C92.6688 394.1 91.9088 393.833 91.3755 393.3C90.8421 392.767 90.5755 392.013 90.5755 391.04V384.68H88.6955V383.48H90.5755V381.18H91.9955V383.48H95.1955V384.68H91.9955V390.96C91.9955 391.587 92.1488 392.067 92.4555 392.4C92.7755 392.72 93.2288 392.88 93.8155 392.88C94.1088 392.88 94.3888 392.833 94.6555 392.74C94.9355 392.647 95.1755 392.513 95.3755 392.34L95.8755 393.36ZM98.4605 383.48H99.8805V394H98.4605V383.48ZM99.1805 381.18C98.8871 381.18 98.6405 381.08 98.4405 380.88C98.2405 380.68 98.1405 380.44 98.1405 380.16C98.1405 379.893 98.2405 379.66 98.4405 379.46C98.6405 379.26 98.8871 379.16 99.1805 379.16C99.4738 379.16 99.7205 379.26 99.9205 379.46C100.12 379.647 100.22 379.873 100.22 380.14C100.22 380.433 100.12 380.68 99.9205 380.88C99.7205 381.08 99.4738 381.18 99.1805 381.18ZM109.372 393.36C109.105 393.6 108.772 393.787 108.372 393.92C107.985 394.04 107.578 394.1 107.152 394.1C106.165 394.1 105.405 393.833 104.872 393.3C104.338 392.767 104.072 392.013 104.072 391.04V384.68H102.192V383.48H104.072V381.18H105.492V383.48H108.692V384.68H105.492V390.96C105.492 391.587 105.645 392.067 105.952 392.4C106.272 392.72 106.725 392.88 107.312 392.88C107.605 392.88 107.885 392.833 108.152 392.74C108.432 392.647 108.672 392.513 108.872 392.34L109.372 393.36ZM121.437 383.48V394H120.077V392.08C119.703 392.72 119.19 393.22 118.537 393.58C117.883 393.927 117.137 394.1 116.297 394.1C114.923 394.1 113.837 393.72 113.037 392.96C112.25 392.187 111.857 391.06 111.857 389.58V383.48H113.277V389.44C113.277 390.547 113.55 391.387 114.097 391.96C114.643 392.533 115.423 392.82 116.437 392.82C117.543 392.82 118.417 392.487 119.057 391.82C119.697 391.14 120.017 390.2 120.017 389V383.48H121.437ZM129.774 394.1C128.734 394.1 127.8 393.873 126.974 393.42C126.16 392.967 125.52 392.333 125.054 391.52C124.587 390.693 124.354 389.767 124.354 388.74C124.354 387.713 124.587 386.793 125.054 385.98C125.52 385.167 126.16 384.533 126.974 384.08C127.8 383.627 128.734 383.4 129.774 383.4C130.68 383.4 131.487 383.58 132.194 383.94C132.914 384.287 133.48 384.8 133.894 385.48L132.834 386.2C132.487 385.68 132.047 385.293 131.514 385.04C130.98 384.773 130.4 384.64 129.774 384.64C129.014 384.64 128.327 384.813 127.714 385.16C127.114 385.493 126.64 385.973 126.294 386.6C125.96 387.227 125.794 387.94 125.794 388.74C125.794 389.553 125.96 390.273 126.294 390.9C126.64 391.513 127.114 391.993 127.714 392.34C128.327 392.673 129.014 392.84 129.774 392.84C130.4 392.84 130.98 392.713 131.514 392.46C132.047 392.207 132.487 391.82 132.834 391.3L133.894 392.02C133.48 392.7 132.914 393.22 132.194 393.58C131.474 393.927 130.667 394.1 129.774 394.1ZM136.683 383.48H138.103V394H136.683V383.48ZM137.403 381.18C137.11 381.18 136.863 381.08 136.663 380.88C136.463 380.68 136.363 380.44 136.363 380.16C136.363 379.893 136.463 379.66 136.663 379.46C136.863 379.26 137.11 379.16 137.403 379.16C137.696 379.16 137.943 379.26 138.143 379.46C138.343 379.647 138.443 379.873 138.443 380.14C138.443 380.433 138.343 380.68 138.143 380.88C137.943 381.08 137.696 381.18 137.403 381.18ZM146.354 394.1C145.341 394.1 144.428 393.873 143.614 393.42C142.801 392.953 142.161 392.313 141.694 391.5C141.228 390.687 140.994 389.767 140.994 388.74C140.994 387.713 141.228 386.793 141.694 385.98C142.161 385.167 142.801 384.533 143.614 384.08C144.428 383.627 145.341 383.4 146.354 383.4C147.368 383.4 148.281 383.627 149.094 384.08C149.908 384.533 150.541 385.167 150.994 385.98C151.461 386.793 151.694 387.713 151.694 388.74C151.694 389.767 151.461 390.687 150.994 391.5C150.541 392.313 149.908 392.953 149.094 393.42C148.281 393.873 147.368 394.1 146.354 394.1ZM146.354 392.84C147.101 392.84 147.768 392.673 148.354 392.34C148.954 391.993 149.421 391.507 149.754 390.88C150.088 390.253 150.254 389.54 150.254 388.74C150.254 387.94 150.088 387.227 149.754 386.6C149.421 385.973 148.954 385.493 148.354 385.16C147.768 384.813 147.101 384.64 146.354 384.64C145.608 384.64 144.934 384.813 144.334 385.16C143.748 385.493 143.281 385.973 142.934 386.6C142.601 387.227 142.434 387.94 142.434 388.74C142.434 389.54 142.601 390.253 142.934 390.88C143.281 391.507 143.748 391.993 144.334 392.34C144.934 392.673 145.608 392.84 146.354 392.84ZM147.774 379.36H149.674L146.434 381.84H145.034L147.774 379.36ZM159.953 383.4C161.273 383.4 162.32 383.787 163.093 384.56C163.88 385.32 164.273 386.433 164.273 387.9V394H162.853V388.04C162.853 386.947 162.58 386.113 162.033 385.54C161.487 384.967 160.707 384.68 159.693 384.68C158.56 384.68 157.66 385.02 156.993 385.7C156.34 386.367 156.013 387.293 156.013 388.48V394H154.593V383.48H155.953V385.42C156.34 384.78 156.873 384.287 157.553 383.94C158.247 383.58 159.047 383.4 159.953 383.4Z" fill="#F2F2F2"/>
<rect x="52" y="426" width="229" height="43" rx="21.5" fill="#F2F2F2"/>
<path d="M84.18 453.72V455H74.28V441H83.88V442.28H75.76V447.26H83V448.52H75.76V453.72H84.18ZM90.0227 455.1C89.1693 455.1 88.3493 454.98 87.5627 454.74C86.7893 454.487 86.1827 454.173 85.7427 453.8L86.3827 452.68C86.8227 453.027 87.376 453.313 88.0427 453.54C88.7093 453.753 89.4027 453.86 90.1227 453.86C91.0827 453.86 91.7893 453.713 92.2427 453.42C92.7093 453.113 92.9427 452.687 92.9427 452.14C92.9427 451.753 92.816 451.453 92.5627 451.24C92.3093 451.013 91.9893 450.847 91.6027 450.74C91.216 450.62 90.7027 450.507 90.0627 450.4C89.2093 450.24 88.5227 450.08 88.0027 449.92C87.4827 449.747 87.036 449.46 86.6627 449.06C86.3027 448.66 86.1227 448.107 86.1227 447.4C86.1227 446.52 86.4893 445.8 87.2227 445.24C87.956 444.68 88.976 444.4 90.2827 444.4C90.9627 444.4 91.6427 444.493 92.3227 444.68C93.0027 444.853 93.5627 445.087 94.0027 445.38L93.3827 446.52C92.516 445.92 91.4827 445.62 90.2827 445.62C89.376 445.62 88.6893 445.78 88.2227 446.1C87.7693 446.42 87.5427 446.84 87.5427 447.36C87.5427 447.76 87.6693 448.08 87.9227 448.32C88.1893 448.56 88.516 448.74 88.9027 448.86C89.2893 448.967 89.8227 449.08 90.5027 449.2C91.3427 449.36 92.016 449.52 92.5227 449.68C93.0293 449.84 93.4627 450.113 93.8227 450.5C94.1827 450.887 94.3627 451.42 94.3627 452.1C94.3627 453.02 93.976 453.753 93.2027 454.3C92.4427 454.833 91.3827 455.1 90.0227 455.1ZM101.348 455.1C100.308 455.1 99.3745 454.873 98.5478 454.42C97.7345 453.967 97.0945 453.333 96.6278 452.52C96.1611 451.693 95.9278 450.767 95.9278 449.74C95.9278 448.713 96.1611 447.793 96.6278 446.98C97.0945 446.167 97.7345 445.533 98.5478 445.08C99.3745 444.627 100.308 444.4 101.348 444.4C102.254 444.4 103.061 444.58 103.768 444.94C104.488 445.287 105.054 445.8 105.468 446.48L104.408 447.2C104.061 446.68 103.621 446.293 103.088 446.04C102.554 445.773 101.974 445.64 101.348 445.64C100.588 445.64 99.9011 445.813 99.2878 446.16C98.6878 446.493 98.2145 446.973 97.8678 447.6C97.5345 448.227 97.3678 448.94 97.3678 449.74C97.3678 450.553 97.5345 451.273 97.8678 451.9C98.2145 452.513 98.6878 452.993 99.2878 453.34C99.9011 453.673 100.588 453.84 101.348 453.84C101.974 453.84 102.554 453.713 103.088 453.46C103.621 453.207 104.061 452.82 104.408 452.3L105.468 453.02C105.054 453.7 104.488 454.22 103.768 454.58C103.048 454.927 102.241 455.1 101.348 455.1ZM112.382 455.1C111.368 455.1 110.455 454.873 109.642 454.42C108.828 453.953 108.188 453.313 107.722 452.5C107.255 451.687 107.022 450.767 107.022 449.74C107.022 448.713 107.255 447.793 107.722 446.98C108.188 446.167 108.828 445.533 109.642 445.08C110.455 444.627 111.368 444.4 112.382 444.4C113.395 444.4 114.308 444.627 115.122 445.08C115.935 445.533 116.568 446.167 117.022 446.98C117.488 447.793 117.722 448.713 117.722 449.74C117.722 450.767 117.488 451.687 117.022 452.5C116.568 453.313 115.935 453.953 115.122 454.42C114.308 454.873 113.395 455.1 112.382 455.1ZM112.382 453.84C113.128 453.84 113.795 453.673 114.382 453.34C114.982 452.993 115.448 452.507 115.782 451.88C116.115 451.253 116.282 450.54 116.282 449.74C116.282 448.94 116.115 448.227 115.782 447.6C115.448 446.973 114.982 446.493 114.382 446.16C113.795 445.813 113.128 445.64 112.382 445.64C111.635 445.64 110.962 445.813 110.362 446.16C109.775 446.493 109.308 446.973 108.962 447.6C108.628 448.227 108.462 448.94 108.462 449.74C108.462 450.54 108.628 451.253 108.962 451.88C109.308 452.507 109.775 452.993 110.362 453.34C110.962 453.673 111.635 453.84 112.382 453.84ZM130.361 444.48V453.72C130.361 455.507 129.921 456.827 129.041 457.68C128.174 458.547 126.861 458.98 125.101 458.98C124.127 458.98 123.201 458.833 122.321 458.54C121.454 458.26 120.747 457.867 120.201 457.36L120.921 456.28C121.427 456.733 122.041 457.087 122.761 457.34C123.494 457.593 124.261 457.72 125.061 457.72C126.394 457.72 127.374 457.407 128.001 456.78C128.627 456.167 128.941 455.207 128.941 453.9V452.56C128.501 453.227 127.921 453.733 127.201 454.08C126.494 454.427 125.707 454.6 124.841 454.6C123.854 454.6 122.954 454.387 122.141 453.96C121.341 453.52 120.707 452.913 120.241 452.14C119.787 451.353 119.561 450.467 119.561 449.48C119.561 448.493 119.787 447.613 120.241 446.84C120.707 446.067 121.341 445.467 122.141 445.04C122.941 444.613 123.841 444.4 124.841 444.4C125.734 444.4 126.541 444.58 127.261 444.94C127.981 445.3 128.561 445.82 129.001 446.5V444.48H130.361ZM124.981 453.34C125.741 453.34 126.427 453.18 127.041 452.86C127.654 452.527 128.127 452.067 128.461 451.48C128.807 450.893 128.981 450.227 128.981 449.48C128.981 448.733 128.807 448.073 128.461 447.5C128.127 446.913 127.654 446.46 127.041 446.14C126.441 445.807 125.754 445.64 124.981 445.64C124.221 445.64 123.534 445.8 122.921 446.12C122.321 446.44 121.847 446.893 121.501 447.48C121.167 448.067 121.001 448.733 121.001 449.48C121.001 450.227 121.167 450.893 121.501 451.48C121.847 452.067 122.321 452.527 122.921 452.86C123.534 453.18 124.221 453.34 124.981 453.34ZM143.492 450.18H134.692C134.772 451.273 135.192 452.16 135.952 452.84C136.712 453.507 137.672 453.84 138.832 453.84C139.485 453.84 140.085 453.727 140.632 453.5C141.178 453.26 141.652 452.913 142.052 452.46L142.852 453.38C142.385 453.94 141.798 454.367 141.092 454.66C140.398 454.953 139.632 455.1 138.792 455.1C137.712 455.1 136.752 454.873 135.912 454.42C135.085 453.953 134.438 453.313 133.972 452.5C133.505 451.687 133.272 450.767 133.272 449.74C133.272 448.713 133.492 447.793 133.932 446.98C134.385 446.167 134.998 445.533 135.772 445.08C136.558 444.627 137.438 444.4 138.412 444.4C139.385 444.4 140.258 444.627 141.032 445.08C141.805 445.533 142.412 446.167 142.852 446.98C143.292 447.78 143.512 448.7 143.512 449.74L143.492 450.18ZM138.412 445.62C137.398 445.62 136.545 445.947 135.852 446.6C135.172 447.24 134.785 448.08 134.692 449.12H142.152C142.058 448.08 141.665 447.24 140.972 446.6C140.292 445.947 139.438 445.62 138.412 445.62ZM147.762 446.54C148.095 445.833 148.589 445.3 149.242 444.94C149.909 444.58 150.729 444.4 151.702 444.4V445.78L151.362 445.76C150.255 445.76 149.389 446.1 148.762 446.78C148.135 447.46 147.822 448.413 147.822 449.64V455H146.402V444.48H147.762V446.54Z" fill="#0597F2"/>
<path d="M252.866 454.5C252.481 455.167 251.519 455.167 251.134 454.5L244.206 442.5C243.821 441.833 244.302 441 245.072 441L258.928 441C259.698 441 260.179 441.833 259.794 442.5L252.866 454.5Z" fill="#0597F2"/>
<defs>
<filter id="filter0_d_7_5809" x="0" y="0" width="323" height="554" filterUnits="userSpaceOnUse" color-interpolation-filters="sRGB">
<feFlood flood-opacity="0" result="BackgroundImageFix"/>
<feColorMatrix in="SourceAlpha" type="matrix" values="0 0 0 0 0 0 0 0 0 0 0 0 0 0 0 0 0 0 127 0" result="hardAlpha"/>
<feOffset dy="4"/>
<feGaussianBlur stdDeviation="2"/>
<feComposite in2="hardAlpha" operator="out"/>
<feColorMatrix type="matrix" values="0 0 0 0 0 0 0 0 0 0 0 0 0 0 0 0 0 0 0.25 0"/>
<feBlend mode="normal" in2="BackgroundImageFix" result="effect1_dropShadow_7_5809"/>
<feBlend mode="normal" in="SourceGraphic" in2="effect1_dropShadow_7_5809" result="shape"/>
</filter>
</defs>
</svg>
