<?xml version="1.0" encoding="UTF-8"?><svg xmlns="http://www.w3.org/2000/svg" viewBox="0 0 456.93 347.8"><defs><style>.cls-1{fill:#c78976;}.cls-1,.cls-2,.cls-3,.cls-4,.cls-5,.cls-6,.cls-7,.cls-8,.cls-9,.cls-10,.cls-11,.cls-12{stroke-width:0px;}.cls-3{fill:#e0e0e0;}.cls-4{fill:#f5f5f5;}.cls-5{fill:#fff;}.cls-13{opacity:.3;}.cls-6{fill:#925b4c;}.cls-7{fill:#263238;}.cls-8{fill:#ff725e;}.cls-9{fill:#ebebeb;}.cls-10{fill:#ffbe9d;}.cls-11{fill:#eb996e;}.cls-12{fill:#455a64;}</style></defs><g id="Background_Complete"><path class="cls-9" d="m423.24,205.11c6.42-3.31,13.98-3.74,21.11-2.57,3.83.63,7.82,1.78,10.43,4.66,2.61,2.88,3.1,7.94.11,10.41-1.78,1.47-4.27,1.69-6.58,1.67-5.58-.07-11.77-1.05-16.23,2.31-2.54,1.92-4.24,5.1-7.28,6.04-2.97.92-6.33-.83-7.91-3.52-1.58-2.69-1.63-6.04-.89-9.07,0,0,.77-6.6,7.24-9.93Z"/><path class="cls-9" d="m408.52,176.71c3.93,5.61,11.56,3.75,15.1.33,3.54-3.42,5.03-8.38,6.39-13.11,3.11-10.81,6.25-22.15,3.93-33.15-.69-3.29-1.92-6.57-4.23-9.01-2.31-2.44-5.87-3.89-9.12-3.03-3.85,1.02-6.24,4.78-7.97,8.37-5.08,10.54-7.77,22.22-7.81,33.92-.02,5.46.62,11.19,3.71,15.7"/><path class="cls-9" d="m397.74,184.76c4.26-5.06,5.07-12.44,3.18-18.78-1.9-6.34-6.18-11.73-11.12-16.13-5.79-5.16-12.6-9.18-19.91-11.75-2.88-1.01-5.92-1.81-8.96-1.52-3.04.29-6.1,1.84-7.52,4.55-2.1,4-.09,8.85,2.09,12.8,3.83,6.97,8.21,13.64,13.08,19.92,3.92,5.05,8.41,10.04,14.39,12.32,5.97,2.28,12.18,2.02,15.35-2.13"/><path class="cls-3" d="m408.26,261.3c.07,0,.19-.9.36-2.55.18-1.85.41-4.18.68-6.95.32-2.93.75-6.41,1.56-10.2.81-3.78,2.08-7.88,3.71-12.04,1.69-4.13,3.74-7.89,6.15-10.89,2.39-3.02,5.16-5.2,7.77-6.46,2.6-1.28,4.93-1.81,6.54-2.04,1.63-.17,2.54-.3,2.54-.37,0-.07-.91-.08-2.58-.04-1.65.11-4.08.53-6.82,1.78-2.75,1.22-5.69,3.44-8.2,6.52-2.52,3.07-4.66,6.91-6.37,11.11-1.66,4.23-2.91,8.37-3.68,12.24-.77,3.86-1.12,7.38-1.36,10.33-.22,2.95-.3,5.34-.34,7-.04,1.65-.02,2.57.05,2.57Z"/><path class="cls-3" d="m408.74,255.95s.06-.41.07-1.18c0-.89,0-2.01,0-3.38,0-2.93,0-7.18.15-12.42.26-10.49,1.16-21.77,2.91-37.68,1.65-14.96,3.87-32.37,6.21-43.69.5-2.57,1.01-4.89,1.48-6.92.45-2.03.84-3.79,1.21-5.2.32-1.34.58-2.42.79-3.29.17-.75.24-1.16.21-1.17-.03,0-.18.37-.41,1.11-.26.85-.58,1.92-.98,3.24-.44,1.41-.88,3.15-1.39,5.17-.53,2.02-1.09,4.33-1.64,6.9-2.31,10.26-4.77,24.59-6.53,40.54-1.75,15.94-2.53,30.46-2.6,40.98-.06,5.26.05,9.51.18,12.45.08,1.37.15,2.49.21,3.38.06.77.11,1.18.14,1.17Z"/><path class="cls-3" d="m408.81,227.95c.07,0,.06-1.26-.02-3.53-.13-2.27-.44-5.55-1.08-9.57-.68-4.01-1.62-8.77-3.11-13.94-.64-2.36-2.16-8.03-5.83-16.5-4.84-11.47-11.41-20.85-17.12-26.66-1.34-1.54-2.83-2.65-4.03-3.74-.62-.52-1.16-1.04-1.72-1.46-.56-.39-1.08-.74-1.56-1.08-1.88-1.29-2.93-1.96-2.97-1.9-.17.23,4.21,2.81,9.75,8.69,5.51,5.87,11.9,15.19,16.69,26.56,2.67,6.17,4.54,11.67,5.86,16.34,1.53,5.12,2.54,9.83,3.31,13.8.73,3.98,1.15,7.23,1.41,9.47.21,2.25.36,3.5.43,3.5Z"/><polygon class="cls-3" points="381.74 277.34 384.55 315.78 433.93 315.78 436.74 277.34 381.74 277.34"/><rect class="cls-3" x="376.97" y="262.19" width="65.66" height="15.15"/><polygon class="cls-9" points="376.97 314.31 376.97 318.51 380.06 318.51 441.55 318.51 441.55 314.31 376.97 314.31"/><polygon class="cls-3" points="383.08 325.9 380.06 318.51 439.19 318.51 435.67 325.9 383.08 325.9"/><path class="cls-4" d="m435.82,289.91s-.07.13-.23.35c-.2.26-.44.58-.74.98-.7.9-1.66,2.13-2.88,3.68l-.13.16-.12-.17c-1.81-2.5-4.22-5.84-7.07-9.77h.41c-2.1,2.98-4.44,6.29-6.96,9.85l-.22.31-.24-.29c-2.57-3.06-5.36-6.37-8.25-9.82h.48c-.14.17-.3.37-.45.56-2.56,3.21-5.04,6.31-7.38,9.25l-.25.31-.23-.32c-2.5-3.54-4.85-6.86-6.96-9.85l.4.02c-3.43,3.91-6.34,7.22-8.57,9.77l-.15.17-.12-.2c-1.13-1.9-2.03-3.41-2.68-4.51-.28-.49-.51-.89-.69-1.2-.15-.27-.22-.42-.21-.43.01,0,.11.12.29.38.2.3.45.68.76,1.16.69,1.08,1.63,2.56,2.82,4.43l-.27-.02c2.2-2.58,5.06-5.93,8.44-9.89l.21-.25.19.27c2.14,2.98,4.5,6.28,7.02,9.81h-.47c2.34-2.95,4.81-6.06,7.36-9.28.16-.2.31-.39.45-.57l.23-.29.24.29c2.89,3.45,5.67,6.78,8.23,9.84l-.46.02c2.54-3.54,4.9-6.84,7.03-9.8l.21-.29.2.29c2.78,3.98,5.15,7.35,6.92,9.88h-.25c1.26-1.52,2.26-2.72,2.99-3.6.32-.38.59-.68.8-.93.18-.21.29-.31.3-.3Z"/><path class="cls-4" d="m437.43,277.09c0,.17-12.37.31-27.63.31s-27.64-.14-27.64-.31,12.37-.31,27.64-.31,27.63.14,27.63.31Z"/><path class="cls-4" d="m439.92,318.93c0,.17-13.45.31-30.03.31s-30.04-.14-30.04-.31,13.44-.31,30.04-.31,30.03.14,30.03.31Z"/></g><g id="Character_2"><path class="cls-10" d="m165.16,229.7s10.56-6.58,14.55-6.14l22.87,5.33s1.96,2.14-2.01,4.11c-3.91,1.94-9-.86-9-.86l-5.57.78,3.84,3.21,15.17,4.66s10.99,3.11,9.66,4.73c-1.33,1.62-4.64,1.81-9.38.47-4.74-1.34-10.76-3.04-10.76-3.04,0,0-1.88-.41,1.14,1.7,3.03,2.11,16.35,5.37,18.1,6.24,1.75.87,6.54,1.6,6.02,4.33-.52,2.73-6.52.53-6.52.53l-19.7-4.57s7.78,3.36,9.1,3.98c1.32.62,5.63,1.81,7.93,2.96,2.3,1.15,3.4,2.67,3.14,3.88-.48,2.18-2.49,1.94-2.49,1.94l-16.67-5.72s-7.56-3.01-8.07-2.91c-.51.11,2.95,3.33,2.95,3.33l5.32,2.72s7.68,2.57,7.7,4.7c.02,2.13-1.58,2.05-1.58,2.05l-14-4.83-15.63-7.92-11.71-7.18s2.11-8.26,1.71-8.62c-.4-.36,3.87-9.87,3.87-9.87Z"/><path class="cls-11" d="m170.64,245.22c-.04-.16,1.46-.55,3.77-1.38,2.24-.84,5.53-2.31,7.22-5.58.75-1.43,1.03-3.01.76-4.37l-.1-.5.55-.07c2.42-.31,4.69-.84,6.22-1.05,1.55-.25,2.51-.27,2.51-.14,0,.09-.87.3-2.39.71-1.55.37-3.59,1.01-6.31,1.43l.45-.57c.36,1.58.06,3.43-.79,5.02-.92,1.78-2.35,3.14-3.8,4.02-1.45.9-2.89,1.41-4.09,1.77-2.43.68-3.97.81-4,.7Z"/><path class="cls-7" d="m116.27,200.87c.09.15-3.45,1.85-6.91,5.13-3.49,3.26-5.4,6.69-5.54,6.59-.05-.03.35-.92,1.21-2.25.86-1.33,2.21-3.06,3.97-4.72,1.76-1.66,3.58-2.9,4.95-3.68,1.38-.78,2.29-1.13,2.32-1.07Z"/></g><g id="Character_3"><path class="cls-7" d="m115.25,187.89s-35.53,4.21-48.67,14.71c-2.06,1.65-3.99,3.57-5.77,5.62-8.29,9.53-13.15,21.57-14.3,34.15l-4.76,52.25.38,8.63c.6,13.47,11.67,24.1,25.16,24.15l146.82,1.03s19.29-21.53,14.24-54.9c-1.19-7.86-3.09-34.78-10.53-51.34-3.93-8.76-9.95-19.58-25.85-23.81l-37.08-10.49h-39.64Z"/><path class="cls-12" d="m81.95,230.39s-.14-.41-.3-1.17c-.16-.76-.4-1.85-.74-3.19-.67-2.68-1.78-6.33-3.44-10.2-1.67-3.86-3.57-7.18-5.06-9.5-.74-1.16-1.37-2.09-1.81-2.72-.44-.64-.67-1-.64-1.02.03-.02.31.3.8.9.5.6,1.17,1.5,1.96,2.64,1.58,2.28,3.55,5.6,5.23,9.49,1.68,3.9,2.74,7.6,3.32,10.32.29,1.36.49,2.46.58,3.23.1.77.14,1.2.11,1.2Z"/><path class="cls-12" d="m88.11,289.99c-.14.02-1.71-11.4-3.51-25.51-1.79-14.11-3.13-25.56-2.99-25.58.14-.02,1.71,11.4,3.51,25.51,1.79,14.11,3.13,25.56,2.99,25.58Z"/><path class="cls-12" d="m81.62,234.87c-.03.06-1-.31-2.5-1.06-1.5-.75-3.52-1.9-5.62-3.38-2.1-1.48-3.86-2.99-5.07-4.15-1.21-1.16-1.89-1.95-1.84-2,.06-.06.82.64,2.09,1.72,1.27,1.08,3.05,2.54,5.13,4,2.08,1.46,4.05,2.65,5.49,3.48,1.45.83,2.36,1.31,2.33,1.38Z"/><path class="cls-12" d="m176.75,244.54s-.04-.63,0-1.78c0-.58.04-1.28.14-2.09.09-.81.15-1.74.35-2.75.17-1.02.36-2.13.67-3.3.25-1.19.66-2.42,1.06-3.72.89-2.58,2.06-5.34,3.59-8.09,1.56-2.73,3.32-5.17,5.06-7.27.91-1.02,1.75-2,2.63-2.83.84-.87,1.69-1.61,2.47-2.28.76-.7,1.53-1.23,2.17-1.73.64-.51,1.23-.9,1.72-1.2.97-.62,1.51-.95,1.53-.92.02.03-.49.42-1.41,1.09-.47.33-1.03.74-1.65,1.26-.63.52-1.37,1.07-2.11,1.78-.76.68-1.59,1.43-2.41,2.31-.86.84-1.68,1.82-2.57,2.84-1.7,2.09-3.43,4.51-4.97,7.21-1.51,2.72-2.69,5.45-3.59,7.99-.41,1.28-.83,2.5-1.09,3.67-.32,1.16-.54,2.25-.72,3.26-.22,1-.31,1.92-.42,2.72-.13.8-.19,1.5-.22,2.07-.09,1.14-.16,1.77-.2,1.77Z"/><path class="cls-12" d="m162.13,304.55s-.2-.64-.11-1.84c.08-1.16.67-3.07,2.63-4.3l-.04.03c3.08-3.29,8.18-7.55,15.05-10.47l-.15.21c.2-1.88.41-3.83.56-5.84.68-8.58.59-16.38.3-22.01-.13-2.82-.33-5.09-.44-6.66-.06-.74-.11-1.34-.15-1.81-.03-.41-.03-.63-.02-.64.02,0,.06.21.12.62.06.47.14,1.06.25,1.8.18,1.57.43,3.84.61,6.66.38,5.64.53,13.47-.15,22.07-.15,2.01-.36,3.97-.57,5.86l-.02.15-.14.06c-6.8,2.87-11.89,7.03-15.01,10.23l-.02.02-.03.02c-.9.51-1.55,1.29-1.95,2.01-.41.73-.58,1.44-.66,2.02-.14,1.17,0,1.82-.06,1.82Z"/><path class="cls-12" d="m204.01,300.32c-.08.05-.85-1.39-2.52-3.39-1.66-1.99-4.31-4.5-7.84-6.32-1.76-.9-3.52-1.61-5.18-2.02-1.66-.43-3.2-.58-4.5-.59-2.6-.02-4.2.3-4.22.2,0-.03.39-.14,1.11-.27.72-.13,1.78-.27,3.1-.3,1.32-.03,2.91.09,4.61.5,1.71.4,3.51,1.1,5.31,2.02,3.61,1.86,6.28,4.47,7.89,6.55.81,1.04,1.38,1.95,1.74,2.59.36.64.52,1.02.49,1.03Z"/><path class="cls-12" d="m203.3,286.65c-.04.09-1.22-.47-3.25-.97-1.01-.27-2.24-.46-3.61-.62-1.37-.12-2.89-.18-4.48-.11-3.19.14-6.04.71-8.06,1.23-2.03.52-3.25.97-3.28.89-.01-.03.28-.18.82-.41.54-.24,1.35-.53,2.36-.84,2.02-.62,4.9-1.25,8.14-1.4,1.62-.06,3.16,0,4.56.16,1.39.19,2.64.42,3.65.74.51.13.96.31,1.36.46.4.14.73.28.99.42.53.26.82.42.8.45Z"/><path class="cls-8" d="m175.47,128.65c-2.93-12.44-8.17-25.15-18.48-32.71-9.19-6.73-22.58-9.3-33.94-8.45-5.59.42-11.83,3.21-16.62,6.13-6.57,4-9.15,11.77-12.15,18.85-6.01,14.18-4.58,33.08-.03,38.2l59.4,28.94c10.16-5.72,21.17-13.41,23.54-24.83,1.61-7.77.09-18.4-1.73-26.12Z"/><path class="cls-10" d="m152.98,106.58l-37.1-9.65c-11.89-1.34-19.91,13.26-20.74,25.2-.93,13.27-1.53,29.5-.03,39.41,3.03,19.93,18.28,24.67,18.28,24.67,0-.07.04,17.31.11,23.23l17.3,52.72,24.62-52.72,3.79-95.71c.1-3.63-2.6-6.74-6.22-7.15Z"/><path class="cls-7" d="m101.76,138.2c-.06,1.35,1.04,2.51,2.44,2.59,1.4.09,2.59-.94,2.65-2.28.06-1.35-1.04-2.51-2.44-2.59-1.41-.09-2.59.94-2.65,2.29Z"/><path class="cls-7" d="m98.6,130.6c.31.34,2.26-1.08,5.01-1.06,2.75-.01,4.75,1.41,5.05,1.08.15-.15-.17-.75-1.04-1.4-.86-.64-2.33-1.27-4.04-1.28-1.71,0-3.16.62-3.99,1.26-.85.64-1.14,1.24-.98,1.39Z"/><path class="cls-7" d="m126.7,138.2c-.06,1.35,1.04,2.51,2.44,2.59,1.4.08,2.59-.94,2.65-2.28.06-1.35-1.04-2.51-2.44-2.59-1.41-.09-2.59.94-2.65,2.29Z"/><path class="cls-7" d="m125.6,131.3c.32.34,2.26-1.08,5.01-1.06,2.74-.01,4.75,1.41,5.05,1.08.15-.15-.17-.75-1.05-1.4-.86-.64-2.33-1.27-4.04-1.28-1.71,0-3.16.62-3.99,1.26-.85.64-1.14,1.24-.99,1.39Z"/><path class="cls-7" d="m115.49,151.61c.01-.16-1.69-.46-4.46-.84-.7-.08-1.36-.22-1.48-.7-.16-.51.14-1.26.48-2.08.67-1.69,1.37-3.47,2.11-5.33,2.93-7.59,5.06-13.83,4.76-13.94-.31-.12-2.93,5.94-5.87,13.53-.71,1.87-1.38,3.65-2.02,5.36-.27.8-.73,1.7-.38,2.75.19.53.7.91,1.15,1.03.45.14.84.15,1.19.17,2.78.17,4.51.19,4.52.04Z"/><path class="cls-11" d="m113.34,186.36l.11,4.96c19.92,2,26.6-11.89,26.6-11.89-13.33,7.89-26.72,6.93-26.72,6.93Z"/><path class="cls-11" d="m124.54,156.8c-.78-1.29-2.2-1.97-3.66-2.02-2.1-.08-3.87.63-5.25,2.56-.47.56-.44,2.14-.25,2.58.19.44.04.22.38.53,1.22,1.09,2.51,2.19,4.09,2.57,1.58.39,3.52-.11,4.56-1.64.93-1.36.9-3.28.13-4.56Z"/><path class="cls-7" d="m123.57,153.57c-.45-.03-.47,2.95-3.04,5.05-2.56,2.11-5.74,1.75-5.77,2.17-.04.19.7.58,2.05.63,1.32.05,3.24-.36,4.81-1.64,1.57-1.29,2.25-3.02,2.36-4.24.12-1.25-.21-1.99-.41-1.97Z"/><path class="cls-8" d="m124.37,122.49c.27.75,3.01.41,6.23.82,3.23.35,5.82,1.31,6.26.64.19-.32-.26-1.03-1.3-1.76-1.04-.73-2.69-1.43-4.63-1.66-1.93-.22-3.71.07-4.89.54-1.19.47-1.79,1.05-1.67,1.41Z"/><path class="cls-8" d="m99.66,121.11c.48.63,2.38,0,4.65-.02,2.28-.09,4.2.45,4.65-.2.2-.32-.1-.94-.94-1.54-.83-.59-2.21-1.09-3.78-1.05-1.56.04-2.92.6-3.72,1.23-.81.64-1.08,1.28-.87,1.58Z"/><path class="cls-10" d="m153.84,137.96c.27-.13,11.09-3.56,10.99,7.56-.1,11.11-11.24,8.72-11.25,8.4-.02-.32.27-15.96.27-15.96Z"/><path class="cls-11" d="m157,149.74s.19.14.52.29c.32.15.87.25,1.45.04,1.18-.42,2.18-2.28,2.25-4.28.04-1.01-.17-1.98-.52-2.78-.33-.82-.85-1.39-1.44-1.5-.59-.14-1.01.21-1.15.52-.15.31-.08.53-.14.55-.03.03-.24-.19-.14-.65.05-.22.18-.48.44-.69.27-.21.66-.32,1.07-.27.86.07,1.62.86,2.01,1.74.43.88.69,1.97.64,3.1-.09,2.24-1.26,4.32-2.87,4.77-.78.2-1.43-.04-1.77-.31-.34-.28-.4-.53-.36-.55Z"/><path class="cls-7" d="m160.68,153.44c.05-.05.48.47.42,1.46-.04.47-.2,1.12-.79,1.56-.6.43-1.43.42-2.13.15-.7-.26-1.34-.83-1.48-1.54-.15-.68.05-1.29.3-1.71.55-.86,1.25-.94,1.24-.88.05.08-.52.3-.9,1.07-.18.37-.29.89-.15,1.39.12.5.59.92,1.17,1.14.58.23,1.23.22,1.64-.05.42-.27.61-.77.69-1.18.15-.85-.1-1.38-.02-1.41Z"/><path class="cls-8" d="m94.24,125.29c1.5-3.22,4.41-5.57,7.5-7.33,3.09-1.76,6.43-3.04,9.5-4.82,7.05-4.1,12.49-10.9,14.93-18.68-5.47-2.82-12.28-2.5-17.8.23-5.52,2.73-9.76,7.68-12.3,13.29-2.54,5.61-3.46,11.85-3.39,18"/><path class="cls-8" d="m156.39,103.61c-8.22-7.81-23.75-12.12-34.46-8.46,1.59,9.36,8.65,19.86,14.86,27.04,6.25,7.22,10.02,19.87,23.62,15.57.94-.3,2.01.56,2.85.06.72-.42,1.06-1.27,1.31-2.06,3.58-11.1.26-24.12-8.19-32.15Z"/><path class="cls-8" d="m94.86,138.79s-.71.2-1.95-.11c-1.23-.29-2.96-1.25-4.27-3.14-1.35-1.88-1.95-4.7-1.69-7.68.12-1.5.39-3.04.78-4.62.36-1.58.85-3.19,1.4-4.81,2.27-6.51,5.75-11.79,8.66-15.21,1.44-1.73,2.75-2.99,3.65-3.87.43-.38.79-.69,1.09-.95.25-.21.39-.32.4-.3.03.03-.45.53-1.34,1.41-.85.92-2.12,2.21-3.5,3.96-2.8,3.46-6.19,8.71-8.43,15.14-.54,1.61-1.04,3.19-1.4,4.76-.39,1.55-.67,3.07-.8,4.53-.28,2.9.25,5.6,1.5,7.42,1.22,1.84,2.83,2.81,4,3.15,1.18.37,1.9.25,1.89.32Z"/><path class="cls-8" d="m189.08,104.85c-.04-5.21-1.47-10.62-5.02-14.44-4.93-5.3-13.55-6.49-19.96-3.13-6.41,3.37-10.28,10.81-9.85,18.03.43,7.23,4.93,13.96,11.2,17.58l4.58-.52c4.6,2.42,10.63.71,14.18-3.1s4.9-9.23,4.87-14.43Z"/><path class="cls-5" d="m161.06,101.79s-.07.14-.23.37c-.17.23-.4.59-.77,1-.69.85-1.81,1.99-3.37,3.18-1.56,1.19-3.61,2.38-6.07,3.24-2.45.87-5.33,1.37-8.34,1.22-3.01-.18-5.82-.99-8.16-2.13-2.35-1.13-4.26-2.53-5.68-3.89-1.43-1.35-2.41-2.61-3.01-3.53-.32-.45-.51-.83-.65-1.08-.14-.25-.21-.39-.19-.4.11-.08,1.22,2.13,4.1,4.74,1.43,1.3,3.33,2.64,5.64,3.73,2.31,1.08,5.05,1.86,7.98,2.04,2.94.14,5.75-.33,8.16-1.15,2.42-.82,4.45-1.95,6.01-3.09,3.15-2.28,4.5-4.35,4.59-4.26Z"/><path class="cls-5" d="m166.4,116.92s-.12.14-.37.38c-.27.22-.62.61-1.16.98-1.04.82-2.71,1.82-4.96,2.6-2.24.8-5.08,1.25-8.23,1.11-3.14-.15-6.57-.94-9.84-2.53-3.25-1.62-6.01-3.76-8.24-5.96-2.23-2.2-3.96-4.44-5.29-6.4-1.33-1.96-2.28-3.62-2.89-4.78-.32-.58-.53-1.05-.68-1.36-.15-.31-.22-.48-.2-.49.02,0,.12.14.3.44.21.35.46.78.77,1.31.67,1.13,1.66,2.76,3.01,4.67,1.35,1.91,3.1,4.11,5.32,6.26,2.21,2.16,4.94,4.24,8.13,5.84,3.2,1.56,6.56,2.35,9.63,2.52,3.08.16,5.87-.24,8.09-.98,2.22-.72,3.89-1.65,4.95-2.41,1.07-.75,1.62-1.24,1.65-1.2Z"/><path class="cls-5" d="m184.63,99.96s-.14.26-.48.68c-.32.42-.86.99-1.57,1.63-.7.65-1.62,1.34-2.7,2.01-1.09.65-2.34,1.27-3.72,1.76-1.39.47-2.76.77-4.01.93-1.26.14-2.4.17-3.36.1-.95-.06-1.72-.18-2.24-.31-.52-.12-.8-.2-.79-.24.02-.09,1.17.14,3.05.18,1.87.04,4.48-.22,7.19-1.16,2.7-.95,4.91-2.36,6.35-3.55,1.45-1.19,2.21-2.09,2.28-2.03Z"/><path class="cls-5" d="m188.77,106.93s.16.3.14.9c-.01.59-.23,1.47-.86,2.33-.62.88-1.67,1.65-2.93,2.23-1.26.57-2.69,1.06-4.24,1.41-3.11.71-6.03.64-8.07.34-1.03-.14-1.84-.34-2.4-.49-.55-.17-.86-.28-.85-.31.02-.09,1.26.25,3.29.44,2.03.2,4.88.2,7.92-.49,3-.71,5.77-1.75,6.99-3.35.62-.78.88-1.58.95-2.13.08-.56.02-.88.06-.88Z"/><path class="cls-12" d="m163.64,310.13s-.19.03-.55.05c-.36,0-.9.05-1.58.03-1.38,0-3.37-.14-5.8-.56-4.83-.81-11.49-3.08-17.44-7.75-5.96-4.68-9.75-10.6-11.68-15.1-.98-2.26-1.59-4.16-1.92-5.5-.19-.66-.27-1.19-.35-1.54-.07-.35-.1-.54-.08-.55.04-.01.23.73.63,2.03.39,1.31,1.05,3.18,2.06,5.4,2,4.43,5.79,10.23,11.67,14.84,5.88,4.61,12.41,6.91,17.19,7.8,2.4.46,4.37.65,5.74.72,1.37.07,2.13.08,2.13.13Z"/><path class="cls-12" d="m116.82,306.89s-.16-.07-.44-.24c-.33-.21-.72-.47-1.2-.78-1.1-.73-2.59-1.72-4.39-2.92-3.72-2.44-8.87-5.82-14.97-8.76-6.1-2.95-12.05-4.64-16.44-5.25-2.19-.32-3.99-.45-5.23-.48-1.24-.04-1.93-.04-1.93-.08,0-.02.17-.04.5-.06.33-.02.81-.06,1.44-.06,1.25-.03,3.06.04,5.28.32,4.44.53,10.47,2.18,16.62,5.15,6.15,2.96,11.28,6.41,14.95,8.93,1.83,1.27,3.3,2.32,4.3,3.05.46.34.84.63,1.15.86.26.2.39.31.38.33Z"/><polygon class="cls-10" points="167.1 304.3 98.83 307.76 104.12 327.86 195.1 328.29 167.1 304.3"/><path class="cls-10" d="m102,307.6s-22.06-11.02-24.79-11.11c-2.09-.07-14.21,1.98-19.79,2.95-2.14.37-3.77,2.35-3.42,4.49.02.14.05.27.1.39.78,2.2,3.08,2.36,3.08,2.36,0,0-2.77,1.27-2.34,4.43.43,3.16,4.36,3.25,4.36,3.25,0,0-.2.2-.47.57-1.77,2.4-.16,5.82,2.81,6.04l1.78.13s-2.18,1.32-1.82,3.48c.7,4.14,10.16,3.52,10.16,3.52l32.46-.23-2.12-20.26Z"/><path class="cls-10" d="m58.82,294.19c.31,1.35,1.08,4.22,3.61,5.18l12.79-2.46s-10.08-1.85-11.69-3.27c-.56-.5-1.33-1.11-2.11-1.52-1.36-.71-2.93.58-2.59,2.07Z"/><path class="cls-11" d="m69.14,297.71c.04.22-2.55.88-5.81,1.31-3.24.43-5.88.71-5.93.48-.04-.22,2.55-.88,5.81-1.31,3.24-.43,5.88-.71,5.92-.48Z"/><path class="cls-11" d="m67.35,305.33c.06.22-2.15.96-4.99,1.29-2.84.33-5.16.11-5.16-.11,0-.24,2.28-.4,5.06-.72,2.78-.32,5.03-.69,5.09-.45Z"/><path class="cls-11" d="m73.75,303.42c.21.09.07.83-.59,1.41-.65.58-1.4.63-1.47.41-.08-.22.4-.58.91-1.04.52-.45.93-.88,1.14-.78Z"/><path class="cls-11" d="m70,313.27c.02.23-2.45.71-5.51,1.08-3.06.36-5.57.47-5.61.24s2.43-.71,5.51-1.08c3.08-.37,5.59-.47,5.61-.24Z"/><path class="cls-11" d="m76.83,308.71c.1-.05.34.18.48.68.14.49.13,1.25-.27,1.96-.4.71-1.06,1.11-1.55,1.24-.5.14-.82.05-.83-.06-.04-.23,1.05-.54,1.64-1.6.6-1.05.31-2.15.52-2.23Z"/><path class="cls-11" d="m73.16,320.95c0,.23-2.25.48-5.03.56-2.79.08-5.05-.05-5.06-.28,0-.23,2.25-.48,5.03-.56,2.79-.08,5.05.05,5.06.28Z"/><path class="cls-11" d="m79.72,315.8c.1-.03.31.23.37.73.07.5-.06,1.2-.42,1.85-.77,1.28-1.76,1.86-1.9,1.72-.2-.17.54-1.06,1.17-2.13.65-1.08.58-2.1.79-2.17Z"/></g><g id="Character_4"><polygon class="cls-7" points="286.75 251.18 269.79 290.46 254.05 341.04 406.56 341.76 403.96 245.96 329 238.31 286.75 251.18"/><path class="cls-1" d="m205.23,257.22s-12.29,4.67-21.89,7.5c-9.6,2.83-26.77,13.41-26.77,13.41,0,0-17.43,15.73-16.83,17.79s2.7,3.08,5.35.96c2.65-2.13,15.73-9.86,15.73-9.86,0,0,.84,4.37,3.68,4.88,2.83.51,4.31-.2,4.31-.2,0,0,1.16,4.11,3.2,5.45,2.04,1.34,3.92,1.68,3.92,1.68,0,0-.08,2.26,2.7,3.08,2.78.82,5.41.64,5.41.64,0,0,9.11-5.52,10.56-8.19,1.45-2.67,3.22-6.25,3.22-6.25l3.76-1.88,11.55-1.96-7.91-27.04Z"/><path class="cls-6" d="m192.56,277.99s-.31.56-1.13,1.39c-.8.85-2.16,1.91-4.06,2.86-1.9.96-4.37,1.78-7.27,2.05-1.44.12-3,.13-4.58-.19-1.58-.31-3.21-.89-4.65-1.91l.29-.41c1.1.81,2.19,1.71,3.22,2.73.52.52,1.02,1.06,1.45,1.69.44.64.72,1.38.87,2.15.36,1.87-.15,3.82-1.25,5.23l-.12.15-.18-.07c-1.82-.72-3.43-1.72-4.91-2.74-1.48-1.02-2.84-2.08-4.11-3.1-1.27-1.03-2.47-1.95-3.6-2.9-1.09-1.05-1.5-2.53-1.34-3.77.08-.63.31-1.18.52-1.68.21-.51.43-.97.64-1.4.43-.86.85-1.57,1.21-2.13.36-.56.67-.98.89-1.26.22-.28.34-.41.35-.4.01.01-.09.16-.28.46-.19.29-.47.73-.81,1.3-.33.57-.73,1.29-1.13,2.15-.2.43-.4.9-.6,1.4-.19.51-.41,1.03-.46,1.61-.13,1.15.27,2.5,1.28,3.44,1.08.88,2.33,1.83,3.6,2.83,1.28,1,2.64,2.04,4.11,3.05,1.47,1,3.05,1.97,4.81,2.66l-.29.08c1-1.29,1.48-3.1,1.15-4.82-.14-.7-.4-1.38-.79-1.95-.4-.58-.89-1.12-1.39-1.62-1.01-1-2.09-1.89-3.16-2.69l.29-.41c1.37.98,2.92,1.54,4.44,1.85,1.53.33,3.04.33,4.46.23,2.83-.24,5.28-1,7.16-1.91,1.89-.9,3.26-1.9,4.08-2.69.84-.78,1.2-1.3,1.25-1.26Z"/><path class="cls-6" d="m176.13,290.86c-.02-.08.58-.23,1.5-.6.9-.37,2.18-.94,3.26-1.93.53-.5.9-1.09,1.03-1.67.12-.58-.02-1.15-.23-1.55-.45-.85-1.15-.91-1.12-.99,0-.03.17-.06.46.02.28.08.69.33.98.78.29.45.51,1.1.38,1.83-.12.72-.56,1.41-1.14,1.96-1.19,1.08-2.53,1.59-3.5,1.9-.98.29-1.61.31-1.62.25Z"/><path class="cls-6" d="m178.69,297.84c-.04-.07.85-.56,2.22-1.44.68-.44,1.48-.99,2.34-1.63.84-.66,1.83-1.35,2.6-2.25.38-.45.68-.96.79-1.48.11-.52.03-1.04-.18-1.49-.43-.91-1.26-1.45-2-1.67-.75-.23-1.41-.23-1.86-.23-.45.01-.7.04-.71,0,0-.03.23-.13.69-.2.46-.07,1.15-.13,1.98.07.82.19,1.8.76,2.33,1.82.27.52.38,1.17.25,1.81-.13.64-.47,1.21-.89,1.71-.86.99-1.85,1.66-2.72,2.31-.89.63-1.72,1.15-2.43,1.55-1.43.81-2.38,1.18-2.41,1.12Z"/><path class="cls-6" d="m190.81,297.03c-.07-.05.31-.5.43-1.35.14-.82-.08-2.14-1.08-2.93-1.03-.77-2.36-.64-3.11-.29-.79.34-1.12.82-1.19.76-.05-.01.18-.62,1.03-1.1.8-.47,2.34-.72,3.59.21,1.22.98,1.38,2.53,1.13,3.42-.24.94-.77,1.32-.79,1.28Z"/><path class="cls-1" d="m266.47,310.21l-3.2,4.74-23.94-.05-30.47,12.28h78.72c.67-.83,2.72-3.97,2.72-3.97-5.52-3.01-23.82-13-23.82-13Z"/><path class="cls-12" d="m375.55,164.56c-17.18-27.81-54.12-61.8-57.26-63.36-3.14-1.57-53.63-4.74-53.63-4.74l-39.88,28.29-13.24,19.79c-1.81,5.63-4.99,14.31-3.54,20.04l1.23,9.76,41.6,26.85,20.69,12.07,11.52,16.34-.92,27.28,16.3-3.1s25.1,2.48,49.16,3.07c24.06.59,57.15-7.05,57.15-7.05,0,0-10.01-54.24-29.18-85.26Z"/><path class="cls-12" d="m279.59,144.35l14.12,78.34-29.29,86.42,29.29,15.98s20.92-36.81,30.33-59.08c9.41-22.27,12.85-34.71,12.85-34.71,0,0-.04-84.67-3.05-94.43-3-9.76-12.94-29.11-23.4-28.06-10.46,1.05-35.14,11.79-30.86,35.55Z"/><path class="cls-12" d="m209.23,174.34l25.23,61.79s-2.11,3.26-3.04,7.27l-31.43,15.57,9.24,29.75s39.26-13.04,44.82-16.04c5.56-3,21.6-14.43,24.38-23.69s-12.63-42.11-12.63-42.11l-56.57-32.53Z"/><path class="cls-7" d="m271.52,213.27s-.19-.07-.54-.26c-.39-.22-.89-.5-1.49-.84-1.29-.74-3.15-1.82-5.42-3.2-2.27-1.38-4.96-3.05-7.87-5.04-1.45-1-2.95-2.08-4.45-3.28-1.47-1.22-3-2.48-4.56-3.78-6.19-5.19-11.8-9.88-15.92-13.34-1.98-1.69-3.6-3.08-4.79-4.09-.52-.46-.95-.84-1.28-1.13-.29-.26-.44-.41-.43-.42.01-.01.18.1.49.34.35.28.8.63,1.35,1.06,1.21.98,2.87,2.32,4.89,3.96,4.15,3.42,9.78,8.07,16.02,13.22,1.56,1.3,3.08,2.56,4.55,3.78,1.48,1.2,2.97,2.28,4.4,3.29,2.88,2,5.54,3.71,7.79,5.13,2.21,1.38,4.02,2.51,5.33,3.34.59.37,1.07.68,1.44.92.33.22.49.34.49.35Z"/><path class="cls-7" d="m274.44,100.08s.87.91,1.93,2.91c1.05,1.98,2.16,5.15,2.24,9.2.03,2.02-.2,4.24-.79,6.54-.62,2.3-1.6,4.66-2.97,6.95-2.73,4.6-6.98,8.85-12.16,12.17-5.17,3.32-10.93,5.29-16.29,5.41-5.38.21-10.13-1.65-13.36-4.03-3.3-2.38-5.12-5.25-6-7.31-.25-.51-.39-.99-.52-1.4-.15-.41-.23-.77-.29-1.06-.05-.26-.1-.48-.14-.66-.03-.15-.04-.23-.03-.23.07-.02.24,1.23,1.16,3.26.92,2,2.76,4.79,6.03,7.09,3.21,2.3,7.86,4.09,13.13,3.85,5.26-.15,10.92-2.09,16.02-5.37,5.11-3.28,9.32-7.47,12.02-11.98,1.36-2.25,2.34-4.57,2.97-6.82.6-2.26.85-4.44.84-6.43-.04-3.99-1.08-7.13-2.06-9.12-.24-.5-.47-.94-.7-1.31-.21-.37-.4-.69-.57-.93-.15-.22-.27-.41-.37-.56-.08-.13-.12-.2-.11-.2Z"/><path class="cls-7" d="m263.58,136.18c-.14.06-.87-1.56-2.1-3.35-1.22-1.79-2.48-3.05-2.37-3.16.08-.1,1.54,1.01,2.8,2.86,1.27,1.84,1.8,3.6,1.67,3.64Z"/><path class="cls-7" d="m273.1,127.28c-.12.1-1.31-1.4-3.35-2.45-2.02-1.08-3.94-1.2-3.92-1.36-.02-.13,2.01-.24,4.16.9,2.16,1.12,3.23,2.85,3.11,2.91Z"/><path class="cls-7" d="m278.31,116.66c-.05.14-1.52-.31-3.37-.56-1.85-.27-3.39-.24-3.4-.39-.02-.13,1.55-.4,3.47-.13,1.92.27,3.35.95,3.3,1.08Z"/><path class="cls-7" d="m277.41,104.31c.01.15-1.37.36-3.02.83-1.65.46-2.94,1.01-3.01.88-.07-.12,1.16-.9,2.87-1.38,1.71-.49,3.16-.47,3.16-.33Z"/><path class="cls-7" d="m247.45,142.18c-.12.06-.79-1.34-.77-3.21,0-1.87.69-3.26.81-3.2.15.05-.29,1.44-.29,3.2-.02,1.76.4,3.16.25,3.21Z"/><path class="cls-7" d="m231.33,139.02c-.11-.09.53-1.03,1.44-2.08.9-1.06,1.72-1.84,1.83-1.74.11.09-.53,1.02-1.44,2.08-.9,1.06-1.72,1.84-1.83,1.74Z"/><path class="cls-7" d="m333.85,136.86s.05.14.12.42c.07.28.2.7.28,1.26.22,1.12.42,2.8.64,5,.42,4.4.79,10.87,1.11,19.13.62,16.51,1.03,40.15,1.12,68.62v.03s0,.03,0,.03c-2.11,7.17-4.78,14.52-7.71,22.09-2.96,7.56-6.14,15.38-9.91,23.22-7.5,15.69-16.22,31.93-25.55,48.55l-.13.22-.23-.12c-.85-.47-1.78-.97-2.71-1.48-9.05-4.94-17.94-9.79-26.58-14.51l-.19-.1.07-.2c10.98-32.34,21.02-61.92,29.34-86.4v.1c-4.28-23.91-7.78-43.49-10.21-57.11-1.2-6.8-2.14-12.11-2.78-15.73-.31-1.8-.55-3.18-.71-4.12-.16-.93-.22-1.41-.22-1.41,0,0,.11.47.28,1.4.18.94.43,2.31.77,4.11.67,3.62,1.64,8.92,2.89,15.71,2.48,13.61,6.04,33.19,10.38,57.08v.05s0,.05,0,.05c-8.28,24.49-18.29,54.08-29.24,86.43l-.12-.31c8.65,4.72,17.53,9.57,26.58,14.5.93.51,1.85,1.01,2.71,1.48l-.35.1c9.33-16.61,18.05-32.84,25.55-48.51,3.77-7.82,6.95-15.63,9.92-23.18,2.94-7.56,5.62-14.91,7.72-22.04v.06c-.05-28.47-.4-52.1-.94-68.61-.27-8.25-.61-14.72-.99-19.12-.2-2.2-.38-3.88-.58-5-.07-.57-.19-.98-.25-1.26-.06-.28-.09-.43-.09-.43Z"/><path class="cls-7" d="m314.8,115.56c-.05.1-1.72-1.02-4.74-2.01-2.99-1-7.47-1.7-12.22-.73-4.76.98-8.59,3.38-10.95,5.48-2.39,2.1-3.48,3.78-3.57,3.72-.02-.02.23-.45.76-1.17.53-.72,1.38-1.72,2.56-2.82,2.33-2.2,6.22-4.71,11.09-5.71,4.87-.99,9.44-.21,12.44.89,1.52.55,2.69,1.13,3.46,1.59.78.46,1.18.75,1.16.78Z"/><g class="cls-13"><path class="cls-2" d="m326.69,259.81c.16-.42.31-.83.47-1.25-.09.06-.17.12-.26.18l-.21,1.07Z"/><path class="cls-2" d="m342.49,204.72c-1.26-12.84-2.92-25.68-6.26-38.14-2.82,21.64,2.73,43.82-.98,65.32-1.58,9.16-4.8,17.95-8.09,26.65,8.18-5.35,13.11-14.71,15.06-24.29,1.97-9.69,1.24-19.71.27-29.55Z"/></g><g class="cls-13"><path class="cls-2" d="m268.13,211.24l-34.73-26.21c.39,9.77,7.82,17.79,15.55,23.79,7.73,6,18.23,12.9,25.56,19.38-2.42-5.4-3.96-11.56-6.38-16.96Z"/></g><path class="cls-5" d="m283.44,163.31s-.18.24-.56.66c-.38.42-.95,1.04-1.71,1.81-1.52,1.52-3.73,3.78-6.99,5.91-1.63,1.05-3.55,2.04-5.78,2.62-2.22.56-4.77.65-7.28-.02-2.52-.65-4.94-1.92-7.3-3.38-2.38-1.45-4.71-3.14-7.3-4.49-2.58-1.35-5.32-2.34-8.05-2.41-2.74-.12-5.28.93-7.32,2.39-2.07,1.45-3.77,3.18-5.47,4.7-1.69,1.52-3.38,2.86-5.15,3.71-1.75.88-3.56,1.22-5.12,1.07-1.56-.12-2.84-.64-3.75-1.25-.92-.61-1.45-1.31-1.72-1.8-.28-.5-.35-.79-.35-.79.03-.01.14.27.44.74.3.47.84,1.13,1.75,1.69.89.57,2.15,1.04,3.66,1.13,1.51.12,3.24-.23,4.93-1.11,1.71-.85,3.36-2.17,5.02-3.7,1.67-1.52,3.37-3.28,5.48-4.77,1.05-.74,2.22-1.42,3.51-1.87,1.28-.46,2.69-.68,4.11-.64,2.85.07,5.66,1.09,8.28,2.46,2.64,1.37,4.97,3.07,7.33,4.52,2.35,1.45,4.72,2.71,7.16,3.35,1.22.32,2.44.5,3.63.47,1.19.02,2.34-.16,3.43-.41,2.17-.55,4.07-1.5,5.69-2.51,3.24-2.06,5.49-4.27,7.05-5.74.74-.73,1.33-1.31,1.77-1.74.4-.4.62-.6.64-.59Z"/><path class="cls-5" d="m334.17,157.24s-.13.15-.42.4c-.3.23-.76.56-1.44.83-1.32.58-3.52.87-6.03.18-5.2-1.2-9.83-7.57-17.62-9.01-1.87-.47-3.76-.62-5.58-.71-1.82,0-3.58.1-5.23.4-3.31.55-6.16,1.64-8.4,2.82-4.52,2.38-6.5,5-6.6,4.86-.01-.01.11-.16.37-.44.3-.32.68-.71,1.14-1.2.54-.46,1.19-1.06,2.01-1.68.42-.29.87-.61,1.34-.94.47-.34,1.02-.61,1.58-.93,2.25-1.24,5.14-2.38,8.49-2.97,1.67-.32,3.47-.43,5.32-.44,1.85.08,3.78.23,5.69.71,1.93.4,3.72,1.13,5.41,1.89.81.46,1.63.87,2.38,1.34.75.48,1.46.98,2.15,1.47,2.72,1.99,5.21,3.77,7.66,4.45,2.43.71,4.55.49,5.86-.02,1.33-.49,1.89-1.11,1.93-1.05Z"/><path class="cls-5" d="m360.15,143.21s-.46.26-1.2.83c-.73.57-1.69,1.56-2.48,3.03-.81,1.46-1.44,3.36-1.89,5.54-.49,2.17-.86,4.64-1.91,7.05-1.05,2.42-2.86,4.34-4.82,5.5-1.94,1.21-3.97,1.73-5.67,1.91-1.71.15-3.11-.05-4.02-.32-.47-.1-.81-.26-1.04-.34-.23-.09-.35-.15-.35-.16.02-.05.51.13,1.43.31.91.2,2.28.34,3.94.15,1.64-.22,3.6-.76,5.46-1.95,1.87-1.14,3.58-2.98,4.59-5.3,1.01-2.33,1.4-4.77,1.92-6.95.49-2.19,1.17-4.14,2.04-5.62.86-1.49,1.89-2.48,2.68-3.01.4-.27.72-.45.96-.54.23-.1.36-.14.36-.13Z"/><path class="cls-5" d="m243.09,192.73s-.04.38-.2,1.06c-.08.34-.18.75-.36,1.22-.17.46-.33,1.01-.61,1.57-.26.57-.54,1.2-.92,1.82-.34.65-.8,1.3-1.27,1.98-.99,1.32-2.2,2.7-3.67,3.92-1.48,1.22-3.04,2.17-4.52,2.9-1.51.68-2.92,1.18-4.15,1.43-.6.16-1.17.22-1.66.29-.49.08-.92.1-1.26.11-.7.02-1.08.01-1.08-.02,0-.11,1.54-.12,3.92-.73,1.19-.29,2.56-.81,4.03-1.5,1.44-.74,2.96-1.68,4.4-2.87,1.44-1.2,2.63-2.53,3.62-3.81.47-.66.93-1.28,1.28-1.91.39-.61.69-1.21.96-1.76,1.06-2.22,1.39-3.72,1.5-3.7Z"/><path class="cls-12" d="m400.17,275.48s-.58.14-1.64.29c-.53.09-1.18.17-1.94.2-.76.04-1.63.13-2.59.08-.96,0-2.01-.03-3.14-.15-1.13-.07-2.32-.28-3.58-.48-2.49-.49-5.2-1.24-7.92-2.35-2.71-1.14-5.15-2.53-7.26-3.95-1.03-.75-2.02-1.44-2.87-2.19-.88-.71-1.64-1.44-2.32-2.11-.71-.65-1.26-1.33-1.77-1.89-.52-.56-.92-1.08-1.23-1.52-.64-.86-.98-1.34-.95-1.37s.42.42,1.11,1.24c.34.41.76.91,1.29,1.45.53.54,1.09,1.2,1.81,1.82.69.65,1.46,1.36,2.34,2.04.85.73,1.84,1.4,2.86,2.13,2.1,1.38,4.52,2.74,7.19,3.86,2.69,1.1,5.35,1.85,7.81,2.36,1.24.21,2.41.44,3.53.53,1.11.15,2.15.19,3.1.22.95.07,1.81,0,2.57,0,.76,0,1.41-.05,1.94-.11,1.06-.09,1.66-.12,1.66-.09Z"/><path class="cls-12" d="m320,325.98c-.14-.03,2-9.95,4.79-22.14,2.78-12.2,5.15-22.06,5.29-22.03.14.03-2,9.94-4.79,22.14-2.78,12.2-5.15,22.06-5.29,22.03Z"/><path class="cls-1" d="m272.26,111.69h0c.14-1.93-.21-3.86-1.01-5.62l-30.34-66.43c-7.07-19.08-24.07-30.86-42.95-23.26l-1.7.8c-17.14,8.09-25.2,27.99-18.51,45.73,6.22,16.5,13.31,34.64,17.44,43.12,8.55,17.55,27.51,11.96,27.51,11.96l3.53,6.76s3.7,12.74,19.52,10.95c12.16-1.37,21.17-13.18,24.69-18.58,1.06-1.62,1.68-3.5,1.82-5.43Z"/><path class="cls-6" d="m222.53,118.04s11.59-4.64,19.93-17.69c0,0,.56,15.27-17.81,22l-2.13-4.31Z"/><path class="cls-7" d="m189.07,76.22c.58,1.35,2.21,1.98,3.63,1.4,1.42-.58,2.11-2.15,1.53-3.5-.58-1.35-2.21-1.98-3.63-1.4-1.42.58-2.11,2.15-1.53,3.5Z"/><path class="cls-7" d="m185.62,69.76c.47.18,1.71-2.13,4.43-3.41,2.69-1.31,5.34-.86,5.48-1.33.08-.22-.52-.66-1.69-.88-1.15-.23-2.89-.15-4.58.66-1.69.81-2.81,2.1-3.33,3.12-.53,1.03-.53,1.76-.31,1.84Z"/><path class="cls-7" d="m213.99,64.67c.58,1.35,2.21,1.98,3.63,1.4,1.42-.58,2.11-2.15,1.53-3.5-.58-1.35-2.21-1.98-3.63-1.4-1.42.58-2.11,2.15-1.53,3.5Z"/><path class="cls-7" d="m212.52,57.67c.47.18,1.71-2.14,4.43-3.41,2.69-1.31,5.34-.86,5.48-1.33.07-.22-.52-.66-1.69-.88-1.15-.23-2.89-.15-4.58.66-1.69.81-2.81,2.1-3.33,3.12-.53,1.03-.53,1.76-.31,1.84Z"/><path class="cls-7" d="m212.18,82.44c-.06-.16-1.88.34-4.78,1.29-.73.26-1.45.43-1.79,0-.4-.42-.46-1.31-.51-2.27-.14-1.98-.29-4.06-.44-6.24-.7-8.85-1.56-16-1.91-15.97-.36.03-.08,7.23.62,16.09.19,2.18.37,4.25.54,6.23.11.91.08,2.02.92,2.89.43.43,1.12.57,1.62.48.51-.07.9-.25,1.25-.39,2.82-1.15,4.53-1.94,4.47-2.1Z"/><path class="cls-7" d="m221.05,80.55c-.45.18.93,3.13-.6,6.41-1.53,3.28-4.82,4.44-4.65,4.86.05.2.97.24,2.31-.35,1.32-.57,3.02-1.88,3.96-3.89.93-2.01.79-4.03.32-5.29-.47-1.28-1.14-1.86-1.34-1.75Z"/><path class="cls-7" d="m206.8,47.37c.62.61,3.16-1.02,6.52-2.14,3.34-1.19,6.35-1.47,6.46-2.33.04-.41-.74-.89-2.11-1.11-1.36-.23-3.33-.13-5.34.56-2.01.69-3.62,1.82-4.55,2.84-.95,1.02-1.26,1.88-.98,2.18Z"/><path class="cls-7" d="m182.91,61.44c.77.39,2.33-1.13,4.57-2.22,2.19-1.17,4.35-1.55,4.48-2.4.04-.4-.55-.88-1.65-1.07-1.09-.19-2.69-.02-4.21.75-1.52.78-2.6,1.97-3.08,2.97-.49,1.01-.46,1.77-.1,1.97Z"/><path class="cls-7" d="m175.62,54.02s-.56-13.25,3.55-18.35c4.98-6.17,11.1-.4,16.44-5.02,5.34-4.62,10.08-10.53,18.61-8.74,9.34,1.96,7.84,7.13,11.96,14.76,16.72,30.94,26.76,37.19,21.34,21.45-.59-1.72,3.34-5.17.74-12.42-3.37-9.39-8.17-20.46-13.18-25.88-4.22-4.57-9.04-6.84-16.46-8.34-11.72-2.36-23.69,3.12-31.39,7.75-7.7,4.63-18.9,21.3-11.62,34.79Z"/><path class="cls-1" d="m246.18,58.16c-1.18-2.78.16-6.04,2.99-7.06,3.44-1.24,7.99-1.1,10.98,5.8,5.31,12.25-8.08,15.06-8.26,14.72-.12-.23-3.54-8.31-5.72-13.46Z"/><path class="cls-6" d="m252.56,65.85c.04-.06.28.06.71.07.42,0,1.07-.14,1.61-.66,1.09-1.04,1.29-3.56.39-5.8-.45-1.13-1.15-2.09-1.92-2.8-.76-.73-1.61-1.11-2.32-.94-.71.13-1.01.72-1.01,1.13-.02.41.17.62.11.67-.02.05-.35-.09-.47-.64-.05-.27-.04-.62.15-.98.19-.37.57-.68,1.04-.82.97-.34,2.2.16,3.05.93.91.76,1.71,1.83,2.22,3.09.99,2.5.73,5.36-.82,6.64-.76.6-1.6.65-2.09.52-.51-.14-.69-.38-.66-.43Z"/><path class="cls-7" d="m234.9,34.89c-1.06,1.81-2.2,3.7-4,4.77-1.8,1.08-4.47,1.01-5.67-.71-.54-.77-.79-1.84-1.65-2.23-1.02-.46-2.13.35-3.09.94-3.33,2.03-8.1,1.24-10.6-1.75-.26,1.76-2.38,2.69-4.14,2.46-1.77-.23-3.31-1.25-4.95-1.96-1.63-.71-3.63-1.1-5.12-.12-.83.55-1.42,1.47-2.35,1.82-1.65.61-3.3-.88-4.28-2.34-.98-1.46-2.04-3.21-3.78-3.43-1.62-.21-3.01,1.01-4.37,1.92-1.36.9-3.4,1.45-4.45.2-.55-.66-.6-1.6-.49-2.44.48-3.85,3.96-7.1,7.83-7.32-.7-4.55,1.56-9.41,5.49-11.8,3.93-2.39,9.29-2.16,13,.56,1.46-3.52,4.71-6.24,8.43-7.06,3.72-.82,7.81.28,10.61,2.86,2.57-2.16,6.45-2.6,9.45-1.08,2.99,1.52,4.92,4.92,4.69,8.27,2.75.22,5.63,1.49,6.85,3.97,1.22,2.48-.03,6.11-2.75,6.6,1.89,1.49,2.35,4.5.97,6.48-1.37,1.98-4.35,2.61-6.41,1.35"/><path class="cls-12" d="m184.55,28.67s.03.08.11.22c.08.14.2.35.38.61.37.5.99,1.22,1.97,1.91.98.67,2.33,1.35,4.02,1.59,1.67.27,3.71.1,5.61-.92l-.33-.17c.11,1.21.8,2.4,1.82,3.22,1,.85,2.22,1.44,3.47,1.99.63.25,1.24.61,2,.75.74.13,1.52.04,2.25-.19,1.44-.47,2.78-1.61,3.23-3.23l-.51.08c1.44,2.25,3.94,4.01,6.8,4.45,1.54.29,3.2.12,4.58-.57,1.39-.67,2.5-1.7,3.5-2.7h-.39c1.36,1.2,2.96,2.01,4.62,2.39,1.63.38,3.48.19,4.75-.84,2.56-1.95,3.33-5.21,2.66-7.62l-.21.26c1.78.1,3.33-.54,4.43-1.35,1.13-.81,1.84-1.8,2.28-2.66.44-.87.59-1.61.65-2.11.04-.5.03-.77.01-.77-.08-.02.03,1.11-.86,2.78-.46.81-1.17,1.75-2.27,2.5-1.08.75-2.56,1.33-4.22,1.21l-.29-.02.07.28c.6,2.26-.18,5.33-2.57,7.11-1.15.92-2.78,1.08-4.33.72-1.55-.36-3.08-1.14-4.35-2.27l-.2-.18-.19.19c-.99.99-2.06,1.96-3.35,2.58-1.28.64-2.77.79-4.23.52-2.7-.42-5.04-2.06-6.42-4.19l-.35-.54-.17.62c-.37,1.37-1.55,2.42-2.85,2.85-.65.22-1.34.3-1.99.19-.63-.1-1.25-.44-1.89-.7-1.24-.53-2.42-1.1-3.36-1.89-.96-.76-1.56-1.81-1.69-2.89l-.04-.33-.29.16c-1.78.99-3.73,1.19-5.34.96-1.63-.2-2.96-.82-3.93-1.44-1.96-1.31-2.53-2.6-2.6-2.53Z"/><path class="cls-7" d="m201.56,73.41c-.08.01-.08-1.17-.74-3.15-.65-1.94-2.18-4.75-5.31-6.78-1.55-.99-3.47-1.79-5.63-2.01-2.15-.21-4.53.03-6.74,1.07-1.12.48-2.18,1.16-3.14,2-.97.82-1.84,1.81-2.53,2.94-1.44,2.23-2.13,5-1.96,7.8.23,2.8,1.31,5.45,3.05,7.44.84,1.02,1.84,1.88,2.92,2.55,1.07.69,2.22,1.21,3.39,1.53,2.34.71,4.73.6,6.83.09,2.11-.53,3.89-1.59,5.29-2.79,2.81-2.46,3.92-5.45,4.29-7.46.37-2.05.2-3.22.28-3.22.02,0,.04.29.07.84.02.28.03.62,0,1.02-.02.4-.04.87-.15,1.39-.31,2.05-1.39,5.14-4.24,7.7-1.42,1.25-3.25,2.37-5.42,2.93-2.16.55-4.64.67-7.07-.05-1.22-.32-2.41-.86-3.53-1.57-1.12-.69-2.16-1.58-3.04-2.64-1.81-2.07-2.95-4.83-3.18-7.74-.18-2.91.55-5.8,2.05-8.11.72-1.17,1.62-2.2,2.64-3.04,1-.86,2.1-1.56,3.27-2.06,2.3-1.06,4.77-1.29,6.99-1.06,2.23.25,4.2,1.09,5.78,2.13,3.19,2.13,4.7,5.04,5.3,7.02.18.5.26.96.34,1.36.09.4.13.74.15,1.01.05.55.07.84.05.84Z"/><path class="cls-7" d="m232.64,58.62c-.08.01-.08-1.17-.74-3.15-.65-1.94-2.18-4.75-5.31-6.78-1.55-.99-3.47-1.79-5.63-2.01-2.15-.21-4.53.03-6.74,1.07-1.12.48-2.18,1.16-3.14,2-.97.82-1.84,1.81-2.53,2.94-1.44,2.23-2.13,5-1.96,7.8.23,2.8,1.31,5.45,3.05,7.44.84,1.02,1.84,1.88,2.92,2.55,1.07.69,2.22,1.21,3.39,1.53,2.34.71,4.73.6,6.83.09,2.11-.53,3.89-1.59,5.29-2.79,2.81-2.46,3.92-5.45,4.29-7.46.37-2.05.2-3.22.28-3.22.02,0,.04.29.07.84.02.28.03.62,0,1.02-.02.4-.04.87-.15,1.39-.31,2.05-1.39,5.14-4.24,7.7-1.42,1.25-3.25,2.37-5.42,2.93-2.16.55-4.64.67-7.07-.05-1.22-.32-2.41-.86-3.53-1.57-1.12-.69-2.16-1.58-3.04-2.64-1.81-2.07-2.95-4.83-3.18-7.74-.18-2.91.55-5.8,2.05-8.11.72-1.17,1.62-2.2,2.64-3.04,1-.86,2.1-1.56,3.27-2.06,2.3-1.06,4.77-1.29,6.99-1.06,2.23.25,4.2,1.09,5.78,2.13,3.19,2.13,4.7,5.04,5.3,7.02.18.5.26.96.34,1.36.09.4.13.74.15,1.01.05.55.07.84.05.84Z"/><path class="cls-7" d="m206.61,63.37c0,.16-1.99-.14-4.09.9-2.13,1-3.12,2.75-3.25,2.66-.05-.03.11-.5.59-1.15.48-.65,1.32-1.43,2.43-1.97,1.12-.54,2.25-.71,3.05-.69.81.02,1.28.19,1.27.25Z"/><path class="cls-7" d="m245.55,54.49c0,.14-3.06.34-6.83.43-3.78.1-6.84.06-6.84-.09,0-.14,3.05-.34,6.83-.43,3.78-.09,6.84-.06,6.84.09Z"/></g><g id="Device"><path class="cls-3" d="m140.6,321.16h60.44c1.66,0,3.01,1.35,3.01,3.01h0c0,1.66-1.35,3.01-3.01,3.01h-60.44c-1.66,0-3.01-1.35-3.01-3.01h0c0-1.66,1.35-3.01,3.01-3.01Z"/><path class="cls-3" d="m150.24,327.19H35.92l-11.29-77.21c-.6-3.98,2.48-7.57,6.51-7.57l100.37.82c3.26,0,6.37,1.56,6.85,4.78l11.87,79.18Z"/><path class="cls-5" d="m91.87,283.87c0,3.47-2.81,6.28-6.28,6.28s-6.28-2.81-6.28-6.28,2.81-6.28,6.28-6.28,6.28,2.81,6.28,6.28Z"/><path class="cls-7" d="m145.27,326.51c-.14.02-3.34-18.6-7.13-41.6-3.8-23-6.76-41.67-6.62-41.69.14-.02,3.34,18.6,7.14,41.61,3.8,23,6.76,41.66,6.62,41.69Z"/></g><g id="Table"><rect class="cls-12" y="327.19" width="440.87" height="16.56"/><path class="cls-7" d="m93.39,327.43s-.04.07-.14.18c-.1.11-.25.29-.46.5-.44.41-1.14.99-2.22,1.52-1.07.53-2.52,1-4.26,1.23-1.74.25-3.74.29-5.94.22-2.21-.06-4.6-.35-7.15-.71-2.55-.34-5.26-.76-8.14-.83-5.78-.18-12.06,1.12-18.33,3.05-6.29,1.93-12.17,4.13-17.79,5.46-2.81.67-5.53,1.15-8.11,1.38-2.58.23-5.02.19-7.21-.01-4.4-.41-7.78-1.63-9.89-2.72-2.11-1.1-3.06-1.96-3.06-1.96,0,0,.08.03.21.12.16.1.35.23.59.38.51.33,1.29.8,2.36,1.31,2.11,1.03,5.47,2.18,9.82,2.55,2.17.18,4.57.2,7.12-.04,2.55-.24,5.24-.73,8.02-1.41,5.57-1.35,11.43-3.55,17.75-5.49,6.3-1.94,12.66-3.25,18.53-3.04,2.93.09,5.66.52,8.2.88,2.54.37,4.91.68,7.09.76,2.18.09,4.17.07,5.88-.15,1.72-.2,3.13-.64,4.2-1.13,2.14-1.02,2.86-2.11,2.92-2.04Z"/><path class="cls-7" d="m45.17,327.68s-.45.37-1.33.98c-.89.59-2.25,1.39-4.02,2.22-1.79.8-4,1.66-6.58,2.3-2.58.63-5.5,1.07-8.59,1.15-6.21.19-11.75-1.17-15.37-2.72-1.82-.79-3.08-1.78-3.71-2.6-.33-.4-.5-.76-.61-1-.09-.25-.13-.38-.11-.38.06-.02.21.51.89,1.27.66.76,1.91,1.68,3.71,2.41,3.6,1.45,9.07,2.74,15.18,2.55,3.05-.08,5.93-.5,8.47-1.1,2.55-.6,4.74-1.42,6.54-2.18,1.78-.79,3.15-1.53,4.08-2.08.91-.56,1.43-.85,1.46-.83Z"/><path class="cls-7" d="m148.62,338.18s.24.07.68.21c.45.13,1.13.33,2.04.46,1.78.26,4.66.35,7.72-1.04l-.02.21c-2.32-1.55-5.61-2.89-9.57-3.2-3.91-.32-8.54.39-12.44,2.78-.47.29-.92.64-.96,1.08-.06.43.32.82.83,1.07.51.25,1.09.4,1.71.51.62.12,1.25.24,1.88.37,2.52.48,5.13.96,7.83,1.3,2.7.34,5.48.57,8.32.49,1.42-.03,2.85-.15,4.27-.35.71-.1,1.42-.22,2.13-.38.72-.13,1.4-.32,2.06-.57,1.03-.39,2.01-.92,2.67-1.66.67-.72.89-1.7.51-2.54-.36-.85-1.2-1.5-2.1-2.01-.9-.51-1.92-.88-2.93-1.23-4.05-1.37-8.25-1.97-12.25-2.18-8.02-.4-15.25.93-20.9,2.78-5.68,1.86-9.87,4.15-12.58,5.9-1.34.89-2.38,1.6-3.04,2.12-.32.24-.58.42-.78.57-.18.13-.27.19-.28.18,0,0,.07-.08.24-.22.19-.15.43-.35.74-.6.64-.54,1.65-1.27,2.99-2.19,2.68-1.8,6.87-4.15,12.57-6.07,5.68-1.91,12.96-3.28,21.07-2.9,4.03.2,8.29.8,12.41,2.19,1.02.35,2.06.73,3.02,1.27.94.54,1.88,1.24,2.31,2.24.45.99.18,2.17-.59,2.99-.75.83-1.8,1.39-2.88,1.8-.69.26-1.42.46-2.15.6-.72.16-1.44.28-2.17.39-1.45.2-2.91.33-4.35.35-2.88.08-5.7-.15-8.42-.5-2.72-.35-5.33-.83-7.86-1.32-.63-.12-1.26-.25-1.88-.37-.62-.12-1.27-.28-1.85-.57-.29-.15-.57-.33-.77-.58-.21-.25-.33-.58-.28-.89.09-.66.68-1.06,1.17-1.36,4.04-2.44,8.77-3.14,12.76-2.79,4.04.34,7.38,1.74,9.71,3.34l.18.12-.2.09c-3.16,1.39-6.09,1.25-7.88.95-1.83-.34-2.69-.81-2.69-.81Z"/><path class="cls-7" d="m205.35,327.86s.23.27.43.83c.21.56.4,1.42.29,2.48-.15,2.13-1.67,4.94-4.29,7.23-1.27,1.18-2.65,2.17-4.01,2.93-1.37.75-2.71,1.27-3.87,1.61-1.16.34-2.13.5-2.8.6-.68.08-1.05.11-1.06.08-.02-.09,1.48-.26,3.73-.99,1.12-.37,2.41-.91,3.73-1.66,1.31-.76,2.64-1.73,3.89-2.89,2.57-2.25,4.07-4.9,4.31-6.94.3-2.05-.48-3.26-.34-3.29Z"/><path class="cls-7" d="m284.52,342.88c-.05.04-.62-.7-2.02-1.69-1.38-.98-3.69-2.23-6.9-2.67-1.59-.24-3.37-.16-5.25.13-1.88.26-3.93.69-6.15.49-2.26-.18-4.29-1.35-6.13-2.58-1.84-1.26-3.82-2.45-6.16-3.14-4.66-1.43-9.58-1.19-13.67-.18-4.13,1.01-7.49,2.77-10.11,4.4-2.63,1.65-4.55,3.21-5.86,4.3-.62.52-1.12.95-1.5,1.27-.34.29-.53.44-.54.43-.01-.01.15-.18.46-.49.31-.31.79-.76,1.43-1.33,1.27-1.13,3.16-2.74,5.78-4.44,2.62-1.68,6-3.5,10.2-4.55,4.16-1.05,9.2-1.31,13.99.16,2.4.7,4.47,1.96,6.3,3.21,1.83,1.23,3.74,2.34,5.86,2.52,2.1.21,4.12-.2,6.02-.44,1.9-.27,3.75-.34,5.38-.07,3.29.49,5.61,1.82,6.97,2.86,1.38,1.05,1.89,1.83,1.89,1.83Z"/><path class="cls-7" d="m355.2,327.35s-.15.2-.48.57c-.34.35-.79.91-1.51,1.54-1.34,1.32-3.5,3.06-6.44,4.91-2.93,1.85-6.7,3.76-11.17,5.32-2.23.78-4.64,1.48-7.2,1.97-2.56.5-5.26.88-8.06.89-5.6.03-10.84-1.16-15.28-2.73-4.46-1.59-8.2-3.53-11.11-5.41-2.91-1.88-5.05-3.64-6.39-4.95-.71-.63-1.17-1.19-1.51-1.54-.33-.36-.5-.55-.48-.56.01-.01.21.16.57.5.37.33.85.87,1.58,1.47,1.38,1.27,3.55,2.98,6.46,4.81,2.91,1.84,6.64,3.73,11.07,5.28,4.41,1.53,9.59,2.69,15.09,2.66,2.75-.01,5.42-.38,7.94-.87,2.53-.48,4.92-1.17,7.13-1.93,4.44-1.52,8.19-3.38,11.13-5.19,2.94-1.81,5.13-3.5,6.51-4.77.73-.6,1.21-1.14,1.58-1.48.36-.34.55-.52.57-.51Z"/><path class="cls-7" d="m345.11,327.19s-.12.1-.38.26c-.26.15-.63.39-1.14.66-1,.56-2.5,1.32-4.42,2.15-1.92.82-4.26,1.71-6.98,2.44-2.71.72-5.8,1.33-9.1,1.34-6.63-.03-12.35-1.89-16.16-3.51-1.92-.83-3.4-1.62-4.38-2.21-.5-.28-.86-.54-1.11-.7-.25-.17-.37-.26-.36-.27.03-.03.58.28,1.59.82,1.01.54,2.51,1.28,4.43,2.06,3.82,1.53,9.5,3.31,15.99,3.34,3.23,0,6.27-.59,8.96-1.28,2.69-.7,5.03-1.55,6.96-2.33,1.92-.78,3.44-1.49,4.47-2.01,1.04-.51,1.6-.8,1.63-.77Z"/><path class="cls-7" d="m422.21,328.88s-.31.02-.88,0c-.68-.02-1.5-.05-2.49-.08-.55-.02-1.15-.04-1.79-.07-.67,0-1.38,0-2.14,0-1.53,0-3.28-.03-5.21.04-.97.03-1.98.05-3.02.08-1.05.06-2.14.12-3.26.19-2.26.1-4.63.36-7.14.57-4.98.54-10.39,1.3-15.88,2.36-5.47,1.09-10.47,2.36-14.87,3.65-2.14.69-4.24,1.3-6.05,1.98-.92.33-1.81.65-2.67.96-.82.33-1.6.65-2.35.95-1.53.59-2.8,1.19-3.93,1.7-.56.25-1.09.49-1.58.72-.45.23-.87.44-1.25.64-.7.35-1.28.64-1.76.88-.41.2-.64.3-.66.29-.02-.01.16-.13.52-.35.45-.26.98-.57,1.64-.94.37-.21.77-.43,1.2-.67.48-.23.99-.48,1.54-.75,1.11-.54,2.35-1.16,3.87-1.77.75-.31,1.53-.64,2.34-.98.85-.32,1.74-.65,2.66-.99,1.8-.7,3.91-1.33,6.05-2.04,4.41-1.32,9.45-2.62,14.98-3.71,5.54-1.07,11.01-1.83,16.05-2.35,2.54-.2,4.94-.45,7.23-.54,1.14-.06,2.23-.11,3.29-.16,1.06-.02,2.08-.04,3.05-.05,1.94-.06,3.7,0,5.25.03.76.02,1.48.03,2.15.05.65.04,1.24.08,1.8.11.99.07,1.8.12,2.48.17.56.04.86.07.85.09Z"/><path class="cls-7" d="m292.44,342.54c-.06.04-.67-1.03-2.43-2.48-1.73-1.45-4.73-3.16-8.88-4.26-2.07-.56-4.4-.97-6.93-1.31-2.53-.35-5.25-.62-8.11-1.04-2.86-.4-5.81-1.11-8.8-1.9-3-.77-6.11-1.6-9.39-1.95-6.58-.72-12.93.48-18.29,2.17-2.7.85-5.16,1.87-7.44,2.87-2.28,1-4.37,1.99-6.27,2.91-3.79,1.84-6.82,3.41-8.9,4.51-1.01.53-1.81.95-2.4,1.26-.25.13-.46.24-.63.32-.14.07-.22.1-.22.1,0,0,.06-.05.19-.14.16-.1.36-.22.6-.36.53-.31,1.32-.77,2.34-1.34,2.05-1.14,5.04-2.75,8.82-4.64,1.89-.94,3.97-1.95,6.25-2.97,2.28-1.02,4.75-2.06,7.47-2.93,5.4-1.73,11.83-2.96,18.54-2.23,3.34.36,6.48,1.2,9.48,1.97,3,.8,5.9,1.5,8.74,1.91,2.83.43,5.55.72,8.09,1.08,2.54.36,4.89.8,6.98,1.38,4.19,1.16,7.21,2.94,8.91,4.45,1.73,1.51,2.28,2.61,2.28,2.61Z"/><path class="cls-7" d="m193.14,327.43s.04.38-.06,1.06c-.09.68-.36,1.65-.86,2.79-1.01,2.26-3.11,5.32-6.78,7.45-3.67,2.02-7.37,3.19-10.04,3.97-1.34.38-2.44.66-3.21.83-.76.17-1.19.24-1.2.21-.01-.03.4-.16,1.14-.39.85-.26,1.9-.58,3.14-.97,2.62-.86,6.28-2.07,9.87-4.05,3.53-2.04,5.64-5,6.72-7.18,1.1-2.22,1.17-3.75,1.28-3.73Z"/><path class="cls-7" d="m90.79,343.75s.36-.34,1.07-.89c.71-.55,1.78-1.31,3.14-2.21,2.71-1.8,6.66-4.06,11.24-6.22,4.58-2.16,8.86-3.89,11.97-5.12,1.55-.61,2.82-1.09,3.7-1.42.88-.32,1.37-.49,1.39-.46.02.03-.45.25-1.3.63-.95.41-2.16.93-3.62,1.55-3.06,1.3-7.31,3.07-11.87,5.23-4.56,2.16-8.52,4.36-11.28,6.08-1.38.86-2.49,1.57-3.23,2.08-.75.5-1.18.77-1.21.75Z"/><path class="cls-7" d="m111.56,328.11c0,.05-1.02-.11-2.84,0-1.82.12-4.44.64-7.35,1.92-2.95,1.23-6.06,3.28-9.55,5.51-1.76,1.1-3.65,2.24-5.75,3.2-2.11.97-4.44,1.72-6.88,2.28-4.91,1.09-9.74,1.34-14.08,1.45-4.36.11-8.27.03-11.56.15-3.28.1-5.92.37-7.73.65-.9.14-1.6.26-2.07.36-.47.09-.72.13-.73.11,0-.02.24-.09.7-.2.46-.13,1.16-.27,2.06-.44,1.8-.33,4.46-.66,7.75-.8,3.29-.16,7.22-.12,11.56-.25,4.33-.14,9.13-.41,13.96-1.48,2.41-.55,4.7-1.28,6.77-2.23,2.07-.94,3.95-2.06,5.71-3.15,3.5-2.2,6.67-4.24,9.68-5.45,2.98-1.26,5.66-1.74,7.51-1.81.93-.03,1.65,0,2.13.06.48.06.73.1.73.11Z"/></g></svg>