<?xml version="1.0" encoding="utf-8"?>
<!-- Generator: Adobe Illustrator 27.5.0, SVG Export Plug-In . SVG Version: 6.00 Build 0)  -->
<svg version="1.1" xmlns="http://www.w3.org/2000/svg" xmlns:xlink="http://www.w3.org/1999/xlink" x="0px" y="0px"
	 viewBox="0 0 500 500" style="enable-background:new 0 0 500 500;" xml:space="preserve">
<g id="Background_Complete">
	<g>
		<g>
			<path style="fill:#FAFAFA;" d="M60.286,120.176L45.68,190.682c6.496,6.593,13.386,12.826,24.508,15.178l53.504,9.403
				l12.563-82.877L60.286,120.176z"/>
			<polygon style="fill:#F5F5F5;" points="57.237,115.826 42.631,186.332 67.139,201.51 120.643,210.913 136.438,131.356 			"/>
			<path style="fill:#E0E0E0;" d="M52.604,182.569l-9.973,3.763c0,0,3.603,5.871,8.85,9.051c5.246,3.18,10.307,5.186,15.659,6.127
				C67.139,201.51,55.456,195.699,52.604,182.569z"/>
		</g>
		<polygon style="fill:#EBEBEB;" points="49.105,130.963 85.671,119.62 83.337,111.921 46.17,122.726 		"/>
		<polygon style="fill:#EBEBEB;" points="142.767,150.378 119.065,120.313 112.716,125.253 136.131,156.072 		"/>
		<g>
			<path style="fill:#E0E0E0;" d="M122.68,154.778c-0.028,0.141-13.532-2.381-30.159-5.633c-16.633-3.253-30.089-6.004-30.061-6.145
				c0.028-0.141,13.529,2.381,30.161,5.634C109.248,151.886,122.707,154.637,122.68,154.778z"/>
		</g>
		<g>
			<path style="fill:#E0E0E0;" d="M120.29,165.587c-0.028,0.141-13.532-2.381-30.159-5.633c-16.632-3.253-30.089-6.004-30.061-6.145
				c0.028-0.141,13.529,2.381,30.161,5.633C106.858,162.694,120.317,165.445,120.29,165.587z"/>
		</g>
		<g>
			<path style="fill:#E0E0E0;" d="M118.744,175.28c-0.028,0.141-13.532-2.381-30.159-5.633c-16.632-3.253-30.089-6.003-30.061-6.145
				c0.028-0.141,13.529,2.381,30.161,5.634C105.312,172.388,118.772,175.139,118.744,175.28z"/>
		</g>
		<g>
			<path style="fill:#E0E0E0;" d="M116.867,184.537c-0.028,0.141-13.532-2.381-30.159-5.633
				c-16.632-3.253-30.089-6.004-30.061-6.145c0.028-0.141,13.529,2.381,30.161,5.634
				C103.436,181.645,116.895,184.396,116.867,184.537z"/>
		</g>
	</g>
	<g>
		<g>
			<path style="fill:#FAFAFA;" d="M402.629,87.758l-18.906,46.096c-6.278,1.268-12.642,2.178-19.932-0.778l-34.33-15.311
				l24.864-52.402L402.629,87.758z"/>
			<polygon style="fill:#F5F5F5;" points="406.062,86.443 387.156,132.539 367.224,131.761 332.894,116.451 354.62,64.703 			"/>
			<path style="fill:#E0E0E0;" d="M382.892,126.521l4.265,6.018c0,0-4.339,1.974-8.579,1.767c-4.24-0.206-7.919-1.014-11.353-2.545
				C367.224,131.761,376.175,132.949,382.892,126.521z"/>
		</g>
		<polygon style="fill:#EBEBEB;" points="404.869,98.272 388.283,77.616 392.601,74.103 409.74,94.684 		"/>
		<polygon style="fill:#EBEBEB;" points="343.629,73.165 368.859,65.091 370.59,70.382 345.232,78.999 		"/>
		<g>
			<path style="fill:#E0E0E0;" d="M353.449,83.462c0.056-0.132,8.855,3.465,19.651,8.034c10.8,4.57,19.506,8.382,19.45,8.514
				c-0.056,0.132-8.853-3.464-19.653-8.034C362.101,87.407,353.393,83.594,353.449,83.462z"/>
		</g>
		<g>
			<path style="fill:#E0E0E0;" d="M350.637,90.587c0.056-0.132,8.855,3.465,19.651,8.034c10.8,4.57,19.506,8.382,19.45,8.514
				c-0.056,0.132-8.853-3.464-19.653-8.034C359.289,94.531,350.581,90.719,350.637,90.587z"/>
		</g>
		<g>
			<path style="fill:#E0E0E0;" d="M347.772,96.746c0.056-0.132,8.855,3.465,19.651,8.034c10.8,4.57,19.506,8.382,19.45,8.514
				c-0.056,0.132-8.853-3.464-19.653-8.034C356.425,100.69,347.716,96.878,347.772,96.746z"/>
		</g>
		<g>
			<path style="fill:#E0E0E0;" d="M345.267,102.782c0.056-0.132,8.855,3.465,19.651,8.034c10.8,4.57,19.506,8.381,19.45,8.514
				c-0.056,0.132-8.853-3.464-19.653-8.034C353.919,106.727,345.211,102.914,345.267,102.782z"/>
		</g>
	</g>
	<g>
		<g>
			<g>
				<g>
					<path style="fill:#F5F5F5;" d="M382.07,284.192c-15.316-12.483-17.427-33.701-15.392-52.482
						c0.339-3.135,0.24-6.474,1.939-9.121c1.7-2.646,5.328-4.272,8.044-2.739c2.253,1.272,3.068,4.062,4.208,6.404
						c1.515,3.117,3.921,5.781,6.849,7.587c1.924,1.187,4.353,2.006,6.41,1.063c2.822-1.295,3.419-5.016,3.632-8.144
						c0.395-5.829,0.791-11.658,1.187-17.486c0.212-3.127,0.44-6.32,1.632-9.214c1.192-2.895,3.545-5.491,6.58-6.104
						c3.036-0.612,6.586,1.375,6.987,4.481c0.167,1.293-0.19,2.595-0.2,3.899c-0.009,1.304,0.489,2.785,1.694,3.238
						c1.221,0.459,2.537-0.335,3.539-1.18c3.461-2.917,5.951-6.821,8.297-10.712c2.346-3.892,4.639-7.884,7.822-11.109
						c3.183-3.226,7.435-5.653,11.93-5.575c4.496,0.079,9.061,3.195,9.866,7.674c0.808,4.491-2.095,8.772-5.157,12.132
						c-4.543,4.985-9.801,9.301-15.555,12.771c-1.037,0.626-2.161,1.303-2.624,2.433c-0.833,2.034,0.988,4.25,2.995,5.088
						c2.272,0.949,4.819,0.894,7.235,1.362c2.416,0.468,4.977,1.739,5.728,4.111c1.044,3.29-1.877,6.441-4.669,8.439
						c-5.59,4.002-11.86,7.026-18.447,8.9c-2.362,0.671-4.837,1.23-6.811,2.708c-1.974,1.479-3.302,4.205-2.345,6.489
						c0.958,2.288,3.781,3.205,6.223,2.937c2.441-0.268,4.694-1.416,7.054-2.111c4.416-1.303,9.942-0.596,12.418,3.321
						c1.627,2.575,1.535,5.985,0.404,8.826c-1.13,2.841-3.171,5.21-5.312,7.374c-7.484,7.567-16.78,13.417-27.002,16.134
						C401.008,288.298,391.705,288.548,382.07,284.192"/>
				</g>
			</g>
		</g>
		<g>
			<g>
				<g>
					<g>
						<path style="fill:#E0E0E0;" d="M380.788,298.133c1.235-7.409,3.524-16.096,7.018-25.384
							c3.476-9.297,8.131-19.171,13.355-29.332c1.315-2.535,2.615-5.04,3.895-7.509c1.284-2.461,2.558-4.903,3.951-7.213
							c2.767-4.635,5.78-8.88,8.766-12.819c2.985-3.943,5.962-7.575,8.77-10.951c2.817-3.372,5.501-6.465,8.068-9.18
							c5.119-5.451,9.759-9.35,13.054-11.897c1.645-1.279,2.954-2.23,3.85-2.862c0.431-0.3,0.769-0.535,1.023-0.713
							c0.232-0.157,0.354-0.234,0.36-0.226c0.007,0.008-0.104,0.101-0.325,0.275c-0.246,0.189-0.574,0.439-0.99,0.759
							c-0.873,0.663-2.159,1.641-3.781,2.945c-3.247,2.599-7.829,6.532-12.895,12.002c-2.541,2.725-5.201,5.826-7.997,9.206
							c-2.79,3.388-5.749,7.026-8.716,10.967c-2.967,3.939-5.958,8.175-8.703,12.788c-1.382,2.3-2.642,4.721-3.927,7.189
							c-1.279,2.468-2.577,4.972-3.891,7.506c-5.219,10.153-9.877,19.997-13.37,29.255c-3.509,9.249-5.83,17.89-7.111,25.263"/>
					</g>
				</g>
			</g>
		</g>
		<g>
			<g>
				<g>
					<g>
						<path style="fill:#E0E0E0;" d="M409.173,228.684c-0.039,0.003-0.11-0.48-0.206-1.356c-0.1-0.876-0.203-2.148-0.307-3.721
							c-0.211-3.145-0.355-7.499-0.495-12.299c-0.14-4.803-0.345-9.142-0.603-12.275c-0.125-1.567-0.239-2.834-0.329-3.709
							c-0.085-0.876-0.113-1.364-0.074-1.37c0.039-0.006,0.143,0.471,0.296,1.339c0.159,0.867,0.335,2.132,0.511,3.699
							c0.364,3.134,0.635,7.488,0.774,12.296c0.126,4.737,0.24,9.023,0.327,12.297c0.048,1.479,0.09,2.725,0.124,3.726
							C409.216,228.191,409.213,228.681,409.173,228.684z"/>
					</g>
				</g>
			</g>
		</g>
		<g>
			<g>
				<g>
					<g>
						<path style="fill:#E0E0E0;" d="M449.919,224.153c-0.002,0.04-0.579,0.064-1.617,0.073c-1.038,0.016-2.54,0.029-4.395,0.107
							c-3.71,0.124-8.83,0.476-14.461,1.11c-5.632,0.645-10.704,1.446-14.355,2.131c-1.829,0.329-3.302,0.636-4.321,0.842
							c-1.019,0.21-1.587,0.307-1.597,0.269c-0.009-0.04,0.541-0.211,1.547-0.49c1.006-0.273,2.469-0.642,4.294-1.026
							c3.642-0.791,8.722-1.658,14.37-2.306c5.648-0.636,10.791-0.924,14.516-0.942c1.862-0.024,3.369,0.024,4.409,0.079
							C449.347,224.06,449.92,224.112,449.919,224.153z"/>
					</g>
				</g>
			</g>
		</g>
		<g>
			<g>
				<g>
					<g>
						<path style="fill:#E0E0E0;" d="M388.355,272.046c-0.019,0.007-0.1-0.169-0.239-0.51c-0.157-0.407-0.348-0.904-0.579-1.505
							c-0.497-1.309-1.168-3.222-1.965-5.596c-1.598-4.748-3.598-11.376-5.707-18.719c-2.11-7.346-4.046-13.984-5.542-18.758
							c-0.734-2.321-1.339-4.231-1.788-5.65c-0.191-0.616-0.349-1.123-0.478-1.541c-0.103-0.354-0.149-0.543-0.13-0.551
							c0.019-0.006,0.1,0.17,0.239,0.512c0.157,0.407,0.348,0.903,0.579,1.504c0.497,1.309,1.168,3.222,1.965,5.596
							c1.598,4.748,3.598,11.376,5.707,18.722c2.109,7.344,4.046,13.981,5.542,18.756c0.736,2.32,1.339,4.231,1.789,5.649
							c0.192,0.616,0.349,1.125,0.478,1.541C388.328,271.85,388.374,272.039,388.355,272.046z"/>
					</g>
				</g>
			</g>
		</g>
		<g>
			<g>
				<g>
					<g>
						<path style="fill:#E0E0E0;" d="M443.037,258.793c0.004,0.02-0.185,0.081-0.546,0.179c-0.428,0.109-0.953,0.242-1.59,0.405
							c-1.467,0.358-3.447,0.842-5.856,1.429c-4.945,1.208-11.755,2.955-19.278,4.895c-7.525,1.942-14.358,3.627-19.33,4.733
							c-2.486,0.554-4.501,0.982-5.9,1.249c-0.646,0.119-1.179,0.217-1.612,0.298c-0.37,0.062-0.567,0.084-0.571,0.065
							c-0.004-0.02,0.185-0.081,0.546-0.18c0.427-0.108,0.952-0.242,1.589-0.404c1.467-0.358,3.446-0.841,5.855-1.429
							c4.945-1.207,11.756-2.955,19.281-4.896c7.523-1.941,14.355-3.627,19.326-4.732c2.486-0.554,4.501-0.982,5.901-1.248
							c0.646-0.119,1.178-0.219,1.613-0.298C442.836,258.796,443.032,258.774,443.037,258.793z"/>
					</g>
				</g>
			</g>
		</g>
	</g>
</g>
<g id="Background_Simple" style="display:none;">
	<g style="display:inline;">
		<path style="fill:#EBEBEB;" d="M85.734,347.801L85.734,347.801c-15.332-22.538-20.189-50.804-12.422-76.933
			c3.018-10.153,7.692-19.801,13.946-28.365c18.657-25.55,50.78-40.64,82.357-38.687c18.571,1.149,37.605,7.693,55.317,1.994
			c23.051-7.417,34.852-32.295,44.095-54.676c9.243-22.382,27.353-45.735,49.876-54.627c20.957-8.274,54.114-8.299,68.24-2.783
			c53.854,21.028,58.45,92.222,47.424,130.969c-10.99,38.617-25.906,64.224-49.199,96.927
			c-32.631,45.814-89.283,73.431-144.692,83.097c-52.792,9.21-110.794-7.362-146.866-46.674
			C90.867,354.835,88.182,351.4,85.734,347.801z"/>
	</g>
</g>
<g id="Floor">
	<g>
		<path style="fill:#263238;" d="M465.749,458.853c0,0.144-94.615,0.26-211.301,0.26c-116.727,0-211.321-0.116-211.321-0.26
			c0-0.144,94.594-0.26,211.321-0.26C371.135,458.593,465.749,458.709,465.749,458.853z"/>
	</g>
</g>
<g id="Note">
	<g>
		<g>
			<path style="fill:#E0E0E0;" d="M170.774,77.793l24.123,73.554c9.586,2.67,19.346,4.793,30.974,1.032l54.918-19.873L248.14,48.512
				L170.774,77.793z"/>
			<polygon style="fill:#E8505B;" points="165.603,75.37 189.726,148.923 220.7,149.955 275.618,130.083 247.758,47.454 			"/>
			<path style="fill:#E8505B;" d="M197.01,140.077l-7.284,8.846c0,0,6.502,3.545,13.096,3.702c6.593,0.156,12.385-0.682,17.879-2.67
				C220.7,149.955,206.697,150.792,197.01,140.077z"/>
			<path style="opacity:0.3;" d="M197.01,140.077c-2.214,4.476-4.448,9.719-7.284,8.846c0,0,6.502,3.545,13.096,3.702
				c6.593,0.156,12.385-0.682,17.879-2.67C220.7,149.955,206.697,150.792,197.01,140.077z"/>
		</g>
		<polygon style="fill:#E0E0E0;" points="166.124,93.835 194.144,63.687 187.847,57.758 158.979,87.727 		"/>
		<polygon style="fill:#E0E0E0;" points="263.841,61.801 225.65,46.458 222.374,54.462 260.702,70.662 		"/>
		<g>
			<path style="fill:#263238;" d="M247.468,76.656c0.046,0.136-13.897,5.005-31.139,10.873c-17.248,5.87-31.264,10.517-31.31,10.381
				c-0.046-0.136,13.894-5.004,31.142-10.874C233.403,81.167,247.422,76.52,247.468,76.656z"/>
		</g>
		<g>
			<path style="fill:#263238;" d="M251.026,88.012c0.046,0.136-13.897,5.005-31.139,10.873c-17.248,5.87-31.264,10.517-31.31,10.381
				c-0.046-0.136,13.894-5.004,31.142-10.874C236.961,92.524,250.979,87.876,251.026,88.012z"/>
		</g>
		<g>
			<path style="fill:#263238;" d="M254.773,97.877c0.046,0.136-13.897,5.005-31.139,10.873c-17.248,5.87-31.264,10.517-31.31,10.381
				c-0.046-0.136,13.894-5.004,31.142-10.874C240.708,102.389,254.727,97.741,254.773,97.877z"/>
		</g>
		<g>
			<path style="fill:#263238;" d="M257.979,107.513c0.046,0.136-13.897,5.005-31.139,10.873
				c-17.248,5.87-31.264,10.517-31.31,10.381c-0.046-0.136,13.894-5.004,31.143-10.874
				C243.914,112.024,257.932,107.377,257.979,107.513z"/>
		</g>
	</g>
</g>
<g id="Character_2">
	<g>
		<path style="fill:#E8505B;" d="M295.016,318.189l-4.838,45.045c0,0-9.427-14.254-15.808-7.901
			c-6.079,6.052-16.815,50.248-16.815,50.248s-0.149,14.412,7.519,18.219c24.548,12.186,51.891-10.792,51.891-10.792l-3.876-128.807
			h0C302.911,292.78,296.437,304.955,295.016,318.189z"/>
		<g>
			<g>
				<g>
					<g>
						<g>
							<g>
								<g>
									<g>
										<g>
											<g>
												<g>
													<path style="fill:#B78876;" d="M377.895,286.915l-42.513-3.395c-0.264-4.964,0.09-24.167,0.09-24.167
														s-17.689-2.75-17.907-20.435s2.848-58.295,2.848-58.295l0,0c20.473-8.798,44.103-5.828,61.76,7.764l2.621,2.018
														L377.895,286.915z"/>
												</g>
											</g>
										</g>
										<g>
											<g>
												<g>
													<path style="fill:#AA6550;" d="M335.443,259.098c0,0,11.177,0.909,23.056-6.553c0,0-5.45,12.728-23.097,11.135
														L335.443,259.098z"/>
												</g>
											</g>
										</g>
									</g>
								</g>
							</g>
							<g>
								<g>
									<g>
										<g>
											<path style="fill:#B78876;" d="M382.615,208.722c0.301-0.131,12.152-3.594,11.765,8.497
												c-0.386,12.09-12.445,9.209-12.455,8.861C381.915,225.733,382.615,208.722,382.615,208.722z"/>
										</g>
									</g>
								</g>
								<g>
									<g>
										<g>
											<g>
												<path style="fill:#AA6550;" d="M385.765,221.618c0.054-0.037,0.206,0.154,0.557,0.329
													c0.342,0.17,0.935,0.299,1.573,0.083c1.292-0.428,2.433-2.421,2.561-4.599c0.066-1.1-0.131-2.155-0.493-3.035
													c-0.341-0.896-0.893-1.532-1.533-1.667c-0.635-0.168-1.103,0.202-1.262,0.538c-0.173,0.333-0.104,0.577-0.168,0.595
													c-0.035,0.029-0.253-0.211-0.14-0.707c0.058-0.238,0.208-0.519,0.5-0.742c0.298-0.227,0.728-0.333,1.175-0.271
													c0.93,0.094,1.742,0.979,2.14,1.945c0.449,0.972,0.697,2.159,0.622,3.393c-0.155,2.434-1.475,4.674-3.239,5.123
													c-0.857,0.194-1.559-0.084-1.916-0.382C385.777,221.911,385.722,221.639,385.765,221.618z"/>
											</g>
										</g>
									</g>
								</g>
							</g>
							<g>
								<g>
									<g>
										<g>
											<g>
												<g>
													<g>
														<g>
															<g>
																<path style="fill:#263238;" d="M324.311,208.031c-0.047,1.334,1.043,2.473,2.435,2.548
																	c1.389,0.074,2.556-0.943,2.603-2.277c0.047-1.334-1.043-2.475-2.433-2.55
																	C325.525,205.677,324.358,206.697,324.311,208.031z"/>
															</g>
														</g>
													</g>
													<g>
														<g>
															<g>
																<g>
																	<path style="fill:#263238;" d="M323.76,205.501c0.313,0.329,2.227-1.087,4.944-1.079
																		c2.715-0.032,4.709,1.367,5.004,1.034c0.145-0.147-0.174-0.742-1.043-1.374c-0.855-0.63-2.313-1.242-4.006-1.235
																		c-1.693,0.009-3.117,0.632-3.935,1.27C323.889,204.758,323.606,205.354,323.76,205.501z"/>
																</g>
															</g>
														</g>
													</g>
												</g>
												<g>
													<g>
														<g>
															<g>
																<path style="fill:#263238;" d="M350.927,208.979c-0.047,1.333,1.044,2.473,2.435,2.548
																	c1.389,0.075,2.556-0.943,2.603-2.277c0.047-1.334-1.043-2.475-2.433-2.55
																	C352.141,206.625,350.974,207.646,350.927,208.979z"/>
															</g>
														</g>
													</g>
													<g>
														<g>
															<g>
																<g>
																	<path style="fill:#263238;" d="M350.474,206.008c0.314,0.329,2.23-1.087,4.945-1.079
																		c2.714-0.032,4.709,1.366,5.004,1.033c0.144-0.147-0.171-0.741-1.043-1.374c-0.855-0.63-2.313-1.242-4.005-1.235
																		c-1.693,0.01-3.117,0.633-3.936,1.27C350.606,205.266,350.321,205.861,350.474,206.008z"/>
																</g>
															</g>
														</g>
													</g>
												</g>
												<g>
													<g>
														<g>
															<g>
																<path style="fill:#263238;" d="M340.611,226.164c0.013-0.155-1.677-0.446-4.414-0.796
																	c-0.694-0.072-1.351-0.21-1.468-0.683c-0.164-0.501,0.127-1.25,0.463-2.057c0.652-1.679,1.335-3.44,2.052-5.284
																	c2.85-7.524,4.913-13.711,4.609-13.823c-0.304-0.112-2.861,5.895-5.711,13.419
																	c-0.686,1.855-1.342,3.624-1.966,5.316c-0.263,0.788-0.714,1.683-0.36,2.724c0.187,0.518,0.696,0.895,1.141,1.015
																	c0.445,0.136,0.835,0.143,1.178,0.164C338.892,226.306,340.601,226.318,340.611,226.164z"/>
															</g>
														</g>
													</g>
												</g>
											</g>
										</g>
									</g>
									<g>
										<g>
											<g>
												<path style="fill:#263238;" d="M349.773,195.358c0.268,0.739,2.982,0.389,6.17,0.773
													c3.197,0.32,5.768,1.254,6.191,0.591c0.189-0.317-0.259-1.012-1.299-1.728c-1.03-0.714-2.675-1.393-4.589-1.606
													c-1.914-0.209-3.667,0.095-4.828,0.567C350.247,194.426,349.658,195.007,349.773,195.358z"/>
											</g>
										</g>
									</g>
									<g>
										<g>
											<g>
												<path style="fill:#263238;" d="M324.759,197.636c0.478,0.617,2.35-0.024,4.602-0.053
													c2.25-0.109,4.158,0.414,4.596-0.231c0.192-0.313-0.108-0.932-0.941-1.516c-0.821-0.582-2.194-1.058-3.741-1.012
													c-1.547,0.049-2.887,0.609-3.67,1.241C324.809,196.699,324.548,197.335,324.759,197.636z"/>
											</g>
										</g>
									</g>
								</g>
							</g>
						</g>
						<g>
							<path style="fill:#263238;" d="M311.797,169.458c-0.189-2.192,0.626-4.545,2.411-5.833c1.784-1.288,4.55-1.206,6,0.449
								c-0.83-2.953,1.584-6.359,4.645-6.553c2.884-0.183,5.344,1.996,8.131,2.76c2.72,0.746,5.64,0.101,8.257-0.953
								c2.617-1.054,5.063-2.509,7.713-3.476c5.527-2.018,11.846-1.765,17.194,0.69c5.347,2.455,9.659,7.082,11.731,12.589
								c3.868-1.209,8.263,0.755,10.648,4.031c2.385,3.276,2.997,7.579,2.522,11.603c-0.32,2.72-1.107,5.347-2.022,7.936
								c0.001,0.227,0.023,0.45,0.019,0.678c-0.183,9.725-1.282,21.145-5.431,21.209c-7.231,0.111-5.508-13.514-5.508-13.514
								c-8.875-3.429-5.568-16.725-7.788-18.742c-2.219-2.017-6.861-6.704-25.441,2.792c-7.215,3.687-16.808,3.572-22.044,2.384
								c-0.154-0.033-0.309-0.057-0.462-0.094c-0.032-0.008-0.075-0.014-0.107-0.022c-0.057-0.015-0.098-0.046-0.154-0.062
								c-1.669-0.435-3.279-1.081-4.765-2.021c-1.683-1.065-3.213-2.507-3.927-4.366c-0.713-1.859-0.445-4.18,1.014-5.536
								C313.06,173.686,311.987,171.65,311.797,169.458z"/>
						</g>
					</g>
					<g>
						<g>
							<g>
								<path style="fill:#E8505B;" d="M412.672,397.894l1.337,25.096l2.988,36.049H303.373l4.934-53.263l-9.677-84.149
									c0.841-29.735,12.259-42.1,35.621-44.94c0.195-0.024-2.038,0.254-1.841,0.231c3.217-0.38,0,0,1.841-0.231
									c15.11,4.652,30.22,4.643,45.33-0.027v0.001c7.005,0.297,12.809,2.454,18.767,3.596
									c18.768,3.596,34.22,18.098,37.973,30.721c3.09,10.392,25.439,100.518,25.439,100.518H417.3L412.672,397.894z"/>
							</g>
						</g>
					</g>
				</g>
			</g>
		</g>
		<path style="fill:#AA6550;" d="M338.305,234.524c0.426,1.079,0.862,2.174,1.576,3.089c0.714,0.914,1.758,1.639,2.917,1.694
			c1.235,0.059,2.425-0.672,3.114-1.699c0.689-1.027,0.923-2.306,0.868-3.541c-0.05-1.117-0.561-2.449-1.671-2.581
			c-0.462-0.055-0.916,0.124-1.348,0.298c-1.944,0.789-3.889,1.577-5.834,2.366"/>
		<g>
			<path style="fill:#263238;" d="M340.634,239.323c0.03-0.183,1.31,0.337,3.111-0.384c0.872-0.351,1.826-1.046,2.352-2.137
				c0.526-1.079,0.63-2.539,0.077-3.816c-0.128-0.32-0.321-0.612-0.509-0.872c-0.231-0.242-0.188-0.231-0.44-0.195
				c-0.238,0.064-0.621,0.245-0.934,0.367c-0.325,0.132-0.645,0.263-0.958,0.39c-1.249,0.505-2.379,0.946-3.334,1.303
				c-1.91,0.714-3.12,1.089-3.176,0.957c-0.056-0.132,1.051-0.747,2.887-1.634c0.918-0.444,2.018-0.955,3.246-1.509
				c0.309-0.138,0.624-0.279,0.944-0.423c0.341-0.14,0.6-0.293,1.065-0.439c0.228-0.064,0.551-0.1,0.866,0.025
				c0.308,0.125,0.5,0.334,0.643,0.508c0.261,0.347,0.491,0.704,0.656,1.106c0.686,1.595,0.521,3.359-0.178,4.667
				c-0.713,1.336-1.929,2.087-2.961,2.394c-1.049,0.323-1.953,0.246-2.527,0.098C340.884,239.579,340.612,239.381,340.634,239.323z"
				/>
		</g>
		<g>
			<g>
				<g>
					<g>
						<g>
							<g>
								<path style="fill:#B78876;" d="M298.44,392.872l-26.76-82.16l-2.423-13.795c0,0-7.281-30.752-7.605-33.796
									c-0.374-3.517-2.159-4.182-3.446-3.956c-2.005,0.352-3.169,2.994-2.941,6.022c0.079,1.047,1.984,17.507,1.984,17.507
									s-0.9-1.282-3.669-4.103c-2.77-2.821-8.68-3.967-14.531-3.146c-5.851,0.821-7.417,1.568-7.204,3.855
									c0.085,0.919,0.68,1.6,1.391,2.093c1.16,0.805,2.614,1.095,4.015,0.918c9.388-1.186,12.462,3.568,12.462,3.568l0.317,1.805
									c0,0-6.158-3.467-10.524-1.253c-0.712,0.361-1.258,0.816-1.695,1.316c-2.496,0.294-4.802,1.924-5.872,4.201
									c-1.113,2.37-0.844,5.332,0.677,7.463c0.727,1.018,1.963,1.905,3.155,1.527c0.629-0.199,1.102-0.71,1.555-1.189
									c0.238-0.252,0.492-0.504,0.771-0.71l1.596,4.931c0,0,4.177,10.887,5.458,15.83l13.03,82.734
									c1.806,11.471,12.668,19.231,24.105,17.223h0C294.727,417.572,302.352,404.881,298.44,392.872z"/>
							</g>
						</g>
					</g>
				</g>
				<g>
					<g>
						<g>
							<g>
								<g>
									<path style="fill:#B78876;" d="M268.852,309.87c-1.676,0.658-3.582-0.415-4.679-1.843
										c-1.097-1.428-1.677-3.185-2.668-4.688c-2.963-4.495-9.134-6.128-11.879-10.76c-0.383-0.646-0.652-1.562-0.102-2.073
										c0.51-0.474,1.325-0.23,1.966,0.04c5.479,2.305,10.958,4.611,16.437,6.916"/>
								</g>
							</g>
						</g>
					</g>
					<g>
						<g>
							<g>
								<g>
									<g>
										<path style="fill:#AA6550;" d="M267.928,297.461c0.027-0.065-0.58-0.393-1.701-0.93c-1.121-0.538-2.756-1.285-4.784-2.189
											c-2.117-0.926-4.522-1.977-7.147-3.125c-0.677-0.291-1.368-0.588-2.071-0.89c-0.678-0.232-1.46-0.836-2.635-0.451
											c-0.577,0.22-0.919,0.905-0.878,1.44c0.014,0.54,0.191,0.986,0.411,1.4c0.459,0.76,0.966,1.465,1.579,2.102
											c2.448,2.559,5.408,4.014,7.632,5.835c1.126,0.892,2.092,1.85,2.797,2.887c0.707,1.035,1.2,2.149,1.762,3.13
											c1.038,2.031,2.723,3.273,4.016,3.482c1.32,0.245,1.983-0.263,1.943-0.282c-0.021-0.101-0.699,0.235-1.846-0.102
											c-1.152-0.324-2.556-1.456-3.481-3.44c-0.504-0.965-0.957-2.107-1.692-3.255c-0.734-1.148-1.752-2.198-2.908-3.148
											c-2.289-1.927-5.225-3.426-7.48-5.802c-0.565-0.582-1.036-1.246-1.435-1.894c-0.367-0.643-0.402-1.332-0.019-1.442
											c0.399-0.185,1.155,0.132,1.856,0.435c0.708,0.292,1.403,0.578,2.085,0.858c2.656,1.074,5.089,2.058,7.231,2.924
											c2.064,0.819,3.742,1.465,4.91,1.891C267.242,297.322,267.9,297.526,267.928,297.461z"/>
									</g>
								</g>
							</g>
						</g>
					</g>
				</g>
				<g>
					<g>
						<g>
							<g>
								<g>
									<path style="fill:#AA6550;" d="M250.262,287.745c-0.127,0.043-0.063-1.438-1.422-3.054
										c-0.669-0.788-1.743-1.467-3.088-1.769c-1.343-0.321-2.891-0.303-4.519-0.163c-1.631,0.133-3.231,0.282-4.694,0.095
										c-1.454-0.189-2.744-0.642-3.645-1.355c-0.925-0.709-1.224-1.719-1.19-2.335c0.026-0.632,0.189-0.945,0.213-0.937
										c0.063,0.011-0.011,0.346,0.042,0.925c0.053,0.572,0.366,1.392,1.216,1.977c0.831,0.59,2.059,0.979,3.432,1.124
										c1.382,0.145,2.928-0.012,4.575-0.148c1.645-0.141,3.28-0.149,4.716,0.23c1.441,0.355,2.623,1.161,3.3,2.061
										c0.695,0.893,0.964,1.787,1.062,2.393C250.355,287.403,250.299,287.745,250.262,287.745z"/>
								</g>
							</g>
						</g>
					</g>
				</g>
				<g>
					<g>
						<g>
							<g>
								<g>
									<path style="fill:#AA6550;" d="M255.197,264.018c0.094-0.003,0.214,1.249,0.401,3.27c0.217,2.249,0.477,4.929,0.763,7.892
										c0.331,2.959,0.631,5.635,0.882,7.881c0.235,2.016,0.376,3.266,0.283,3.282c-0.086,0.015-0.389-1.209-0.743-3.215
										c-0.356-2.005-0.752-4.79-1.076-7.88c-0.321-3.089-0.509-5.896-0.574-7.931
										C255.066,265.282,255.109,264.021,255.197,264.018z"/>
								</g>
							</g>
						</g>
					</g>
				</g>
				<g>
					<g>
						<g>
							<g>
								<g>
									<path style="fill:#AA6550;" d="M246.944,291.857c-0.019,0.046-0.37-0.079-0.996-0.268c-0.6-0.168-1.617-0.434-2.544,0.151
										c-0.45,0.281-0.71,0.811-0.705,1.46c-0.015,0.642,0.195,1.339,0.384,2.113c0.185,0.755,0.349,1.722-0.113,2.62
										c-0.462,0.866-1.377,1.443-2.369,1.573c-1.017,0.135-1.994-0.258-2.698-0.839c-0.708-0.593-1.221-1.328-1.464-2.16
										c-0.408-1.586-0.431-3.015-0.388-4.221c0.063-1.203,0.273-2.174,0.545-2.801c0.275-0.629,0.562-0.895,0.584-0.874
										c0.049,0.035-0.156,0.34-0.343,0.959c-0.186,0.62-0.318,1.56-0.322,2.727c0.013,1.157,0.096,2.587,0.503,4.036
										c0.417,1.331,1.861,2.723,3.497,2.521c0.8-0.101,1.537-0.577,1.885-1.223c0.35-0.651,0.261-1.443,0.092-2.186
										c-0.163-0.748-0.378-1.505-0.338-2.266c0.002-0.75,0.404-1.517,1.002-1.833c1.197-0.656,2.291-0.232,2.876,0.001
										C246.652,291.618,246.96,291.82,246.944,291.857z"/>
								</g>
							</g>
						</g>
					</g>
				</g>
				<g>
					<g>
						<g>
							<g>
								<g>
									<path style="fill:#AA6550;" d="M238.12,298.139c0.031-0.009,0.159,0.331,0.009,0.94c-0.147,0.585-0.648,1.462-1.73,1.897
										c-1.058,0.424-2.568,0.234-3.726-0.726c-1.161-0.948-1.894-2.5-2.076-4.161c-0.181-1.671,0.208-3.294,0.934-4.548
										c0.721-1.269,1.75-2.137,2.685-2.673c0.944-0.54,1.804-0.76,2.395-0.846c0.595-0.082,0.927-0.046,0.929-0.008
										c0.029,0.125-1.345,0.141-3.083,1.25c-0.849,0.553-1.768,1.396-2.398,2.571c-0.638,1.164-0.976,2.657-0.81,4.183
										c0.165,1.518,0.823,2.926,1.811,3.768c0.977,0.851,2.271,1.061,3.183,0.752c0.926-0.309,1.443-1.034,1.642-1.539
										C238.094,298.477,238.063,298.14,238.12,298.139z"/>
								</g>
							</g>
						</g>
					</g>
				</g>
				<g>
					<g>
						<g>
							<g>
								<g>
									<path style="fill:#AA6550;" d="M250.646,307.927c-0.011-0.059,0.569-0.242,1.576-0.148
										c0.989,0.091,2.434,0.534,3.652,1.706l-0.536,0.221c-0.003-0.698,0.035-1.456,0.128-2.234
										c0.498-4.343,2.535-7.354,2.655-7.239c0.183,0.083-1.529,3.136-2.003,7.316c-0.09,0.753-0.136,1.485-0.151,2.161
										l-0.017,0.747l-0.52-0.527c-1.066-1.08-2.355-1.571-3.269-1.761C251.235,307.974,250.653,308.014,250.646,307.927z"/>
								</g>
							</g>
						</g>
					</g>
				</g>
				<g>
					<g>
						<g>
							<g>
								<g>
									<path style="fill:#AA6550;" d="M247.319,279.929c0.163,0.06-0.345,1.309-1.726,2.085c-1.374,0.788-2.707,0.583-2.675,0.412
										c-0.001-0.191,1.16-0.291,2.351-0.983C246.474,280.775,247.155,279.83,247.319,279.929z"/>
								</g>
							</g>
						</g>
					</g>
				</g>
			</g>
		</g>
		<g>
			<path style="fill:#FAFAFA;" d="M319.636,279.922c0.025,0.029-0.366,0.399-1.036,1.168c-0.637,0.776-1.676,1.937-2.32,3.724
				c-0.157,0.445-0.242,0.933-0.263,1.442c0.006,0.509,0.126,1.029,0.382,1.514c0.545,0.965,1.625,1.679,2.884,2.142
				c2.535,0.947,5.7,1.226,9.146,1.292c1.725,0.033,3.58,0.098,5.484,0.21c0.952,0.111,1.923,0.225,2.912,0.341
				c0.991,0.108,1.977,0.373,2.994,0.559c4.014,0.909,8.295,2.454,12.022,5.34c1.863,1.421,3.582,3.152,4.965,5.208
				c0.335,0.522,0.659,1.055,0.943,1.622c0.29,0.585,0.494,1.161,0.736,1.735c0.445,1.169,0.807,2.397,1.04,3.655
				c1,5.023,0.231,10.576-2.353,15.368c-2.609,4.813-7.041,8.303-11.818,10.091c-2.396,0.904-4.9,1.373-7.362,1.461
				c-2.474,0.078-4.872-0.363-7.115-0.867c-2.251-0.498-4.42-1.023-6.545-1.168c-2.116-0.145-4.184,0.153-5.94,1.048
				c-1.765,0.882-3.204,2.221-4.449,3.609c-1.246,1.4-2.307,2.871-3.356,4.267c-2.076,2.786-4.272,5.244-6.835,6.533
				c-1.259,0.637-2.588,1.014-3.811,0.996c-1.221,0.009-2.325-0.235-3.249-0.606c-0.927-0.372-1.672-0.88-2.23-1.409
				c-0.551-0.541-0.9-1.101-1.118-1.577c-0.409-0.97-0.352-1.536-0.352-1.536c0.066-0.014,0.089,0.546,0.541,1.444
				c0.238,0.44,0.597,0.952,1.14,1.442c0.55,0.478,1.273,0.932,2.165,1.257c1.759,0.652,4.273,0.819,6.644-0.527
				c2.404-1.268,4.491-3.661,6.515-6.457c1.023-1.398,2.079-2.904,3.345-4.359c1.266-1.443,2.759-2.873,4.662-3.848
				c1.898-0.993,4.164-1.332,6.388-1.192c2.235,0.138,4.451,0.664,6.691,1.144c2.242,0.489,4.527,0.894,6.882,0.81
				c2.349-0.095,4.742-0.55,7.032-1.422c4.568-1.726,8.786-5.064,11.263-9.636c2.461-4.562,3.209-9.88,2.265-14.677
				c-0.219-1.205-0.558-2.367-0.983-3.495c-0.233-0.559-0.438-1.138-0.69-1.645c-0.26-0.522-0.563-1.026-0.876-1.519
				c-1.301-1.949-2.936-3.619-4.719-4.993c-3.564-2.796-7.709-4.334-11.628-5.259c-0.994-0.19-1.956-0.461-2.928-0.576
				c-0.971-0.124-1.923-0.246-2.857-0.365c-1.884-0.131-3.676-0.217-5.429-0.275c-3.489-0.117-6.696-0.44-9.343-1.487
				c-1.308-0.513-2.497-1.308-3.107-2.449c-0.286-0.571-0.407-1.182-0.395-1.756c0.037-0.57,0.15-1.1,0.332-1.568
				c0.747-1.873,1.853-2.986,2.549-3.732C319.174,280.216,319.615,279.896,319.636,279.922z"/>
		</g>
		<g>
			<path style="fill:#FAFAFA;" d="M395.706,346.598c-0.05,0.012-0.299-0.774-0.479-2.249c-0.193-1.472-0.17-3.662,0.416-6.27
				c0.571-2.611,1.852-5.588,3.882-8.484c2.042-2.882,4.884-5.647,8.399-7.745c3.526-2.055,7.239-3.326,10.676-4.032
				c3.442-0.719,6.604-0.937,9.245-0.951c2.644-0.014,4.776,0.144,6.24,0.315c1.464,0.171,2.266,0.328,2.259,0.394
				c-0.014,0.185-3.259-0.174-8.48,0.027c-2.606,0.107-5.708,0.399-9.061,1.153c-3.349,0.741-6.941,2.004-10.351,3.991
				c-3.377,2.017-6.137,4.658-8.149,7.409c-1.999,2.765-3.305,5.601-3.946,8.102c-0.655,2.498-0.793,4.615-0.726,6.065
				C395.685,345.773,395.797,346.583,395.706,346.598z"/>
		</g>
		<g>
			<path style="fill:#FAFAFA;" d="M450.348,363.981c0.05,0.037-0.338,0.684-1.175,1.758c-0.833,1.077-2.168,2.544-4.027,4.132
				c-1.855,1.59-4.28,3.25-7.21,4.643c-2.923,1.396-6.369,2.476-10.092,2.944c-3.728,0.432-7.333,0.202-10.505-0.458
				c-3.177-0.656-5.928-1.691-8.108-2.795c-2.184-1.1-3.829-2.208-4.894-3.055c-1.068-0.845-1.599-1.38-1.559-1.428
				c0.12-0.167,2.406,1.827,6.77,3.818c4.308,1.998,10.919,3.755,18.172,2.884c7.25-0.88,13.253-4.158,16.961-7.123
				C448.445,366.329,450.192,363.848,450.348,363.981z"/>
		</g>
		<g>
			<path style="fill:#FAFAFA;" d="M400.124,360.783c0.01,0.044-0.321,0.137-0.912,0.373c-0.59,0.233-1.435,0.681-2.288,1.524
				c-0.85,0.846-1.659,2.099-2.304,3.693c-0.639,1.595-1.161,3.507-1.606,5.643c-0.457,2.137-0.813,4.537-1.628,7.048
				c-0.417,1.249-0.957,2.525-1.73,3.726c-0.781,1.192-1.758,2.309-2.916,3.258c-2.301,1.929-5.187,3.271-8.262,4.177
				c-3.08,0.912-6.344,1.414-9.617,2.055c-6.541,1.208-12.534,3.634-17.096,7.121c-2.285,1.725-4.196,3.697-5.697,5.743
				c-1.471,2.071-2.536,4.213-3.251,6.255c-1.412,4.112-1.416,7.731-1.056,10.121c0.361,2.409,0.905,3.675,0.802,3.71
				c-0.033,0.013-0.178-0.295-0.425-0.899c-0.135-0.299-0.254-0.684-0.387-1.142c-0.152-0.454-0.272-0.992-0.391-1.603
				c-0.492-2.421-0.609-6.15,0.757-10.421c0.693-2.121,1.752-4.354,3.246-6.522c1.527-2.145,3.477-4.203,5.818-6.005
				c4.666-3.639,10.834-6.155,17.478-7.381c3.306-0.646,6.535-1.138,9.532-2.012c2.984-0.864,5.754-2.139,7.936-3.937
				c1.1-0.885,2.019-1.918,2.76-3.019c0.733-1.109,1.261-2.308,1.679-3.502c0.819-2.402,1.22-4.782,1.727-6.93
				c0.499-2.156,1.077-4.084,1.79-5.712c0.717-1.625,1.619-2.914,2.561-3.759c0.945-0.844,1.866-1.252,2.496-1.427
				C399.774,360.78,400.12,360.758,400.124,360.783z"/>
		</g>
		<g>
			<path style="fill:#FAFAFA;" d="M373.327,356.611c0.04-0.019,0.411,0.668,0.52,2.046c0.114,1.355-0.183,3.458-1.596,5.533
				c-0.71,1.016-1.687,2.041-3.012,2.734c-0.648,0.371-1.393,0.608-2.168,0.788c-0.784,0.131-1.609,0.197-2.443,0.101
				c-1.667-0.172-3.356-0.832-4.801-1.943c-1.431-1.113-2.624-2.723-3.097-4.637c-0.3-1.22-0.324-2.49-0.048-3.685
				c0.261-1.209,0.926-2.273,1.595-3.135c0.677-0.886,1.399-1.694,2.195-2.397c0.395-0.353,0.813-0.677,1.272-0.951
				c0.458-0.266,0.952-0.518,1.568-0.548l0.134,0.893c-0.171,0.043-0.333,0.083-0.495,0.124l-0.248-0.861
				c2.014-0.579,3.986-0.32,5.511,0.299c1.554,0.591,2.694,1.536,3.478,2.404c0.783,0.884,1.202,1.722,1.423,2.303
				C373.316,356.272,373.367,356.6,373.327,356.611c-0.134,0.062-0.434-1.29-2.016-2.874c-0.791-0.765-1.898-1.589-3.354-2.077
				c-1.43-0.518-3.225-0.683-4.988-0.132l-0.248-0.862c0.16-0.044,0.322-0.088,0.492-0.135l0.134,0.893
				c-0.704,0.067-1.529,0.665-2.233,1.309c-0.723,0.658-1.404,1.44-2.033,2.282c-0.642,0.853-1.175,1.732-1.394,2.763
				c-0.231,1.024-0.21,2.134,0.053,3.203c0.41,1.658,1.443,3.075,2.715,4.084c1.283,1.003,2.795,1.615,4.278,1.793
				c0.743,0.099,1.472,0.051,2.169-0.047c0.686-0.147,1.351-0.335,1.937-0.653c1.2-0.585,2.122-1.488,2.814-2.398
				c1.378-1.861,1.778-3.804,1.789-5.094C373.461,357.357,373.232,356.636,373.327,356.611z"/>
		</g>
		<g>
			<path style="fill:#263238;" d="M308.804,323.948c0.009,0.001,0.012,0.092,0.009,0.269c-0.007,0.207-0.015,0.465-0.025,0.785
				c-0.036,0.729-0.085,1.738-0.148,3.016c-0.156,2.617-0.313,6.408-0.522,11.091c-0.392,9.367-0.775,22.314-1.078,36.616
				c-0.307,14.307-0.494,27.261-0.628,36.637c-0.071,4.657-0.128,8.44-0.169,11.103c-0.027,1.279-0.049,2.289-0.065,3.019
				c-0.012,0.32-0.021,0.578-0.029,0.785c-0.009,0.177-0.019,0.268-0.028,0.267c-0.009,0-0.018-0.091-0.026-0.267
				c-0.006-0.207-0.013-0.465-0.022-0.785c-0.008-0.73-0.019-1.74-0.033-3.019c0.001-2.664,0.002-6.447,0.003-11.106
				c0.04-9.378,0.169-22.334,0.476-36.644c0.303-14.305,0.744-27.255,1.231-36.622c0.256-4.683,0.469-8.472,0.687-11.087
				c0.104-1.276,0.186-2.282,0.246-3.01c0.031-0.319,0.057-0.576,0.077-0.782C308.78,324.038,308.795,323.948,308.804,323.948z"/>
		</g>
		<g style="opacity:0.2;">
			<path d="M289.69,416.931c5.578,2.668,12.874-2.458,15.724-7.945c0,0,1.489-12.096,1.282-18.276
				c-0.384-11.441,0.452-22.768,0.067-34.209c-0.863,6.806-3.735,13.345-8.164,18.584c-1.224,1.448-2.611,2.885-3.068,4.726
				c-0.818,3.297,1.702,9.234,3.321,12.22c4.957,9.139-5.899,24.963-8.8,24.667"/>
		</g>
		<g style="opacity:0.2;">
			<path d="M394.117,342.282c1.827,22.801,3.654,45.603,5.481,68.404c0.172,2.154,0.355,4.351,1.202,6.338
				c0.846,1.988,2.487,3.766,4.604,4.197c3.241,0.66,6.383-2.128,7.298-5.307c0.915-3.179,0.185-6.575-0.611-9.785
				c-1.356-5.47-2.894-10.892-4.432-16.313c-4.462-15.728-8.925-31.455-13.387-47.183"/>
		</g>
		<g>
			<path style="fill:#FAFAFA;" d="M331.445,459.072c-0.114-0.064,0.95-1.144,1.521-3.631c0.566-2.466,0.211-6.286-1.701-10.425
				c-0.944-2.066-2.273-4.212-3.613-6.578c-1.326-2.364-2.732-4.997-3.386-8.08c-0.674-3.086-0.289-6.474,0.708-9.677
				c0.979-3.224,2.441-6.354,3.62-9.633c2.502-6.502,2.374-13.435,0.499-19.125c-0.922-2.856-2.249-5.41-3.791-7.588
				c-1.557-2.169-3.31-3.966-5.056-5.424c-3.53-2.897-6.976-4.421-9.39-5.237c-2.429-0.814-3.847-1.033-3.829-1.129
				c0.006-0.035,0.362-0.003,1.038,0.091c0.674,0.098,1.667,0.287,2.913,0.652c2.485,0.708,6.05,2.155,9.731,5.051
				c1.821,1.458,3.656,3.274,5.293,5.491c1.622,2.225,3.024,4.852,4.003,7.795c0.973,2.941,1.537,6.189,1.502,9.567
				c0.009,3.375-0.703,6.877-1.933,10.208c-1.203,3.34-2.662,6.452-3.624,9.579c-0.98,3.113-1.349,6.281-0.744,9.185
				c0.588,2.912,1.915,5.491,3.201,7.853c1.297,2.368,2.6,4.547,3.531,6.699c1.88,4.289,2.138,8.278,1.423,10.818
				c-0.336,1.278-0.869,2.166-1.233,2.743C331.709,458.826,331.472,459.093,331.445,459.072z"/>
		</g>
		<g>
			<path style="fill:#FAFAFA;" d="M425.318,294.561c0.05,0.022-0.191,0.784-0.97,1.991c-0.769,1.203-2.172,2.808-4.342,4.213
				c-2.15,1.414-5.121,2.538-8.525,2.82c-3.402,0.303-7.172-0.205-10.892-1.39c-3.721-1.178-7.111-3.032-9.506-5.518
				c-1.19-1.234-2.148-2.597-2.772-4.004c-0.622-1.404-0.957-2.807-1.077-4.1c-0.239-2.601,0.407-4.703,1.111-5.951
				c0.162-0.323,0.344-0.587,0.507-0.812c0.152-0.231,0.301-0.411,0.435-0.546c0.257-0.278,0.402-0.41,0.43-0.386
				c0.077,0.061-0.444,0.66-1.007,1.923c-0.564,1.248-1.059,3.252-0.743,5.693c0.158,1.213,0.515,2.521,1.128,3.817
				c0.612,1.293,1.531,2.545,2.672,3.693c2.289,2.305,5.532,4.058,9.138,5.199c3.612,1.15,7.242,1.664,10.5,1.425
				c3.263-0.221,6.1-1.213,8.213-2.489c2.125-1.266,3.554-2.727,4.401-3.824C424.875,295.217,425.239,294.521,425.318,294.561z"/>
		</g>
		<g>
			<path style="fill:#263238;" d="M411.629,402.133c-0.009,0.002-0.044-0.093-0.106-0.281c-0.067-0.217-0.153-0.493-0.26-0.838
				c-0.228-0.775-0.546-1.858-0.951-3.236c-0.814-2.852-1.975-6.918-3.404-11.926c-2.835-10.115-6.734-24.03-11.042-39.4
				c-2.135-7.701-4.167-15.035-6.018-21.711c-0.916-3.34-1.717-6.55-2.13-9.62c-0.42-3.065-0.445-5.982-0.026-8.592
				c0.866-5.247,3.443-8.971,5.656-10.882c1.111-0.977,2.126-1.526,2.808-1.887c0.334-0.141,0.601-0.255,0.81-0.343
				c0.184-0.074,0.279-0.107,0.283-0.099c0.049,0.077-1.582,0.531-3.765,2.48c-2.14,1.929-4.622,5.623-5.428,10.789
				c-0.388,2.567-0.344,5.445,0.091,8.475c0.427,3.035,1.237,6.221,2.165,9.552c1.863,6.673,3.909,14.003,6.057,21.699
				c4.25,15.386,8.098,29.316,10.895,39.441c1.363,5.027,2.469,9.108,3.245,11.971c0.365,1.389,0.652,2.481,0.857,3.262
				c0.087,0.351,0.156,0.632,0.21,0.852C411.619,402.031,411.638,402.131,411.629,402.133z"/>
		</g>
		<g>
			<path style="fill:#455A64;" d="M370.905,180.683c-0.068-0.007,0.183-0.771,0.009-2.14c-0.171-1.346-0.932-3.316-2.765-4.967
				c-1.78-1.697-4.711-2.71-7.962-2.629c-3.272,0.027-6.75,1.102-10.345,2.313c-1.807,0.595-3.587,1.163-5.355,1.554
				c-1.769,0.382-3.511,0.588-5.172,0.629c-3.329,0.1-6.309-0.442-8.712-1.146c-2.403-0.731-4.238-1.623-5.453-2.312
				c-0.613-0.339-1.067-0.637-1.37-0.846c-0.305-0.206-0.46-0.321-0.45-0.337c0.029-0.046,0.675,0.378,1.916,1.004
				c1.236,0.629,3.074,1.46,5.459,2.137c2.385,0.65,5.324,1.145,8.595,1.02c1.633-0.053,3.34-0.265,5.075-0.647
				c1.736-0.391,3.498-0.956,5.303-1.55c3.589-1.209,7.14-2.297,10.502-2.299c3.337-0.061,6.399,1.035,8.218,2.839
				c1.87,1.75,2.603,3.819,2.716,5.214C371.23,179.94,370.905,180.683,370.905,180.683z"/>
		</g>
		<g>
			<path style="fill:#455A64;" d="M384.656,210.571c-0.016,0.008-0.096-0.12-0.233-0.372c-0.142-0.25-0.327-0.63-0.55-1.127
				c-0.443-0.995-0.995-2.483-1.409-4.396c-0.402-1.91-0.656-4.25-0.456-6.837c0.163-2.599,0.971-5.342,1.578-8.216
				c0.629-2.864,0.775-5.717,0.016-8.128c-0.364-1.199-0.957-2.253-1.694-3.08c-0.742-0.809-1.65-1.362-2.541-1.666
				c-1.8-0.634-3.424-0.348-4.365,0.111c-0.95,0.485-1.314,0.997-1.358,0.952c0,0,0.299-0.565,1.265-1.132
				c0.956-0.538,2.662-0.903,4.576-0.28c0.948,0.299,1.928,0.864,2.742,1.725c0.796,0.863,1.438,1.974,1.833,3.227
				c0.821,2.513,0.673,5.481,0.036,8.378c-0.616,2.911-1.426,5.611-1.61,8.149c-0.222,2.533-0.012,4.834,0.339,6.725
				c0.362,1.893,0.854,3.381,1.235,4.392C384.442,210.007,384.698,210.551,384.656,210.571z"/>
		</g>
		<g>
			<path style="fill:#455A64;" d="M372.603,179.255c-0.018-0.002-0.014-0.246,0.007-0.71c0.019-0.516,0.044-1.189,0.076-2.028
				c0.018-1.747,0.074-4.342-0.817-7.345c-0.456-1.485-1.202-3.055-2.363-4.461c-1.148-1.403-2.762-2.629-4.741-3.133
				c-1.969-0.537-4.184-0.348-6.329,0.259c-2.16,0.609-4.24,1.686-6.329,2.869c-2.091,1.18-4.137,2.382-6.275,3.229
				c-2.147,0.825-4.357,1.257-6.468,1.299c-2.11,0.047-4.118-0.224-5.923-0.727c-1.804-0.512-3.412-1.21-4.805-1.98
				c-2.768-1.59-4.603-3.466-5.689-4.857c-0.561-0.689-0.921-1.276-1.154-1.681c-0.24-0.4-0.358-0.613-0.342-0.622
				c0.016-0.009,0.164,0.187,0.43,0.566c0.259,0.385,0.644,0.948,1.223,1.61c1.123,1.336,2.969,3.141,5.711,4.662
				c1.38,0.736,2.966,1.4,4.739,1.885c1.774,0.476,3.739,0.724,5.798,0.665c2.061-0.054,4.202-0.484,6.292-1.293
				c2.088-0.833,4.11-2.024,6.209-3.209c2.093-1.185,4.221-2.285,6.445-2.906c2.207-0.618,4.517-0.811,6.592-0.232
				c2.088,0.546,3.777,1.856,4.951,3.323c1.19,1.473,1.936,3.098,2.381,4.629c0.865,3.088,0.745,5.705,0.666,7.458
				c-0.052,0.883-0.121,1.566-0.174,2.028C372.66,179.015,372.621,179.256,372.603,179.255z"/>
		</g>
		<g>
			<g>
				<g>
					<path style="fill:#B78876;" d="M346.19,429.299l74.783-11.154l-1.208-6.651h40.25l1.179,10.231
						c3.646,18.958-10.768,36.589-30.073,36.785l-87.222-0.968L346.19,429.299z"/>
					<g>
						<path style="fill:#B78876;" d="M351.586,430.585c-0.4,0.133-5.438-2.125-9.95-4.213c-4.791-2.216-10.046-3.237-15.318-2.969
							l-20.792,1.057c0,0,1.284,3.431,3.489,4.65c2.205,1.22,15.131,1.481,15.131,1.481l-0.662,0.681
							c-2.725,2.805-6.44,4.431-10.349,4.529l-1.986,0.05c-1.474-0.117-2.93-0.401-4.34-0.848l-5.128-2.073
							c-1.552-0.7-3.191-0.586-3.866,0.977c-0.611,1.414-0.163,3.361,4.071,5.494c2.367,1.192,11.142,4.226,11.142,4.226
							s0.128,2.426,0.511,3.703c0.383,1.277,3.831,2.554,3.831,2.554s2.171,4.47,3.065,5.491c0.401,0.458,3.523,1.429,6.845,2.362
							c5.364,1.506,11.045,1.47,16.383-0.124l7.924-2.366v-24.135"/>
					</g>
				</g>
				<g>
					<path style="fill:#AA6550;" d="M323.145,446.354c-0.01,0.134-2.476,0.007-5.406-0.77c-2.935-0.766-5.143-1.868-5.086-1.99
						c0.06-0.141,2.328,0.732,5.219,1.486C320.757,445.845,323.162,446.201,323.145,446.354z"/>
				</g>
				<g>
					<path style="fill:#AA6550;" d="M322.413,451.223c0.001,0.137-1.342,0.222-2.924-0.212c-1.585-0.426-2.7-1.18-2.63-1.297
						c0.071-0.133,1.249,0.388,2.766,0.794C321.14,450.925,322.42,451.072,322.413,451.223z"/>
				</g>
				<g>
					<path style="fill:#AA6550;" d="M440.728,435.587c-0.095,0.035-0.591-1.446-1.791-3.637c-0.591-1.099-1.402-2.347-2.394-3.662
						c-1.016-1.296-2.227-2.648-3.634-3.926c-1.423-1.262-2.897-2.321-4.295-3.192c-1.414-0.845-2.742-1.518-3.898-1.987
						c-2.307-0.957-3.833-1.291-3.808-1.389c0.008-0.035,0.391,0.03,1.082,0.179c0.347,0.069,0.768,0.168,1.245,0.325
						c0.478,0.151,1.034,0.298,1.617,0.543c1.19,0.432,2.557,1.08,4.009,1.918c1.436,0.863,2.947,1.93,4.396,3.216
						c1.434,1.302,2.657,2.689,3.669,4.024c0.988,1.353,1.78,2.643,2.337,3.779c0.306,0.554,0.512,1.09,0.714,1.55
						c0.207,0.457,0.351,0.865,0.457,1.203C440.656,435.201,440.762,435.575,440.728,435.587z"/>
				</g>
			</g>
			<g>
				<path style="fill:#AA6550;" d="M326.211,428.715c0.046,0.048-0.549,0.72-1.606,1.715c-1.061,0.986-2.598,2.303-4.53,3.43
					c-1.934,1.126-3.883,1.759-5.309,2.049c-1.431,0.29-2.334,0.312-2.341,0.253c-0.049-0.19,3.604-0.525,7.389-2.753
					c1.883-1.098,3.433-2.348,4.548-3.256C325.474,429.237,326.158,428.659,326.211,428.715z"/>
			</g>
		</g>
	</g>
</g>
<g id="Character_1_1_">
	<g>
		<path style="fill:#E8505B;" d="M111.077,404.972c1.783,0-13.62,41.376-17.585,51.945c-0.439,1.171-0.746,2.201-0.746,2.201
			l107.823,0.186l-1.271-100.323c-0.001-0.066-0.005-0.132-0.014-0.198l-9.018-71.762c-0.089-0.712-0.596-1.299-1.289-1.487
			c-4.269-1.158-19.653-5.128-31.423-5.564c-13.799-0.511-33.752,2.226-33.752,2.226s-17.904,1.847-27.758,5.401
			c-0.791,0.285-1.272,1.081-1.156,1.914L111.077,404.972z"/>
		<g>
			<path style="fill:#263238;" d="M160.872,360.504c0.033,0.015-0.16,0.477-0.54,1.303c-0.183,0.417-0.424,0.918-0.758,1.472
				c-0.327,0.557-0.665,1.214-1.144,1.873c-0.452,0.677-0.957,1.413-1.575,2.146c-0.576,0.768-1.29,1.503-2.021,2.294
				c-1.522,1.525-3.332,3.07-5.407,4.447c-2.092,1.352-4.233,2.395-6.239,3.18c-1.018,0.354-1.977,0.715-2.911,0.936
				c-0.919,0.273-1.796,0.442-2.597,0.586c-0.796,0.176-1.533,0.223-2.174,0.3c-0.641,0.085-1.197,0.105-1.652,0.107
				c-0.909,0.018-1.409,0.011-1.41-0.025c-0.006-0.115,2.01-0.102,5.166-0.743c0.788-0.165,1.648-0.352,2.549-0.64
				c0.916-0.236,1.857-0.607,2.855-0.968c1.967-0.799,4.067-1.837,6.127-3.168c2.043-1.356,3.833-2.865,5.351-4.349
				c0.73-0.771,1.446-1.484,2.028-2.23c0.624-0.711,1.14-1.425,1.605-2.081C159.975,362.306,160.769,360.453,160.872,360.504z"/>
		</g>
		<g style="opacity:0.2;">
			<path d="M96.407,449.098c10.204,4.331,21.963,2.643,30.934-3.869c3.888-2.823,7.151-6.513,11.346-8.854
				c5.818-3.247,12.754-3.554,19.4-4.029c8.896-0.635,17.86-1.726,26.223-4.824c1.695-0.628,3.427-1.385,4.585-2.772
				c1.158-1.387,1.546-3.577,0.415-4.987c-1.155-1.441-3.281-1.521-5.127-1.467c-27.884,0.822-53.363,3.058-80.504,9.507"/>
		</g>
		<path style="fill:#263238;" d="M126.458,176.756c8.618-8.774,22.219-13.954,33.486-9.024c7.575,3.315,12.714,10.424,19.363,15.339
			c4.842,3.58,10.825,6.346,13.363,11.808c2.237,4.815,1.158,10.418,0.618,15.7c-0.54,5.281-0.162,11.373,3.929,14.758
			c2.148,1.777,4.972,2.479,7.391,3.865c4.869,2.79,7.762,8.219,8.805,13.733c1.043,5.514,0.48,11.19-0.086,16.773l-23.208,4.422
			l-3.812-6.412l-1.329,10.08l-29.618,2.673L126.458,176.756z"/>
		<g>
			<g>
				<g>
					<g>
						<g>
							<g>
								<g>
									<g>
										<g>
											<g>
												<g>
													<path style="fill:#FFBE9D;" d="M122.63,186.335l-0.05,6.457l-1.826,96.805c-0.159,11.221,10.577,20.775,22.593,20.853
														l0,0c12.135,0.079,17.085-9.038,17.433-20.37c0.365-11.895,0.967-24.41,0.967-24.41s15.395-2.122,19.121-22.028
														c1.853-9.899,1.803-26.216,1.331-39.566c-0.425-12.015-10.758-21.26-22.745-20.325L122.63,186.335z"/>
												</g>
											</g>
										</g>
									</g>
								</g>
								<g>
									<g>
										<g>
											<g>
												<g>
													<g>
														<path style="fill:#263238;" d="M176.924,216.936c0.011,1.355-1.129,2.482-2.544,2.519
															c-1.413,0.037-2.569-1.029-2.579-2.385c-0.01-1.355,1.128-2.483,2.541-2.52
															C175.757,214.512,176.914,215.58,176.924,216.936z"/>
													</g>
												</g>
											</g>
										</g>
									</g>
									<g>
										<g>
											<g>
												<g>
													<g>
														<g>
															<path style="fill:#263238;" d="M178.427,212.46c-0.327,0.325-2.23-1.166-4.99-1.234
																c-2.755-0.108-4.819,1.255-5.109,0.909c-0.143-0.154,0.197-0.748,1.097-1.366c0.886-0.615,2.383-1.196,4.102-1.142
																c1.718,0.057,3.147,0.729,3.96,1.4C178.317,211.702,178.588,212.314,178.427,212.46z"/>
														</g>
													</g>
												</g>
											</g>
										</g>
									</g>
								</g>
								<g>
									<g>
										<g>
											<g>
												<g>
													<g>
														<path style="fill:#263238;" d="M149.744,216.936c0.011,1.355-1.129,2.482-2.544,2.519
															c-1.413,0.037-2.569-1.029-2.579-2.385c-0.011-1.355,1.128-2.484,2.541-2.521
															C148.577,214.512,149.733,215.58,149.744,216.936z"/>
													</g>
												</g>
											</g>
										</g>
									</g>
									<g>
										<g>
											<g>
												<g>
													<g>
														<g>
															<path style="fill:#263238;" d="M151.291,212.227c-0.328,0.325-2.233-1.165-4.99-1.234
																c-2.755-0.108-4.82,1.255-5.11,0.909c-0.142-0.153,0.195-0.748,1.098-1.366c0.885-0.616,2.383-1.196,4.101-1.142
																c1.719,0.057,3.147,0.73,3.961,1.4C151.178,211.469,151.451,212.081,151.291,212.227z"/>
														</g>
													</g>
												</g>
											</g>
										</g>
									</g>
								</g>
								<g>
									<g>
										<g>
											<g>
												<g>
													<g>
														<path style="fill:#263238;" d="M160.74,232.966c-0.009-0.157,1.715-0.406,4.504-0.685
															c0.706-0.053,1.377-0.175,1.509-0.653c0.18-0.505-0.094-1.272-0.413-2.101c-0.615-1.723-1.259-3.529-1.936-5.422
															c-2.683-7.719-4.604-14.058-4.293-14.163c0.312-0.105,2.74,6.065,5.423,13.784c0.644,1.903,1.261,3.717,1.847,5.452
															c0.245,0.808,0.678,1.729,0.29,2.775c-0.204,0.521-0.732,0.889-1.187,0.998c-0.456,0.125-0.852,0.122-1.201,0.133
															C162.482,233.158,160.746,233.123,160.74,232.966z"/>
													</g>
												</g>
											</g>
										</g>
									</g>
								</g>
								<g>
									<g>
										<g>
											<g>
												<g>
													<path style="fill:#EB996E;" d="M161.746,265.67c0,0-13.475,0.496-26.58-7.882c0,0,6.117,13.914,26.18,12.595
														L161.746,265.67z"/>
												</g>
											</g>
										</g>
									</g>
								</g>
								<g>
									<g>
										<g>
											<g>
												<g>
													<path style="fill:#EB996E;" d="M159.39,239.583c-0.956-1.339-2.675-2.108-4.406-1.969
														c-1.201,0.096-2.427,0.64-3.181,1.595c-0.754,0.955-0.945,2.335-0.309,3.283c0.715,1.067,2.265,1.352,3.592,1.014
														c1.328-0.338,2.485-1.174,3.585-2.008c0.304-0.231,0.616-0.472,0.811-0.794c0.195-0.322,0.246-0.75,0.024-1.027"/>
												</g>
											</g>
										</g>
									</g>
								</g>
								<g>
									<g>
										<g>
											<g>
												<g>
													<g>
														<path style="fill:#263238;" d="M152.567,234.651c0.45-0.014,0.373,2.981,2.878,5.178
															c2.5,2.203,5.702,1.955,5.714,2.375c0.037,0.188-0.727,0.562-2.075,0.561c-1.323,0.009-3.242-0.469-4.774-1.812
															c-1.528-1.347-2.153-3.105-2.221-4.337C152.008,235.36,152.363,234.628,152.567,234.651z"/>
													</g>
												</g>
											</g>
										</g>
									</g>
								</g>
							</g>
						</g>
					</g>
					<g>
						<g>
							<g>
								<g>
									<g>
										<path style="fill:#263238;" d="M152.167,204.201c-0.293,0.743-3.038,0.311-6.286,0.612
											c-3.254,0.236-5.891,1.111-6.302,0.427c-0.183-0.327,0.292-1.02,1.367-1.718c1.066-0.696,2.755-1.339,4.704-1.503
											c1.949-0.159,3.72,0.199,4.886,0.711C151.712,203.242,152.294,203.848,152.167,204.201z"/>
									</g>
								</g>
							</g>
						</g>
					</g>
					<g>
						<g>
							<g>
								<g>
									<g>
										<path style="fill:#263238;" d="M178.53,206.886c-0.608,0.61-2.904-0.104-5.685-0.211
											c-2.777-0.188-5.149,0.279-5.674-0.391c-0.228-0.325,0.16-0.943,1.206-1.507c1.03-0.564,2.74-1,4.651-0.899
											c1.91,0.103,3.551,0.716,4.501,1.385C178.494,205.933,178.799,206.587,178.53,206.886z"/>
									</g>
								</g>
							</g>
						</g>
					</g>
				</g>
			</g>
		</g>
		<path style="fill:#E8505B;" d="M101.995,285.767c0,0-32.159,7.546-38.396,38.042c-2.866,14.013-6.882,94.475,11.862,106.974
			c24.193,16.133,54.945,1.452,54.945,1.452l-3.949-38.919h-19.967l-2.694-42.637C104.548,353.95,101.995,285.767,101.995,285.767z"
			/>
		<path style="fill:#E8505B;" d="M216.399,419.712c6.234-0.639,12.182-3.737,16.279-8.479c4.097-4.742,6.3-11.076,6.029-17.337
			l-13.134-55.822c0,0-8.518-47.906-35.454-52.224l9.177,73.032l-0.875,15.39c0,0,0.417,10.182,1.452,29.258L216.399,419.712z"/>
		<g>
			<path style="fill:#263238;" d="M219.884,384.78c0.002,0.113-1.898-0.09-4.849,0.532c-2.921,0.595-6.924,2.236-10.145,5.517
				c-3.216,3.289-4.773,7.325-5.308,10.258c-0.561,2.963-0.319,4.858-0.432,4.858c-0.029,0.003-0.109-0.463-0.153-1.315
				c-0.047-0.852-0.016-2.095,0.223-3.608c0.45-3.002,1.99-7.174,5.299-10.558c3.314-3.377,7.453-5.002,10.445-5.514
				c1.508-0.27,2.75-0.327,3.602-0.297C219.419,384.681,219.886,384.751,219.884,384.78z"/>
		</g>
		<path style="fill:#263238;" d="M136.91,174.525c3.622,4.862,5.343,8.597,7.514,17.243c1.063,4.235-2.38,7.225-5.8,9.811
			c-1.603,1.212-3.921,0.365-4.359-1.596l0,0c0,0,1.188,13.25-3.603,19.19c-2.246,2.785-2.341,6.357-1.808,9.367
			c0.544,3.074,2.128,5.84,4.279,8.103c5.554,5.84,7.097,15.365,3.265,22.527c-0.981,1.834-2.262,3.513-3.045,5.44
			c-0.448,1.103-0.71,2.336-0.638,3.517c0.088,1.458-0.916,2.749-2.362,2.959c-16.439,2.385-33.15,2.888-49.702,1.494
			c-1.165-0.098-2.164-0.923-2.433-2.06c-1.297-5.49,0.866-11.477,3.641-16.533c3.099-5.646,7.044-11.063,8.11-17.414
			c1.004-5.977-0.628-12.422,1.773-17.987c2.947-6.83,10.958-10.059,14.969-16.324c3.784-5.911,3.48-13.662,6.87-19.807
			C117.935,174.565,128.651,170.922,136.91,174.525"/>
		<path style="fill:#263238;" d="M137.833,181.864c6.289,3.233,9.195,10.924,15.304,14.485c5.564,3.243,12.507,2.387,18.876,1.43
			c-0.236-1.413-0.473-2.825-0.709-4.238c0.645,1.239,1.312,2.507,2.36,3.431c1.048,0.923,2.575,1.438,3.871,0.916
			c2.136-0.861,2.42-3.8,1.872-6.037c-0.879-3.583-2.971-6.788-5.559-9.417c-4.704-4.777-11.161-7.789-17.844-8.323
			c-6.683-0.534-13.536,1.414-18.94,5.383"/>
		<g>
			<path style="fill:#263238;" d="M196.804,324.214c0.018,0,0.038,0.271,0.059,0.786c0.017,0.564,0.04,1.314,0.069,2.253
				c0.039,1.956,0.137,4.786,0.286,8.28c0.287,6.99,0.94,16.634,1.728,27.283c0.788,10.653,1.383,20.311,1.576,27.312
				c0.102,3.5,0.144,6.333,0.121,8.291c-0.012,0.94-0.022,1.69-0.029,2.254c-0.012,0.515-0.028,0.786-0.046,0.786
				c-0.018,0-0.038-0.271-0.06-0.786c-0.017-0.564-0.04-1.313-0.069-2.252c-0.039-1.956-0.137-4.785-0.286-8.28
				c-0.287-6.99-0.94-16.634-1.728-27.288c-0.787-10.649-1.383-20.306-1.576-27.307c-0.102-3.5-0.144-6.333-0.121-8.292
				c0.012-0.94,0.022-1.69,0.029-2.255C196.771,324.484,196.786,324.214,196.804,324.214z"/>
		</g>
		<g>
			<path style="fill:#263238;" d="M106.491,393.316c-0.018,0-0.042-0.192-0.072-0.559c-0.028-0.425-0.062-0.956-0.104-1.605
				c-0.082-1.467-0.193-3.467-0.329-5.905c-0.284-4.986-0.722-11.87-1.241-19.472c-0.526-7.571-1.003-14.422-1.354-19.47
				c-0.16-2.437-0.292-4.436-0.388-5.902c-0.033-0.65-0.061-1.181-0.083-1.607c-0.013-0.368-0.012-0.562,0.006-0.563
				c0.018-0.001,0.052,0.189,0.099,0.554c0.048,0.423,0.107,0.952,0.18,1.599c0.137,1.464,0.325,3.458,0.553,5.89
				c0.438,4.976,0.988,11.856,1.506,19.464c0.52,7.604,0.899,14.497,1.089,19.49c0.088,2.497,0.154,4.518,0.164,5.915
				c0.003,0.651,0.005,1.184,0.007,1.609C106.52,393.122,106.509,393.316,106.491,393.316z"/>
		</g>
		<g>
			<path style="fill:#263238;" d="M106.491,393.316c0.009,0.093-1.044,0.139-2.618,0.67c-1.562,0.516-3.648,1.631-5.275,3.559
				c-1.625,1.931-2.371,4.176-2.615,5.803c-0.257,1.641-0.124,2.686-0.217,2.693c-0.032,0.004-0.1-0.251-0.155-0.724
				c-0.056-0.473-0.078-1.166,0.007-2.017c0.156-1.69,0.876-4.063,2.582-6.09c1.708-2.024,3.925-3.135,5.564-3.575
				c0.825-0.228,1.511-0.324,1.987-0.348C106.226,393.261,106.489,393.284,106.491,393.316z"/>
		</g>
		<g>
			<path style="fill:#263238;" d="M130.407,432.235c-0.018,0.002-0.057-0.21-0.115-0.616c-0.06-0.461-0.136-1.049-0.229-1.776
				c-0.184-1.611-0.437-3.829-0.747-6.54c-0.587-5.587-1.385-13.193-2.268-21.597c-0.293-2.921-0.576-5.744-0.839-8.365l0.249,0.225
				c-6.411-0.037-11.965-0.069-15.993-0.092c-1.932-0.03-3.495-0.055-4.643-0.073c-0.5-0.017-0.91-0.03-1.241-0.041
				c-0.282-0.014-0.429-0.029-0.429-0.044c0-0.015,0.147-0.029,0.429-0.044c0.332-0.011,0.741-0.025,1.241-0.041
				c1.149-0.018,2.712-0.043,4.643-0.073c4.028-0.023,9.582-0.055,15.993-0.092l0.226-0.001l0.023,0.227
				c0.269,2.62,0.559,5.443,0.859,8.363c0.823,8.41,1.569,16.022,2.116,21.612c0.241,2.719,0.439,4.942,0.582,6.557
				c0.054,0.73,0.098,1.322,0.132,1.785C130.421,432.018,130.425,432.233,130.407,432.235z"/>
		</g>
		<g>
			<path style="fill:#263238;" d="M130.407,432.235c0.005,0.017-0.255,0.113-0.755,0.279c-0.548,0.175-1.278,0.408-2.195,0.7
				c-1.911,0.592-4.68,1.437-8.139,2.36c-3.458,0.916-7.617,1.908-12.316,2.558c-4.704,0.727-10.018,0.443-15.365-0.728
				c-2.68-0.577-5.254-1.32-7.693-2.168c-1.216-0.433-2.404-0.879-3.551-1.357c-0.572-0.243-1.143-0.464-1.688-0.759l-0.82-0.414
				l-0.762-0.491c-2.012-1.32-3.579-3.02-4.823-4.73c-1.246-1.717-2.19-3.455-2.97-5.071c-1.531-3.251-2.427-6.017-3.024-7.926
				c-0.292-0.957-0.511-1.703-0.646-2.212c-0.138-0.508-0.202-0.778-0.185-0.783c0.017-0.005,0.115,0.254,0.285,0.752
				c0.184,0.544,0.43,1.27,0.738,2.18c0.655,1.885,1.602,4.625,3.163,7.828c0.795,1.591,1.748,3.298,2.987,4.976
				c1.238,1.67,2.782,3.317,4.737,4.583l0.74,0.471l0.794,0.395c0.521,0.28,1.095,0.5,1.663,0.738
				c1.14,0.47,2.321,0.908,3.529,1.335c2.423,0.835,4.978,1.569,7.634,2.141c5.307,1.16,10.535,1.454,15.192,0.762
				c4.674-0.619,8.826-1.57,12.288-2.439c3.463-0.876,6.246-1.666,8.174-2.198c0.928-0.253,1.667-0.455,2.222-0.606
				C130.132,432.28,130.402,432.218,130.407,432.235z"/>
		</g>
		<path style="fill:#263238;" d="M113.438,198.22c2.055-4.638,0.734-10.47-2.923-13.986c-3.657-3.516-9.336-4.639-14.16-3.067
			c-2.158,0.703-4.196,1.942-5.527,3.78c-2.452,3.387-1.974,8.367,0.561,11.691c2.535,3.324,6.758,5.081,10.932,5.313
			c4.174,0.231,8.317-0.914,12.178-2.52"/>
		<g>
			<g>
				<path style="fill:#455A64;" d="M146.692,356.822c6.994,5.771,23.453,19.43,23.453,19.43l9.216-1.641l-27.919-23.487
					c-1.5-1.262-3.722-1.139-5.074,0.28h0C144.884,352.964,145.032,355.453,146.692,356.822z"/>
				<path style="fill:#455A64;" d="M145.953,353.823l-3.625-3.272c-0.709-0.64-0.783-1.726-0.167-2.456l0,0
					c0.649-0.769,1.808-0.844,2.55-0.164l3.487,3.195L145.953,353.823z"/>
				<g>
					<path style="fill:#263238;" d="M156.74,355.581c0.105,0.099-0.901,1.331-2.246,2.751c-1.345,1.421-2.52,2.492-2.625,2.393
						c-0.104-0.099,0.901-1.331,2.246-2.751C155.461,356.554,156.636,355.483,156.74,355.581z"/>
				</g>
				<g>
					<path style="fill:#263238;" d="M157.02,367.083c-0.04,0.056-1.118-0.618-2.786-1.821c-1.667-1.202-3.915-2.942-6.281-5.003
						c-1.172-1.015-2.36-2.057-2.939-3.384c-0.581-1.318-0.482-2.688-0.094-3.674c0.389-1.002,1.02-1.633,1.479-1.987
						c0.47-0.354,0.781-0.459,0.794-0.433c0.021,0.036-0.253,0.202-0.663,0.587c-0.401,0.385-0.949,1.018-1.264,1.958
						c-0.316,0.923-0.361,2.177,0.185,3.351c0.54,1.186,1.665,2.171,2.844,3.189c2.355,2.052,4.556,3.829,6.161,5.102
						C156.062,366.242,157.064,367.022,157.02,367.083z"/>
				</g>
			</g>
			<g>
				<path style="fill:#FFBE9D;" d="M126.774,396.433c6.631-2.228,13.677-0.728,20.308-2.955c2.223-0.747,4.513-1.531,6.266-3.089
					c2.106-1.872,3.178-4.621,4.857-6.882c5.019-6.759,14.396-8.16,22.771-9.018c1.955-0.2,3.958-0.397,5.864,0.084
					c1.906,0.481,3.727,1.785,4.262,3.677c0.535,1.891-0.687,4.252-2.643,4.448c1.835,0.081,3.12,1.945,3.457,3.75
					c0.337,1.806,0.038,3.676,0.28,5.496c0.341,2.558,1.74,4.952,1.659,7.531c-0.111,3.53-3.037,6.437-6.297,7.796
					c-3.26,1.359-6.867,1.535-10.365,2.027c-17.171,2.416-30.232,12.166-46.788,19.531"/>
				<path style="fill:#FFBE9D;" d="M192.079,388.817c0.566,1.18,2.308,1.444,3.383,0.696c1.074-0.748,1.487-2.2,1.298-3.495
					c-0.19-1.295-0.885-2.46-1.656-3.517c-1.408-1.93-3.111-3.623-4.805-5.307l-5.32,4.454L192.079,388.817z"/>
				<g>
					<path style="fill:#EB996E;" d="M190.119,383.002c-0.009,0.164-3.259-0.103-7.193,0.506c-3.94,0.58-6.965,1.794-7.022,1.641
						c-0.025-0.06,0.7-0.441,1.941-0.896c1.239-0.456,3.005-0.956,5.004-1.26c1.998-0.3,3.833-0.343,5.152-0.274
						C189.32,382.788,190.125,382.938,190.119,383.002z"/>
				</g>
				<g>
					<path style="fill:#EB996E;" d="M192.461,393.421c-0.031,0.158-2.735-0.397-6.104-0.301c-3.37,0.071-6.044,0.759-6.082,0.603
						c-0.047-0.118,2.62-1.049,6.069-1.123C189.792,392.503,192.502,393.3,192.461,393.421z"/>
				</g>
				<g>
					<path style="fill:#EB996E;" d="M191.897,390.341c-0.084-0.009-0.002-0.782-0.146-2.003c-0.147-1.211-0.586-2.886-1.611-4.442
						c-0.213-0.333-0.45-0.638-0.683-0.926l-0.151-0.186l0.167-0.164c1.107-1.088,1.418-2.55,1.383-3.518
						c-0.025-0.994-0.299-1.565-0.222-1.595c0.036-0.027,0.435,0.509,0.559,1.573c0.13,1.03-0.126,2.658-1.36,3.907l0.016-0.349
						c0.25,0.301,0.503,0.623,0.728,0.974c1.083,1.645,1.485,3.431,1.542,4.695C192.17,389.584,191.954,390.352,191.897,390.341z"/>
				</g>
			</g>
		</g>
		<path style="fill:#455A64;" d="M192.085,388.247l8.724,8.186l1.115,4.862l-8.067-1.82
			C192.702,395.368,191.849,391.457,192.085,388.247z"/>
		<path style="fill:#F5F5F5;" d="M180.275,398.674c-0.178,0.32-47.072,23.44-47.072,23.44v4.973l47.854-24.892l59.377-2.241v-3.521
			L180.275,398.674z"/>
		<path style="fill:#263238;" d="M133.203,427.802c0.328-0.223,51.775-4.862,51.775-4.862l55.456-22.986l-59.377,2.241
			l-47.854,24.892V427.802z"/>
		<g>
			<path style="fill:#FFBE9D;" d="M182.463,415.488c-0.417-2.694,2.164-5.003,4.793-5.723s5.443-0.435,8.101-1.04
				c1.707-0.388,3.308-1.134,4.942-1.761c8.201-3.147,17.199-3.31,25.982-3.433c1.088,2.344,0.186,5.427-1.992,6.816
				c0.803,2.1,0.558,4.496-0.272,6.586c-0.83,2.09-2.203,3.918-3.664,5.628c-1.235,1.446-2.595,2.866-4.335,3.633
				c-1.728,0.763-3.674,0.815-5.563,0.855c-5.892,0.125-12.213,0.129-17.086-3.184c-3.787-2.574-6.415-6.991-10.804-8.297
				c0.347,0.014,0.694,0.028,1.041,0.041"/>
			<g>
				<path style="fill:#EB996E;" d="M221.765,412.22c0,0.036-0.401,0.072-1.128,0.107c-0.839,0.027-1.866,0.059-3.077,0.098
					c-2.598,0.06-6.187,0.107-10.152,0.127c-1.978,0.001-3.861,0.001-5.595,0.002c-0.867-0.017-1.718-0.104-2.472-0.379
					c-0.755-0.277-1.383-0.739-1.788-1.302c-0.41-0.556-0.565-1.225-0.467-1.771c0.088-0.546,0.349-0.964,0.621-1.231
					c0.577-0.541,1.075-0.452,1.054-0.439c0.02,0.054-0.439,0.052-0.907,0.578c-0.458,0.486-0.811,1.655-0.006,2.642
					c0.371,0.481,0.95,0.883,1.634,1.114c0.693,0.233,1.49,0.303,2.337,0.307c1.73-0.013,3.611-0.028,5.585-0.043
					c3.964-0.02,7.554-0.008,10.152,0.026c1.211,0.026,2.239,0.049,3.078,0.067C221.363,412.152,221.765,412.184,221.765,412.22z"/>
			</g>
			<g>
				<path style="fill:#EB996E;" d="M218.743,417.158c0.004,0.035-0.5,0.134-1.416,0.277c-0.917,0.141-2.247,0.331-3.901,0.491
					c-1.654,0.151-3.64,0.275-5.846,0.139c-2.213-0.116-4.598-0.626-7.059-1.187c-4.908-1.199-9.47-1.571-12.773-1.567
					c-1.651-0.008-2.988,0.058-3.912,0.109c-0.924,0.05-1.436,0.083-1.441,0.043c-0.004-0.032,0.501-0.133,1.423-0.245
					c0.922-0.113,2.263-0.235,3.926-0.275c3.319-0.1,7.957,0.222,12.891,1.428c2.465,0.562,4.808,1.076,6.977,1.216
					c2.168,0.16,4.137,0.076,5.784-0.027c1.649-0.111,2.983-0.245,3.906-0.325C218.226,417.153,218.739,417.122,218.743,417.158z"/>
			</g>
			<g>
				<path style="fill:#EB996E;" d="M213.847,422.438c0.003,0.036-0.39,0.107-1.104,0.206c-0.714,0.094-1.749,0.222-3.034,0.332
					c-2.56,0.207-6.17,0.434-10.081-0.326c-3.948-0.754-7.018-2.765-9.372-3.701c-2.354-1.015-3.962-1.122-3.949-1.213
					c0.001-0.024,0.406-0.049,1.124,0.06c0.718,0.103,1.749,0.349,2.961,0.812c2.443,0.875,5.502,2.806,9.337,3.532
					c3.823,0.745,7.397,0.582,9.954,0.469c1.195-0.065,2.21-0.121,3.041-0.166C213.444,422.406,213.843,422.402,213.847,422.438z"/>
			</g>
		</g>
		<g style="opacity:0.2;">
			<path d="M200.547,395.595c0.496-3.638,1.282-7.284,2.923-10.57c1.64-3.285,4.208-6.207,7.552-7.726
				c3.343-1.519,7.498-1.456,10.51,0.645c0.906,0.632,1.716,1.463,2.095,2.501c0.379,1.038,0.253,2.303-0.505,3.107
				c-1.106,1.173-2.972,0.986-4.582,0.916c-7.345-0.321-14.68,4.098-17.829,10.742"/>
		</g>
		<g style="opacity:0.2;">
			<path d="M113.708,392.55c3.973-7.166,2.565-16.156-0.484-23.762c-3.049-7.605-7.605-14.601-9.932-22.457
				c-0.439,15.893,1.889,31.858,6.848,46.964"/>
		</g>
		<path style="fill:#E8505B;" d="M120.752,282.879c0,0,4.85,11.432,22.346,10.705c17.495-0.727,18.063-14.303,18.063-14.303
			l11.705,12.445l-11.119,22.919l-14.937,11.15l-20.35-8.362l-16.765-13.008L120.752,282.879z"/>
		<g style="opacity:0.5;">
			<path style="fill:#FAFAFA;" d="M79.775,331.739c0.18,0.224-2.109,2.36-5.112,4.769c-3.004,2.41-5.584,4.181-5.764,3.957
				c-0.18-0.224,2.109-2.359,5.112-4.769C77.014,333.286,79.595,331.515,79.775,331.739z"/>
		</g>
		<g>
			<path style="fill:#FAFAFA;" d="M87.971,319.408c-0.09,0.26-2.853-0.52-5.842-2.364c-2.998-1.831-4.943-3.942-4.753-4.14
				c0.201-0.223,2.395,1.482,5.298,3.252C85.566,317.942,88.08,319.128,87.971,319.408z"/>
		</g>
		<g>
			<path style="fill:#FAFAFA;" d="M103.002,320.746c0.236,0.182-1.974,3.395-4.49,7.475c-2.529,4.074-4.418,7.484-4.686,7.354
				c-0.251-0.117,1.239-3.775,3.8-7.902C100.176,323.54,102.785,320.574,103.002,320.746z"/>
		</g>
		<g>
			<path style="fill:#FAFAFA;" d="M90.16,355.496c-0.205,0.182-2.513-2.171-4.533-5.668c-2.036-3.49-2.934-6.66-2.675-6.748
				c0.282-0.106,1.591,2.826,3.575,6.225C88.494,352.712,90.392,355.303,90.16,355.496z"/>
		</g>
		<g>
			<path style="fill:#FAFAFA;" d="M76.741,372.312c-0.285,0.039-0.867-2.506-1.299-5.684c-0.433-3.179-0.552-5.786-0.267-5.825
				c0.285-0.039,0.867,2.506,1.299,5.684C76.906,369.665,77.026,372.273,76.741,372.312z"/>
		</g>
		<g style="opacity:0.5;">
			<path style="fill:#FAFAFA;" d="M89.379,376.892c-0.249-0.144,1.036-2.824,2.87-5.985c1.834-3.162,3.522-5.607,3.771-5.463
				c0.249,0.144-1.036,2.824-2.87,5.985C91.316,374.59,89.627,377.036,89.379,376.892z"/>
		</g>
		<g>
			<path style="fill:#FAFAFA;" d="M74.697,394.303c-0.208,0.186-2.438-1.999-4.602-5.163c-2.174-3.159-3.41-6.026-3.161-6.152
				c0.262-0.139,1.885,2.462,4.02,5.563C73.078,391.658,74.921,394.109,74.697,394.303z"/>
		</g>
		<g>
			<path style="fill:#FAFAFA;" d="M94.646,391.431c0.204,0.203-2.091,2.85-5.127,5.914c-3.036,3.064-5.663,5.384-5.867,5.181
				c-0.204-0.202,2.091-2.85,5.127-5.914C91.815,393.548,94.441,391.228,94.646,391.431z"/>
		</g>
		<g style="opacity:0.5;">
			<path style="fill:#FAFAFA;" d="M83.306,427.364c-0.189,0.2-2.402-1.648-4.421-4.543c-2.032-2.887-3.013-5.598-2.76-5.707
				c0.271-0.128,1.642,2.31,3.613,5.109C81.695,425.032,83.519,427.153,83.306,427.364z"/>
		</g>
		<g>
			<path style="fill:#FAFAFA;" d="M109.048,420.09c0.143,0.25-2.316,1.92-5.49,3.73c-3.175,1.811-5.864,3.076-6.007,2.826
				c-0.142-0.25,2.315-1.92,5.491-3.731C106.216,421.106,108.905,419.841,109.048,420.09z"/>
		</g>
		<g>
			<path style="fill:#FAFAFA;" d="M119.082,411.809c-0.177,0.208-2.516-1.572-4.629-4.479c-2.127-2.898-3.11-5.668-2.858-5.773
				c0.273-0.127,1.643,2.361,3.699,5.159C117.333,409.525,119.286,411.587,119.082,411.809z"/>
		</g>
		<g>
			<path style="fill:#FAFAFA;" d="M136.774,354.222c0.172,0.23-2.475,2.504-5.913,5.078c-3.439,2.575-6.366,4.475-6.538,4.245
				c-0.172-0.23,2.475-2.504,5.914-5.078C133.675,355.892,136.602,353.992,136.774,354.222z"/>
		</g>
		<g>
			<path style="fill:#FAFAFA;" d="M118.127,353.019c-0.286-0.029-0.24-2.769,0.104-6.119c0.343-3.351,0.854-6.043,1.14-6.013
				c0.286,0.029,0.24,2.769-0.104,6.12C118.923,350.356,118.413,353.048,118.127,353.019z"/>
		</g>
		<g style="opacity:0.5;">
			<path style="fill:#FAFAFA;" d="M135.322,329.591c-0.16,0.229-3.259-1.679-6.661-4.587c-3.409-2.901-5.782-5.66-5.581-5.854
				c0.211-0.207,2.887,2.195,6.257,5.062C132.698,327.086,135.493,329.351,135.322,329.591z"/>
		</g>
		<g>
			<path style="fill:#FAFAFA;" d="M122.411,300.374c0.219,0.186-1.968,3.125-4.885,6.564c-2.918,3.44-5.46,6.077-5.68,5.89
				c-0.219-0.186,1.968-3.124,4.885-6.564C119.649,302.825,122.192,300.188,122.411,300.374z"/>
		</g>
		<g style="opacity:0.5;">
			<path style="fill:#FAFAFA;" d="M107.618,297.244c-0.158,0.257-2.392-0.893-5.296-1.866c-2.898-0.994-5.37-1.44-5.339-1.74
				c0.015-0.273,2.642-0.283,5.674,0.754C105.693,295.413,107.773,297.019,107.618,297.244z"/>
		</g>
		<g>
			<path style="fill:#FAFAFA;" d="M145.212,310.714c-0.276-0.081,0.197-2.515,1.055-5.435c0.859-2.921,1.779-5.223,2.055-5.142
				c0.276,0.081-0.196,2.514-1.055,5.436C146.408,308.493,145.488,310.795,145.212,310.714z"/>
		</g>
		<g>
			<path style="fill:#FAFAFA;" d="M154.196,333.731c-0.287-0.016-0.384-2.398-0.216-5.319c0.168-2.921,0.537-5.276,0.824-5.259
				c0.287,0.017,0.384,2.397,0.216,5.319C154.852,331.393,154.483,333.748,154.196,333.731z"/>
		</g>
		<g>
			<path style="fill:#FAFAFA;" d="M168.97,351.003c-0.18,0.224-2.369-1.236-4.889-3.262c-2.52-2.026-4.417-3.85-4.237-4.074
				c0.18-0.224,2.369,1.236,4.889,3.263C167.254,348.954,169.151,350.779,168.97,351.003z"/>
		</g>
		<g>
			<path style="fill:#FAFAFA;" d="M184.711,326.885c0.19,0.216-1.763,2.25-4.363,4.544c-2.6,2.294-4.862,3.978-5.052,3.763
				c-0.19-0.216,1.763-2.25,4.363-4.544C182.259,328.354,184.521,326.67,184.711,326.885z"/>
		</g>
		<g style="opacity:0.5;">
			<path style="fill:#FAFAFA;" d="M177.476,315.501c-0.153,0.235-2.627-1.121-5.289-3.334c-2.669-2.207-4.458-4.387-4.256-4.581
				c0.211-0.206,2.3,1.612,4.921,3.779C175.465,313.538,177.639,315.255,177.476,315.501z"/>
		</g>
		<g>
			<path style="fill:#FAFAFA;" d="M195.662,295.204c0.227,0.158-0.984,2.228-3.124,4.231c-2.132,2.012-4.272,3.093-4.417,2.856
				c-0.162-0.25,1.653-1.678,3.703-3.615C193.885,296.75,195.422,295.026,195.662,295.204z"/>
		</g>
		<g style="opacity:0.5;">
			<path style="fill:#FAFAFA;" d="M183.157,293.302c-0.038,0.277-3.231,0.049-7.043-0.92c-3.815-0.96-6.732-2.277-6.634-2.539
				c0.101-0.278,3.133,0.585,6.89,1.529C180.122,292.327,183.201,293.01,183.157,293.302z"/>
		</g>
		<g style="opacity:0.5;">
			<path style="fill:#FAFAFA;" d="M206.383,325.62c-0.274-0.059,0.35-3.966,1.777-8.619c1.418-4.658,3.084-8.245,3.344-8.141
				c0.275,0.108-0.943,3.832-2.348,8.445C207.742,321.914,206.671,325.684,206.383,325.62z"/>
		</g>
		<g>
			<path style="fill:#FAFAFA;" d="M211.527,347.677c-0.209,0.197-2.678-2.079-5.514-5.084c-2.837-3.006-4.967-5.602-4.757-5.799
				c0.209-0.197,2.678,2.078,5.515,5.084C209.606,344.883,211.736,347.479,211.527,347.677z"/>
		</g>
		<g style="opacity:0.5;">
			<path style="fill:#FAFAFA;" d="M219.497,360.175c-0.288-0.005-0.465-3.283-0.396-7.32c0.069-4.039,0.358-7.308,0.645-7.303
				c0.288,0.005,0.465,3.282,0.396,7.32C220.073,356.91,219.784,360.18,219.497,360.175z"/>
		</g>
		<g>
			<path style="fill:#FAFAFA;" d="M211.407,380.75c-0.225,0.163-2.371-2.459-4.347-6.121c-1.988-3.657-3.01-6.886-2.751-6.986
				c0.276-0.111,1.712,2.895,3.667,6.49C209.918,377.733,211.65,380.579,211.407,380.75z"/>
		</g>
		<g>
			<path style="fill:#FAFAFA;" d="M232.064,384.507c0.201,0.206-1.186,1.886-3.098,3.753c-1.912,1.867-3.625,3.214-3.826,3.008
				c-0.201-0.206,1.186-1.886,3.098-3.754C230.15,385.648,231.863,384.301,232.064,384.507z"/>
		</g>
		<g style="opacity:0.5;">
			<path style="fill:#FAFAFA;" d="M181.778,361.055c-0.257-0.078,0.662-3.359,3.032-6.771c2.35-3.428,5.091-5.451,5.255-5.238
				c0.205,0.229-2.137,2.527-4.398,5.83C183.382,358.16,182.065,361.166,181.778,361.055z"/>
		</g>
		<g>
			<path style="fill:#FAFAFA;" d="M123.465,388.493c-0.279-0.069,0.213-3.044,1.099-6.645c0.887-3.602,1.832-6.465,2.111-6.396
				c0.279,0.069-0.213,3.043-1.099,6.645C124.689,385.698,123.744,388.562,123.465,388.493z"/>
		</g>
		<g>
			<path style="fill:#FAFAFA;" d="M148.029,390.938c-0.157,0.241-2.647-1.104-5.561-3.004c-2.915-1.9-5.15-3.635-4.993-3.877
				c0.157-0.241,2.647,1.104,5.561,3.004C145.951,388.961,148.186,390.697,148.029,390.938z"/>
		</g>
		<g>
			<path style="fill:#FAFAFA;" d="M146.797,373.218c-0.239,0.16-1.41-1.172-2.614-2.974c-1.205-1.803-1.988-3.394-1.748-3.554
				c0.239-0.16,1.409,1.172,2.614,2.975C146.253,371.467,147.036,373.058,146.797,373.218z"/>
		</g>
		<g>
			<path style="fill:#FAFAFA;" d="M157.628,377.256c0.165,0.235-0.887,1.259-2.349,2.286c-1.463,1.027-2.783,1.669-2.948,1.434
				c-0.165-0.235,0.887-1.259,2.35-2.286C156.143,377.662,157.463,377.02,157.628,377.256z"/>
		</g>
		<g style="opacity:0.5;">
			<path style="fill:#FAFAFA;" d="M129.347,449.149c-0.284-0.086,0.178-2.357,0.59-5.16c0.424-2.803,0.644-5.108,0.94-5.108
				c0.279-0.005,0.526,2.37,0.09,5.262C130.541,447.035,129.612,449.235,129.347,449.149z"/>
		</g>
		<g style="opacity:0.5;">
			<path style="fill:#FAFAFA;" d="M154.268,441.036c-0.25,0.142-2.149-2.723-4.241-6.399c-2.093-3.677-3.586-6.773-3.336-6.915
				c0.25-0.142,2.148,2.723,4.241,6.4C153.025,437.797,154.518,440.893,154.268,441.036z"/>
		</g>
		<g style="opacity:0.5;">
			<path style="fill:#FAFAFA;" d="M180.703,429.885c0.229,0.175-2.277,3.834-5.596,8.173c-3.32,4.34-6.195,7.716-6.424,7.541
				c-0.228-0.175,2.277-3.833,5.597-8.174C177.599,433.087,180.475,429.711,180.703,429.885z"/>
		</g>
		<g style="opacity:0.5;">
			<path style="fill:#FAFAFA;" d="M188.151,451.117c0.041,0.285-3.269,0.999-7.393,1.595c-4.125,0.597-7.501,0.849-7.542,0.565
				c-0.041-0.285,3.268-0.999,7.393-1.595C184.733,451.085,188.11,450.832,188.151,451.117z"/>
		</g>
		<g>
			<path style="fill:#FAFAFA;" d="M189.296,440.419c-0.29-0.066-0.029-2.199,0.078-4.82c0.121-2.621,0.047-4.769,0.341-4.809
				c0.274-0.044,0.824,2.124,0.699,4.854C190.302,438.374,189.566,440.487,189.296,440.419z"/>
		</g>
		<g>
			<path style="fill:#FAFAFA;" d="M153.605,452.88c-0.1,0.254-2.802-0.644-5.622-2.681c-2.83-2.024-4.542-4.298-4.333-4.474
				c0.222-0.204,2.214,1.682,4.941,3.629C151.305,451.318,153.728,452.605,153.605,452.88z"/>
		</g>
		<g>
			<path style="fill:#FAFAFA;" d="M111.196,451.299c-0.279-0.07,0.055-2.355,0.747-5.102c0.692-2.749,1.478-4.919,1.757-4.849
				c0.279,0.07-0.056,2.354-0.747,5.103C112.262,449.199,111.475,451.37,111.196,451.299z"/>
		</g>
		<g>
			<path style="fill:#455A64;" d="M106.588,198.363c0.065-0.082,1.201,0.896,3.294,2.045c1.041,0.584,2.345,1.156,3.831,1.672
				c1.497,0.485,3.184,0.893,4.988,1.113c1.807,0.196,3.543,0.181,5.112,0.05c1.565-0.165,2.965-0.426,4.111-0.758
				c2.3-0.644,3.628-1.337,3.672-1.243c0.016,0.032-0.307,0.218-0.909,0.527c-0.299,0.161-0.671,0.343-1.122,0.51
				c-0.449,0.173-0.951,0.4-1.537,0.558c-1.152,0.383-2.572,0.688-4.167,0.882c-1.598,0.161-3.374,0.191-5.22-0.01
				c-1.844-0.224-3.565-0.657-5.085-1.176c-1.509-0.551-2.822-1.172-3.857-1.806c-0.535-0.287-0.972-0.623-1.37-0.893
				c-0.402-0.266-0.723-0.528-0.977-0.752C106.837,198.644,106.565,198.39,106.588,198.363z"/>
		</g>
		<g>
			<path style="fill:#455A64;" d="M132.423,209.866c0.007,0.034-0.38,0.157-1.09,0.337c-0.71,0.181-1.745,0.415-3.039,0.64
				c-2.57,0.438-6.262,0.874-10.244,0.061c-3.987-0.826-7.174-2.999-8.85-5.046c-0.852-1.018-1.389-1.958-1.676-2.637
				c-0.292-0.678-0.392-1.075-0.366-1.084c0.106-0.055,0.579,1.553,2.319,3.479c1.698,1.926,4.809,3.976,8.68,4.779
				c3.876,0.794,7.513,0.428,10.081,0.085c1.291-0.178,2.332-0.356,3.053-0.475C132.013,209.885,132.415,209.829,132.423,209.866z"
				/>
		</g>
		<g>
			<path style="fill:#455A64;" d="M96.814,271.067c-0.007,0.006-0.051-0.041-0.132-0.138c-0.077-0.099-0.206-0.239-0.34-0.446
				c-0.266-0.414-0.612-1.074-0.797-2.002c-0.394-1.823,0.016-4.798,2.198-7.429c1.084-1.295,2.538-2.458,4.183-3.529
				c1.639-1.082,3.484-2.077,5.29-3.295c1.788-1.222,3.593-2.707,4.818-4.704c0.607-0.993,1.039-2.116,1.197-3.305
				c0.167-1.188,0.074-2.423-0.193-3.637c-0.546-2.439-1.64-4.674-2.532-6.897c-0.919-2.205-1.636-4.489-1.691-6.732
				c-0.183-4.498,1.494-8.384,3.43-11.084c1.957-2.747,4.248-4.348,5.898-5.199c0.414-0.198,0.788-0.377,1.12-0.536
				c0.326-0.115,0.611-0.214,0.858-0.301c0.465-0.157,0.711-0.231,0.716-0.214c0.005,0.017-0.23,0.124-0.68,0.312
				c-0.24,0.099-0.516,0.213-0.832,0.344c-0.322,0.17-0.684,0.361-1.086,0.573c-1.6,0.895-3.814,2.514-5.694,5.233
				c-1.86,2.673-3.456,6.488-3.251,10.85c0.068,2.174,0.764,4.366,1.684,6.561c0.89,2.204,2.001,4.452,2.568,6.979
				c0.277,1.258,0.377,2.56,0.197,3.82c-0.169,1.261-0.634,2.458-1.275,3.498c-1.296,2.095-3.162,3.604-4.985,4.837
				c-1.846,1.227-3.692,2.203-5.324,3.259c-1.636,1.043-3.067,2.163-4.138,3.406c-2.14,2.505-2.602,5.38-2.278,7.152
				C96.067,270.268,96.894,271.031,96.814,271.067z"/>
		</g>
		<g>
			<path style="fill:#455A64;" d="M123.449,271.431c-0.009,0.016-0.206-0.096-0.579-0.326c-0.344-0.262-0.864-0.678-1.29-1.404
				c-0.439-0.71-0.79-1.7-0.9-2.882c-0.11-1.181,0.024-2.544,0.436-3.976c0.812-2.936,3.266-5.607,5.107-8.96
				c0.915-1.678,1.569-3.622,1.503-5.697c-0.035-2.07-0.663-4.176-1.606-6.173c-1.9-4.021-4.82-7.217-6.837-10.564
				c-1.02-1.664-1.856-3.349-2.359-5.026c-0.533-1.675-0.631-3.343-0.491-4.821c0.281-2.99,1.661-5.174,2.912-6.253
				c0.64-0.534,1.204-0.858,1.604-1.029c0.405-0.163,0.618-0.24,0.624-0.223c0.037,0.067-0.885,0.309-2.091,1.402
				c-1.173,1.095-2.454,3.231-2.682,6.137c-0.112,1.439,0.002,3.043,0.536,4.66c0.507,1.627,1.338,3.267,2.355,4.902
				c1.022,1.635,2.234,3.268,3.466,4.987c1.235,1.714,2.47,3.556,3.434,5.607c0.964,2.042,1.615,4.221,1.645,6.387
				c0.064,2.174-0.642,4.227-1.591,5.933c-1.914,3.414-4.362,6.032-5.177,8.84c-0.422,1.381-0.577,2.702-0.498,3.845
				c0.079,1.145,0.388,2.103,0.784,2.802C122.561,271.021,123.517,271.36,123.449,271.431z"/>
		</g>
		<g>
			<path style="fill:#455A64;" d="M162.913,196.361c-0.009,0.016-0.138-0.039-0.378-0.159c-0.238-0.124-0.578-0.327-0.99-0.631
				c-0.82-0.606-1.894-1.664-2.876-3.208c-1.005-1.531-1.86-3.539-2.769-5.742c-0.461-1.1-0.952-2.248-1.556-3.384
				c-0.63-1.117-1.326-2.256-2.207-3.297c-3.461-4.268-8.12-6.558-11.558-7.45c-3.484-0.909-5.758-0.703-5.751-0.824
				c-0.001-0.033,0.557-0.074,1.574-0.089c1.012,0.042,2.493,0.12,4.268,0.556c1.767,0.434,3.841,1.164,5.921,2.399
				c2.07,1.231,4.204,2.891,5.95,5.079c0.903,1.067,1.615,2.239,2.254,3.387c0.612,1.165,1.099,2.331,1.549,3.439
				c0.887,2.221,1.693,4.206,2.637,5.73c0.922,1.536,1.925,2.602,2.69,3.245C162.439,196.056,162.937,196.32,162.913,196.361z"/>
		</g>
		<g>
			<path style="fill:#455A64;" d="M176.859,196.279c-0.003,0.018-0.187-0.002-0.538-0.057c-0.352-0.045-0.863-0.171-1.502-0.39
				c-1.276-0.434-3.043-1.392-4.767-3.098c-1.744-1.679-3.425-4.053-4.947-6.835c-1.566-2.748-3.085-5.91-5.437-8.66
				c-2.327-2.784-5.488-4.442-8.485-5.293c-3.019-0.859-5.878-1.033-8.256-1.102c-2.385-0.053-4.32,0.047-5.657,0.099
				c-0.62,0.024-1.129,0.043-1.54,0.059c-0.353,0.009-0.539,0.005-0.54-0.013c-0.001-0.018,0.182-0.049,0.532-0.092
				c0.35-0.042,0.867-0.101,1.535-0.156c1.335-0.114,3.271-0.271,5.674-0.265c2.396,0.023,5.29,0.157,8.382,1.008
				c3.065,0.839,6.354,2.548,8.749,5.415c2.414,2.826,3.925,6.019,5.463,8.767c1.492,2.78,3.11,5.126,4.787,6.807
				c1.658,1.705,3.349,2.685,4.579,3.169C176.127,196.13,176.871,196.221,176.859,196.279z"/>
		</g>
		<g>
			<path style="fill:#455A64;" d="M200.473,261.184c-0.058-0.022,0.256-0.71,0.588-2.019c0.332-1.302,0.708-3.241,0.601-5.648
				c-0.085-2.393-0.656-5.268-2.125-8.081c-0.726-1.408-1.697-2.765-2.859-4.046c-1.158-1.286-2.483-2.508-3.823-3.788
				c-1.34-1.279-2.635-2.571-3.706-3.977c-1.079-1.396-1.96-2.861-2.667-4.317c-0.712-1.455-1.24-2.907-1.612-4.296
				c-0.385-1.386-0.627-2.708-0.752-3.923c-0.268-2.432-0.131-4.418,0.057-5.765c0.079-0.677,0.198-1.193,0.275-1.543
				c0.078-0.35,0.127-0.531,0.145-0.527c0.053,0.01-0.1,0.747-0.219,2.093c-0.125,1.342-0.204,3.307,0.107,5.698
				c0.147,1.195,0.405,2.492,0.802,3.85c0.384,1.361,0.917,2.781,1.628,4.203c0.705,1.423,1.577,2.852,2.638,4.215
				c1.051,1.37,2.327,2.639,3.663,3.914c1.335,1.276,2.668,2.51,3.842,3.824c1.178,1.308,2.173,2.716,2.906,4.167
				c1.485,2.902,2.027,5.851,2.067,8.291c0.061,2.454-0.379,4.414-0.774,5.714c-0.201,0.653-0.389,1.147-0.542,1.473
				C200.572,261.022,200.49,261.191,200.473,261.184z"/>
		</g>
		<g>
			<path style="fill:#455A64;" d="M90.925,195.488c-0.029-0.004-0.009-0.357,0.127-0.98c0.134-0.623,0.431-1.509,0.982-2.515
				c1.061-1.992,3.448-4.495,6.932-5.347c3.494-0.818,6.756,0.334,8.603,1.631c0.947,0.648,1.613,1.304,2.014,1.799
				c0.404,0.494,0.581,0.8,0.557,0.817c-0.082,0.076-0.878-1.124-2.771-2.306c-1.839-1.178-4.973-2.21-8.282-1.433
				c-3.301,0.805-5.628,3.143-6.735,5.025C91.199,194.088,91.032,195.519,90.925,195.488z"/>
		</g>
		<g>
			<path style="fill:#455A64;" d="M100.615,199.698c-0.063-0.012,0.003-0.881,0.279-2.27c0.293-1.356,0.799-3.379,2.364-5.014
				c1.632-1.637,3.938-1.84,5.301-1.342c0.694,0.254,1.175,0.643,1.417,0.97c0.25,0.32,0.328,0.534,0.305,0.547
				c-0.081,0.082-0.517-0.788-1.833-1.166c-1.257-0.37-3.364-0.112-4.817,1.355c-1.444,1.501-2.001,3.414-2.378,4.736
				C100.888,198.862,100.693,199.714,100.615,199.698z"/>
		</g>
		<g>
			<path style="fill:#E8505B;" d="M113.316,185.05c0.135,0.094-1.535,2.287-2.627,5.447c-1.124,3.15-1.193,5.905-1.357,5.894
				c-0.123,0.02-0.291-2.818,0.866-6.066C111.327,187.068,113.233,184.957,113.316,185.05z"/>
		</g>
	</g>
</g>
<g id="Speech_Bubble">
	<g>
		<g>
			<g>
				<g>
					<path style="fill:#455A64;" d="M273.298,209.428c0,1.719,1.393,3.112,3.112,3.112c1.719,0,3.112-1.393,3.112-3.112
						c0-1.719-1.393-3.112-3.112-3.112C274.691,206.315,273.298,207.709,273.298,209.428z"/>
				</g>
			</g>
			<g>
				<g>
					<circle style="fill:#455A64;" cx="263.955" cy="209.428" r="3.112"/>
				</g>
			</g>
			<g>
				<g>
					<path style="fill:#455A64;" d="M248.42,207.871c-0.859,1.489-0.349,3.392,1.139,4.252c1.489,0.859,3.392,0.349,4.252-1.139
						c0.859-1.489,0.35-3.392-1.139-4.251C251.182,205.873,249.279,206.383,248.42,207.871z"/>
				</g>
			</g>
		</g>
		<g>
			<g>
				<g>
					<path style="fill:#455A64;" d="M263.762,173.076c0-0.014-0.213-0.018-0.629-0.01c-0.457,0.013-1.069,0.03-1.849,0.052
						c-0.406,0.019-0.863,0.019-1.363,0.061c-0.501,0.07-1.044,0.147-1.631,0.229c-0.592,0.085-1.227,0.176-1.904,0.274
						c-0.668,0.165-1.377,0.341-2.127,0.527c-2.988,0.769-6.608,2.081-10.309,4.495c-3.699,2.374-7.543,5.77-10.662,10.384
						c-3.061,4.62-5.423,10.433-6.049,16.961c-0.061,1.634-0.258,3.296-0.101,4.985c0.059,0.843,0.042,1.7,0.165,2.55
						c0.128,0.85,0.257,1.706,0.387,2.568c0.696,3.406,1.71,6.895,3.465,10.145c1.714,3.257,3.926,6.357,6.626,9.117
						c2.753,2.704,5.968,5.05,9.546,6.858c3.568,1.823,7.521,3.081,11.636,3.572c1.019,0.202,2.063,0.201,3.104,0.264
						c1.041,0.068,2.087,0.106,3.137,0.057c2.099-0.085,4.204-0.349,6.284-0.794c4.519-0.962,8.774-2.802,12.51-5.265l-0.38,0.038
						c4.336,1.74,8.591,3.448,12.743,5.114l0.755,0.303l-0.215-0.783c-1.286-4.676-2.536-9.224-3.746-13.623l-0.064,0.336
						c3.576-4.753,5.856-10.179,6.8-15.567c0.474-2.692,0.674-5.379,0.495-7.976c-0.055-1.301-0.118-2.584-0.362-3.831
						c-0.097-0.626-0.193-1.247-0.289-1.864c-0.114-0.613-0.3-1.207-0.445-1.804c-2.462-9.59-8.368-16.673-14.218-20.726
						c-2.928-2.062-5.816-3.541-8.461-4.464c-0.659-0.236-1.294-0.463-1.906-0.682c-0.628-0.16-1.231-0.313-1.809-0.46
						c-0.577-0.143-1.129-0.28-1.655-0.41c-0.531-0.102-1.043-0.157-1.523-0.23c-0.964-0.122-1.81-0.288-2.552-0.325
						c-0.73-0.025-1.353-0.046-1.873-0.063c-0.474-0.01-0.851-0.019-1.144-0.025C263.893,173.06,263.762,173.065,263.762,173.076
						c0,0.011,0.13,0.029,0.387,0.053c0.291,0.023,0.666,0.053,1.139,0.09c0.516,0.035,1.135,0.076,1.86,0.126
						c0.736,0.057,1.574,0.243,2.528,0.384c3.75,0.688,9.373,2.183,15.117,6.383c5.736,4.055,11.492,11.071,13.86,20.498
						c0.139,0.587,0.32,1.171,0.429,1.773c0.091,0.606,0.182,1.217,0.275,1.831c0.234,1.224,0.289,2.484,0.337,3.761
						c0.166,2.548-0.043,5.182-0.516,7.819c-0.945,5.277-3.194,10.583-6.707,15.229l-0.115,0.152l0.05,0.185
						c1.201,4.402,2.442,8.952,3.718,13.631l0.539-0.48c-4.151-1.671-8.403-3.384-12.737-5.129l-0.2-0.08l-0.181,0.119
						c-3.656,2.405-7.815,4.202-12.231,5.142c-2.033,0.435-4.091,0.693-6.143,0.777c-1.027,0.049-2.049,0.011-3.068-0.055
						c-1.018-0.061-2.038-0.058-3.034-0.256c-4.024-0.475-7.889-1.702-11.38-3.48c-3.501-1.763-6.651-4.052-9.351-6.692
						c-2.648-2.697-4.819-5.725-6.508-8.909c-1.729-3.177-2.73-6.591-3.426-9.926c-0.13-0.845-0.26-1.683-0.389-2.516
						c-0.124-0.833-0.11-1.674-0.171-2.5c-0.163-1.657,0.026-3.288,0.077-4.892c0.585-6.409,2.871-12.131,5.852-16.699
						c3.039-4.561,6.799-7.94,10.427-10.321c3.63-2.42,7.193-3.763,10.142-4.572c0.74-0.197,1.441-0.384,2.1-0.56
						c0.67-0.11,1.298-0.213,1.883-0.309c0.581-0.096,1.12-0.185,1.616-0.266c0.496-0.055,0.949-0.068,1.353-0.1
						c0.777-0.057,1.386-0.101,1.84-0.134C263.549,173.115,263.762,173.09,263.762,173.076z"/>
				</g>
			</g>
		</g>
	</g>
</g>
</svg>
