<?xml version="1.0" encoding="UTF-8"?><svg xmlns="http://www.w3.org/2000/svg" viewBox="0 0 500 500"><defs><style>.cls-1,.cls-2,.cls-3,.cls-4,.cls-5,.cls-6,.cls-7,.cls-8,.cls-9,.cls-10,.cls-11{stroke-width:0px;}.cls-12{opacity:.2;}.cls-2{fill:#e0e0e0;}.cls-3{fill:#1ed9d9;}.cls-4{fill:#fff;}.cls-13{opacity:.3;}.cls-5{fill:#fafafa;}.cls-6{fill:#263238;}.cls-7{fill:#ebebeb;}.cls-8{fill:#ff9a6c;}.cls-9{fill:#455a64;}.cls-10{fill:#ffbf9d;}.cls-11{fill:#0597f2;}</style></defs><g id="Background_Complete"><rect class="cls-7" x="358.97" y="258.68" width="72.26" height="55.74" transform="translate(790.2 573.1) rotate(180)"/><rect class="cls-4" x="364.14" y="299.71" width="8.71" height="9.84" transform="translate(736.98 609.26) rotate(180)"/><rect class="cls-5" x="400.98" y="258.82" width="8.21" height="11.89"/><rect class="cls-5" x="400.98" y="302.36" width="8.21" height="11.89"/><path class="cls-2" d="m377.01,314.8c-.13,0-.23-12.26-.23-27.38s.1-27.38.23-27.38.23,12.26.23,27.38-.1,27.38-.23,27.38Z"/><rect class="cls-7" x="329.5" y="314.23" width="124.68" height="96.17" transform="translate(783.68 724.63) rotate(180)"/><rect class="cls-4" x="338.41" y="385.02" width="15.02" height="16.98" transform="translate(691.84 787.03) rotate(180)"/><rect class="cls-5" x="401.98" y="314.48" width="14.16" height="20.52"/><rect class="cls-5" x="401.98" y="389.59" width="14.16" height="20.52"/><path class="cls-2" d="m360.62,411.06c-.22,0-.4-21.15-.4-47.24s.18-47.24.4-47.24.4,21.15.4,47.24-.18,47.24-.4,47.24Z"/><polygon class="cls-7" points="450.22 114.21 456.9 127.74 471.83 129.91 461.03 140.45 463.58 155.32 450.22 148.3 436.86 155.32 439.41 140.45 428.6 129.91 443.54 127.74 450.22 114.21"/><polygon class="cls-7" points="52.51 288.97 56.72 297.5 66.13 298.86 59.32 305.5 60.93 314.88 52.51 310.45 44.09 314.88 45.7 305.5 38.89 298.86 48.3 297.5 52.51 288.97"/><polygon class="cls-7" points="57.73 214.66 67.08 233.6 87.98 236.64 72.86 251.38 76.43 272.2 57.73 262.37 39.04 272.2 42.61 251.38 27.48 236.64 48.39 233.6 57.73 214.66"/><polygon class="cls-7" points="444.27 175.32 448.3 183.49 457.31 184.8 450.79 191.15 452.33 200.12 444.27 195.89 436.21 200.12 437.75 191.15 431.23 184.8 440.24 183.49 444.27 175.32"/><polygon class="cls-7" points="312.05 43.07 316.08 51.23 325.09 52.54 318.57 58.89 320.11 67.87 312.05 63.63 303.99 67.87 305.53 58.89 299.01 52.54 308.02 51.23 312.05 43.07"/><polygon class="cls-7" points="404.22 130.41 406.86 135.75 412.76 136.61 408.49 140.77 409.5 146.64 404.22 143.87 398.95 146.64 399.96 140.77 395.69 136.61 401.59 135.75 404.22 130.41"/><polygon class="cls-7" points="160.92 400.11 166.06 410.51 177.54 412.18 169.23 420.28 171.2 431.72 160.92 426.32 150.65 431.72 152.61 420.28 144.3 412.18 155.79 410.51 160.92 400.11"/><polygon class="cls-7" points="174.48 389.76 176.6 394.06 181.35 394.75 177.91 398.1 178.73 402.83 174.48 400.59 170.24 402.83 171.05 398.1 167.61 394.75 172.36 394.06 174.48 389.76"/></g><g id="Stars"><polygon class="cls-3" points="364.14 349.92 368.65 359.07 378.75 360.54 371.44 367.66 373.17 377.72 364.14 372.97 355.1 377.72 356.83 367.66 349.52 360.54 359.62 359.07 364.14 349.92"/><polygon class="cls-7" points="385.68 341.81 387.81 346.12 392.56 346.81 389.12 350.17 389.93 354.91 385.68 352.67 381.42 354.91 382.24 350.17 378.79 346.81 383.55 346.12 385.68 341.81"/><polygon class="cls-3" points="385.68 341.81 387.81 346.12 392.56 346.81 389.12 350.17 389.93 354.91 385.68 352.67 381.42 354.91 382.24 350.17 378.79 346.81 383.55 346.12 385.68 341.81"/></g><g id="Character"><polygon class="cls-11" points="262.12 342.31 287.21 474.87 310.14 432.5 353.6 458.01 307.47 328.93 262.12 342.31"/><g class="cls-13"><path class="cls-1" d="m270.56,386.89c4.64.96,10.05-.68,13.34-4.09,2.29-2.37,3.81-5.58,6.69-7.16,2.59-1.42,5.78-1.22,8.62-.43s5.53,2.1,8.38,2.85c5.6,1.45,11.78.54,16.72-2.48l-7.24-20.1-33.6-4.2-16.02,19.25,3.1,16.37Z"/></g><path class="cls-6" d="m308.51,427.24c-.14.04-3.88-13.73-8.34-30.75-4.47-17.02-7.98-30.85-7.84-30.88.14-.04,3.87,13.73,8.35,30.75,4.47,17.02,7.98,30.84,7.84,30.88Z"/><polygon class="cls-11" points="265.79 349.2 240.7 481.76 217.77 439.4 174.31 464.9 220.44 335.82 265.79 349.2"/><g class="cls-13"><path class="cls-1" d="m206.64,374.43s7.14,5.87,15.65,3.17c8.51-2.71,13.8-3.28,18.41,0,4.61,3.28,17.08,13.96,17.08,13.96l2.89-15.29-16.75-23-17.49,3.53-12.46,1.24-4.63,8.76-2.71,7.63Z"/></g><path class="cls-11" d="m412.9,229.54c0,9.51-12.16,17.7-13.94,26.69-1.83,9.26,6.23,21.47,2.7,29.99-3.6,8.67-17.97,11.59-23.12,19.29-5.2,7.77-2.43,22.15-9.01,28.73-6.58,6.58-20.97,3.81-28.73,9.01-7.71,5.16-10.62,19.53-19.29,23.12-8.52,3.53-20.73-4.53-29.99-2.7-8.99,1.78-17.18,13.94-26.69,13.94s-17.7-12.16-26.69-13.94c-9.26-1.83-21.47,6.23-29.99,2.7-8.67-3.6-11.59-17.97-19.29-23.12-7.77-5.2-22.15-2.43-28.73-9.01-6.58-6.58-3.81-20.97-9.01-28.73-5.16-7.71-19.53-10.62-23.12-19.29-3.53-8.52,4.53-20.73,2.7-29.99-1.78-8.99-13.94-17.18-13.94-26.69s12.16-17.7,13.94-26.69c1.83-9.26-6.23-21.47-2.7-29.99,3.6-8.67,17.97-11.59,23.12-19.29,5.2-7.77,2.43-22.15,9.01-28.73,6.58-6.58,20.97-3.81,28.73-9.01,7.71-5.16,10.62-19.53,19.29-23.12,8.52-3.53,20.73,4.53,29.99,2.7,8.99-1.78,17.18-13.94,26.69-13.94s17.7,12.16,26.69,13.94c9.26,1.83,21.47-6.23,29.99-2.7,8.67,3.6,11.59,17.97,19.29,23.12,7.77,5.2,22.15,2.43,28.73,9.01s3.81,20.97,9.01,28.73c5.16,7.71,19.53,10.62,23.12,19.29,3.53,8.52-4.53,20.73-2.7,29.99,1.78,8.99,13.94,17.18,13.94,26.69Z"/><path class="cls-6" d="m230.17,146.53s-.11-.13-.27-.41c-.19-.33-.41-.73-.68-1.22-.59-1.06-1.39-2.62-2.36-4.56-1.93-3.88-4.43-9.34-6.84-15.5-2.4-6.17-4.26-11.88-5.47-16.04-.61-2.08-1.06-3.78-1.35-4.95-.13-.54-.24-.99-.32-1.36-.07-.31-.1-.48-.08-.48.02,0,.08.15.18.46.11.36.25.8.42,1.33.38,1.24.89,2.89,1.51,4.9,1.3,4.13,3.2,9.8,5.6,15.96,2.4,6.15,4.84,11.62,6.68,15.53.91,1.9,1.65,3.46,2.21,4.63.24.5.43.92.59,1.26.13.29.19.45.18.46Z"/><path class="cls-6" d="m243.35,141.52s-.17-.38-.38-1.1c-.21-.72-.5-1.76-.83-3.06-.66-2.6-1.48-6.21-2.22-10.23-.74-4.02-1.26-7.69-1.56-10.35-.15-1.33-.26-2.41-.31-3.16-.06-.75-.07-1.16-.03-1.17s.12.4.24,1.14c.13.85.29,1.9.48,3.13.4,2.64.97,6.29,1.71,10.31.74,4.01,1.5,7.63,2.06,10.24.26,1.22.49,2.26.67,3.1.15.73.22,1.14.19,1.15Z"/><path class="cls-6" d="m266.6,139.21c-.14,0-.51-11.21-.83-25.05-.31-13.84-.45-25.06-.31-25.07.14,0,.51,11.21.83,25.05.31,13.84.45,25.06.31,25.06Z"/><path class="cls-6" d="m289.99,116.16c.14.04-1.48,5.65-3.61,12.53-2.13,6.88-3.97,12.42-4.1,12.37-.14-.04,1.48-5.65,3.61-12.53,2.13-6.88,3.97-12.41,4.1-12.37Z"/><path class="cls-6" d="m299.54,145.15s.03-.17.13-.47c.12-.36.27-.79.46-1.32.4-1.14,1.02-2.78,1.8-4.81,1.56-4.04,3.81-9.59,6.37-15.68,2.56-6.1,4.94-11.59,6.69-15.55.86-1.92,1.57-3.5,2.11-4.68.24-.5.44-.92.6-1.26.14-.29.23-.43.24-.43s-.03.17-.15.47c-.14.35-.31.78-.51,1.3-.49,1.2-1.15,2.8-1.95,4.74-1.7,4.06-4,9.55-6.55,15.61-2.53,6.06-4.81,11.55-6.51,15.62-.8,1.95-1.46,3.55-1.95,4.74-.22.51-.4.93-.55,1.28-.13.29-.21.44-.22.44Z"/><path class="cls-6" d="m312.04,151.67s.17-.38.57-1.02c.39-.64.99-1.54,1.74-2.65,1.5-2.22,3.66-5.23,6.17-8.45,2.52-3.22,4.91-6.05,6.7-8.05.89-1,1.63-1.8,2.15-2.33.52-.54.82-.82.85-.8.03.02-.22.36-.7.94-.55.66-1.22,1.48-2.02,2.44-1.71,2.05-4.06,4.91-6.57,8.13-2.51,3.22-4.71,6.19-6.28,8.35-.74,1.01-1.37,1.86-1.87,2.56-.45.6-.71.92-.74.9Z"/><path class="cls-6" d="m330.22,166.57c-.1-.11,7.81-7.63,17.67-16.79,9.86-9.17,17.93-16.52,18.03-16.41.1.11-7.81,7.62-17.67,16.8-9.86,9.17-17.93,16.52-18.02,16.41Z"/><path class="cls-6" d="m361.98,169.68c.03.07-1.14.66-3.01,1.64-1.88.98-4.43,2.39-7.25,3.98-2.82,1.58-5.42,2.95-7.34,3.85-.96.45-1.75.8-2.3,1.02-.55.22-.86.33-.88.3-.03-.07,1.14-.66,3.01-1.64,1.88-.98,4.43-2.39,7.25-3.98,2.82-1.58,5.42-2.95,7.34-3.85.96-.45,1.75-.8,2.3-1.02.55-.22.86-.33.88-.3Z"/><path class="cls-6" d="m391.39,181.87c.05.14-9.37,3.57-21.03,7.68-11.67,4.11-21.16,7.33-21.21,7.19-.05-.14,9.37-3.57,21.04-7.68,11.66-4.11,21.16-7.33,21.21-7.19Z"/><path class="cls-6" d="m400.75,235.34c-.01.14-10.25-.71-22.86-1.91-12.61-1.2-22.83-2.29-22.81-2.43.01-.14,10.25.71,22.86,1.91,12.61,1.2,22.82,2.29,22.81,2.43Z"/><path class="cls-6" d="m393.22,283.3c-.06.13-9.63-4.26-21.37-9.81-11.74-5.55-21.21-10.15-21.15-10.28.06-.13,9.63,4.26,21.37,9.81,11.74,5.55,21.21,10.15,21.15,10.28Z"/><path class="cls-6" d="m361.74,328.93c-.11.09-7.01-7.91-15.41-17.88-8.41-9.97-15.13-18.12-15.02-18.22.11-.09,7.01,7.91,15.42,17.88,8.4,9.97,15.13,18.12,15.02,18.21Z"/><path class="cls-6" d="m335.46,334.95s-.33-.38-.83-1.12c-.51-.74-1.23-1.83-2.09-3.18-1.74-2.71-4.07-6.49-6.52-10.75-2.45-4.25-4.57-8.17-6.04-11.03-.74-1.43-1.32-2.59-1.71-3.41-.39-.81-.59-1.27-.56-1.28s.29.41.74,1.19c.49.87,1.11,1.99,1.85,3.33,1.56,2.81,3.72,6.69,6.17,10.94,2.45,4.25,4.73,8.06,6.38,10.81.78,1.31,1.44,2.41,1.95,3.27.46.78.69,1.21.66,1.23Z"/><path class="cls-6" d="m319.14,357.9s-.11-.13-.26-.41c-.18-.33-.39-.74-.65-1.22-.56-1.06-1.34-2.62-2.26-4.57-1.84-3.89-4.21-9.35-6.46-15.52-2.25-6.18-3.95-11.88-5.04-16.05-.55-2.08-.96-3.77-1.21-4.95-.11-.54-.21-.99-.29-1.36-.06-.31-.08-.48-.06-.48.02,0,.07.15.17.46.1.36.23.8.38,1.33.35,1.24.81,2.89,1.37,4.9,1.18,4.13,2.93,9.8,5.17,15.97,2.25,6.16,4.55,11.63,6.31,15.55.86,1.9,1.57,3.47,2.1,4.63.23.5.41.92.57,1.26.12.29.18.45.17.46Z"/><path class="cls-6" d="m286.08,341.81c-.08,0-.2-1.33-.43-3.48-.23-2.15-.59-5.12-1.14-8.37-.55-3.25-1.17-6.18-1.65-8.29-.48-2.11-.8-3.41-.72-3.43.03,0,.16.3.35.88.19.58.45,1.42.73,2.46.57,2.09,1.26,5.02,1.81,8.29.55,3.27.85,6.26.99,8.42.07,1.08.11,1.96.11,2.57,0,.61,0,.94-.04.95Z"/><path class="cls-6" d="m264.45,370.6s-.03-.18-.04-.51c0-.4-.01-.88-.02-1.47-.01-1.28,0-3.12.04-5.41.08-4.56.29-10.87.65-17.82.36-6.96.81-13.25,1.18-17.8.19-2.27.35-4.11.48-5.38.07-.59.12-1.07.16-1.46.04-.33.08-.51.09-.51.02,0,.02.18.01.51-.02.4-.04.88-.07,1.47-.08,1.35-.19,3.18-.32,5.39-.27,4.63-.63,10.88-1.02,17.8-.37,6.95-.63,13.25-.8,17.81-.08,2.22-.15,4.05-.2,5.4-.03.59-.05,1.07-.07,1.47-.02.34-.04.51-.06.51Z"/><path class="cls-6" d="m246.87,320.23c.07.01-.04.99-.3,2.55-.26,1.56-.68,3.71-1.23,6.07-.55,2.36-1.13,4.47-1.59,5.98-.46,1.52-.8,2.44-.87,2.42-.07-.02.14-.98.51-2.52.41-1.72.9-3.75,1.44-6.01.52-2.26.98-4.3,1.38-6.02.35-1.54.59-2.49.66-2.48Z"/><path class="cls-6" d="m215.08,304.96c.11.09-1.84,2.86-4.38,6.2-2.53,3.34-4.68,5.97-4.79,5.89-.11-.09,1.84-2.86,4.38-6.2,2.53-3.34,4.68-5.97,4.79-5.89Z"/><path class="cls-6" d="m198.41,293.76c.11.09-6.1,7.38-13.86,16.27-7.76,8.9-14.14,16.03-14.25,15.93-.11-.09,6.1-7.38,13.86-16.28,7.76-8.89,14.14-16.03,14.25-15.93Z"/><path class="cls-6" d="m190.06,281.35c.09.11-3.36,3.11-7.71,6.69-4.35,3.59-7.95,6.4-8.04,6.29s3.36-3.11,7.71-6.69c4.35-3.58,7.95-6.4,8.04-6.29Z"/><path class="cls-6" d="m180.3,262.64c.06.13-8.58,4.42-19.3,9.59-10.73,5.17-19.47,9.25-19.53,9.12-.06-.13,8.58-4.42,19.31-9.59,10.72-5.17,19.47-9.25,19.53-9.12Z"/><path class="cls-6" d="m176.38,253.31s-.31.13-.9.27c-.58.14-1.44.32-2.49.51-2.11.39-5.05.84-8.31,1.17-3.26.33-6.23.47-8.38.5-1.07.02-1.94.01-2.54,0-.6-.02-.93-.05-.93-.08,0-.08,1.32-.15,3.46-.28,2.14-.13,5.09-.33,8.34-.66,3.25-.33,6.18-.71,8.3-1.01,2.12-.3,3.43-.49,3.45-.41Z"/><path class="cls-6" d="m173.21,231.76s-.63.02-1.75-.04c-1.21-.06-2.81-.14-4.76-.24-4.02-.19-9.57-.38-15.7-.35-6.13.04-11.68.28-15.7.52-1.94.12-3.54.22-4.75.3-1.12.07-1.75.09-1.75.06,0-.04.61-.13,1.73-.26,1.12-.14,2.74-.3,4.75-.46,4.01-.33,9.57-.63,15.72-.67,6.15-.03,11.71.21,15.72.5,2.01.14,3.63.29,4.75.41,1.12.12,1.74.2,1.73.24Z"/><path class="cls-6" d="m175.17,212.84c-.04.14-6.51-1.55-14.46-3.76-7.95-2.22-14.36-4.13-14.32-4.27.04-.14,6.51,1.55,14.46,3.76,7.95,2.22,14.36,4.13,14.32,4.27Z"/><path class="cls-6" d="m179.36,196.97s-.17-.02-.47-.11c-.36-.11-.8-.24-1.32-.4-1.15-.35-2.79-.91-4.81-1.65-4.03-1.47-9.53-3.71-15.41-6.6-5.88-2.9-11.01-5.89-14.63-8.2-1.81-1.15-3.26-2.11-4.24-2.81-.45-.32-.82-.58-1.12-.8-.25-.19-.38-.29-.37-.31s.16.06.43.22c.32.2.71.43,1.18.72,1.01.64,2.49,1.55,4.32,2.66,3.66,2.22,8.81,5.15,14.67,8.04,5.86,2.88,11.32,5.17,15.31,6.72,2,.78,3.62,1.39,4.74,1.8.51.2.94.36,1.29.49.29.12.44.19.44.21Z"/><path class="cls-6" d="m188.77,181.03c-.08.12-5.15-3.3-11.31-7.64-6.16-4.34-11.09-7.95-11.01-8.07.08-.12,5.14,3.3,11.31,7.64,6.16,4.34,11.09,7.95,11.01,8.07Z"/><path class="cls-6" d="m168.88,132.42s.14.08.38.28c.28.24.61.53,1.02.87.93.83,2.18,1.93,3.68,3.26,3.16,2.82,7.41,6.61,12.11,10.81,4.72,4.17,8.99,7.95,12.16,10.76,1.5,1.34,2.75,2.44,3.68,3.27.39.36.71.66.98.91.22.21.33.33.32.34-.01.01-.15-.08-.39-.26-.29-.23-.63-.5-1.05-.83-.9-.73-2.2-1.81-3.78-3.15-3.18-2.68-7.52-6.43-12.27-10.64-4.74-4.21-8.98-8.09-12.02-10.92-1.52-1.42-2.74-2.58-3.57-3.39-.38-.37-.69-.68-.95-.94-.21-.22-.32-.34-.31-.35Z"/><path class="cls-6" d="m200.07,133.33s.27.23.68.69c.41.47.99,1.16,1.68,2.03,1.39,1.74,3.24,4.19,5.16,6.99,1.92,2.8,3.53,5.42,4.65,7.35.56.96.99,1.75,1.28,2.3.29.55.43.87.4.88-.07.04-.8-1.12-1.99-3-1.19-1.87-2.85-4.45-4.76-7.24-1.91-2.79-3.71-5.27-5.02-7.06-1.31-1.79-2.13-2.89-2.07-2.94Z"/><g class="cls-12"><path class="cls-1" d="m160.1,124.82l43.5,38.09,10.81-8.65-25.24-38.68s-1.93,1.42-6.96,2.86c-4.87,1.39-19.21,1.76-22.11,6.39Z"/></g><g class="cls-12"><path class="cls-1" d="m208.53,92.6l21.24,53.17,13.57-4.25-4.52-46.12s-2.34.55-7.52-.11c-5.02-.64-17.22-5.41-22.77-2.69Z"/></g><g class="cls-13"><path class="cls-1" d="m265.17,81.47l1.42,57.74,12.72.61,12.88-44.32c-.25-.02-3.57-.6-7.49-3.1-4.41-2.82-13.38-11.39-19.54-10.93Z"/></g><g class="cls-12"><path class="cls-1" d="m320.65,92.38l-21.11,53.23,11.49,5.49,29.05-35.86c-.22-.12-2.97-2.41-5.52-6.49-2.77-4.44-7.49-14.6-13.92-16.38Z"/></g><g class="cls-12"><path class="cls-1" d="m370.23,125.59l-39.32,40.98,8.76,11.81,38.42-25.64s-1.61-2.56-2.53-7.48c-.92-4.98-1.06-14.05-5.33-19.66Z"/></g><g class="cls-12"><path class="cls-1" d="m401.27,171.85l-52.95,21.79,4.39,13.53,46.07-5s-.29-1.42.32-6.62c.59-5.03,5.87-16.27,2.17-23.71Z"/></g><g class="cls-12"><path class="cls-1" d="m412.99,229.54l-57.72,2.02-.48,12.73,44.04,12.88c.02-.25.41-2.73,1.75-5.26,3.24-6.13,12.42-14.77,12.42-22.38Z"/></g><g class="cls-12"><path class="cls-1" d="m402.35,284.12l-53.15-20.72-5.38,11.55,36.16,28.68c.11-.22,2.22-2.18,6.28-4.76,4.41-2.81,14.87-7.36,16.09-14.75Z"/></g><g class="cls-12"><path class="cls-1" d="m324.18,283.3l-13.15,11.04c1,1.04,18.53,30.84,29.33,49.26.15-.11.29-.24.44-.34,7.12-4.76,19.77-2.85,26.91-7.57l-43.53-52.4Z"/><path class="cls-1" d="m300,304.18l-19.64,6.7,9.3,53.32c.61-.21,1.23-.39,1.85-.51,9.26-1.83,21.47,6.23,29.99,2.7,1.17-.49,2.23-1.18,3.22-2.01l-24.72-60.19Z"/><path class="cls-1" d="m264.14,377.6l3.14-69.66-16.98-4.3-12.64,59.98c.16.03.31.05.47.08,8.77,1.74,16.79,13.35,26.01,13.91Z"/><path class="cls-1" d="m221.44,296.11s-22.44,30.06-34.17,46.25c.55.27,1.08.57,1.58.91,7.71,5.16,10.62,19.53,19.29,23.12.4.16.81.3,1.22.41l31.35-59.34-19.26-11.35Z"/><path class="cls-1" d="m198.41,271.91l-47.86,32.9c.18.24.38.47.55.71,5.2,7.77,2.43,22.15,9.01,28.73.61.61,1.3,1.11,2.02,1.57,16.91-19.06,47.27-53.28,48.37-54.47l-12.09-9.45Z"/><path class="cls-1" d="m187.44,248.42l-56.59,9.14c.9,9.08-6.25,20.54-2.89,28.66.21.5.46.97.73,1.43,19.8-9.86,61.18-30.37,62.9-30.48l-4.16-8.75Z"/><path class="cls-1" d="m184.35,216.9l-53.49-15.44c-.04.47-.1.93-.19,1.38-1.78,8.99-13.94,17.18-13.94,26.69,0,.64.06,1.27.16,1.9h65.29l2.17-14.53Z"/><path class="cls-1" d="m128.19,172.43c19.99,10.71,59.08,32.38,59.08,32.38l9.62-18.27-45.19-34.02c-.19.35-.38.71-.6,1.04-5.07,7.58-19.02,10.53-22.91,18.87Z"/></g><path class="cls-6" d="m412.9,229.54s-.03-.21-.06-.63c-.05-.42-.03-1.06-.26-1.86-.31-1.63-1.23-3.98-3-6.7-1.72-2.76-4.32-5.85-7.03-9.76-1.32-1.97-2.7-4.19-3.43-6.85-.73-2.67-.59-5.68-.02-8.71.55-3.05,1.46-6.19,2.26-9.52.73-3.31,1.53-6.93.79-10.61-.39-1.82-1.26-3.55-2.48-5.06-1.24-1.5-2.8-2.76-4.45-3.95-3.32-2.36-7.13-4.24-10.79-6.7-1.82-1.23-3.62-2.61-5.1-4.36-1.5-1.75-2.47-3.93-3.13-6.19-1.29-4.55-1.57-9.41-2.55-14.28-.5-2.42-1.17-4.88-2.46-7.06-1.26-2.2-3.31-3.9-5.7-4.93-2.38-1.06-5-1.6-7.65-2.04-2.65-.44-5.37-.75-8.09-1.23-2.72-.49-5.5-1.13-8.02-2.52-2.53-1.38-4.51-3.6-6.16-5.97-1.66-2.39-3.09-4.95-4.61-7.47-1.52-2.52-3.12-5.05-5.2-7.21-2.07-2.13-4.84-3.67-7.89-3.87-3.04-.23-6.11.35-9.14,1.07-3.04.73-6.08,1.62-9.24,2.21-3.13.61-6.49.83-9.66-.18-3.12-1.08-5.87-2.98-8.53-4.93-2.66-1.96-5.26-4.05-8.12-5.78-2.84-1.68-6.08-3.07-9.45-2.7l-.63.05c-.21.04-.41.09-.61.13-.41.1-.82.17-1.23.29-.79.29-1.61.53-2.36.92-1.55.69-3,1.62-4.43,2.57-2.85,1.94-5.53,4.17-8.45,6.15-1.44,1.01-2.99,1.9-4.6,2.66-1.63.74-3.41,1.18-5.21,1.32-3.62.18-7.18-.64-10.67-1.52-3.5-.88-7-1.88-10.6-2.23-1.8-.15-3.62-.07-5.37.36-1.76.42-3.32,1.42-4.7,2.58-2.76,2.41-4.69,5.65-6.6,8.83-1.91,3.2-3.73,6.54-6.27,9.41-1.28,1.41-2.76,2.7-4.5,3.57-1.74.85-3.58,1.42-5.46,1.86-3.76.82-7.6,1.18-11.38,1.86-3.74.68-7.64,1.74-10.41,4.43-1.34,1.37-2.27,3.09-2.96,4.89-.7,1.81-1.1,3.73-1.46,5.65-.7,3.86-1.02,7.82-1.96,11.71-.45,1.95-1.11,3.87-2.13,5.63-1.02,1.76-2.42,3.28-4.01,4.53-3.16,2.54-6.75,4.42-10.19,6.52-1.71,1.06-3.4,2.16-4.96,3.43-1.53,1.29-2.92,2.77-3.88,4.52-.97,1.74-1.41,3.75-1.39,5.76,0,2.02.3,4.04.7,6.03.85,4,2.11,7.93,2.79,12.04.35,2.05.48,4.17.21,6.26-.27,2.1-1.08,4.09-2.09,5.93-2.08,3.66-4.8,6.86-7.21,10.26-1.22,1.69-2.34,3.46-3.23,5.34-.88,1.87-1.5,3.89-1.51,5.96.01,2.07.62,4.09,1.49,5.96.88,1.88,2,3.65,3.22,5.34,2.41,3.41,5.13,6.61,7.22,10.26,1.01,1.83,1.83,3.83,2.1,5.93.28,2.09.16,4.21-.2,6.26-.67,4.11-1.94,8.05-2.79,12.05-.41,2-.71,4.02-.71,6.04-.02,2.02.42,4.02,1.38,5.77.95,1.75,2.34,3.24,3.87,4.53,1.56,1.27,3.25,2.38,4.96,3.44,3.43,2.1,7.03,3.98,10.19,6.52,1.58,1.25,3,2.77,4.01,4.53,1.02,1.76,1.69,3.69,2.13,5.63.94,3.9,1.26,7.86,1.96,11.72.35,1.93.76,3.85,1.46,5.65.69,1.8,1.62,3.52,2.95,4.89,2.77,2.69,6.67,3.76,10.41,4.44,3.79.69,7.63,1.04,11.39,1.86,1.87.44,3.72,1.01,5.46,1.86,1.74.87,3.22,2.16,4.5,3.57,2.54,2.87,4.36,6.21,6.27,9.42,1.92,3.18,3.85,6.42,6.6,8.83,1.38,1.16,2.94,2.16,4.7,2.58,1.75.44,3.57.51,5.37.36,3.61-.35,7.11-1.35,10.6-2.23,3.49-.88,7.05-1.7,10.67-1.52,1.8.14,3.58.58,5.21,1.32,1.61.76,3.16,1.65,4.6,2.66,2.92,1.98,5.6,4.21,8.45,6.15,1.43.95,2.88,1.88,4.43,2.57.76.4,1.57.63,2.36.92.4.11.82.19,1.23.29.21.04.41.1.61.13l.63.05c3.37.38,6.61-1.02,9.45-2.7,2.85-1.73,5.45-3.82,8.12-5.78,2.66-1.95,5.41-3.84,8.53-4.92,3.17-1.01,6.53-.79,9.66-.18,3.15.59,6.2,1.48,9.24,2.21,3.03.72,6.11,1.3,9.14,1.07,3.05-.21,5.81-1.74,7.88-3.88,2.07-2.15,3.67-4.69,5.2-7.21,1.52-2.53,2.95-5.09,4.61-7.47,1.66-2.37,3.64-4.59,6.17-5.97,2.52-1.39,5.3-2.03,8.02-2.52,2.73-.48,5.44-.79,8.09-1.23,2.65-.44,5.26-.99,7.65-2.05,2.39-1.03,4.43-2.73,5.69-4.93,1.29-2.18,1.96-4.64,2.46-7.06.98-4.86,1.26-9.73,2.55-14.27.65-2.26,1.63-4.44,3.13-6.18,1.48-1.75,3.29-3.13,5.1-4.36,3.65-2.46,7.47-4.34,10.78-6.7,1.65-1.18,3.2-2.45,4.45-3.95,1.23-1.51,2.09-3.24,2.48-5.06.43-1.82.32-3.68.15-5.45-.18-1.78-.57-3.49-.94-5.16-.8-3.33-1.7-6.47-2.26-9.52-.57-3.03-.71-6.04.02-8.71.74-2.67,2.11-4.89,3.43-6.85,2.71-3.91,5.32-6.99,7.03-9.76,1.77-2.73,2.68-5.07,3-6.7.23-.8.21-1.44.26-1.86.04-.42.06-.63.06-.63,0,0,0,.21-.04.63-.04.42-.02,1.06-.24,1.87-.3,1.64-1.2,4.01-2.96,6.75-1.71,2.78-4.3,5.88-6.99,9.79-1.31,1.97-2.67,4.18-3.39,6.81-.71,2.63-.57,5.61,0,8.62.56,3.03,1.47,6.17,2.28,9.5.37,1.67.78,3.39.96,5.19.17,1.79.28,3.67-.15,5.53-.39,1.86-1.28,3.64-2.52,5.18-1.26,1.53-2.83,2.81-4.49,4-3.34,2.38-7.15,4.27-10.78,6.72-1.8,1.23-3.58,2.59-5.04,4.31-1.46,1.71-2.42,3.84-3.06,6.08-1.27,4.5-1.55,9.36-2.52,14.25-.5,2.44-1.17,4.93-2.49,7.17-1.29,2.26-3.41,4.03-5.84,5.08-2.43,1.08-5.07,1.64-7.73,2.08-2.66.44-5.38.75-8.09,1.24-2.7.49-5.45,1.13-7.9,2.49-2.46,1.34-4.39,3.51-6.03,5.86-1.64,2.36-3.06,4.92-4.59,7.45-1.52,2.53-3.13,5.09-5.25,7.29-2.1,2.18-5,3.79-8.13,4-3.12.24-6.23-.36-9.28-1.07-3.05-.73-6.09-1.62-9.22-2.2-3.1-.6-6.38-.8-9.45.17-3.04,1.05-5.76,2.92-8.41,4.87-2.65,1.96-5.26,4.05-8.15,5.81-.74.4-1.45.87-2.24,1.2-.39.18-.77.37-1.16.53l-1.21.43c-1.63.5-3.37.83-5.11.6l-.65-.05c-.21-.03-.42-.09-.64-.13-.42-.1-.85-.18-1.27-.3-.81-.3-1.65-.54-2.42-.95-1.59-.71-3.05-1.65-4.5-2.61-2.87-1.96-5.56-4.19-8.45-6.15-1.43-1-2.95-1.87-4.53-2.62-1.6-.72-3.3-1.14-5.05-1.28-3.52-.17-7.04.63-10.52,1.51-3.49.87-7,1.89-10.68,2.24-1.84.15-3.72.08-5.54-.37-1.84-.44-3.47-1.49-4.9-2.68-2.84-2.48-4.78-5.76-6.71-8.95-1.91-3.21-3.73-6.53-6.22-9.34-1.26-1.38-2.68-2.61-4.36-3.46-1.68-.82-3.5-1.38-5.34-1.82-3.72-.81-7.55-1.17-11.37-1.86-1.9-.37-3.82-.76-5.65-1.49-1.83-.71-3.59-1.69-5.02-3.09-1.4-1.44-2.37-3.22-3.07-5.07-.72-1.85-1.12-3.8-1.48-5.74-.71-3.89-1.03-7.85-1.96-11.69-.44-1.92-1.1-3.8-2.08-5.5-.98-1.69-2.34-3.16-3.9-4.39-3.1-2.49-6.68-4.37-10.14-6.48-1.72-1.07-3.43-2.18-5.02-3.48-1.56-1.32-3-2.85-4-4.68-1-1.82-1.47-3.94-1.44-6.01,0-2.08.31-4.13.72-6.15.85-4.03,2.12-7.97,2.78-12.02.35-2.02.47-4.09.19-6.11-.27-2.02-1.05-3.94-2.04-5.74-2.05-3.59-4.76-6.79-7.19-10.22-1.22-1.71-2.37-3.49-3.27-5.42-.9-1.92-1.53-4.02-1.54-6.18.02-2.17.66-4.26,1.56-6.18.9-1.92,2.05-3.71,3.27-5.42,2.43-3.42,5.14-6.62,7.18-10.21.99-1.8,1.77-3.73,2.03-5.75.26-2.02.14-4.08-.2-6.1-.67-4.05-1.93-7.99-2.79-12.02-.41-2.02-.72-4.07-.71-6.15-.02-2.07.44-4.18,1.46-6,1-1.83,2.44-3.36,4-4.67,1.59-1.3,3.3-2.41,5.02-3.48,3.45-2.11,7.03-3.99,10.13-6.48,1.56-1.23,2.91-2.7,3.89-4.39.98-1.7,1.63-3.58,2.07-5.5.92-3.84,1.25-7.8,1.96-11.68.36-1.94.77-3.89,1.48-5.74.7-1.85,1.67-3.63,3.07-5.07,1.43-1.4,3.2-2.38,5.03-3.09,1.83-.72,3.75-1.12,5.65-1.48,3.82-.69,7.65-1.04,11.36-1.86,1.85-.43,3.66-1,5.34-1.82,1.68-.84,3.1-2.08,4.36-3.46,2.49-2.81,4.3-6.13,6.21-9.33,1.93-3.19,3.86-6.46,6.71-8.95,1.43-1.2,3.06-2.24,4.9-2.68,1.82-.45,3.7-.53,5.53-.37,3.67.36,7.19,1.37,10.68,2.24,3.48.88,7,1.68,10.52,1.51,1.75-.13,3.45-.56,5.05-1.27,1.58-.75,3.1-1.62,4.53-2.62,2.89-1.96,5.58-4.19,8.45-6.15,1.45-.96,2.91-1.9,4.5-2.61.77-.4,1.61-.65,2.42-.95.42-.12.85-.2,1.27-.3.21-.04.42-.1.64-.14l.65-.05c1.73-.23,3.48.11,5.11.6l1.21.43c.4.16.77.36,1.16.53.79.33,1.5.8,2.24,1.2,2.89,1.76,5.49,3.85,8.15,5.81,2.65,1.95,5.37,3.81,8.41,4.87,3.06.97,6.34.78,9.44.17,3.12-.58,6.16-1.47,9.22-2.2,3.05-.72,6.16-1.31,9.28-1.08,3.14.2,6.03,1.81,8.14,3.99,2.12,2.2,3.72,4.76,5.25,7.28,1.52,2.53,2.94,5.09,4.58,7.45,1.64,2.35,3.57,4.52,6.03,5.86,2.45,1.36,5.2,2,7.9,2.49,2.71.48,5.42.8,8.09,1.24,2.66.44,5.3,1,7.73,2.08,2.43,1.05,4.56,2.82,5.85,5.07,1.32,2.24,2,4.73,2.49,7.17.98,4.89,1.25,9.75,2.52,14.25.65,2.23,1.59,4.37,3.06,6.08,1.45,1.72,3.23,3.09,5.03,4.31,3.63,2.45,7.44,4.34,10.78,6.72,1.66,1.19,3.23,2.47,4.49,4,1.25,1.54,2.13,3.32,2.53,5.17.43,1.86.31,3.74.15,5.53-.18,1.8-.59,3.52-.96,5.19-.8,3.34-1.72,6.47-2.28,9.5-.58,3.02-.72,5.99,0,8.62.72,2.63,2.08,4.85,3.39,6.81,2.69,3.91,5.29,7.01,6.99,9.79,1.76,2.74,2.66,5.11,2.96,6.75.22.81.19,1.45.24,1.87.03.42.04.63.04.63Z"/><path class="cls-6" d="m237.04,366.96c.14.04-3.55,15-8.24,33.42-4.69,18.43-8.61,33.33-8.75,33.3s3.55-15,8.24-33.42c4.69-18.42,8.61-33.33,8.75-33.29Z"/><circle class="cls-4" cx="264.82" cy="229.54" r="90.78"/><path class="cls-9" d="m208.92,198.08c-1.25,1.25-8.14,13.77-8.76,24.09-.63,10.33.86,68.32.86,68.32l.27,3.84c16.34,19.11,75.74,47.55,129.24-.1h0l3-35.67-8.83-75.51-30.67-7.51-7.19-11.66-47.93,11.22-4.27,10.1-25.72,12.86Z"/><path class="cls-6" d="m283.52,133.54c2.11-7.84,4.19-15.75,4.92-23.84.73-8.09.05-16.45-3.16-23.91-.49-1.13-4.54-8.68-5.76-8.49-.87.13,1.75,7.23,1.35,8.01-3.85,7.47-4.55,16.24-3.44,24.57,1.1,8.33,3.23,15.76,6.1,23.66"/><path class="cls-10" d="m282.72,102.54c-.39-20.37-12.56-37.12-32.92-36.17l-1.88.2c-18.87,1.99-33.06,18.14-32.6,37.11.43,17.65,1.14,37.15,2.24,46.53,2.29,19.42,22.05,20.39,22.05,20.39.04,0,.91,12.77.91,12.77l8.35,9.07,38.71-23.98-4.88-65.92Z"/><path class="cls-8" d="m239.63,170.75s12.33-.57,24.52-10.15c0,0-4.08,17.61-23.67,17.9l-.86-7.75Z"/><path class="cls-6" d="m226.52,119.51c.1,1.47,1.43,2.6,2.97,2.52,1.54-.08,2.7-1.33,2.6-2.81-.1-1.47-1.43-2.6-2.97-2.52-1.54.08-2.7,1.34-2.6,2.81Z"/><path class="cls-6" d="m220.34,111.31c.38.33,2.32-1.45,5.31-1.76,2.98-.35,5.34.96,5.62.56.14-.18-.28-.8-1.31-1.39-1.01-.59-2.69-1.1-4.55-.89-1.86.21-3.35,1.06-4.18,1.85-.84.8-1.09,1.49-.9,1.63Z"/><path class="cls-6" d="m252.91,117.27c.1,1.47,1.43,2.6,2.97,2.52,1.54-.08,2.7-1.33,2.6-2.81-.1-1.47-1.43-2.6-2.97-2.52-1.54.08-2.7,1.34-2.6,2.81Z"/><path class="cls-6" d="m249.73,109.43c.38.33,2.32-1.45,5.31-1.76,2.98-.35,5.33.96,5.62.56.14-.18-.27-.8-1.31-1.39-1.01-.59-2.69-1.1-4.55-.89-1.86.21-3.35,1.06-4.18,1.85-.84.8-1.09,1.49-.9,1.63Z"/><path class="cls-6" d="m241.43,133.52c0-.17-1.89-.3-4.94-.36-.77,0-1.51-.07-1.69-.58-.24-.53,0-1.39.27-2.32.52-1.92,1.07-3.94,1.64-6.05,2.26-8.6,3.81-15.64,3.47-15.73-.35-.09-2.46,6.81-4.72,15.41-.54,2.12-1.06,4.14-1.54,6.07-.2.9-.59,1.93-.08,3.04.27.55.87.9,1.37.98.5.1.93.06,1.31.04,3.05-.16,4.93-.34,4.92-.51Z"/><path class="cls-6" d="m250.44,134.66c-.49.02-.15,3.27-2.69,5.86-2.53,2.6-6.02,2.6-6,3.06-.02.21.84.55,2.3.44,1.44-.1,3.48-.78,5.03-2.37,1.54-1.59,2.07-3.55,2.04-4.89-.02-1.37-.47-2.13-.69-2.09Z"/><path class="cls-6" d="m248.62,97.29c.38.78,3.32.08,6.87.13,3.55-.02,6.49.71,6.87-.07.17-.37-.4-1.08-1.63-1.75-1.22-.67-3.1-1.22-5.23-1.23-2.13,0-4.02.53-5.24,1.18-1.23.65-1.81,1.36-1.65,1.73Z"/><path class="cls-6" d="m220.53,101.25c.6.62,2.58-.3,5.05-.59,2.46-.38,4.62-.03,5.03-.79.17-.37-.23-1.01-1.21-1.56-.97-.54-2.53-.91-4.23-.68-1.7.23-3.1,1-3.89,1.79-.8.79-1.01,1.52-.75,1.82Z"/><path class="cls-10" d="m282.65,117.11c.32-.18,12.94-5.36,13.92,7.98.98,13.34-12.61,11.57-12.67,11.18-.05-.38-1.25-19.16-1.25-19.16Z"/><path class="cls-8" d="m287.61,130.92c.06-.05.24.15.65.3.4.15,1.06.22,1.74-.09,1.37-.62,2.39-2.94,2.28-5.35-.06-1.22-.39-2.35-.89-3.28-.48-.95-1.16-1.58-1.88-1.66-.72-.11-1.19.35-1.32.74-.15.39-.05.65-.12.67-.03.04-.3-.2-.24-.76.04-.27.17-.6.46-.87.3-.28.76-.45,1.26-.43,1.03,0,2.03.87,2.58,1.89.61,1.02,1.02,2.29,1.08,3.66.11,2.69-1.08,5.31-2.97,6.01-.92.31-1.72.09-2.15-.2-.44-.3-.53-.59-.48-.62Z"/><path class="cls-6" d="m222.54,81.02c-2.24-1.05,3.79-8.46,8.95-11.21,7.79-4.16,19.89-7.18,27.42-5.56,9.07,1.95,16.75,5.91,21.74,13.72,4.99,7.82,7.28,17.15,7.62,26.42.1,2.83,0,5.79-1.35,8.27-1.67,3.07-5.13,5.16-4.71,9.22.15,1.48-.17,3.01-1.12,4.16-2.27,2.75-5.42.51-6.95-1.85-3.27-5.04-4-11.26-4.64-17.23-.46-4.24-.91-8.58.03-12.75.51-2.27,1.42-4.44,1.81-6.73.38-2.29.15-4.85-1.37-6.6-.25-.29-.65-.64-1.15-1.03-3.99-3.07-9.35-3.72-13.98-1.74-7.34,3.14-19.92,7.94-23.44,5.6-5.06-3.36-6.37-5.68-6.37-5.68l-2.47,2.97Z"/><path class="cls-9" d="m208.92,198.08c-.77,1.07-11.7,4.7-15.85,11.61-4.15,6.91-8.25,37.93-8.25,37.93l-2.64,20.42c5.2,8.23,12.17,19.12,19.58,26.8l7.16-96.75Z"/><g class="cls-13"><path class="cls-1" d="m291.05,228.03c.46,4.16.93,8.37,2.36,12.31,1.43,3.93,3.94,7.63,7.61,9.66,1.53.85,3.27,1.41,4.55,2.6,1.38,1.28,2.07,3.14,3.32,4.55,1.45,1.64,3.55,2.55,5.61,3.29,6.11,2.17,12.14,3.2,18.62,2.97.2-2.14.21-10,.41-12.14l-42.48-23.23Z"/></g><path class="cls-9" d="m324.7,183.06s13.78,4.08,17.82,9.95,11.19,28.63,12.66,32.85c1.47,4.22.18,14.01-2.57,21.04-2.75,7.03-7.53,13.09-15.78,14.01-8.25.92-21.29-3.85-24.22-6.97-2.93-3.12-4.16-10.12-4.16-10.12,3.66-.64,7.28-1.55,10.82-2.71"/><path class="cls-6" d="m319.26,241.1s-.06.03-.17.08c-.14.05-.31.11-.52.19-.46.16-1.15.39-2.06.66-1.82.54-4.52,1.28-8.04,1.93l.11-.16c.31,1.56.75,3.27,1.41,5.06.33.89.71,1.81,1.19,2.7.49.89,1.06,1.79,1.85,2.51.79.72,1.77,1.3,2.79,1.84,1.02.55,2.11,1.03,3.24,1.49,2.27.91,4.72,1.7,7.32,2.32,2.6.6,5.36,1.05,8.22,1.06.72.03,1.43-.06,2.15-.1.71-.12,1.44-.18,2.15-.38,1.43-.32,2.83-.86,4.14-1.61,2.64-1.46,4.87-3.74,6.57-6.41,1.72-2.67,2.98-5.7,3.9-8.86.72-2.43,1.25-4.89,1.59-7.33.35-2.44.52-4.88.36-7.25-.09-1.19-.31-2.31-.72-3.42-.37-1.12-.74-2.23-1.1-3.33-.73-2.19-1.45-4.34-2.15-6.43-1.42-4.18-2.82-8.13-4.22-11.8-1.43-3.65-2.76-7.07-4.43-9.94-.82-1.44-1.93-2.57-3.11-3.48-1.16-.94-2.36-1.69-3.51-2.35-2.3-1.31-4.39-2.23-6.11-2.95-1.72-.71-3.08-1.21-4.01-1.54-.44-.16-.79-.28-1.05-.37-.24-.08-.36-.13-.36-.14,0,0,.13.02.37.09.27.08.62.19,1.07.32.94.3,2.31.76,4.05,1.45,1.74.69,3.85,1.6,6.18,2.89,1.16.65,2.38,1.4,3.57,2.34,1.2.91,2.38,2.08,3.22,3.55,1.72,2.9,3.07,6.32,4.52,9.97,1.42,3.67,2.84,7.62,4.27,11.8.71,2.09,1.43,4.24,2.17,6.43.37,1.1.74,2.2,1.11,3.32.41,1.11.66,2.34.75,3.55.17,2.43,0,4.9-.35,7.36-.35,2.47-.88,4.95-1.61,7.41-.94,3.2-2.21,6.27-3.97,9-1.73,2.73-4.03,5.07-6.76,6.57-1.35.77-2.8,1.32-4.27,1.65-.73.2-1.48.27-2.21.39-.74.04-1.48.13-2.2.1-2.92-.02-5.71-.48-8.33-1.1-2.62-.63-5.09-1.44-7.37-2.37-1.14-.47-2.24-.96-3.27-1.53-1.03-.55-2.02-1.15-2.86-1.91-.83-.77-1.41-1.71-1.9-2.62-.49-.92-.87-1.85-1.19-2.76-.64-1.82-1.07-3.54-1.37-5.12l-.03-.14.14-.02c3.52-.6,6.22-1.3,8.05-1.8.89-.25,1.58-.45,2.08-.59.22-.06.39-.11.53-.15.12-.03.18-.05.18-.04Z"/><path class="cls-6" d="m344.55,233.73c-.1.02-.42-1.7-1.57-4.24-1.13-2.53-3.16-5.88-6.22-8.83-1.52-1.48-3.21-2.6-4.83-3.44-.42-.19-.82-.37-1.22-.54-.39-.18-.81-.26-1.19-.39-.77-.28-1.52-.35-2.21-.46-.17-.03-.34-.05-.5-.08-.16,0-.32,0-.48,0-.31,0-.6,0-.88,0-.55-.03-1.02.07-1.41.12-.77.11-1.2.16-1.21.12,0-.03.41-.15,1.18-.32.39-.09.86-.22,1.42-.21.29-.01.59-.03.9-.04.16,0,.33-.01.49-.02.17.02.34.04.52.06.71.09,1.49.14,2.29.41.4.12.83.2,1.24.38.41.18.83.36,1.26.54,1.68.84,3.43,1.98,4.98,3.49,3.12,3.01,5.14,6.45,6.2,9.06.27.65.51,1.25.66,1.79.16.54.32.99.38,1.38.16.77.23,1.2.19,1.21Z"/><path class="cls-6" d="m352.07,221.36c-.11.04-.49-1.77-2.08-4.2-1.56-2.39-4.54-5.38-8.78-6.65-4.23-1.29-8.34-.89-11.21-.61-1.37.16-2.51.3-3.43.41-.81.1-1.26.14-1.27.1,0-.04.43-.14,1.23-.3.8-.16,1.96-.37,3.41-.58,2.87-.37,7.04-.84,11.4.48,2.17.66,4.07,1.77,5.56,3.04,1.51,1.26,2.6,2.66,3.38,3.91.78,1.26,1.22,2.37,1.47,3.16.25.78.32,1.23.3,1.24Z"/><path class="cls-6" d="m341.68,206.57c-.04.17-3.63-.99-8.19-.78-4.57.16-8.06,1.59-8.11,1.42-.02-.06.81-.49,2.26-.95,1.44-.46,3.51-.9,5.83-1,2.32-.09,4.41.19,5.89.54,1.48.35,2.34.71,2.32.77Z"/><path class="cls-6" d="m319.38,186.5c.08.01-.12,1.41-.28,3.66-.16,2.26-.24,5.39.07,8.83.28,3.3.88,6.27,1.41,8.42l-.36.12c-.41-1.16-.73-2.09-.94-2.75s-.31-1.02-.28-1.03c.03-.01.2.33.47.96.27.63.65,1.55,1.1,2.69l-.36.12c-.62-2.15-1.28-5.13-1.56-8.47-.31-3.47-.18-6.64.08-8.9.13-1.13.27-2.04.4-2.67.13-.63.21-.97.25-.96Z"/><path class="cls-10" d="m299.89,160.85s-7.15,0-8.05,8.6c-.69,6.6,0,13.01,0,15.9s-1.27,13.17-1.27,13.17c0,0-4.88,4.33-4.8,9.53.08,5.23,3.8,6.82,3.8,6.82,0,0-2.27,4.95,2.06,9.5,0,0-2.08,4.79-.37,8.02,1.32,2.5,4.29,3.33,4.29,3.33,0,0-2.11,4.72,2.96,6.71,3,1.17,7.43.91,7.43.91l5.34-.1,4.7,2.6s8.05-3.51,8.26-8.26l.21-4.75s-2.27-7.84-2.48-10.32c-.21-2.48,1.86-8.46.62-11.15-1.24-2.68-5.57-4.26-5.16-8.01.41-3.75-.41-5.82-2.27-7.88-1.86-2.06-10.07-6.19-10.07-6.19,0,0-2.11-5.99-2.11-10.12s4.13-16.72-3.1-18.3Z"/><path class="cls-8" d="m304.71,190.83c.04.06-.72.55-1.98,1.28-1.26.74-3.01,1.72-4.96,2.78-1.95,1.06-3.74,2-5.04,2.65-1.3.65-2.13,1.03-2.16.96s.73-.55,1.98-1.29c1.26-.74,3.01-1.72,4.96-2.78,1.95-1.06,3.73-1.99,5.04-2.65,1.3-.65,2.13-1.03,2.16-.96Z"/><path class="cls-8" d="m309.41,206.99s-.2.23-.62.56c-.42.34-1.05.79-1.86,1.31-1.61,1.05-3.96,2.33-6.7,3.38-2.75,1.05-5.35,1.66-7.25,1.96-.95.15-1.72.24-2.26.27-.54.03-.83.04-.84,0,0-.08,1.16-.24,3.03-.63,1.87-.39,4.42-1.05,7.13-2.08,2.71-1.04,5.05-2.25,6.7-3.21,1.65-.96,2.63-1.62,2.68-1.55Z"/><path class="cls-8" d="m315.55,201.85c.13.04-.14.96-.99,1.73-.84.77-1.78.95-1.81.82-.05-.14.72-.51,1.46-1.21.76-.68,1.2-1.41,1.34-1.34Z"/><path class="cls-8" d="m312.6,221.15c.02.06-1.11.52-2.99,1.1-1.88.58-4.53,1.24-7.5,1.72-2.97.48-5.69.68-7.66.72-1.97.05-3.19-.04-3.19-.1,0-.08,1.21-.13,3.17-.27,1.95-.14,4.65-.39,7.6-.87,2.95-.48,5.58-1.08,7.48-1.56,1.9-.48,3.07-.82,3.09-.74Z"/><path class="cls-8" d="m319.14,219.96c-.07-.04.24-.59.55-1.53.31-.94.57-2.3.39-3.79-.18-1.49-.75-2.76-1.27-3.59-.52-.84-.95-1.3-.89-1.36.04-.05.57.32,1.2,1.15.62.82,1.3,2.15,1.49,3.74.19,1.59-.15,3.04-.56,3.98-.41.95-.84,1.44-.89,1.4Z"/><path class="cls-8" d="m312.97,235.63c.01.06-.95.33-2.54.6-1.59.27-3.82.5-6.29.49-2.47,0-4.69-.25-6.28-.53-1.59-.27-2.55-.55-2.54-.61.02-.08,1,.07,2.59.25,1.59.18,3.79.36,6.23.37,2.44,0,4.64-.16,6.24-.34,1.59-.17,2.58-.31,2.59-.23Z"/><path class="cls-8" d="m300.28,179.26c.03.06-.32.32-.99.56-.66.24-1.66.41-2.74.28-1.08-.13-2.01-.53-2.6-.92-.59-.39-.87-.73-.83-.78.09-.13,1.45.96,3.49,1.18,2.04.26,3.61-.47,3.67-.33Z"/><path class="cls-8" d="m320.62,220.57s.09.27.11.77c.01.5-.05,1.23-.25,2.11-.19.88-.52,1.89-.84,3-.3,1.11-.59,2.37-.37,3.64.17,1.26,1.12,2.29,1.27,3.58.17,1.26-.33,2.33-.79,3.09-.48.77-.95,1.32-1.29,1.68-.34.36-.55.55-.57.52-.08-.06.69-.88,1.55-2.39.4-.75.81-1.75.63-2.84-.12-1.09-1.08-2.11-1.31-3.56-.24-1.42.1-2.74.43-3.86.35-1.13.71-2.11.94-2.96.5-1.69.4-2.79.49-2.79Z"/><path class="cls-6" d="m323.31,226.85s.16.32.34.94c.18.61.42,1.51.65,2.64.22,1.13.44,2.48.48,4.01.03,1.52-.12,3.26-.9,4.9-.8,1.61-1.96,2.88-3.07,3.92-1.12,1.03-2.23,1.85-3.18,2.49-.95.64-1.74,1.12-2.3,1.44-.56.31-.88.47-.9.44-.04-.07,1.15-.82,2.99-2.17.91-.68,1.98-1.51,3.06-2.54,1.07-1.04,2.18-2.27,2.93-3.79.73-1.52.9-3.18.89-4.67,0-1.49-.19-2.83-.36-3.96-.37-2.24-.7-3.62-.62-3.64Z"/><path class="cls-6" d="m247.86,193.56s-.43-.28-1.16-.87c-.79-.65-1.81-1.5-3.03-2.51-.64-.54-1.34-1.13-2.08-1.75-.37-.31-.75-.64-1.18-.85-.43-.21-.91-.27-1.34-.05-.86.45-1.44,1.56-2.18,2.48-.71.96-1.45,1.95-2.2,2.97-1.21,1.62-2.37,3.17-3.44,4.61l-.65.86.21-1.06c.7-3.62,1.68-6.64,2.49-8.72.4-1.04.76-1.86,1.02-2.41.26-.55.42-.84.44-.83.03.01-.08.32-.29.89-.21.57-.52,1.4-.88,2.45-.72,2.11-1.63,5.12-2.29,8.71l-.44-.19c1.07-1.44,2.22-3,3.42-4.62.76-1.01,1.5-2,2.21-2.96.36-.48.71-.95,1.06-1.41.36-.46.76-.93,1.32-1.2.57-.29,1.26-.19,1.75.07.5.26.89.61,1.26.93.72.64,1.4,1.24,2.03,1.8,1.18,1.06,2.16,1.95,2.92,2.63.68.63,1.05.99,1.03,1.02Z"/><path class="cls-6" d="m290.08,185.11s-.12.13-.39.35c-.32.25-.71.55-1.18.92-1.1.83-2.59,1.95-4.41,3.32-3.81,2.8-8.98,6.61-14.71,10.83l-.22.16-.15-.23c-.12-.18-.24-.38-.36-.57-2.71-4.28-5.24-8.27-7.38-11.66l.27.09c-3.53,1.4-6.31,2.94-8.2,4.09-.95.57-1.67,1.05-2.17,1.37-.5.32-.76.49-.78.47-.01-.02.23-.22.7-.58.47-.36,1.18-.87,2.11-1.48,1.86-1.21,4.62-2.82,8.17-4.28l.17-.07.1.16c2.16,3.37,4.71,7.35,7.45,11.61.12.2.25.39.36.57l-.37-.07c5.77-4.17,10.97-7.93,14.81-10.7,1.86-1.31,3.38-2.39,4.5-3.18.5-.34.91-.62,1.24-.84.29-.19.44-.28.45-.27Z"/><path class="cls-6" d="m200.33,224.88s.04.24.05.71c.01.51.03,1.19.06,2.02.03,1.82.08,4.35.14,7.44.12,6.28.37,14.96.7,24.55.33,9.59.52,18.28.54,24.56.01,3.14,0,5.69-.03,7.45-.02.84-.03,1.51-.04,2.02-.02.46-.03.71-.05.71s-.04-.24-.05-.71c-.01-.51-.03-1.19-.06-2.02-.03-1.82-.08-4.34-.14-7.44-.12-6.28-.37-14.96-.7-24.55-.33-9.59-.52-18.27-.54-24.56-.01-3.14,0-5.69.03-7.45.02-.84.03-1.51.04-2.02.02-.46.03-.71.05-.71Z"/><path class="cls-6" d="m248.19,315.2s-.03-.1-.05-.29c-.02-.22-.06-.5-.1-.85-.08-.78-.18-1.88-.32-3.27-.28-2.84-.6-6.96-.92-12.05-.33-5.09-.59-11.16-.77-17.91-.15-6.75-.18-14.17-.02-21.95.18-7.79.54-15.2.98-21.94.47-6.73,1-12.79,1.54-17.86.54-5.07,1.04-9.17,1.44-12,.2-1.38.35-2.47.46-3.25.05-.35.1-.62.13-.84.03-.19.05-.29.06-.29,0,0,0,.1-.01.29-.02.22-.05.5-.08.85-.09.78-.21,1.88-.37,3.26-.34,2.83-.78,6.94-1.27,12.01-.5,5.07-.99,11.13-1.43,17.86-.41,6.73-.76,14.14-.94,21.92-.16,7.78-.14,15.19-.02,21.93.15,6.74.37,12.81.65,17.9.27,5.09.54,9.21.75,12.06.09,1.39.17,2.49.22,3.28.02.35.03.63.04.85,0,.19,0,.29,0,.29Z"/><path class="cls-6" d="m218.39,151.52s-.35.25-1.06.71c-.71.46-1.76,1.14-3.13,2.03-1.37.89-2.96,2.16-4.9,3.57-.96.72-1.91,1.59-2.98,2.46-.53.44-1.07.9-1.63,1.37-.55.48-1.08,1.02-1.65,1.55-4.55,4.23-9.71,9.91-14.46,17.36-.58.94-1.18,1.89-1.78,2.86-.63.96-1.11,2.02-1.69,3.04-.54,1.05-1.15,2.08-1.67,3.18-.5,1.11-1.02,2.23-1.54,3.37-.25.57-.54,1.14-.77,1.73-.23.59-.45,1.19-.68,1.79-.45,1.21-.94,2.42-1.38,3.66-.74,2.54-1.67,5.09-2.23,7.82-1.39,5.38-2.15,11.18-2.46,17.23-.35,6.05.01,12.39,1.05,18.84,2.11,12.87,7.18,26.27,15.81,38.18,8.52,11.95,20.56,22.34,35.01,29.17,14.43,6.87,31.31,9.84,48.17,8.1,16.88-1.75,32.7-8.4,45.37-18.11,3.19-2.4,6.13-5.07,8.94-7.8.68-.71,1.35-1.41,2.03-2.12.68-.7,1.34-1.41,1.97-2.16.64-.73,1.27-1.47,1.9-2.2.6-.76,1.19-1.52,1.79-2.27,4.75-6.05,8.5-12.64,11.47-19.35,2.96-6.72,4.92-13.67,6.12-20.51.62-3.42.96-6.84,1.19-10.21.11-1.68.1-3.36.16-5.02-.03-1.66-.12-3.3-.18-4.94-.03-.82-.06-1.63-.1-2.44-.05-.81-.18-1.6-.27-2.4-.19-1.59-.38-3.17-.57-4.74-.25-1.55-.61-3.08-.9-4.59-.31-1.51-.57-3.03-1.04-4.47-.42-1.46-.83-2.9-1.25-4.33-.18-.72-.44-1.41-.71-2.1-.26-.69-.52-1.37-.77-2.05-.53-1.35-.97-2.73-1.56-4.02-.6-1.29-1.2-2.56-1.79-3.82-4.83-10.02-11.03-18.12-17.25-24.37-6.25-6.27-12.53-10.66-17.83-13.89-1.35-.77-2.62-1.51-3.82-2.19-.59-.36-1.19-.64-1.78-.92-.58-.28-1.14-.54-1.68-.8-1.08-.52-2.08-.99-2.99-1.43-.9-.46-1.79-.72-2.54-1.03-1.52-.59-2.68-1.04-3.48-1.35-.78-.31-1.18-.48-1.18-.48,0,0,.41.14,1.2.43.8.3,1.97.73,3.5,1.3.76.31,1.65.56,2.56,1.01.92.43,1.92.9,3.01,1.41.54.25,1.11.52,1.69.79.59.27,1.2.55,1.79.91,1.2.68,2.48,1.41,3.84,2.18,5.32,3.22,11.64,7.59,17.93,13.86,6.26,6.25,12.51,14.36,17.38,24.42.59,1.26,1.19,2.54,1.8,3.83.6,1.29,1.04,2.68,1.58,4.03.26.68.52,1.37.78,2.06.27.69.53,1.38.71,2.11.42,1.43.83,2.88,1.26,4.34.47,1.45.74,2.97,1.06,4.49.3,1.52.66,3.05.91,4.61.19,1.57.39,3.16.58,4.76.09.8.22,1.6.27,2.41.03.81.07,1.63.1,2.45.06,1.64.15,3.29.19,4.96-.06,1.67-.05,3.35-.16,5.04-.22,3.38-.56,6.82-1.18,10.26-1.2,6.88-3.17,13.86-6.13,20.63-2.97,6.75-6.74,13.38-11.51,19.46-.6.76-1.2,1.52-1.8,2.28-.64.73-1.27,1.47-1.91,2.21-.63.75-1.29,1.47-1.98,2.17-.68.71-1.36,1.42-2.04,2.13-2.83,2.74-5.78,5.43-8.99,7.85-12.73,9.78-28.64,16.46-45.62,18.22-16.95,1.76-33.93-1.23-48.44-8.15-14.54-6.88-26.63-17.33-35.19-29.35-8.66-11.98-13.75-25.46-15.85-38.39-1.04-6.48-1.39-12.84-1.03-18.92.32-6.08,1.1-11.9,2.5-17.3.57-2.74,1.51-5.3,2.26-7.84.45-1.25.93-2.46,1.39-3.67.23-.6.46-1.2.69-1.8.24-.59.52-1.16.78-1.73.52-1.14,1.04-2.27,1.55-3.38.52-1.1,1.14-2.14,1.69-3.19.58-1.03,1.07-2.09,1.7-3.05.61-.97,1.21-1.93,1.79-2.86,4.79-7.46,9.99-13.14,14.57-17.35.57-.53,1.11-1.07,1.66-1.55.57-.47,1.11-.93,1.65-1.37,1.07-.87,2.04-1.73,3-2.45,1.95-1.39,3.55-2.65,4.94-3.53,1.38-.87,2.44-1.54,3.16-1.99.71-.45,1.08-.66,1.08-.66Z"/></g></svg>